ISO-10303-21;
HEADER;
FILE_DESCRIPTION(('ViewDefinition [CoordinationView]'),'2;1');
FILE_NAME('','2026-05-09T22:51:11',(''),(''),'IfcOpenShell 0.8.4-e8eb5e4','IfcOpenShell 0.8.4-e8eb5e4','');
FILE_SCHEMA(('IFC4'));
ENDSEC;
DATA;
#1=IFCPROJECT('1xNQyc4_j3nujhcnbKHd_V',$,'Unnamed Project',$,$,$,$,(#11),#6);
#2=IFCSIUNIT(*,.LENGTHUNIT.,.MILLI.,.METRE.);
#3=IFCSIUNIT(*,.AREAUNIT.,$,.SQUARE_METRE.);
#4=IFCSIUNIT(*,.VOLUMEUNIT.,$,.CUBIC_METRE.);
#5=IFCSIUNIT(*,.PLANEANGLEUNIT.,$,.RADIAN.);
#6=IFCUNITASSIGNMENT((#2,#3,#5,#4));
#7=IFCCARTESIANPOINT((0.,0.,0.));
#8=IFCDIRECTION((0.,0.,1.));
#9=IFCDIRECTION((1.,0.,0.));
#10=IFCAXIS2PLACEMENT3D(#7,#8,#9);
#11=IFCGEOMETRICREPRESENTATIONCONTEXT($,'Model',3,1.E-05,#10,$);
#12=IFCGEOMETRICREPRESENTATIONSUBCONTEXT('Body','Model',*,*,*,*,#11,$,.MODEL_VIEW.,$);
#13=IFCCARTESIANPOINT((0.,0.,0.));
#14=IFCDIRECTION((0.,0.,1.));
#15=IFCDIRECTION((1.,0.,0.));
#16=IFCAXIS2PLACEMENT3D(#13,#14,#15);
#17=IFCLOCALPLACEMENT($,#16);
#18=IFCBUILDINGSTOREY('2oo$VB2iPEe8mfQam3Ljct',$,'Storey',$,$,#17,$,$,$,$);
#19=IFCRELAGGREGATES('0zPI47gljEKOKB$bZ9_73Y',$,$,$,#1,(#18));
#20=IFCCARTESIANPOINT((0.,0.,0.));
#21=IFCCARTESIANPOINT((2000.,0.,0.));
#22=IFCPOLYLINE((#20,#21));
#23=IFCCOMPOSITECURVESEGMENT(.CONTSAMEGRADIENT.,.T.,#22);
#24=IFCCARTESIANPOINT((2000.,0.,0.));
#25=IFCCARTESIANPOINT((2000.,2000.,0.));
#26=IFCPOLYLINE((#24,#25));
#27=IFCCOMPOSITECURVESEGMENT(.CONTSAMEGRADIENT.,.T.,#26);
#28=IFCCARTESIANPOINT((2000.,2000.,0.));
#29=IFCCARTESIANPOINT((0.,2000.,0.));
#30=IFCPOLYLINE((#28,#29));
#31=IFCCOMPOSITECURVESEGMENT(.CONTSAMEGRADIENT.,.T.,#30);
#32=IFCCARTESIANPOINT((0.,2000.,0.));
#33=IFCCARTESIANPOINT((0.,0.,0.));
#34=IFCPOLYLINE((#32,#33));
#35=IFCCOMPOSITECURVESEGMENT(.DISCONTINUOUS.,.T.,#34);
#36=IFCCOMPOSITECURVE((#23,#27,#31,#35),.F.);
#37=IFCCARTESIANPOINT((30.,0.));
#38=IFCAXIS2PLACEMENT2D(#37,$);
#39=IFCCSHAPEPROFILEDEF(.AREA.,$,#38,150.,60.,6.,20.,$);
#40=IFCCARTESIANPOINT((30.,0.));
#41=IFCAXIS2PLACEMENT2D(#40,$);
#42=IFCCSHAPEPROFILEDEF(.AREA.,$,#41,150.,60.,6.,20.,$);
#43=IFCCARTESIANPOINT((30.,0.));
#44=IFCAXIS2PLACEMENT2D(#43,$);
#45=IFCCSHAPEPROFILEDEF(.AREA.,$,#44,150.,60.,6.,20.,$);
#46=IFCCARTESIANPOINT((0.,0.));
#47=IFCCARTESIANTRANSFORMATIONOPERATOR2D($,$,#46,$);
#48=IFCCARTESIANTRANSFORMATIONOPERATOR2DNONUNIFORM($,$,#46,$,1.);
#49=IFCDERIVEDPROFILEDEF($,$,#45,#48,$);
#50=IFCCARTESIANPOINT((30.,0.));
#51=IFCAXIS2PLACEMENT2D(#50,$);
#52=IFCCSHAPEPROFILEDEF(.AREA.,$,#51,150.,60.,6.,20.,$);
#53=IFCCARTESIANPOINT((30.,0.));
#54=IFCAXIS2PLACEMENT2D(#53,$);
#55=IFCCSHAPEPROFILEDEF(.AREA.,$,#54,150.,60.,6.,20.,$);
#56=IFCCARTESIANPOINT((30.,0.));
#57=IFCAXIS2PLACEMENT2D(#56,$);
#58=IFCCSHAPEPROFILEDEF(.AREA.,$,#57,150.,60.,6.,20.,$);
#59=IFCCARTESIANPOINT((30.,0.));
#60=IFCAXIS2PLACEMENT2D(#59,$);
#61=IFCCSHAPEPROFILEDEF(.AREA.,$,#60,150.,60.,6.,20.,$);
#62=IFCCARTESIANPOINT((0.,0.));
#63=IFCCARTESIANTRANSFORMATIONOPERATOR2D($,$,#62,$);
#64=IFCCARTESIANTRANSFORMATIONOPERATOR2DNONUNIFORM($,$,#62,$,1.);
#65=IFCDERIVEDPROFILEDEF($,$,#61,#64,$);
#66=IFCCARTESIANPOINT((30.,0.));
#67=IFCAXIS2PLACEMENT2D(#66,$);
#68=IFCCSHAPEPROFILEDEF(.AREA.,$,#67,150.,60.,6.,20.,$);
#69=IFCCARTESIANPOINT((30.,0.));
#70=IFCAXIS2PLACEMENT2D(#69,$);
#71=IFCCSHAPEPROFILEDEF(.AREA.,$,#70,150.,60.,6.,20.,$);
#72=IFCCARTESIANPOINT((30.,0.));
#73=IFCAXIS2PLACEMENT2D(#72,$);
#74=IFCCSHAPEPROFILEDEF(.AREA.,$,#73,150.,60.,6.,20.,$);
#75=IFCCARTESIANPOINT((30.,0.));
#76=IFCAXIS2PLACEMENT2D(#75,$);
#77=IFCCSHAPEPROFILEDEF(.AREA.,$,#76,150.,60.,6.,20.,$);
#78=IFCCARTESIANPOINT((0.,0.));
#79=IFCCARTESIANTRANSFORMATIONOPERATOR2D($,$,#78,$);
#80=IFCCARTESIANTRANSFORMATIONOPERATOR2DNONUNIFORM($,$,#78,$,1.);
#81=IFCDERIVEDPROFILEDEF($,$,#77,#80,$);
#82=IFCCARTESIANPOINT((30.,0.));
#83=IFCAXIS2PLACEMENT2D(#82,$);
#84=IFCCSHAPEPROFILEDEF(.AREA.,$,#83,150.,60.,6.,20.,$);
#85=IFCCARTESIANPOINT((30.,0.));
#86=IFCAXIS2PLACEMENT2D(#85,$);
#87=IFCCSHAPEPROFILEDEF(.AREA.,$,#86,150.,60.,6.,20.,$);
#88=IFCCARTESIANPOINT((30.,0.));
#89=IFCAXIS2PLACEMENT2D(#88,$);
#90=IFCCSHAPEPROFILEDEF(.AREA.,$,#89,150.,60.,6.,20.,$);
#91=IFCCARTESIANPOINT((30.,0.));
#92=IFCAXIS2PLACEMENT2D(#91,$);
#93=IFCCSHAPEPROFILEDEF(.AREA.,$,#92,150.,60.,6.,20.,$);
#94=IFCCARTESIANPOINT((0.,0.));
#95=IFCCARTESIANTRANSFORMATIONOPERATOR2D($,$,#94,$);
#96=IFCCARTESIANTRANSFORMATIONOPERATOR2DNONUNIFORM($,$,#94,$,1.);
#97=IFCDERIVEDPROFILEDEF($,$,#93,#96,$);
#98=IFCCARTESIANPOINT((30.,0.));
#99=IFCAXIS2PLACEMENT2D(#98,$);
#100=IFCCSHAPEPROFILEDEF(.AREA.,$,#99,150.,60.,6.,20.,$);
#101=IFCCARTESIANPOINT((30.,0.));
#102=IFCAXIS2PLACEMENT2D(#101,$);
#103=IFCCSHAPEPROFILEDEF(.AREA.,$,#102,150.,60.,6.,20.,$);
#104=IFCCARTESIANPOINT((1000.,0.,0.));
#105=IFCDIRECTION((1.,0.,0.));
#106=IFCDIRECTION((0.,1.,0.));
#107=IFCAXIS2PLACEMENT3D(#104,#105,#106);
#108=IFCCARTESIANPOINT((2000.,0.,0.));
#109=IFCDIRECTION((0.7071,0.7071,-0.));
#110=IFCDIRECTION((-0.7071,0.7071,0.));
#111=IFCAXIS2PLACEMENT3D(#108,#109,#110);
#112=IFCCARTESIANPOINT((2000.,0.,0.));
#113=IFCDIRECTION((0.7071,0.7071,-0.));
#114=IFCDIRECTION((-0.7071,0.7071,0.));
#115=IFCAXIS2PLACEMENT3D(#112,#113,#114);
#116=IFCCARTESIANPOINT((2000.,0.,0.));
#117=IFCDIRECTION((0.7071,0.7071,-0.));
#118=IFCDIRECTION((-0.7071,0.7071,0.));
#119=IFCAXIS2PLACEMENT3D(#116,#117,#118);
#120=IFCCARTESIANPOINT((2000.,1000.,0.));
#121=IFCDIRECTION((0.,1.,-0.));
#122=IFCDIRECTION((-1.,0.,0.));
#123=IFCAXIS2PLACEMENT3D(#120,#121,#122);
#124=IFCCARTESIANPOINT((2000.,2000.,0.));
#125=IFCDIRECTION((-0.7071,0.7071,0.));
#126=IFCDIRECTION((-0.7071,-0.7071,0.));
#127=IFCAXIS2PLACEMENT3D(#124,#125,#126);
#128=IFCCARTESIANPOINT((2000.,2000.,0.));
#129=IFCDIRECTION((-0.7071,0.7071,0.));
#130=IFCDIRECTION((-0.7071,-0.7071,0.));
#131=IFCAXIS2PLACEMENT3D(#128,#129,#130);
#132=IFCCARTESIANPOINT((2000.,2000.,0.));
#133=IFCDIRECTION((-0.7071,0.7071,0.));
#134=IFCDIRECTION((-0.7071,-0.7071,0.));
#135=IFCAXIS2PLACEMENT3D(#132,#133,#134);
#136=IFCCARTESIANPOINT((1000.,2000.,0.));
#137=IFCDIRECTION((-1.,0.,0.));
#138=IFCDIRECTION((0.,-1.,0.));
#139=IFCAXIS2PLACEMENT3D(#136,#137,#138);
#140=IFCCARTESIANPOINT((0.,2000.,0.));
#141=IFCDIRECTION((-0.7071,-0.7071,0.));
#142=IFCDIRECTION((0.7071,-0.7071,0.));
#143=IFCAXIS2PLACEMENT3D(#140,#141,#142);
#144=IFCCARTESIANPOINT((0.,2000.,0.));
#145=IFCDIRECTION((-0.7071,-0.7071,0.));
#146=IFCDIRECTION((0.7071,-0.7071,0.));
#147=IFCAXIS2PLACEMENT3D(#144,#145,#146);
#148=IFCCARTESIANPOINT((0.,2000.,0.));
#149=IFCDIRECTION((-0.7071,-0.7071,0.));
#150=IFCDIRECTION((0.7071,-0.7071,0.));
#151=IFCAXIS2PLACEMENT3D(#148,#149,#150);
#152=IFCCARTESIANPOINT((0.,1000.,0.));
#153=IFCDIRECTION((0.,-1.,0.));
#154=IFCDIRECTION((1.,0.,-0.));
#155=IFCAXIS2PLACEMENT3D(#152,#153,#154);
#156=IFCCARTESIANPOINT((0.,0.,0.));
#157=IFCDIRECTION((0.7071,-0.7071,0.));
#158=IFCDIRECTION((0.7071,0.7071,-0.));
#159=IFCAXIS2PLACEMENT3D(#156,#157,#158);
#160=IFCCARTESIANPOINT((0.,0.,0.));
#161=IFCDIRECTION((0.7071,-0.7071,0.));
#162=IFCDIRECTION((0.7071,0.7071,-0.));
#163=IFCAXIS2PLACEMENT3D(#160,#161,#162);
#164=IFCCARTESIANPOINT((0.,0.,0.));
#165=IFCDIRECTION((0.7071,-0.7071,0.));
#166=IFCDIRECTION((0.7071,0.7071,-0.));
#167=IFCAXIS2PLACEMENT3D(#164,#165,#166);
#168=IFCCARTESIANPOINT((1000.,0.,0.));
#169=IFCDIRECTION((1.,0.,0.));
#170=IFCDIRECTION((0.,1.,0.));
#171=IFCAXIS2PLACEMENT3D(#168,#169,#170);
#172=IFCCARTESIANPOINTLIST3D(((1000.,30.,-75.),(1000.,90.,-75.),(1000.,90.,-55.),(1000.,84.,-55.),(1000.,84.,-69.),(1000.,36.,-69.),(1000.,36.,69.),(1000.,84.,69.),(1000.,84.,55.),(1000.,90.,55.),(1000.,90.,75.),(1000.,30.,75.),(1978.7868,21.2132,-75.),(1936.3604,63.6396,-75.),(1936.3604,63.6396,-55.),(1940.603,59.397,-55.),(1940.603,59.397,-69.),(1974.5442,25.4558,-69.),(1974.5442,25.4558,69.),(1940.603,59.397,69.),(1940.603,59.397,55.),(1936.3604,63.6396,55.),(1936.3604,63.6396,75.),(1978.7868,21.2132,75.),(1978.7868,21.2132,-75.),(1936.3604,63.6396,-75.),(1936.3604,63.6396,-55.),(1940.603,59.397,-55.),(1940.603,59.397,-69.),(1974.5442,25.4558,-69.),(1974.5442,25.4558,69.),(1940.603,59.397,69.),(1940.603,59.397,55.),(1936.3604,63.6396,55.),(1936.3604,63.6396,75.),(1978.7868,21.2132,75.),(1978.7868,21.2132,-75.),(1936.3604,63.6396,-75.),(1936.3604,63.6396,-55.),(1940.603,59.397,-55.),(1940.603,59.397,-69.),(1974.5442,25.4558,-69.),(1974.5442,25.4558,69.),(1940.603,59.397,69.),(1940.603,59.397,55.),(1936.3604,63.6396,55.),(1936.3604,63.6396,75.),(1978.7868,21.2132,75.),(1970.,1000.,-75.),(1910.,1000.,-75.),(1910.,1000.,-55.),(1916.,1000.,-55.),(1916.,1000.,-69.),(1964.,1000.,-69.),(1964.,1000.,69.),(1916.,1000.,69.),(1916.,1000.,55.),(1910.,1000.,55.),(1910.,1000.,75.),(1970.,1000.,75.),(1978.7868,1978.7868,-75.),(1936.3604,1936.3604,-75.),(1936.3604,1936.3604,-55.),(1940.603,1940.603,-55.),(1940.603,1940.603,-69.),(1974.5442,1974.5442,-69.),(1974.5442,1974.5442,69.),(1940.603,1940.603,69.),(1940.603,1940.603,55.),(1936.3604,1936.3604,55.),(1936.3604,1936.3604,75.),(1978.7868,1978.7868,75.),(1978.7868,1978.7868,-75.),(1936.3604,1936.3604,-75.),(1936.3604,1936.3604,-55.),(1940.603,1940.603,-55.),(1940.603,1940.603,-69.),(1974.5442,1974.5442,-69.),(1974.5442,1974.5442,69.),(1940.603,1940.603,69.),(1940.603,1940.603,55.),(1936.3604,1936.3604,55.),(1936.3604,1936.3604,75.),(1978.7868,1978.7868,75.),(1978.7868,1978.7868,-75.),(1936.3604,1936.3604,-75.),(1936.3604,1936.3604,-55.),(1940.603,1940.603,-55.),(1940.603,1940.603,-69.),(1974.5442,1974.5442,-69.),(1974.5442,1974.5442,69.),(1940.603,1940.603,69.),(1940.603,1940.603,55.),(1936.3604,1936.3604,55.),(1936.3604,1936.3604,75.),(1978.7868,1978.7868,75.),(1000.,1970.,-75.),(1000.,1910.,-75.),(1000.,1910.,-55.),(1000.,1916.,-55.),(1000.,1916.,-69.),(1000.,1964.,-69.),(1000.,1964.,69.),(1000.,1916.,69.),(1000.,1916.,55.),(1000.,1910.,55.),(1000.,1910.,75.),(1000.,1970.,75.),(21.2132,1978.7868,-75.),(63.6396,1936.3604,-75.),(63.6396,1936.3604,-55.),(59.397,1940.603,-55.),(59.397,1940.603,-69.),(25.4558,1974.5442,-69.),(25.4558,1974.5442,69.),(59.397,1940.603,69.),(59.397,1940.603,55.),(63.6396,1936.3604,55.),(63.6396,1936.3604,75.),(21.2132,1978.7868,75.),(21.2132,1978.7868,-75.),(63.6396,1936.3604,-75.),(63.6396,1936.3604,-55.),(59.397,1940.603,-55.),(59.397,1940.603,-69.),(25.4558,1974.5442,-69.),(25.4558,1974.5442,69.),(59.397,1940.603,69.),(59.397,1940.603,55.),(63.6396,1936.3604,55.),(63.6396,1936.3604,75.),(21.2132,1978.7868,75.),(21.2132,1978.7868,-75.),(63.6396,1936.3604,-75.),(63.6396,1936.3604,-55.),(59.397,1940.603,-55.),(59.397,1940.603,-69.),(25.4558,1974.5442,-69.),(25.4558,1974.5442,69.),(59.397,1940.603,69.),(59.397,1940.603,55.),(63.6396,1936.3604,55.),(63.6396,1936.3604,75.),(21.2132,1978.7868,75.),(30.,1000.,-75.),(90.,1000.,-75.),(90.,1000.,-55.),(84.,1000.,-55.),(84.,1000.,-69.),(36.,1000.,-69.),(36.,1000.,69.),(84.,1000.,69.),(84.,1000.,55.),(90.,1000.,55.),(90.,1000.,75.),(30.,1000.,75.),(21.2132,21.2132,-75.),(63.6396,63.6396,-75.),(63.6396,63.6396,-55.),(59.397,59.397,-55.),(59.397,59.397,-69.),(25.4558,25.4558,-69.),(25.4558,25.4558,69.),(59.397,59.397,69.),(59.397,59.397,55.),(63.6396,63.6396,55.),(63.6396,63.6396,75.),(21.2132,21.2132,75.),(21.2132,21.2132,-75.),(63.6396,63.6396,-75.),(63.6396,63.6396,-55.),(59.397,59.397,-55.),(59.397,59.397,-69.),(25.4558,25.4558,-69.),(25.4558,25.4558,69.),(59.397,59.397,69.),(59.397,59.397,55.),(63.6396,63.6396,55.),(63.6396,63.6396,75.),(21.2132,21.2132,75.),(21.2132,21.2132,-75.),(63.6396,63.6396,-75.),(63.6396,63.6396,-55.),(59.397,59.397,-55.),(59.397,59.397,-69.),(25.4558,25.4558,-69.),(25.4558,25.4558,69.),(59.397,59.397,69.),(59.397,59.397,55.),(63.6396,63.6396,55.),(63.6396,63.6396,75.),(21.2132,21.2132,75.),(1000.,30.,-75.),(1000.,90.,-75.),(1000.,90.,-55.),(1000.,84.,-55.),(1000.,84.,-69.),(1000.,36.,-69.),(1000.,36.,69.),(1000.,84.,69.),(1000.,84.,55.),(1000.,90.,55.),(1000.,90.,75.),(1000.,30.,75.)));
#173=IFCTRIANGULATEDFACESET(#172,$,.T.,((1,2,14),(1,14,13),(2,3,15),(2,15,14),(3,4,16),(3,16,15),(4,5,17),(4,17,16),(5,6,18),(5,18,17),(6,7,19),(6,19,18),(7,8,20),(7,20,19),(8,9,21),(8,21,20),(9,10,22),(9,22,21),(10,11,23),(10,23,22),(11,12,24),(11,24,23),(12,1,13),(12,13,24),(13,14,26),(13,26,25),(14,15,27),(14,27,26),(15,16,28),(15,28,27),(16,17,29),(16,29,28),(17,18,30),(17,30,29),(18,19,31),(18,31,30),(19,20,32),(19,32,31),(20,21,33),(20,33,32),(21,22,34),(21,34,33),(22,23,35),(22,35,34),(23,24,36),(23,36,35),(24,13,25),(24,25,36),(25,26,38),(25,38,37),(26,27,39),(26,39,38),(27,28,40),(27,40,39),(28,29,41),(28,41,40),(29,30,42),(29,42,41),(30,31,43),(30,43,42),(31,32,44),(31,44,43),(32,33,45),(32,45,44),(33,34,46),(33,46,45),(34,35,47),(34,47,46),(35,36,48),(35,48,47),(36,25,37),(36,37,48),(37,38,50),(37,50,49),(38,39,51),(38,51,50),(39,40,52),(39,52,51),(40,41,53),(40,53,52),(41,42,54),(41,54,53),(42,43,55),(42,55,54),(43,44,56),(43,56,55),(44,45,57),(44,57,56),(45,46,58),(45,58,57),(46,47,59),(46,59,58),(47,48,60),(47,60,59),(48,37,49),(48,49,60),(49,50,62),(49,62,61),(50,51,63),(50,63,62),(51,52,64),(51,64,63),(52,53,65),(52,65,64),(53,54,66),(53,66,65),(54,55,67),(54,67,66),(55,56,68),(55,68,67),(56,57,69),(56,69,68),(57,58,70),(57,70,69),(58,59,71),(58,71,70),(59,60,72),(59,72,71),(60,49,61),(60,61,72),(61,62,74),(61,74,73),(62,63,75),(62,75,74),(63,64,76),(63,76,75),(64,65,77),(64,77,76),(65,66,78),(65,78,77),(66,67,79),(66,79,78),(67,68,80),(67,80,79),(68,69,81),(68,81,80),(69,70,82),(69,82,81),(70,71,83),(70,83,82),(71,72,84),(71,84,83),(72,61,73),(72,73,84),(73,74,86),(73,86,85),(74,75,87),(74,87,86),(75,76,88),(75,88,87),(76,77,89),(76,89,88),(77,78,90),(77,90,89),(78,79,91),(78,91,90),(79,80,92),(79,92,91),(80,81,93),(80,93,92),(81,82,94),(81,94,93),(82,83,95),(82,95,94),(83,84,96),(83,96,95),(84,73,85),(84,85,96),(85,86,98),(85,98,97),(86,87,99),(86,99,98),(87,88,100),(87,100,99),(88,89,101),(88,101,100),(89,90,102),(89,102,101),(90,91,103),(90,103,102),(91,92,104),(91,104,103),(92,93,105),(92,105,104),(93,94,106),(93,106,105),(94,95,107),(94,107,106),(95,96,108),(95,108,107),(96,85,97),(96,97,108),(97,98,110),(97,110,109),(98,99,111),(98,111,110),(99,100,112),(99,112,111),(100,101,113),(100,113,112),(101,102,114),(101,114,113),(102,103,115),(102,115,114),(103,104,116),(103,116,115),(104,105,117),(104,117,116),(105,106,118),(105,118,117),(106,107,119),(106,119,118),(107,108,120),(107,120,119),(108,97,109),(108,109,120),(109,110,122),(109,122,121),(110,111,123),(110,123,122),(111,112,124),(111,124,123),(112,113,125),(112,125,124),(113,114,126),(113,126,125),(114,115,127),(114,127,126),(115,116,128),(115,128,127),(116,117,129),(116,129,128),(117,118,130),(117,130,129),(118,119,131),(118,131,130),(119,120,132),(119,132,131),(120,109,121),(120,121,132),(121,122,134),(121,134,133),(122,123,135),(122,135,134),(123,124,136),(123,136,135),(124,125,137),(124,137,136),(125,126,138),(125,138,137),(126,127,139),(126,139,138),(127,128,140),(127,140,139),(128,129,141),(128,141,140),(129,130,142),(129,142,141),(130,131,143),(130,143,142),(131,132,144),(131,144,143),(132,121,133),(132,133,144),(133,134,146),(133,146,145),(134,135,147),(134,147,146),(135,136,148),(135,148,147),(136,137,149),(136,149,148),(137,138,150),(137,150,149),(138,139,151),(138,151,150),(139,140,152),(139,152,151),(140,141,153),(140,153,152),(141,142,154),(141,154,153),(142,143,155),(142,155,154),(143,144,156),(143,156,155),(144,133,145),(144,145,156),(145,146,158),(145,158,157),(146,147,159),(146,159,158),(147,148,160),(147,160,159),(148,149,161),(148,161,160),(149,150,162),(149,162,161),(150,151,163),(150,163,162),(151,152,164),(151,164,163),(152,153,165),(152,165,164),(153,154,166),(153,166,165),(154,155,167),(154,167,166),(155,156,168),(155,168,167),(156,145,157),(156,157,168),(157,158,170),(157,170,169),(158,159,171),(158,171,170),(159,160,172),(159,172,171),(160,161,173),(160,173,172),(161,162,174),(161,174,173),(162,163,175),(162,175,174),(163,164,176),(163,176,175),(164,165,177),(164,177,176),(165,166,178),(165,178,177),(166,167,179),(166,179,178),(167,168,180),(167,180,179),(168,157,169),(168,169,180),(169,170,182),(169,182,181),(170,171,183),(170,183,182),(171,172,184),(171,184,183),(172,173,185),(172,185,184),(173,174,186),(173,186,185),(174,175,187),(174,187,186),(175,176,188),(175,188,187),(176,177,189),(176,189,188),(177,178,190),(177,190,189),(178,179,191),(178,191,190),(179,180,192),(179,192,191),(180,169,181),(180,181,192),(181,182,194),(181,194,193),(182,183,195),(182,195,194),(183,184,196),(183,196,195),(184,185,197),(184,197,196),(185,186,198),(185,198,197),(186,187,199),(186,199,198),(187,188,200),(187,200,199),(188,189,201),(188,201,200),(189,190,202),(189,202,201),(190,191,203),(190,203,202),(191,192,204),(191,204,203),(192,181,193),(192,193,204)),$);
#174=IFCSHAPEREPRESENTATION(#12,'Body','Tessellation',(#173));
#175=IFCCARTESIANPOINT((0.,0.,0.));
#176=IFCDIRECTION((0.,0.,1.));
#177=IFCDIRECTION((1.,0.,0.));
#178=IFCAXIS2PLACEMENT3D(#175,#176,#177);
#179=IFCLOCALPLACEMENT(#17,#178);
#180=IFCPRODUCTDEFINITIONSHAPE($,$,(#174));
#181=IFCBUILDINGELEMENTPROXY('0n2aCFN219Ye_JcQmwh_Ji',$,'closed_rect_channel',$,$,#179,#180,$,$);
#182=IFCRELCONTAINEDINSPATIALSTRUCTURE('3lnJQ05e15h9hlPHqS$g3K',$,$,$,(#181),#18);
#183=IFCCOLOURRGB($,0.501960784313725,0.501960784313725,0.501960784313725);
#184=IFCSURFACESTYLERENDERING(#183,0.,$,$,$,$,$,$,.FLAT.);
#185=IFCSURFACESTYLE($,.BOTH.,(#184));
#186=IFCSTYLEDITEM(#173,(#185),$);
ENDSEC;
END-ISO-10303-21;
