ISO-10303-21;
HEADER;
FILE_DESCRIPTION(('ViewDefinition [CoordinationView]'),'2;1');
FILE_NAME('','2026-06-06T12:07:44',(''),(''),'IfcOpenShell 0.8.5-1c5b825','IfcOpenShell 0.8.5-1c5b825','');
FILE_SCHEMA(('IFC4'));
ENDSEC;
DATA;
#1=IFCPROJECT('0tvgioZCj9Zh8ioG87prPr',$,'Unnamed Project',$,$,$,$,(#11),#6);
#2=IFCSIUNIT(*,.LENGTHUNIT.,.MILLI.,.METRE.);
#3=IFCSIUNIT(*,.AREAUNIT.,$,.SQUARE_METRE.);
#4=IFCSIUNIT(*,.VOLUMEUNIT.,$,.CUBIC_METRE.);
#5=IFCSIUNIT(*,.PLANEANGLEUNIT.,$,.RADIAN.);
#6=IFCUNITASSIGNMENT((#3,#5,#4,#2));
#7=IFCCARTESIANPOINT((0.,0.,0.));
#8=IFCDIRECTION((0.,0.,1.));
#9=IFCDIRECTION((1.,0.,0.));
#10=IFCAXIS2PLACEMENT3D(#7,#8,#9);
#11=IFCGEOMETRICREPRESENTATIONCONTEXT($,'Model',3,1.0000000000000001E-05,#10,$);
#12=IFCGEOMETRICREPRESENTATIONSUBCONTEXT('Body','Model',*,*,*,*,#11,$,.MODEL_VIEW.,$);
#13=IFCCARTESIANPOINT((0.,0.,0.));
#14=IFCDIRECTION((0.,0.,1.));
#15=IFCDIRECTION((1.,0.,0.));
#16=IFCAXIS2PLACEMENT3D(#13,#14,#15);
#17=IFCLOCALPLACEMENT($,#16);
#18=IFCBUILDINGSTOREY('0n45ZhnnPFxAiUNfl7KtUA',$,'Storey',$,$,#17,$,$,$,$);
#19=IFCRELAGGREGATES('3MJ6lAWfn0Kv8Nz6CImrzy',$,$,$,#1,(#18));
#20=IFCCARTESIANPOINT((0.,0.,0.));
#21=IFCCARTESIANPOINT((4000.,0.,0.));
#22=IFCPOLYLINE((#20,#21));
#23=IFCCOMPOSITECURVESEGMENT(.CONTSAMEGRADIENT.,.T.,#22);
#24=IFCCARTESIANPOINT((4000.,0.,0.));
#25=IFCCARTESIANPOINT((4000.,0.,2000.));
#26=IFCPOLYLINE((#24,#25));
#27=IFCCOMPOSITECURVESEGMENT(.CONTSAMEGRADIENT.,.T.,#26);
#28=IFCCARTESIANPOINT((4000.,0.,2000.));
#29=IFCCARTESIANPOINT((4000.,3000.,2000.));
#30=IFCPOLYLINE((#28,#29));
#31=IFCCOMPOSITECURVESEGMENT(.CONTSAMEGRADIENT.,.T.,#30);
#32=IFCCARTESIANPOINT((4000.,3000.,2000.));
#33=IFCCARTESIANPOINT((4000.,3000.,3000.));
#34=IFCPOLYLINE((#32,#33));
#35=IFCCOMPOSITECURVESEGMENT(.CONTSAMEGRADIENT.,.T.,#34);
#36=IFCCARTESIANPOINT((4000.,3000.,3000.));
#37=IFCCARTESIANPOINT((0.,3000.,3000.));
#38=IFCPOLYLINE((#36,#37));
#39=IFCCOMPOSITECURVESEGMENT(.CONTSAMEGRADIENT.,.T.,#38);
#40=IFCCARTESIANPOINT((0.,3000.,3000.));
#41=IFCCARTESIANPOINT((0.,3000.,0.));
#42=IFCPOLYLINE((#40,#41));
#43=IFCCOMPOSITECURVESEGMENT(.DISCONTINUOUS.,.T.,#42);
#44=IFCCOMPOSITECURVE((#23,#27,#31,#35,#39,#43),.F.);
#45=IFCCARTESIANPOINT((0.,100.));
#46=IFCAXIS2PLACEMENT2D(#45,$);
#47=IFCISHAPEPROFILEDEF(.AREA.,'I-Profile',#46,100.,200.,7.,12.,$,$,$);
#48=IFCCARTESIANPOINT((0.,100.));
#49=IFCAXIS2PLACEMENT2D(#48,$);
#50=IFCISHAPEPROFILEDEF(.AREA.,'I-Profile',#49,100.,200.,7.,12.,$,$,$);
#51=IFCCARTESIANPOINT((0.,0.));
#52=IFCCARTESIANTRANSFORMATIONOPERATOR2DNONUNIFORM($,$,#51,1.,1.4142135623730951);
#53=IFCDERIVEDPROFILEDEF($,$,#50,#52,$);
#54=IFCCARTESIANPOINT((0.,100.));
#55=IFCAXIS2PLACEMENT2D(#54,$);
#56=IFCISHAPEPROFILEDEF(.AREA.,'I-Profile',#55,100.,200.,7.,12.,$,$,$);
#57=IFCCARTESIANPOINT((0.,0.));
#58=IFCCARTESIANTRANSFORMATIONOPERATOR2DNONUNIFORM($,$,#57,1.4142135623730951,1.);
#59=IFCDERIVEDPROFILEDEF($,$,#56,#58,$);
#60=IFCCARTESIANPOINT((0.,100.));
#61=IFCAXIS2PLACEMENT2D(#60,$);
#62=IFCISHAPEPROFILEDEF(.AREA.,'I-Profile',#61,100.,200.,7.,12.,$,$,$);
#63=IFCCARTESIANPOINT((0.,0.));
#64=IFCCARTESIANTRANSFORMATIONOPERATOR2DNONUNIFORM($,$,#63,1.4142135623730951,1.);
#65=IFCDERIVEDPROFILEDEF($,$,#62,#64,$);
#66=IFCCARTESIANPOINT((0.,100.));
#67=IFCAXIS2PLACEMENT2D(#66,$);
#68=IFCISHAPEPROFILEDEF(.AREA.,'I-Profile',#67,100.,200.,7.,12.,$,$,$);
#69=IFCCARTESIANPOINT((0.,0.));
#70=IFCCARTESIANTRANSFORMATIONOPERATOR2DNONUNIFORM($,$,#69,1.,1.4142135623730951);
#71=IFCDERIVEDPROFILEDEF($,$,#68,#70,$);
#72=IFCCARTESIANPOINT((0.,100.));
#73=IFCAXIS2PLACEMENT2D(#72,$);
#74=IFCISHAPEPROFILEDEF(.AREA.,'I-Profile',#73,100.,200.,7.,12.,$,$,$);
#75=IFCCARTESIANPOINT((0.,0.));
#76=IFCCARTESIANTRANSFORMATIONOPERATOR2DNONUNIFORM($,$,#75,1.,1.4142135623730951);
#77=IFCDERIVEDPROFILEDEF($,$,#74,#76,$);
#78=IFCCARTESIANPOINT((0.,100.));
#79=IFCAXIS2PLACEMENT2D(#78,$);
#80=IFCISHAPEPROFILEDEF(.AREA.,'I-Profile',#79,100.,200.,7.,12.,$,$,$);
#81=IFCCARTESIANPOINT((0.,0.,0.));
#82=IFCDIRECTION((1.,0.,0.));
#83=IFCDIRECTION((0.,1.,0.));
#84=IFCAXIS2PLACEMENT3D(#81,#82,#83);
#85=IFCCARTESIANPOINT((4000.,0.,0.));
#86=IFCDIRECTION((0.70709999999999995,0.,0.70709999999999995));
#87=IFCDIRECTION((0.,1.,-0.));
#88=IFCAXIS2PLACEMENT3D(#85,#86,#87);
#89=IFCCARTESIANPOINT((4000.,0.,2000.));
#90=IFCDIRECTION((0.,0.70709999999999995,0.70709999999999995));
#91=IFCDIRECTION((-0.,0.70709999999999995,-0.70709999999999995));
#92=IFCAXIS2PLACEMENT3D(#89,#90,#91);
#93=IFCCARTESIANPOINT((4000.,3000.,2000.));
#94=IFCDIRECTION((0.,0.70709999999999995,0.70709999999999995));
#95=IFCDIRECTION((-0.,0.70709999999999995,-0.70709999999999995));
#96=IFCAXIS2PLACEMENT3D(#93,#94,#95);
#97=IFCCARTESIANPOINT((4000.,3000.,3000.));
#98=IFCDIRECTION((-0.70709999999999995,0.,0.70709999999999995));
#99=IFCDIRECTION((-0.,1.,-0.));
#100=IFCAXIS2PLACEMENT3D(#97,#98,#99);
#101=IFCCARTESIANPOINT((0.,3000.,3000.));
#102=IFCDIRECTION((-0.70709999999999995,0.,-0.70709999999999995));
#103=IFCDIRECTION((0.,1.,-0.));
#104=IFCAXIS2PLACEMENT3D(#101,#102,#103);
#105=IFCCARTESIANPOINT((0.,3000.,0.));
#106=IFCDIRECTION((0.,0.,-1.));
#107=IFCDIRECTION((0.,1.,0.));
#108=IFCAXIS2PLACEMENT3D(#105,#106,#107);
#109=IFCCARTESIANPOINTLIST3D(((0.,-50.,0.),(0.,50.,0.),(0.,50.,12.),(0.,3.5,12.),(0.,3.5,188.),(0.,50.,188.),(0.,50.,200.),(0.,-50.,200.),(0.,-50.,188.),(0.,-3.5,188.),(0.,-3.5,12.),(0.,-50.,12.),(4000.,-50.,0.),(4000.,50.,0.),(3988.,50.,12.),(3988.,3.5,12.),(3812.,3.5,188.),(3812.,50.,188.),(3800.,50.,200.),(3800.,-50.,200.),(3812.,-50.,188.),(3812.,-3.5,188.),(3988.,-3.5,12.),(3988.,-50.,12.),(4000.,-50.,2050.),(4000.,50.,1950.),(3988.,50.,1950.),(3988.,3.5,1996.5),(3812.,3.5,1996.5),(3812.,50.,1950.),(3800.,50.,1950.),(3800.,-50.,2050.),(3812.,-50.,2050.),(3812.,-3.5,2003.5),(3988.,-3.5,2003.5),(3988.,-50.,2050.),(4000.,2950.,2050.),(4000.,3050.,1950.),(3988.,3050.,1950.),(3988.,3003.5,1996.5),(3812.,3003.5,1996.5),(3812.,3050.,1950.),(3800.,3050.,1950.),(3800.,2950.,2050.),(3812.,2950.,2050.),(3812.,2996.5,2003.5),(3988.,2996.5,2003.5),(3988.,2950.,2050.),(4000.,2950.,3000.),(4000.,3050.,3000.),(3988.,3050.,2988.),(3988.,3003.5,2988.),(3812.,3003.5,2812.),(3812.,3050.,2812.),(3800.,3050.,2800.),(3800.,2950.,2800.),(3812.,2950.,2812.),(3812.,2996.5,2812.),(3988.,2996.5,2988.),(3988.,2950.,2988.),(0.,2950.,3000.),(0.,3050.,3000.),(12.,3050.,2988.),(12.,3003.5,2988.),(188.,3003.5,2812.),(188.,3050.,2812.),(200.,3050.,2800.),(200.,2950.,2800.),(188.,2950.,2812.),(188.,2996.5,2812.),(12.,2996.5,2988.),(12.,2950.,2988.),(0.,2950.,0.),(0.,3050.,0.),(12.,3050.,0.),(12.,3003.5,0.),(188.,3003.5,0.),(188.,3050.,0.),(200.,3050.,0.),(200.,2950.,0.),(188.,2950.,0.),(188.,2996.5,0.),(12.,2996.5,0.),(12.,2950.,0.)));
#110=IFCTRIANGULATEDFACESET(#109,$,.F.,((1,2,14),(1,14,13),(2,3,15),(2,15,14),(3,4,16),(3,16,15),(4,5,17),(4,17,16),(5,6,18),(5,18,17),(6,7,19),(6,19,18),(7,8,20),(7,20,19),(8,9,21),(8,21,20),(9,10,22),(9,22,21),(10,11,23),(10,23,22),(11,12,24),(11,24,23),(12,1,13),(12,13,24),(13,14,26),(13,26,25),(14,15,27),(14,27,26),(15,16,28),(15,28,27),(16,17,29),(16,29,28),(17,18,30),(17,30,29),(18,19,31),(18,31,30),(19,20,32),(19,32,31),(20,21,33),(20,33,32),(21,22,34),(21,34,33),(22,23,35),(22,35,34),(23,24,36),(23,36,35),(24,13,25),(24,25,36),(25,26,38),(25,38,37),(26,27,39),(26,39,38),(27,28,40),(27,40,39),(28,29,41),(28,41,40),(29,30,42),(29,42,41),(30,31,43),(30,43,42),(31,32,44),(31,44,43),(32,33,45),(32,45,44),(33,34,46),(33,46,45),(34,35,47),(34,47,46),(35,36,48),(35,48,47),(36,25,37),(36,37,48),(37,38,50),(37,50,49),(38,39,51),(38,51,50),(39,40,52),(39,52,51),(40,41,53),(40,53,52),(41,42,54),(41,54,53),(42,43,55),(42,55,54),(43,44,56),(43,56,55),(44,45,57),(44,57,56),(45,46,58),(45,58,57),(46,47,59),(46,59,58),(47,48,60),(47,60,59),(48,37,49),(48,49,60),(49,50,62),(49,62,61),(50,51,63),(50,63,62),(51,52,64),(51,64,63),(52,53,65),(52,65,64),(53,54,66),(53,66,65),(54,55,67),(54,67,66),(55,56,68),(55,68,67),(56,57,69),(56,69,68),(57,58,70),(57,70,69),(58,59,71),(58,71,70),(59,60,72),(59,72,71),(60,49,61),(60,61,72),(61,62,74),(61,74,73),(62,63,75),(62,75,74),(63,64,76),(63,76,75),(64,65,77),(64,77,76),(65,66,78),(65,78,77),(66,67,79),(66,79,78),(67,68,80),(67,80,79),(68,69,81),(68,81,80),(69,70,82),(69,82,81),(70,71,83),(70,83,82),(71,72,84),(71,84,83),(72,61,73),(72,73,84),(2,1,12),(4,3,2),(7,6,5),(8,7,5),(10,9,8),(2,12,11),(4,2,11),(5,4,11),(10,8,5),(11,10,5),(84,73,74),(74,75,76),(77,78,79),(77,79,80),(80,81,82),(83,84,74),(83,74,76),(83,76,77),(77,80,82),(77,82,83)),$);
#111=IFCSHAPEREPRESENTATION(#12,'Body','Tessellation',(#110));
#112=IFCCARTESIANPOINT((0.,0.,0.));
#113=IFCDIRECTION((0.,0.,1.));
#114=IFCDIRECTION((1.,0.,0.));
#115=IFCAXIS2PLACEMENT3D(#112,#113,#114);
#116=IFCLOCALPLACEMENT(#17,#115);
#117=IFCPRODUCTDEFINITIONSHAPE($,$,(#111));
#118=IFCBUILDINGELEMENTPROXY('2oDGO6DXH4teD9fdyoLOQ7',$,'closed_3d_ibeam',$,$,#116,#117,$,$);
#119=IFCRELCONTAINEDINSPATIALSTRUCTURE('3iM6tSBLT4UPjQHBhKP8ai',$,$,$,(#118),#18);
#120=IFCCOLOURRGB($,0.50196078431372548,0.50196078431372548,0.50196078431372548);
#121=IFCSURFACESTYLERENDERING(#120,0.,$,$,$,$,$,$,.FLAT.);
#122=IFCSURFACESTYLE($,.BOTH.,(#121));
#123=IFCSTYLEDITEM(#110,(#122),$);
ENDSEC;
END-ISO-10303-21;
