ISO-10303-21;
HEADER;
FILE_DESCRIPTION(('ViewDefinition [CoordinationView]'),'2;1');
FILE_NAME('','2026-05-09T21:36:47',(''),(''),'IfcOpenShell 0.8.4-e8eb5e4','IfcOpenShell 0.8.4-e8eb5e4','');
FILE_SCHEMA(('IFC4'));
ENDSEC;
DATA;
#1=IFCPROJECT('0DkosEVTbACQdM7$AH4ijj',$,'Unnamed Project',$,$,$,$,(#11),#6);
#2=IFCSIUNIT(*,.LENGTHUNIT.,.MILLI.,.METRE.);
#3=IFCSIUNIT(*,.AREAUNIT.,$,.SQUARE_METRE.);
#4=IFCSIUNIT(*,.VOLUMEUNIT.,$,.CUBIC_METRE.);
#5=IFCSIUNIT(*,.PLANEANGLEUNIT.,$,.RADIAN.);
#6=IFCUNITASSIGNMENT((#3,#4,#2,#5));
#7=IFCCARTESIANPOINT((0.,0.,0.));
#8=IFCDIRECTION((0.,0.,1.));
#9=IFCDIRECTION((1.,0.,0.));
#10=IFCAXIS2PLACEMENT3D(#7,#8,#9);
#11=IFCGEOMETRICREPRESENTATIONCONTEXT($,'Model',3,1.E-05,#10,$);
#12=IFCGEOMETRICREPRESENTATIONSUBCONTEXT('Body','Model',*,*,*,*,#11,$,.MODEL_VIEW.,$);
#13=IFCCARTESIANPOINT((0.,0.,0.));
#14=IFCDIRECTION((0.,0.,1.));
#15=IFCDIRECTION((1.,0.,0.));
#16=IFCAXIS2PLACEMENT3D(#13,#14,#15);
#17=IFCLOCALPLACEMENT($,#16);
#18=IFCBUILDINGSTOREY('3zrtncyCv6W8Jmh23DKUmM',$,'Storey',$,$,#17,$,$,$,$);
#19=IFCRELAGGREGATES('1iH38FtVbFwg2p4YQ8VfVO',$,$,$,#1,(#18));
#20=IFCCARTESIANPOINT((0.,0.,0.));
#21=IFCCARTESIANPOINT((4000.,0.,0.));
#22=IFCPOLYLINE((#20,#21));
#23=IFCCOMPOSITECURVESEGMENT(.CONTSAMEGRADIENT.,.T.,#22);
#24=IFCCARTESIANPOINT((4000.,0.,0.));
#25=IFCCARTESIANPOINT((4000.,3000.,0.));
#26=IFCPOLYLINE((#24,#25));
#27=IFCCOMPOSITECURVESEGMENT(.CONTSAMEGRADIENT.,.T.,#26);
#28=IFCCARTESIANPOINT((4000.,3000.,0.));
#29=IFCCARTESIANPOINT((0.,3000.,0.));
#30=IFCPOLYLINE((#28,#29));
#31=IFCCOMPOSITECURVESEGMENT(.CONTSAMEGRADIENT.,.T.,#30);
#32=IFCCARTESIANPOINT((0.,3000.,0.));
#33=IFCCARTESIANPOINT((0.,0.,0.));
#34=IFCPOLYLINE((#32,#33));
#35=IFCCOMPOSITECURVESEGMENT(.DISCONTINUOUS.,.T.,#34);
#36=IFCCOMPOSITECURVE((#23,#27,#31,#35),.F.);
#37=IFCCARTESIANPOINT((0.,100.));
#38=IFCAXIS2PLACEMENT2D(#37,$);
#39=IFCISHAPEPROFILEDEF(.AREA.,'I-Profile',#38,100.,200.,7.,12.,$,$,$);
#40=IFCCARTESIANPOINT((0.,100.));
#41=IFCAXIS2PLACEMENT2D(#40,$);
#42=IFCISHAPEPROFILEDEF(.AREA.,'I-Profile',#41,100.,200.,7.,12.,$,$,$);
#43=IFCCARTESIANPOINT((0.,0.));
#44=IFCCARTESIANTRANSFORMATIONOPERATOR2D($,$,#43,$);
#45=IFCCARTESIANTRANSFORMATIONOPERATOR2DNONUNIFORM($,$,#43,$,1.);
#46=IFCDERIVEDPROFILEDEF($,$,#42,#45,$);
#47=IFCCARTESIANPOINT((0.,100.));
#48=IFCAXIS2PLACEMENT2D(#47,$);
#49=IFCISHAPEPROFILEDEF(.AREA.,'I-Profile',#48,100.,200.,7.,12.,$,$,$);
#50=IFCCARTESIANPOINT((0.,100.));
#51=IFCAXIS2PLACEMENT2D(#50,$);
#52=IFCISHAPEPROFILEDEF(.AREA.,'I-Profile',#51,100.,200.,7.,12.,$,$,$);
#53=IFCCARTESIANPOINT((0.,0.));
#54=IFCCARTESIANTRANSFORMATIONOPERATOR2D($,$,#53,$);
#55=IFCCARTESIANTRANSFORMATIONOPERATOR2DNONUNIFORM($,$,#53,$,1.);
#56=IFCDERIVEDPROFILEDEF($,$,#52,#55,$);
#57=IFCCARTESIANPOINT((0.,100.));
#58=IFCAXIS2PLACEMENT2D(#57,$);
#59=IFCISHAPEPROFILEDEF(.AREA.,'I-Profile',#58,100.,200.,7.,12.,$,$,$);
#60=IFCCARTESIANPOINT((0.,100.));
#61=IFCAXIS2PLACEMENT2D(#60,$);
#62=IFCISHAPEPROFILEDEF(.AREA.,'I-Profile',#61,100.,200.,7.,12.,$,$,$);
#63=IFCCARTESIANPOINT((0.,0.));
#64=IFCCARTESIANTRANSFORMATIONOPERATOR2D($,$,#63,$);
#65=IFCCARTESIANTRANSFORMATIONOPERATOR2DNONUNIFORM($,$,#63,$,1.);
#66=IFCDERIVEDPROFILEDEF($,$,#62,#65,$);
#67=IFCCARTESIANPOINT((0.,100.));
#68=IFCAXIS2PLACEMENT2D(#67,$);
#69=IFCISHAPEPROFILEDEF(.AREA.,'I-Profile',#68,100.,200.,7.,12.,$,$,$);
#70=IFCCARTESIANPOINT((0.,100.));
#71=IFCAXIS2PLACEMENT2D(#70,$);
#72=IFCISHAPEPROFILEDEF(.AREA.,'I-Profile',#71,100.,200.,7.,12.,$,$,$);
#73=IFCCARTESIANPOINT((0.,0.));
#74=IFCCARTESIANTRANSFORMATIONOPERATOR2D($,$,#73,$);
#75=IFCCARTESIANTRANSFORMATIONOPERATOR2DNONUNIFORM($,$,#73,$,1.);
#76=IFCDERIVEDPROFILEDEF($,$,#72,#75,$);
#77=IFCCARTESIANPOINT((0.,100.));
#78=IFCAXIS2PLACEMENT2D(#77,$);
#79=IFCISHAPEPROFILEDEF(.AREA.,'I-Profile',#78,100.,200.,7.,12.,$,$,$);
#80=IFCCARTESIANPOINT((2000.,0.,0.));
#81=IFCDIRECTION((1.,0.,0.));
#82=IFCDIRECTION((0.,1.,0.));
#83=IFCAXIS2PLACEMENT3D(#80,#81,#82);
#84=IFCCARTESIANPOINT((4000.,0.,0.));
#85=IFCDIRECTION((0.7071,0.7071,-0.));
#86=IFCDIRECTION((-0.7071,0.7071,0.));
#87=IFCAXIS2PLACEMENT3D(#84,#85,#86);
#88=IFCCARTESIANPOINT((4000.,1500.,0.));
#89=IFCDIRECTION((0.,1.,-0.));
#90=IFCDIRECTION((-1.,0.,0.));
#91=IFCAXIS2PLACEMENT3D(#88,#89,#90);
#92=IFCCARTESIANPOINT((4000.,3000.,0.));
#93=IFCDIRECTION((-0.7071,0.7071,0.));
#94=IFCDIRECTION((-0.7071,-0.7071,0.));
#95=IFCAXIS2PLACEMENT3D(#92,#93,#94);
#96=IFCCARTESIANPOINT((2000.,3000.,0.));
#97=IFCDIRECTION((-1.,0.,0.));
#98=IFCDIRECTION((0.,-1.,0.));
#99=IFCAXIS2PLACEMENT3D(#96,#97,#98);
#100=IFCCARTESIANPOINT((0.,3000.,0.));
#101=IFCDIRECTION((-0.7071,-0.7071,0.));
#102=IFCDIRECTION((0.7071,-0.7071,0.));
#103=IFCAXIS2PLACEMENT3D(#100,#101,#102);
#104=IFCCARTESIANPOINT((0.,1500.,0.));
#105=IFCDIRECTION((0.,-1.,0.));
#106=IFCDIRECTION((1.,0.,-0.));
#107=IFCAXIS2PLACEMENT3D(#104,#105,#106);
#108=IFCCARTESIANPOINT((0.,0.,0.));
#109=IFCDIRECTION((0.7071,-0.7071,0.));
#110=IFCDIRECTION((0.7071,0.7071,-0.));
#111=IFCAXIS2PLACEMENT3D(#108,#109,#110);
#112=IFCCARTESIANPOINT((2000.,0.,0.));
#113=IFCDIRECTION((1.,0.,0.));
#114=IFCDIRECTION((0.,1.,0.));
#115=IFCAXIS2PLACEMENT3D(#112,#113,#114);
#116=IFCCARTESIANPOINTLIST3D(((2000.,-50.,0.),(2000.,50.,0.),(2000.,50.,12.),(2000.,3.5,12.),(2000.,3.5,188.),(2000.,50.,188.),(2000.,50.,200.),(2000.,-50.,200.),(2000.,-50.,188.),(2000.,-3.5,188.),(2000.,-3.5,12.),(2000.,-50.,12.),(4035.3553,-35.3553,0.),(3964.6447,35.3553,0.),(3964.6447,35.3553,12.),(3997.5251,2.4749,12.),(3997.5251,2.4749,188.),(3964.6447,35.3553,188.),(3964.6447,35.3553,200.),(4035.3553,-35.3553,200.),(4035.3553,-35.3553,188.),(4002.4749,-2.4749,188.),(4002.4749,-2.4749,12.),(4035.3553,-35.3553,12.),(4050.,1500.,0.),(3950.,1500.,0.),(3950.,1500.,12.),(3996.5,1500.,12.),(3996.5,1500.,188.),(3950.,1500.,188.),(3950.,1500.,200.),(4050.,1500.,200.),(4050.,1500.,188.),(4003.5,1500.,188.),(4003.5,1500.,12.),(4050.,1500.,12.),(4035.3553,3035.3553,0.),(3964.6447,2964.6447,0.),(3964.6447,2964.6447,12.),(3997.5251,2997.5251,12.),(3997.5251,2997.5251,188.),(3964.6447,2964.6447,188.),(3964.6447,2964.6447,200.),(4035.3553,3035.3553,200.),(4035.3553,3035.3553,188.),(4002.4749,3002.4749,188.),(4002.4749,3002.4749,12.),(4035.3553,3035.3553,12.),(2000.,3050.,0.),(2000.,2950.,0.),(2000.,2950.,12.),(2000.,2996.5,12.),(2000.,2996.5,188.),(2000.,2950.,188.),(2000.,2950.,200.),(2000.,3050.,200.),(2000.,3050.,188.),(2000.,3003.5,188.),(2000.,3003.5,12.),(2000.,3050.,12.),(-35.3553,3035.3553,0.),(35.3553,2964.6447,0.),(35.3553,2964.6447,12.),(2.4749,2997.5251,12.),(2.4749,2997.5251,188.),(35.3553,2964.6447,188.),(35.3553,2964.6447,200.),(-35.3553,3035.3553,200.),(-35.3553,3035.3553,188.),(-2.4749,3002.4749,188.),(-2.4749,3002.4749,12.),(-35.3553,3035.3553,12.),(-50.,1500.,0.),(50.,1500.,0.),(50.,1500.,12.),(3.5,1500.,12.),(3.5,1500.,188.),(50.,1500.,188.),(50.,1500.,200.),(-50.,1500.,200.),(-50.,1500.,188.),(-3.5,1500.,188.),(-3.5,1500.,12.),(-50.,1500.,12.),(-35.3553,-35.3553,0.),(35.3553,35.3553,0.),(35.3553,35.3553,12.),(2.4749,2.4749,12.),(2.4749,2.4749,188.),(35.3553,35.3553,188.),(35.3553,35.3553,200.),(-35.3553,-35.3553,200.),(-35.3553,-35.3553,188.),(-2.4749,-2.4749,188.),(-2.4749,-2.4749,12.),(-35.3553,-35.3553,12.),(2000.,-50.,0.),(2000.,50.,0.),(2000.,50.,12.),(2000.,3.5,12.),(2000.,3.5,188.),(2000.,50.,188.),(2000.,50.,200.),(2000.,-50.,200.),(2000.,-50.,188.),(2000.,-3.5,188.),(2000.,-3.5,12.),(2000.,-50.,12.)));
#117=IFCTRIANGULATEDFACESET(#116,$,.T.,((1,2,14),(1,14,13),(2,3,15),(2,15,14),(3,4,16),(3,16,15),(4,5,17),(4,17,16),(5,6,18),(5,18,17),(6,7,19),(6,19,18),(7,8,20),(7,20,19),(8,9,21),(8,21,20),(9,10,22),(9,22,21),(10,11,23),(10,23,22),(11,12,24),(11,24,23),(12,1,13),(12,13,24),(13,14,26),(13,26,25),(14,15,27),(14,27,26),(15,16,28),(15,28,27),(16,17,29),(16,29,28),(17,18,30),(17,30,29),(18,19,31),(18,31,30),(19,20,32),(19,32,31),(20,21,33),(20,33,32),(21,22,34),(21,34,33),(22,23,35),(22,35,34),(23,24,36),(23,36,35),(24,13,25),(24,25,36),(25,26,38),(25,38,37),(26,27,39),(26,39,38),(27,28,40),(27,40,39),(28,29,41),(28,41,40),(29,30,42),(29,42,41),(30,31,43),(30,43,42),(31,32,44),(31,44,43),(32,33,45),(32,45,44),(33,34,46),(33,46,45),(34,35,47),(34,47,46),(35,36,48),(35,48,47),(36,25,37),(36,37,48),(37,38,50),(37,50,49),(38,39,51),(38,51,50),(39,40,52),(39,52,51),(40,41,53),(40,53,52),(41,42,54),(41,54,53),(42,43,55),(42,55,54),(43,44,56),(43,56,55),(44,45,57),(44,57,56),(45,46,58),(45,58,57),(46,47,59),(46,59,58),(47,48,60),(47,60,59),(48,37,49),(48,49,60),(49,50,62),(49,62,61),(50,51,63),(50,63,62),(51,52,64),(51,64,63),(52,53,65),(52,65,64),(53,54,66),(53,66,65),(54,55,67),(54,67,66),(55,56,68),(55,68,67),(56,57,69),(56,69,68),(57,58,70),(57,70,69),(58,59,71),(58,71,70),(59,60,72),(59,72,71),(60,49,61),(60,61,72),(61,62,74),(61,74,73),(62,63,75),(62,75,74),(63,64,76),(63,76,75),(64,65,77),(64,77,76),(65,66,78),(65,78,77),(66,67,79),(66,79,78),(67,68,80),(67,80,79),(68,69,81),(68,81,80),(69,70,82),(69,82,81),(70,71,83),(70,83,82),(71,72,84),(71,84,83),(72,61,73),(72,73,84),(73,74,86),(73,86,85),(74,75,87),(74,87,86),(75,76,88),(75,88,87),(76,77,89),(76,89,88),(77,78,90),(77,90,89),(78,79,91),(78,91,90),(79,80,92),(79,92,91),(80,81,93),(80,93,92),(81,82,94),(81,94,93),(82,83,95),(82,95,94),(83,84,96),(83,96,95),(84,73,85),(84,85,96),(85,86,98),(85,98,97),(86,87,99),(86,99,98),(87,88,100),(87,100,99),(88,89,101),(88,101,100),(89,90,102),(89,102,101),(90,91,103),(90,103,102),(91,92,104),(91,104,103),(92,93,105),(92,105,104),(93,94,106),(93,106,105),(94,95,107),(94,107,106),(95,96,108),(95,108,107),(96,85,97),(96,97,108)),$);
#118=IFCSHAPEREPRESENTATION(#12,'Body','Tessellation',(#117));
#119=IFCCARTESIANPOINT((0.,0.,0.));
#120=IFCDIRECTION((0.,0.,1.));
#121=IFCDIRECTION((1.,0.,0.));
#122=IFCAXIS2PLACEMENT3D(#119,#120,#121);
#123=IFCLOCALPLACEMENT(#17,#122);
#124=IFCPRODUCTDEFINITIONSHAPE($,$,(#118));
#125=IFCBUILDINGELEMENTPROXY('2M7xWBxhzAVQhK2CPhM9zf',$,'closed_rect_ibeam',$,$,#123,#124,$,$);
#126=IFCRELCONTAINEDINSPATIALSTRUCTURE('0PZMQ8xQ54lwRs$hptPtUx',$,$,$,(#125),#18);
#127=IFCCOLOURRGB($,0.501960784313725,0.501960784313725,0.501960784313725);
#128=IFCSURFACESTYLERENDERING(#127,0.,$,$,$,$,$,$,.FLAT.);
#129=IFCSURFACESTYLE($,.BOTH.,(#128));
#130=IFCSTYLEDITEM(#117,(#129),$);
ENDSEC;
END-ISO-10303-21;
