ISO-10303-21;
HEADER;
FILE_DESCRIPTION(('ViewDefinition [CoordinationView]'),'2;1');
FILE_NAME('','2026-05-10T11:09:05',(''),(''),'IfcOpenShell 0.8.4-e8eb5e4','IfcOpenShell 0.8.4-e8eb5e4','');
FILE_SCHEMA(('IFC4'));
ENDSEC;
DATA;
#1=IFCPROJECT('2Ust4FAGn3qx4m1vP$nmV7',$,'Unnamed Project',$,$,$,$,(#11),#6);
#2=IFCSIUNIT(*,.LENGTHUNIT.,.MILLI.,.METRE.);
#3=IFCSIUNIT(*,.AREAUNIT.,$,.SQUARE_METRE.);
#4=IFCSIUNIT(*,.VOLUMEUNIT.,$,.CUBIC_METRE.);
#5=IFCSIUNIT(*,.PLANEANGLEUNIT.,$,.RADIAN.);
#6=IFCUNITASSIGNMENT((#5,#3,#4,#2));
#7=IFCCARTESIANPOINT((0.,0.,0.));
#8=IFCDIRECTION((0.,0.,1.));
#9=IFCDIRECTION((1.,0.,0.));
#10=IFCAXIS2PLACEMENT3D(#7,#8,#9);
#11=IFCGEOMETRICREPRESENTATIONCONTEXT($,'Model',3,1.E-05,#10,$);
#12=IFCGEOMETRICREPRESENTATIONSUBCONTEXT('Body','Model',*,*,*,*,#11,$,.MODEL_VIEW.,$);
#13=IFCCARTESIANPOINT((0.,0.,0.));
#14=IFCDIRECTION((0.,0.,1.));
#15=IFCDIRECTION((1.,0.,0.));
#16=IFCAXIS2PLACEMENT3D(#13,#14,#15);
#17=IFCLOCALPLACEMENT($,#16);
#18=IFCBUILDINGSTOREY('0kYMlHRor5YO8TSnDU58H7',$,'Storey',$,$,#17,$,$,$,$);
#19=IFCRELAGGREGATES('3lNRbNCgz3lejIIBPl6Zn9',$,$,$,#1,(#18));
#20=IFCCARTESIANPOINT((0.,0.,0.));
#21=IFCCARTESIANPOINT((500.,0.,0.));
#22=IFCPOLYLINE((#20,#21));
#23=IFCCOMPOSITECURVESEGMENT(.CONTSAMEGRADIENT.,.T.,#22);
#24=IFCCARTESIANPOINT((500.,1000.,0.));
#25=IFCDIRECTION((0.,0.,1.));
#26=IFCDIRECTION((-0.,-1.,0.));
#27=IFCAXIS2PLACEMENT3D(#24,#25,#26);
#28=IFCCIRCLE(#27,1000.);
#29=IFCTRIMMEDCURVE(#28,(IFCPARAMETERVALUE(0.)),(IFCPARAMETERVALUE(90.)),.T.,.PARAMETER.);
#30=IFCCOMPOSITECURVESEGMENT(.CONTSAMEGRADIENT.,.T.,#29);
#31=IFCCARTESIANPOINT((1500.,1000.,0.));
#32=IFCCARTESIANPOINT((1500.,2000.,0.));
#33=IFCPOLYLINE((#31,#32));
#34=IFCCOMPOSITECURVESEGMENT(.CONTSAMEGRADIENT.,.T.,#33);
#35=IFCCARTESIANPOINT((2500.,2000.,0.));
#36=IFCDIRECTION((0.,0.,-1.));
#37=IFCDIRECTION((-1.,0.,0.));
#38=IFCAXIS2PLACEMENT3D(#35,#36,#37);
#39=IFCCIRCLE(#38,1000.);
#40=IFCTRIMMEDCURVE(#39,(IFCPARAMETERVALUE(0.)),(IFCPARAMETERVALUE(90.)),.T.,.PARAMETER.);
#41=IFCCOMPOSITECURVESEGMENT(.CONTSAMEGRADIENT.,.T.,#40);
#42=IFCCARTESIANPOINT((2500.,3000.,0.));
#43=IFCCARTESIANPOINT((3000.,3000.,0.));
#44=IFCPOLYLINE((#42,#43));
#45=IFCCOMPOSITECURVESEGMENT(.DISCONTINUOUS.,.T.,#44);
#46=IFCCOMPOSITECURVE((#23,#30,#34,#41,#45),.F.);
#47=IFCCARTESIANPOINT((30.,0.));
#48=IFCAXIS2PLACEMENT2D(#47,$);
#49=IFCCSHAPEPROFILEDEF(.AREA.,$,#48,150.,60.,6.,20.,$);
#50=IFCCARTESIANPOINT((30.,0.));
#51=IFCAXIS2PLACEMENT2D(#50,$);
#52=IFCCSHAPEPROFILEDEF(.AREA.,$,#51,150.,60.,6.,20.,$);
#53=IFCCARTESIANPOINT((0.,0.));
#54=IFCCARTESIANTRANSFORMATIONOPERATOR2D($,$,#53,$);
#55=IFCCARTESIANTRANSFORMATIONOPERATOR2DNONUNIFORM($,$,#53,1.00008567976639,1.);
#56=IFCDERIVEDPROFILEDEF($,$,#52,#55,$);
#57=IFCCARTESIANPOINT((30.,0.));
#58=IFCAXIS2PLACEMENT2D(#57,$);
#59=IFCCSHAPEPROFILEDEF(.AREA.,$,#58,150.,60.,6.,20.,$);
#60=IFCCARTESIANPOINT((0.,0.));
#61=IFCCARTESIANTRANSFORMATIONOPERATOR2D($,$,#60,$);
#62=IFCCARTESIANTRANSFORMATIONOPERATOR2DNONUNIFORM($,$,#60,1.00034279249087,1.);
#63=IFCDERIVEDPROFILEDEF($,$,#59,#62,$);
#64=IFCCARTESIANPOINT((30.,0.));
#65=IFCAXIS2PLACEMENT2D(#64,$);
#66=IFCCSHAPEPROFILEDEF(.AREA.,$,#65,150.,60.,6.,20.,$);
#67=IFCCARTESIANPOINT((0.,0.));
#68=IFCCARTESIANTRANSFORMATIONOPERATOR2D($,$,#67,$);
#69=IFCCARTESIANTRANSFORMATIONOPERATOR2DNONUNIFORM($,$,#67,1.00034279249087,1.);
#70=IFCDERIVEDPROFILEDEF($,$,#66,#69,$);
#71=IFCCARTESIANPOINT((30.,0.));
#72=IFCAXIS2PLACEMENT2D(#71,$);
#73=IFCCSHAPEPROFILEDEF(.AREA.,$,#72,150.,60.,6.,20.,$);
#74=IFCCARTESIANPOINT((0.,0.));
#75=IFCCARTESIANTRANSFORMATIONOPERATOR2D($,$,#74,$);
#76=IFCCARTESIANTRANSFORMATIONOPERATOR2DNONUNIFORM($,$,#74,1.00034279249087,1.);
#77=IFCDERIVEDPROFILEDEF($,$,#73,#76,$);
#78=IFCCARTESIANPOINT((30.,0.));
#79=IFCAXIS2PLACEMENT2D(#78,$);
#80=IFCCSHAPEPROFILEDEF(.AREA.,$,#79,150.,60.,6.,20.,$);
#81=IFCCARTESIANPOINT((0.,0.));
#82=IFCCARTESIANTRANSFORMATIONOPERATOR2D($,$,#81,$);
#83=IFCCARTESIANTRANSFORMATIONOPERATOR2DNONUNIFORM($,$,#81,1.00034279249087,1.);
#84=IFCDERIVEDPROFILEDEF($,$,#80,#83,$);
#85=IFCCARTESIANPOINT((30.,0.));
#86=IFCAXIS2PLACEMENT2D(#85,$);
#87=IFCCSHAPEPROFILEDEF(.AREA.,$,#86,150.,60.,6.,20.,$);
#88=IFCCARTESIANPOINT((0.,0.));
#89=IFCCARTESIANTRANSFORMATIONOPERATOR2D($,$,#88,$);
#90=IFCCARTESIANTRANSFORMATIONOPERATOR2DNONUNIFORM($,$,#88,1.00034279249087,1.);
#91=IFCDERIVEDPROFILEDEF($,$,#87,#90,$);
#92=IFCCARTESIANPOINT((30.,0.));
#93=IFCAXIS2PLACEMENT2D(#92,$);
#94=IFCCSHAPEPROFILEDEF(.AREA.,$,#93,150.,60.,6.,20.,$);
#95=IFCCARTESIANPOINT((0.,0.));
#96=IFCCARTESIANTRANSFORMATIONOPERATOR2D($,$,#95,$);
#97=IFCCARTESIANTRANSFORMATIONOPERATOR2DNONUNIFORM($,$,#95,1.00034279249087,1.);
#98=IFCDERIVEDPROFILEDEF($,$,#94,#97,$);
#99=IFCCARTESIANPOINT((30.,0.));
#100=IFCAXIS2PLACEMENT2D(#99,$);
#101=IFCCSHAPEPROFILEDEF(.AREA.,$,#100,150.,60.,6.,20.,$);
#102=IFCCARTESIANPOINT((0.,0.));
#103=IFCCARTESIANTRANSFORMATIONOPERATOR2D($,$,#102,$);
#104=IFCCARTESIANTRANSFORMATIONOPERATOR2DNONUNIFORM($,$,#102,1.00034279249087,1.);
#105=IFCDERIVEDPROFILEDEF($,$,#101,#104,$);
#106=IFCCARTESIANPOINT((30.,0.));
#107=IFCAXIS2PLACEMENT2D(#106,$);
#108=IFCCSHAPEPROFILEDEF(.AREA.,$,#107,150.,60.,6.,20.,$);
#109=IFCCARTESIANPOINT((0.,0.));
#110=IFCCARTESIANTRANSFORMATIONOPERATOR2D($,$,#109,$);
#111=IFCCARTESIANTRANSFORMATIONOPERATOR2DNONUNIFORM($,$,#109,1.00034279249087,1.);
#112=IFCDERIVEDPROFILEDEF($,$,#108,#111,$);
#113=IFCCARTESIANPOINT((30.,0.));
#114=IFCAXIS2PLACEMENT2D(#113,$);
#115=IFCCSHAPEPROFILEDEF(.AREA.,$,#114,150.,60.,6.,20.,$);
#116=IFCCARTESIANPOINT((0.,0.));
#117=IFCCARTESIANTRANSFORMATIONOPERATOR2D($,$,#116,$);
#118=IFCCARTESIANTRANSFORMATIONOPERATOR2DNONUNIFORM($,$,#116,1.00034279249087,1.);
#119=IFCDERIVEDPROFILEDEF($,$,#115,#118,$);
#120=IFCCARTESIANPOINT((30.,0.));
#121=IFCAXIS2PLACEMENT2D(#120,$);
#122=IFCCSHAPEPROFILEDEF(.AREA.,$,#121,150.,60.,6.,20.,$);
#123=IFCCARTESIANPOINT((0.,0.));
#124=IFCCARTESIANTRANSFORMATIONOPERATOR2D($,$,#123,$);
#125=IFCCARTESIANTRANSFORMATIONOPERATOR2DNONUNIFORM($,$,#123,1.00034279249087,1.);
#126=IFCDERIVEDPROFILEDEF($,$,#122,#125,$);
#127=IFCCARTESIANPOINT((30.,0.));
#128=IFCAXIS2PLACEMENT2D(#127,$);
#129=IFCCSHAPEPROFILEDEF(.AREA.,$,#128,150.,60.,6.,20.,$);
#130=IFCCARTESIANPOINT((0.,0.));
#131=IFCCARTESIANTRANSFORMATIONOPERATOR2D($,$,#130,$);
#132=IFCCARTESIANTRANSFORMATIONOPERATOR2DNONUNIFORM($,$,#130,1.00034279249087,1.);
#133=IFCDERIVEDPROFILEDEF($,$,#129,#132,$);
#134=IFCCARTESIANPOINT((30.,0.));
#135=IFCAXIS2PLACEMENT2D(#134,$);
#136=IFCCSHAPEPROFILEDEF(.AREA.,$,#135,150.,60.,6.,20.,$);
#137=IFCCARTESIANPOINT((0.,0.));
#138=IFCCARTESIANTRANSFORMATIONOPERATOR2D($,$,#137,$);
#139=IFCCARTESIANTRANSFORMATIONOPERATOR2DNONUNIFORM($,$,#137,1.00034279249087,1.);
#140=IFCDERIVEDPROFILEDEF($,$,#136,#139,$);
#141=IFCCARTESIANPOINT((30.,0.));
#142=IFCAXIS2PLACEMENT2D(#141,$);
#143=IFCCSHAPEPROFILEDEF(.AREA.,$,#142,150.,60.,6.,20.,$);
#144=IFCCARTESIANPOINT((0.,0.));
#145=IFCCARTESIANTRANSFORMATIONOPERATOR2D($,$,#144,$);
#146=IFCCARTESIANTRANSFORMATIONOPERATOR2DNONUNIFORM($,$,#144,1.00034279249087,1.);
#147=IFCDERIVEDPROFILEDEF($,$,#143,#146,$);
#148=IFCCARTESIANPOINT((30.,0.));
#149=IFCAXIS2PLACEMENT2D(#148,$);
#150=IFCCSHAPEPROFILEDEF(.AREA.,$,#149,150.,60.,6.,20.,$);
#151=IFCCARTESIANPOINT((0.,0.));
#152=IFCCARTESIANTRANSFORMATIONOPERATOR2D($,$,#151,$);
#153=IFCCARTESIANTRANSFORMATIONOPERATOR2DNONUNIFORM($,$,#151,1.00034279249087,1.);
#154=IFCDERIVEDPROFILEDEF($,$,#150,#153,$);
#155=IFCCARTESIANPOINT((30.,0.));
#156=IFCAXIS2PLACEMENT2D(#155,$);
#157=IFCCSHAPEPROFILEDEF(.AREA.,$,#156,150.,60.,6.,20.,$);
#158=IFCCARTESIANPOINT((0.,0.));
#159=IFCCARTESIANTRANSFORMATIONOPERATOR2D($,$,#158,$);
#160=IFCCARTESIANTRANSFORMATIONOPERATOR2DNONUNIFORM($,$,#158,1.00034279249087,1.);
#161=IFCDERIVEDPROFILEDEF($,$,#157,#160,$);
#162=IFCCARTESIANPOINT((30.,0.));
#163=IFCAXIS2PLACEMENT2D(#162,$);
#164=IFCCSHAPEPROFILEDEF(.AREA.,$,#163,150.,60.,6.,20.,$);
#165=IFCCARTESIANPOINT((0.,0.));
#166=IFCCARTESIANTRANSFORMATIONOPERATOR2D($,$,#165,$);
#167=IFCCARTESIANTRANSFORMATIONOPERATOR2DNONUNIFORM($,$,#165,1.00034279249087,1.);
#168=IFCDERIVEDPROFILEDEF($,$,#164,#167,$);
#169=IFCCARTESIANPOINT((30.,0.));
#170=IFCAXIS2PLACEMENT2D(#169,$);
#171=IFCCSHAPEPROFILEDEF(.AREA.,$,#170,150.,60.,6.,20.,$);
#172=IFCCARTESIANPOINT((0.,0.));
#173=IFCCARTESIANTRANSFORMATIONOPERATOR2D($,$,#172,$);
#174=IFCCARTESIANTRANSFORMATIONOPERATOR2DNONUNIFORM($,$,#172,1.00034279249087,1.);
#175=IFCDERIVEDPROFILEDEF($,$,#171,#174,$);
#176=IFCCARTESIANPOINT((30.,0.));
#177=IFCAXIS2PLACEMENT2D(#176,$);
#178=IFCCSHAPEPROFILEDEF(.AREA.,$,#177,150.,60.,6.,20.,$);
#179=IFCCARTESIANPOINT((0.,0.));
#180=IFCCARTESIANTRANSFORMATIONOPERATOR2D($,$,#179,$);
#181=IFCCARTESIANTRANSFORMATIONOPERATOR2DNONUNIFORM($,$,#179,1.00034279249087,1.);
#182=IFCDERIVEDPROFILEDEF($,$,#178,#181,$);
#183=IFCCARTESIANPOINT((30.,0.));
#184=IFCAXIS2PLACEMENT2D(#183,$);
#185=IFCCSHAPEPROFILEDEF(.AREA.,$,#184,150.,60.,6.,20.,$);
#186=IFCCARTESIANPOINT((0.,0.));
#187=IFCCARTESIANTRANSFORMATIONOPERATOR2D($,$,#186,$);
#188=IFCCARTESIANTRANSFORMATIONOPERATOR2DNONUNIFORM($,$,#186,1.00034279249087,1.);
#189=IFCDERIVEDPROFILEDEF($,$,#185,#188,$);
#190=IFCCARTESIANPOINT((30.,0.));
#191=IFCAXIS2PLACEMENT2D(#190,$);
#192=IFCCSHAPEPROFILEDEF(.AREA.,$,#191,150.,60.,6.,20.,$);
#193=IFCCARTESIANPOINT((0.,0.));
#194=IFCCARTESIANTRANSFORMATIONOPERATOR2D($,$,#193,$);
#195=IFCCARTESIANTRANSFORMATIONOPERATOR2DNONUNIFORM($,$,#193,1.00034279249087,1.);
#196=IFCDERIVEDPROFILEDEF($,$,#192,#195,$);
#197=IFCCARTESIANPOINT((30.,0.));
#198=IFCAXIS2PLACEMENT2D(#197,$);
#199=IFCCSHAPEPROFILEDEF(.AREA.,$,#198,150.,60.,6.,20.,$);
#200=IFCCARTESIANPOINT((0.,0.));
#201=IFCCARTESIANTRANSFORMATIONOPERATOR2D($,$,#200,$);
#202=IFCCARTESIANTRANSFORMATIONOPERATOR2DNONUNIFORM($,$,#200,1.00034279249087,1.);
#203=IFCDERIVEDPROFILEDEF($,$,#199,#202,$);
#204=IFCCARTESIANPOINT((30.,0.));
#205=IFCAXIS2PLACEMENT2D(#204,$);
#206=IFCCSHAPEPROFILEDEF(.AREA.,$,#205,150.,60.,6.,20.,$);
#207=IFCCARTESIANPOINT((0.,0.));
#208=IFCCARTESIANTRANSFORMATIONOPERATOR2D($,$,#207,$);
#209=IFCCARTESIANTRANSFORMATIONOPERATOR2DNONUNIFORM($,$,#207,1.00034279249087,1.);
#210=IFCDERIVEDPROFILEDEF($,$,#206,#209,$);
#211=IFCCARTESIANPOINT((30.,0.));
#212=IFCAXIS2PLACEMENT2D(#211,$);
#213=IFCCSHAPEPROFILEDEF(.AREA.,$,#212,150.,60.,6.,20.,$);
#214=IFCCARTESIANPOINT((0.,0.));
#215=IFCCARTESIANTRANSFORMATIONOPERATOR2D($,$,#214,$);
#216=IFCCARTESIANTRANSFORMATIONOPERATOR2DNONUNIFORM($,$,#214,1.00034279249087,1.);
#217=IFCDERIVEDPROFILEDEF($,$,#213,#216,$);
#218=IFCCARTESIANPOINT((30.,0.));
#219=IFCAXIS2PLACEMENT2D(#218,$);
#220=IFCCSHAPEPROFILEDEF(.AREA.,$,#219,150.,60.,6.,20.,$);
#221=IFCCARTESIANPOINT((0.,0.));
#222=IFCCARTESIANTRANSFORMATIONOPERATOR2D($,$,#221,$);
#223=IFCCARTESIANTRANSFORMATIONOPERATOR2DNONUNIFORM($,$,#221,1.00034279249087,1.);
#224=IFCDERIVEDPROFILEDEF($,$,#220,#223,$);
#225=IFCCARTESIANPOINT((30.,0.));
#226=IFCAXIS2PLACEMENT2D(#225,$);
#227=IFCCSHAPEPROFILEDEF(.AREA.,$,#226,150.,60.,6.,20.,$);
#228=IFCCARTESIANPOINT((0.,0.));
#229=IFCCARTESIANTRANSFORMATIONOPERATOR2D($,$,#228,$);
#230=IFCCARTESIANTRANSFORMATIONOPERATOR2DNONUNIFORM($,$,#228,1.00034279249087,1.);
#231=IFCDERIVEDPROFILEDEF($,$,#227,#230,$);
#232=IFCCARTESIANPOINT((30.,0.));
#233=IFCAXIS2PLACEMENT2D(#232,$);
#234=IFCCSHAPEPROFILEDEF(.AREA.,$,#233,150.,60.,6.,20.,$);
#235=IFCCARTESIANPOINT((0.,0.));
#236=IFCCARTESIANTRANSFORMATIONOPERATOR2D($,$,#235,$);
#237=IFCCARTESIANTRANSFORMATIONOPERATOR2DNONUNIFORM($,$,#235,1.00034279249087,1.);
#238=IFCDERIVEDPROFILEDEF($,$,#234,#237,$);
#239=IFCCARTESIANPOINT((30.,0.));
#240=IFCAXIS2PLACEMENT2D(#239,$);
#241=IFCCSHAPEPROFILEDEF(.AREA.,$,#240,150.,60.,6.,20.,$);
#242=IFCCARTESIANPOINT((0.,0.));
#243=IFCCARTESIANTRANSFORMATIONOPERATOR2D($,$,#242,$);
#244=IFCCARTESIANTRANSFORMATIONOPERATOR2DNONUNIFORM($,$,#242,1.00034279249087,1.);
#245=IFCDERIVEDPROFILEDEF($,$,#241,#244,$);
#246=IFCCARTESIANPOINT((30.,0.));
#247=IFCAXIS2PLACEMENT2D(#246,$);
#248=IFCCSHAPEPROFILEDEF(.AREA.,$,#247,150.,60.,6.,20.,$);
#249=IFCCARTESIANPOINT((0.,0.));
#250=IFCCARTESIANTRANSFORMATIONOPERATOR2D($,$,#249,$);
#251=IFCCARTESIANTRANSFORMATIONOPERATOR2DNONUNIFORM($,$,#249,1.00034279249087,1.);
#252=IFCDERIVEDPROFILEDEF($,$,#248,#251,$);
#253=IFCCARTESIANPOINT((30.,0.));
#254=IFCAXIS2PLACEMENT2D(#253,$);
#255=IFCCSHAPEPROFILEDEF(.AREA.,$,#254,150.,60.,6.,20.,$);
#256=IFCCARTESIANPOINT((0.,0.));
#257=IFCCARTESIANTRANSFORMATIONOPERATOR2D($,$,#256,$);
#258=IFCCARTESIANTRANSFORMATIONOPERATOR2DNONUNIFORM($,$,#256,1.00034279249087,1.);
#259=IFCDERIVEDPROFILEDEF($,$,#255,#258,$);
#260=IFCCARTESIANPOINT((30.,0.));
#261=IFCAXIS2PLACEMENT2D(#260,$);
#262=IFCCSHAPEPROFILEDEF(.AREA.,$,#261,150.,60.,6.,20.,$);
#263=IFCCARTESIANPOINT((0.,0.));
#264=IFCCARTESIANTRANSFORMATIONOPERATOR2D($,$,#263,$);
#265=IFCCARTESIANTRANSFORMATIONOPERATOR2DNONUNIFORM($,$,#263,1.00008567976639,1.);
#266=IFCDERIVEDPROFILEDEF($,$,#262,#265,$);
#267=IFCCARTESIANPOINT((30.,0.));
#268=IFCAXIS2PLACEMENT2D(#267,$);
#269=IFCCSHAPEPROFILEDEF(.AREA.,$,#268,150.,60.,6.,20.,$);
#270=IFCCARTESIANPOINT((0.,0.));
#271=IFCCARTESIANTRANSFORMATIONOPERATOR2D($,$,#270,$);
#272=IFCCARTESIANTRANSFORMATIONOPERATOR2DNONUNIFORM($,$,#270,1.00009169105351,1.);
#273=IFCDERIVEDPROFILEDEF($,$,#269,#272,$);
#274=IFCCARTESIANPOINT((30.,0.));
#275=IFCAXIS2PLACEMENT2D(#274,$);
#276=IFCCSHAPEPROFILEDEF(.AREA.,$,#275,150.,60.,6.,20.,$);
#277=IFCCARTESIANPOINT((0.,0.));
#278=IFCCARTESIANTRANSFORMATIONOPERATOR2D($,$,#277,$);
#279=IFCCARTESIANTRANSFORMATIONOPERATOR2DNONUNIFORM($,$,#277,1.00036684830504,1.);
#280=IFCDERIVEDPROFILEDEF($,$,#276,#279,$);
#281=IFCCARTESIANPOINT((30.,0.));
#282=IFCAXIS2PLACEMENT2D(#281,$);
#283=IFCCSHAPEPROFILEDEF(.AREA.,$,#282,150.,60.,6.,20.,$);
#284=IFCCARTESIANPOINT((0.,0.));
#285=IFCCARTESIANTRANSFORMATIONOPERATOR2D($,$,#284,$);
#286=IFCCARTESIANTRANSFORMATIONOPERATOR2DNONUNIFORM($,$,#284,1.00036684830504,1.);
#287=IFCDERIVEDPROFILEDEF($,$,#283,#286,$);
#288=IFCCARTESIANPOINT((30.,0.));
#289=IFCAXIS2PLACEMENT2D(#288,$);
#290=IFCCSHAPEPROFILEDEF(.AREA.,$,#289,150.,60.,6.,20.,$);
#291=IFCCARTESIANPOINT((0.,0.));
#292=IFCCARTESIANTRANSFORMATIONOPERATOR2D($,$,#291,$);
#293=IFCCARTESIANTRANSFORMATIONOPERATOR2DNONUNIFORM($,$,#291,1.00036684830504,1.);
#294=IFCDERIVEDPROFILEDEF($,$,#290,#293,$);
#295=IFCCARTESIANPOINT((30.,0.));
#296=IFCAXIS2PLACEMENT2D(#295,$);
#297=IFCCSHAPEPROFILEDEF(.AREA.,$,#296,150.,60.,6.,20.,$);
#298=IFCCARTESIANPOINT((0.,0.));
#299=IFCCARTESIANTRANSFORMATIONOPERATOR2D($,$,#298,$);
#300=IFCCARTESIANTRANSFORMATIONOPERATOR2DNONUNIFORM($,$,#298,1.00036684830504,1.);
#301=IFCDERIVEDPROFILEDEF($,$,#297,#300,$);
#302=IFCCARTESIANPOINT((30.,0.));
#303=IFCAXIS2PLACEMENT2D(#302,$);
#304=IFCCSHAPEPROFILEDEF(.AREA.,$,#303,150.,60.,6.,20.,$);
#305=IFCCARTESIANPOINT((0.,0.));
#306=IFCCARTESIANTRANSFORMATIONOPERATOR2D($,$,#305,$);
#307=IFCCARTESIANTRANSFORMATIONOPERATOR2DNONUNIFORM($,$,#305,1.00036684830504,1.);
#308=IFCDERIVEDPROFILEDEF($,$,#304,#307,$);
#309=IFCCARTESIANPOINT((30.,0.));
#310=IFCAXIS2PLACEMENT2D(#309,$);
#311=IFCCSHAPEPROFILEDEF(.AREA.,$,#310,150.,60.,6.,20.,$);
#312=IFCCARTESIANPOINT((0.,0.));
#313=IFCCARTESIANTRANSFORMATIONOPERATOR2D($,$,#312,$);
#314=IFCCARTESIANTRANSFORMATIONOPERATOR2DNONUNIFORM($,$,#312,1.00036684830504,1.);
#315=IFCDERIVEDPROFILEDEF($,$,#311,#314,$);
#316=IFCCARTESIANPOINT((30.,0.));
#317=IFCAXIS2PLACEMENT2D(#316,$);
#318=IFCCSHAPEPROFILEDEF(.AREA.,$,#317,150.,60.,6.,20.,$);
#319=IFCCARTESIANPOINT((0.,0.));
#320=IFCCARTESIANTRANSFORMATIONOPERATOR2D($,$,#319,$);
#321=IFCCARTESIANTRANSFORMATIONOPERATOR2DNONUNIFORM($,$,#319,1.00036684830504,1.);
#322=IFCDERIVEDPROFILEDEF($,$,#318,#321,$);
#323=IFCCARTESIANPOINT((30.,0.));
#324=IFCAXIS2PLACEMENT2D(#323,$);
#325=IFCCSHAPEPROFILEDEF(.AREA.,$,#324,150.,60.,6.,20.,$);
#326=IFCCARTESIANPOINT((0.,0.));
#327=IFCCARTESIANTRANSFORMATIONOPERATOR2D($,$,#326,$);
#328=IFCCARTESIANTRANSFORMATIONOPERATOR2DNONUNIFORM($,$,#326,1.00036684830504,1.);
#329=IFCDERIVEDPROFILEDEF($,$,#325,#328,$);
#330=IFCCARTESIANPOINT((30.,0.));
#331=IFCAXIS2PLACEMENT2D(#330,$);
#332=IFCCSHAPEPROFILEDEF(.AREA.,$,#331,150.,60.,6.,20.,$);
#333=IFCCARTESIANPOINT((0.,0.));
#334=IFCCARTESIANTRANSFORMATIONOPERATOR2D($,$,#333,$);
#335=IFCCARTESIANTRANSFORMATIONOPERATOR2DNONUNIFORM($,$,#333,1.00036684830504,1.);
#336=IFCDERIVEDPROFILEDEF($,$,#332,#335,$);
#337=IFCCARTESIANPOINT((30.,0.));
#338=IFCAXIS2PLACEMENT2D(#337,$);
#339=IFCCSHAPEPROFILEDEF(.AREA.,$,#338,150.,60.,6.,20.,$);
#340=IFCCARTESIANPOINT((0.,0.));
#341=IFCCARTESIANTRANSFORMATIONOPERATOR2D($,$,#340,$);
#342=IFCCARTESIANTRANSFORMATIONOPERATOR2DNONUNIFORM($,$,#340,1.00036684830504,1.);
#343=IFCDERIVEDPROFILEDEF($,$,#339,#342,$);
#344=IFCCARTESIANPOINT((30.,0.));
#345=IFCAXIS2PLACEMENT2D(#344,$);
#346=IFCCSHAPEPROFILEDEF(.AREA.,$,#345,150.,60.,6.,20.,$);
#347=IFCCARTESIANPOINT((0.,0.));
#348=IFCCARTESIANTRANSFORMATIONOPERATOR2D($,$,#347,$);
#349=IFCCARTESIANTRANSFORMATIONOPERATOR2DNONUNIFORM($,$,#347,1.00036684830504,1.);
#350=IFCDERIVEDPROFILEDEF($,$,#346,#349,$);
#351=IFCCARTESIANPOINT((30.,0.));
#352=IFCAXIS2PLACEMENT2D(#351,$);
#353=IFCCSHAPEPROFILEDEF(.AREA.,$,#352,150.,60.,6.,20.,$);
#354=IFCCARTESIANPOINT((0.,0.));
#355=IFCCARTESIANTRANSFORMATIONOPERATOR2D($,$,#354,$);
#356=IFCCARTESIANTRANSFORMATIONOPERATOR2DNONUNIFORM($,$,#354,1.00036684830504,1.);
#357=IFCDERIVEDPROFILEDEF($,$,#353,#356,$);
#358=IFCCARTESIANPOINT((30.,0.));
#359=IFCAXIS2PLACEMENT2D(#358,$);
#360=IFCCSHAPEPROFILEDEF(.AREA.,$,#359,150.,60.,6.,20.,$);
#361=IFCCARTESIANPOINT((0.,0.));
#362=IFCCARTESIANTRANSFORMATIONOPERATOR2D($,$,#361,$);
#363=IFCCARTESIANTRANSFORMATIONOPERATOR2DNONUNIFORM($,$,#361,1.00036684830504,1.);
#364=IFCDERIVEDPROFILEDEF($,$,#360,#363,$);
#365=IFCCARTESIANPOINT((30.,0.));
#366=IFCAXIS2PLACEMENT2D(#365,$);
#367=IFCCSHAPEPROFILEDEF(.AREA.,$,#366,150.,60.,6.,20.,$);
#368=IFCCARTESIANPOINT((0.,0.));
#369=IFCCARTESIANTRANSFORMATIONOPERATOR2D($,$,#368,$);
#370=IFCCARTESIANTRANSFORMATIONOPERATOR2DNONUNIFORM($,$,#368,1.00036684830504,1.);
#371=IFCDERIVEDPROFILEDEF($,$,#367,#370,$);
#372=IFCCARTESIANPOINT((30.,0.));
#373=IFCAXIS2PLACEMENT2D(#372,$);
#374=IFCCSHAPEPROFILEDEF(.AREA.,$,#373,150.,60.,6.,20.,$);
#375=IFCCARTESIANPOINT((0.,0.));
#376=IFCCARTESIANTRANSFORMATIONOPERATOR2D($,$,#375,$);
#377=IFCCARTESIANTRANSFORMATIONOPERATOR2DNONUNIFORM($,$,#375,1.00036684830504,1.);
#378=IFCDERIVEDPROFILEDEF($,$,#374,#377,$);
#379=IFCCARTESIANPOINT((30.,0.));
#380=IFCAXIS2PLACEMENT2D(#379,$);
#381=IFCCSHAPEPROFILEDEF(.AREA.,$,#380,150.,60.,6.,20.,$);
#382=IFCCARTESIANPOINT((0.,0.));
#383=IFCCARTESIANTRANSFORMATIONOPERATOR2D($,$,#382,$);
#384=IFCCARTESIANTRANSFORMATIONOPERATOR2DNONUNIFORM($,$,#382,1.00036684830504,1.);
#385=IFCDERIVEDPROFILEDEF($,$,#381,#384,$);
#386=IFCCARTESIANPOINT((30.,0.));
#387=IFCAXIS2PLACEMENT2D(#386,$);
#388=IFCCSHAPEPROFILEDEF(.AREA.,$,#387,150.,60.,6.,20.,$);
#389=IFCCARTESIANPOINT((0.,0.));
#390=IFCCARTESIANTRANSFORMATIONOPERATOR2D($,$,#389,$);
#391=IFCCARTESIANTRANSFORMATIONOPERATOR2DNONUNIFORM($,$,#389,1.00036684830504,1.);
#392=IFCDERIVEDPROFILEDEF($,$,#388,#391,$);
#393=IFCCARTESIANPOINT((30.,0.));
#394=IFCAXIS2PLACEMENT2D(#393,$);
#395=IFCCSHAPEPROFILEDEF(.AREA.,$,#394,150.,60.,6.,20.,$);
#396=IFCCARTESIANPOINT((0.,0.));
#397=IFCCARTESIANTRANSFORMATIONOPERATOR2D($,$,#396,$);
#398=IFCCARTESIANTRANSFORMATIONOPERATOR2DNONUNIFORM($,$,#396,1.00036684830504,1.);
#399=IFCDERIVEDPROFILEDEF($,$,#395,#398,$);
#400=IFCCARTESIANPOINT((30.,0.));
#401=IFCAXIS2PLACEMENT2D(#400,$);
#402=IFCCSHAPEPROFILEDEF(.AREA.,$,#401,150.,60.,6.,20.,$);
#403=IFCCARTESIANPOINT((0.,0.));
#404=IFCCARTESIANTRANSFORMATIONOPERATOR2D($,$,#403,$);
#405=IFCCARTESIANTRANSFORMATIONOPERATOR2DNONUNIFORM($,$,#403,1.00036684830504,1.);
#406=IFCDERIVEDPROFILEDEF($,$,#402,#405,$);
#407=IFCCARTESIANPOINT((30.,0.));
#408=IFCAXIS2PLACEMENT2D(#407,$);
#409=IFCCSHAPEPROFILEDEF(.AREA.,$,#408,150.,60.,6.,20.,$);
#410=IFCCARTESIANPOINT((0.,0.));
#411=IFCCARTESIANTRANSFORMATIONOPERATOR2D($,$,#410,$);
#412=IFCCARTESIANTRANSFORMATIONOPERATOR2DNONUNIFORM($,$,#410,1.00036684830504,1.);
#413=IFCDERIVEDPROFILEDEF($,$,#409,#412,$);
#414=IFCCARTESIANPOINT((30.,0.));
#415=IFCAXIS2PLACEMENT2D(#414,$);
#416=IFCCSHAPEPROFILEDEF(.AREA.,$,#415,150.,60.,6.,20.,$);
#417=IFCCARTESIANPOINT((0.,0.));
#418=IFCCARTESIANTRANSFORMATIONOPERATOR2D($,$,#417,$);
#419=IFCCARTESIANTRANSFORMATIONOPERATOR2DNONUNIFORM($,$,#417,1.00036684830504,1.);
#420=IFCDERIVEDPROFILEDEF($,$,#416,#419,$);
#421=IFCCARTESIANPOINT((30.,0.));
#422=IFCAXIS2PLACEMENT2D(#421,$);
#423=IFCCSHAPEPROFILEDEF(.AREA.,$,#422,150.,60.,6.,20.,$);
#424=IFCCARTESIANPOINT((0.,0.));
#425=IFCCARTESIANTRANSFORMATIONOPERATOR2D($,$,#424,$);
#426=IFCCARTESIANTRANSFORMATIONOPERATOR2DNONUNIFORM($,$,#424,1.00036684830504,1.);
#427=IFCDERIVEDPROFILEDEF($,$,#423,#426,$);
#428=IFCCARTESIANPOINT((30.,0.));
#429=IFCAXIS2PLACEMENT2D(#428,$);
#430=IFCCSHAPEPROFILEDEF(.AREA.,$,#429,150.,60.,6.,20.,$);
#431=IFCCARTESIANPOINT((0.,0.));
#432=IFCCARTESIANTRANSFORMATIONOPERATOR2D($,$,#431,$);
#433=IFCCARTESIANTRANSFORMATIONOPERATOR2DNONUNIFORM($,$,#431,1.00036684830504,1.);
#434=IFCDERIVEDPROFILEDEF($,$,#430,#433,$);
#435=IFCCARTESIANPOINT((30.,0.));
#436=IFCAXIS2PLACEMENT2D(#435,$);
#437=IFCCSHAPEPROFILEDEF(.AREA.,$,#436,150.,60.,6.,20.,$);
#438=IFCCARTESIANPOINT((0.,0.));
#439=IFCCARTESIANTRANSFORMATIONOPERATOR2D($,$,#438,$);
#440=IFCCARTESIANTRANSFORMATIONOPERATOR2DNONUNIFORM($,$,#438,1.00036684830504,1.);
#441=IFCDERIVEDPROFILEDEF($,$,#437,#440,$);
#442=IFCCARTESIANPOINT((30.,0.));
#443=IFCAXIS2PLACEMENT2D(#442,$);
#444=IFCCSHAPEPROFILEDEF(.AREA.,$,#443,150.,60.,6.,20.,$);
#445=IFCCARTESIANPOINT((0.,0.));
#446=IFCCARTESIANTRANSFORMATIONOPERATOR2D($,$,#445,$);
#447=IFCCARTESIANTRANSFORMATIONOPERATOR2DNONUNIFORM($,$,#445,1.00036684830504,1.);
#448=IFCDERIVEDPROFILEDEF($,$,#444,#447,$);
#449=IFCCARTESIANPOINT((30.,0.));
#450=IFCAXIS2PLACEMENT2D(#449,$);
#451=IFCCSHAPEPROFILEDEF(.AREA.,$,#450,150.,60.,6.,20.,$);
#452=IFCCARTESIANPOINT((0.,0.));
#453=IFCCARTESIANTRANSFORMATIONOPERATOR2D($,$,#452,$);
#454=IFCCARTESIANTRANSFORMATIONOPERATOR2DNONUNIFORM($,$,#452,1.00036684830504,1.);
#455=IFCDERIVEDPROFILEDEF($,$,#451,#454,$);
#456=IFCCARTESIANPOINT((30.,0.));
#457=IFCAXIS2PLACEMENT2D(#456,$);
#458=IFCCSHAPEPROFILEDEF(.AREA.,$,#457,150.,60.,6.,20.,$);
#459=IFCCARTESIANPOINT((0.,0.));
#460=IFCCARTESIANTRANSFORMATIONOPERATOR2D($,$,#459,$);
#461=IFCCARTESIANTRANSFORMATIONOPERATOR2DNONUNIFORM($,$,#459,1.00036684830504,1.);
#462=IFCDERIVEDPROFILEDEF($,$,#458,#461,$);
#463=IFCCARTESIANPOINT((30.,0.));
#464=IFCAXIS2PLACEMENT2D(#463,$);
#465=IFCCSHAPEPROFILEDEF(.AREA.,$,#464,150.,60.,6.,20.,$);
#466=IFCCARTESIANPOINT((0.,0.));
#467=IFCCARTESIANTRANSFORMATIONOPERATOR2D($,$,#466,$);
#468=IFCCARTESIANTRANSFORMATIONOPERATOR2DNONUNIFORM($,$,#466,1.00036684830504,1.);
#469=IFCDERIVEDPROFILEDEF($,$,#465,#468,$);
#470=IFCCARTESIANPOINT((30.,0.));
#471=IFCAXIS2PLACEMENT2D(#470,$);
#472=IFCCSHAPEPROFILEDEF(.AREA.,$,#471,150.,60.,6.,20.,$);
#473=IFCCARTESIANPOINT((0.,0.));
#474=IFCCARTESIANTRANSFORMATIONOPERATOR2D($,$,#473,$);
#475=IFCCARTESIANTRANSFORMATIONOPERATOR2DNONUNIFORM($,$,#473,1.00009169105351,1.);
#476=IFCDERIVEDPROFILEDEF($,$,#472,#475,$);
#477=IFCCARTESIANPOINT((30.,0.));
#478=IFCAXIS2PLACEMENT2D(#477,$);
#479=IFCCSHAPEPROFILEDEF(.AREA.,$,#478,150.,60.,6.,20.,$);
#480=IFCCARTESIANPOINT((0.,0.,0.));
#481=IFCDIRECTION((1.,0.,0.));
#482=IFCDIRECTION((0.,1.,0.));
#483=IFCAXIS2PLACEMENT3D(#480,#481,#482);
#484=IFCCARTESIANPOINT((500.,0.,0.));
#485=IFCDIRECTION((0.9999,0.0131,-0.));
#486=IFCDIRECTION((-0.0131,0.9999,0.));
#487=IFCAXIS2PLACEMENT3D(#484,#485,#486);
#488=IFCCARTESIANPOINT((552.336,1.3705,0.));
#489=IFCDIRECTION((0.9986,0.0523,-0.));
#490=IFCDIRECTION((-0.0523,0.9986,0.));
#491=IFCAXIS2PLACEMENT3D(#488,#489,#490);
#492=IFCCARTESIANPOINT((604.5285,5.4781,0.));
#493=IFCDIRECTION((0.9945,0.1045,-0.));
#494=IFCDIRECTION((-0.1045,0.9945,0.));
#495=IFCAXIS2PLACEMENT3D(#492,#493,#494);
#496=IFCCARTESIANPOINT((656.4345,12.3117,0.));
#497=IFCDIRECTION((0.9877,0.1564,-0.));
#498=IFCDIRECTION((-0.1564,0.9877,0.));
#499=IFCAXIS2PLACEMENT3D(#496,#497,#498);
#500=IFCCARTESIANPOINT((707.9117,21.8524,0.));
#501=IFCDIRECTION((0.9781,0.2079,-0.));
#502=IFCDIRECTION((-0.2079,0.9781,0.));
#503=IFCAXIS2PLACEMENT3D(#500,#501,#502);
#504=IFCCARTESIANPOINT((758.819,34.0742,0.));
#505=IFCDIRECTION((0.9659,0.2588,-0.));
#506=IFCDIRECTION((-0.2588,0.9659,0.));
#507=IFCAXIS2PLACEMENT3D(#504,#505,#506);
#508=IFCCARTESIANPOINT((809.017,48.9435,0.));
#509=IFCDIRECTION((0.9511,0.309,-0.));
#510=IFCDIRECTION((-0.309,0.9511,0.));
#511=IFCAXIS2PLACEMENT3D(#508,#509,#510);
#512=IFCCARTESIANPOINT((858.3679,66.4196,0.));
#513=IFCDIRECTION((0.9336,0.3584,-0.));
#514=IFCDIRECTION((-0.3584,0.9336,0.));
#515=IFCAXIS2PLACEMENT3D(#512,#513,#514);
#516=IFCCARTESIANPOINT((906.7366,86.4545,0.));
#517=IFCDIRECTION((0.9135,0.4067,-0.));
#518=IFCDIRECTION((-0.4067,0.9135,0.));
#519=IFCAXIS2PLACEMENT3D(#516,#517,#518);
#520=IFCCARTESIANPOINT((953.9905,108.9935,0.));
#521=IFCDIRECTION((0.891,0.454,-0.));
#522=IFCDIRECTION((-0.454,0.891,0.));
#523=IFCAXIS2PLACEMENT3D(#520,#521,#522);
#524=IFCCARTESIANPOINT((1000.,133.9746,0.));
#525=IFCDIRECTION((0.866,0.5,-0.));
#526=IFCDIRECTION((-0.5,0.866,0.));
#527=IFCAXIS2PLACEMENT3D(#524,#525,#526);
#528=IFCCARTESIANPOINT((1044.639,161.3294,0.));
#529=IFCDIRECTION((0.8387,0.5446,-0.));
#530=IFCDIRECTION((-0.5446,0.8387,0.));
#531=IFCAXIS2PLACEMENT3D(#528,#529,#530);
#532=IFCCARTESIANPOINT((1087.7853,190.983,0.));
#533=IFCDIRECTION((0.809,0.5878,-0.));
#534=IFCDIRECTION((-0.5878,0.809,0.));
#535=IFCAXIS2PLACEMENT3D(#532,#533,#534);
#536=IFCCARTESIANPOINT((1129.3204,222.854,0.));
#537=IFCDIRECTION((0.7771,0.6293,-0.));
#538=IFCDIRECTION((-0.6293,0.7771,0.));
#539=IFCAXIS2PLACEMENT3D(#536,#537,#538);
#540=IFCCARTESIANPOINT((1169.1306,256.8552,0.));
#541=IFCDIRECTION((0.7431,0.6691,-0.));
#542=IFCDIRECTION((-0.6691,0.7431,0.));
#543=IFCAXIS2PLACEMENT3D(#540,#541,#542);
#544=IFCCARTESIANPOINT((1207.1068,292.8932,0.));
#545=IFCDIRECTION((0.7071,0.7071,-0.));
#546=IFCDIRECTION((-0.7071,0.7071,0.));
#547=IFCAXIS2PLACEMENT3D(#544,#545,#546);
#548=IFCCARTESIANPOINT((1243.1448,330.8694,0.));
#549=IFCDIRECTION((0.6691,0.7431,-0.));
#550=IFCDIRECTION((-0.7431,0.6691,0.));
#551=IFCAXIS2PLACEMENT3D(#548,#549,#550);
#552=IFCCARTESIANPOINT((1277.146,370.6796,0.));
#553=IFCDIRECTION((0.6293,0.7771,-0.));
#554=IFCDIRECTION((-0.7771,0.6293,0.));
#555=IFCAXIS2PLACEMENT3D(#552,#553,#554);
#556=IFCCARTESIANPOINT((1309.017,412.2147,0.));
#557=IFCDIRECTION((0.5878,0.809,-0.));
#558=IFCDIRECTION((-0.809,0.5878,0.));
#559=IFCAXIS2PLACEMENT3D(#556,#557,#558);
#560=IFCCARTESIANPOINT((1338.6706,455.361,0.));
#561=IFCDIRECTION((0.5446,0.8387,-0.));
#562=IFCDIRECTION((-0.8387,0.5446,0.));
#563=IFCAXIS2PLACEMENT3D(#560,#561,#562);
#564=IFCCARTESIANPOINT((1366.0254,500.,0.));
#565=IFCDIRECTION((0.5,0.866,-0.));
#566=IFCDIRECTION((-0.866,0.5,0.));
#567=IFCAXIS2PLACEMENT3D(#564,#565,#566);
#568=IFCCARTESIANPOINT((1391.0065,546.0095,0.));
#569=IFCDIRECTION((0.454,0.891,-0.));
#570=IFCDIRECTION((-0.891,0.454,0.));
#571=IFCAXIS2PLACEMENT3D(#568,#569,#570);
#572=IFCCARTESIANPOINT((1413.5455,593.2634,0.));
#573=IFCDIRECTION((0.4067,0.9135,-0.));
#574=IFCDIRECTION((-0.9135,0.4067,0.));
#575=IFCAXIS2PLACEMENT3D(#572,#573,#574);
#576=IFCCARTESIANPOINT((1433.5804,641.6321,0.));
#577=IFCDIRECTION((0.3584,0.9336,-0.));
#578=IFCDIRECTION((-0.9336,0.3584,0.));
#579=IFCAXIS2PLACEMENT3D(#576,#577,#578);
#580=IFCCARTESIANPOINT((1451.0565,690.983,0.));
#581=IFCDIRECTION((0.309,0.9511,-0.));
#582=IFCDIRECTION((-0.9511,0.309,0.));
#583=IFCAXIS2PLACEMENT3D(#580,#581,#582);
#584=IFCCARTESIANPOINT((1465.9258,741.181,0.));
#585=IFCDIRECTION((0.2588,0.9659,-0.));
#586=IFCDIRECTION((-0.9659,0.2588,0.));
#587=IFCAXIS2PLACEMENT3D(#584,#585,#586);
#588=IFCCARTESIANPOINT((1478.1476,792.0883,0.));
#589=IFCDIRECTION((0.2079,0.9781,-0.));
#590=IFCDIRECTION((-0.9781,0.2079,0.));
#591=IFCAXIS2PLACEMENT3D(#588,#589,#590);
#592=IFCCARTESIANPOINT((1487.6883,843.5655,0.));
#593=IFCDIRECTION((0.1564,0.9877,-0.));
#594=IFCDIRECTION((-0.9877,0.1564,0.));
#595=IFCAXIS2PLACEMENT3D(#592,#593,#594);
#596=IFCCARTESIANPOINT((1494.5219,895.4715,0.));
#597=IFCDIRECTION((0.1045,0.9945,-0.));
#598=IFCDIRECTION((-0.9945,0.1045,0.));
#599=IFCAXIS2PLACEMENT3D(#596,#597,#598);
#600=IFCCARTESIANPOINT((1498.6295,947.664,0.));
#601=IFCDIRECTION((0.0523,0.9986,-0.));
#602=IFCDIRECTION((-0.9986,0.0523,0.));
#603=IFCAXIS2PLACEMENT3D(#600,#601,#602);
#604=IFCCARTESIANPOINT((1500.,1000.,0.));
#605=IFCDIRECTION((0.0131,0.9999,-0.));
#606=IFCDIRECTION((-0.9999,0.0131,0.));
#607=IFCAXIS2PLACEMENT3D(#604,#605,#606);
#608=IFCCARTESIANPOINT((1500.,2000.,0.));
#609=IFCDIRECTION((0.0135,0.9999,-0.));
#610=IFCDIRECTION((-0.9999,0.0135,0.));
#611=IFCAXIS2PLACEMENT3D(#608,#609,#610);
#612=IFCCARTESIANPOINT((1501.4666,2054.1389,0.));
#613=IFCDIRECTION((0.0541,0.9985,-0.));
#614=IFCDIRECTION((-0.9985,0.0541,0.));
#615=IFCAXIS2PLACEMENT3D(#612,#613,#614);
#616=IFCCARTESIANPOINT((1505.862,2108.119,0.));
#617=IFCDIRECTION((0.1081,0.9941,-0.));
#618=IFCDIRECTION((-0.9941,0.1081,0.));
#619=IFCAXIS2PLACEMENT3D(#616,#617,#618);
#620=IFCCARTESIANPOINT((1513.1735,2161.782,0.));
#621=IFCDIRECTION((0.1618,0.9868,-0.));
#622=IFCDIRECTION((-0.9868,0.1618,0.));
#623=IFCAXIS2PLACEMENT3D(#620,#621,#622);
#624=IFCCARTESIANPOINT((1523.3794,2214.9704,0.));
#625=IFCDIRECTION((0.215,0.9766,-0.));
#626=IFCDIRECTION((-0.9766,0.215,0.));
#627=IFCAXIS2PLACEMENT3D(#624,#625,#626);
#628=IFCCARTESIANPOINT((1536.45,2267.5283,0.));
#629=IFCDIRECTION((0.2675,0.9635,-0.));
#630=IFCDIRECTION((-0.9635,0.2675,0.));
#631=IFCAXIS2PLACEMENT3D(#628,#629,#630);
#632=IFCCARTESIANPOINT((1552.3468,2319.3015,0.));
#633=IFCDIRECTION((0.3193,0.9477,-0.));
#634=IFCDIRECTION((-0.9477,0.3193,0.));
#635=IFCAXIS2PLACEMENT3D(#632,#633,#634);
#636=IFCCARTESIANPOINT((1571.0233,2370.1382,0.));
#637=IFCDIRECTION((0.3701,0.929,-0.));
#638=IFCDIRECTION((-0.929,0.3701,0.));
#639=IFCAXIS2PLACEMENT3D(#636,#637,#638);
#640=IFCCARTESIANPOINT((1592.4246,2419.8891,0.));
#641=IFCDIRECTION((0.4199,0.9076,-0.));
#642=IFCDIRECTION((-0.9076,0.4199,0.));
#643=IFCAXIS2PLACEMENT3D(#640,#641,#642);
#644=IFCCARTESIANPOINT((1616.488,2468.4084,0.));
#645=IFCDIRECTION((0.4684,0.8835,-0.));
#646=IFCDIRECTION((-0.8835,0.4684,0.));
#647=IFCAXIS2PLACEMENT3D(#644,#645,#646);
#648=IFCCARTESIANPOINT((1643.1428,2515.5539,0.));
#649=IFCDIRECTION((0.5156,0.8569,-0.));
#650=IFCDIRECTION((-0.8569,0.5156,0.));
#651=IFCAXIS2PLACEMENT3D(#648,#649,#650);
#652=IFCCARTESIANPOINT((1672.311,2561.1871,0.));
#653=IFCDIRECTION((0.5612,0.8277,-0.));
#654=IFCDIRECTION((-0.8277,0.5612,0.));
#655=IFCAXIS2PLACEMENT3D(#652,#653,#654);
#656=IFCCARTESIANPOINT((1703.9069,2605.1742,0.));
#657=IFCDIRECTION((0.6052,0.7961,-0.));
#658=IFCDIRECTION((-0.7961,0.6052,0.));
#659=IFCAXIS2PLACEMENT3D(#656,#657,#658);
#660=IFCCARTESIANPOINT((1737.8379,2647.3863,0.));
#661=IFCDIRECTION((0.6474,0.7622,-0.));
#662=IFCDIRECTION((-0.7622,0.6474,0.));
#663=IFCAXIS2PLACEMENT3D(#660,#661,#662);
#664=IFCCARTESIANPOINT((1774.0045,2687.6995,0.));
#665=IFCDIRECTION((0.6877,0.726,-0.));
#666=IFCDIRECTION((-0.726,0.6877,0.));
#667=IFCAXIS2PLACEMENT3D(#664,#665,#666);
#668=IFCCARTESIANPOINT((1812.3005,2725.9955,0.));
#669=IFCDIRECTION((0.726,0.6877,-0.));
#670=IFCDIRECTION((-0.6877,0.726,0.));
#671=IFCAXIS2PLACEMENT3D(#668,#669,#670);
#672=IFCCARTESIANPOINT((1852.6137,2762.1621,0.));
#673=IFCDIRECTION((0.7622,0.6474,-0.));
#674=IFCDIRECTION((-0.6474,0.7622,0.));
#675=IFCAXIS2PLACEMENT3D(#672,#673,#674);
#676=IFCCARTESIANPOINT((1894.8258,2796.0931,0.));
#677=IFCDIRECTION((0.7961,0.6052,-0.));
#678=IFCDIRECTION((-0.6052,0.7961,0.));
#679=IFCAXIS2PLACEMENT3D(#676,#677,#678);
#680=IFCCARTESIANPOINT((1938.8129,2827.689,0.));
#681=IFCDIRECTION((0.8277,0.5612,-0.));
#682=IFCDIRECTION((-0.5612,0.8277,0.));
#683=IFCAXIS2PLACEMENT3D(#680,#681,#682);
#684=IFCCARTESIANPOINT((1984.4461,2856.8572,0.));
#685=IFCDIRECTION((0.8569,0.5156,-0.));
#686=IFCDIRECTION((-0.5156,0.8569,0.));
#687=IFCAXIS2PLACEMENT3D(#684,#685,#686);
#688=IFCCARTESIANPOINT((2031.5916,2883.512,0.));
#689=IFCDIRECTION((0.8835,0.4684,-0.));
#690=IFCDIRECTION((-0.4684,0.8835,0.));
#691=IFCAXIS2PLACEMENT3D(#688,#689,#690);
#692=IFCCARTESIANPOINT((2080.1109,2907.5754,0.));
#693=IFCDIRECTION((0.9076,0.4199,-0.));
#694=IFCDIRECTION((-0.4199,0.9076,0.));
#695=IFCAXIS2PLACEMENT3D(#692,#693,#694);
#696=IFCCARTESIANPOINT((2129.8618,2928.9767,0.));
#697=IFCDIRECTION((0.929,0.3701,-0.));
#698=IFCDIRECTION((-0.3701,0.929,0.));
#699=IFCAXIS2PLACEMENT3D(#696,#697,#698);
#700=IFCCARTESIANPOINT((2180.6985,2947.6532,0.));
#701=IFCDIRECTION((0.9477,0.3193,-0.));
#702=IFCDIRECTION((-0.3193,0.9477,0.));
#703=IFCAXIS2PLACEMENT3D(#700,#701,#702);
#704=IFCCARTESIANPOINT((2232.4717,2963.55,0.));
#705=IFCDIRECTION((0.9635,0.2675,-0.));
#706=IFCDIRECTION((-0.2675,0.9635,0.));
#707=IFCAXIS2PLACEMENT3D(#704,#705,#706);
#708=IFCCARTESIANPOINT((2285.0296,2976.6206,0.));
#709=IFCDIRECTION((0.9766,0.215,-0.));
#710=IFCDIRECTION((-0.215,0.9766,0.));
#711=IFCAXIS2PLACEMENT3D(#708,#709,#710);
#712=IFCCARTESIANPOINT((2338.218,2986.8265,0.));
#713=IFCDIRECTION((0.9868,0.1618,-0.));
#714=IFCDIRECTION((-0.1618,0.9868,0.));
#715=IFCAXIS2PLACEMENT3D(#712,#713,#714);
#716=IFCCARTESIANPOINT((2391.881,2994.138,0.));
#717=IFCDIRECTION((0.9941,0.1081,-0.));
#718=IFCDIRECTION((-0.1081,0.9941,0.));
#719=IFCAXIS2PLACEMENT3D(#716,#717,#718);
#720=IFCCARTESIANPOINT((2445.8611,2998.5334,0.));
#721=IFCDIRECTION((0.9985,0.0541,-0.));
#722=IFCDIRECTION((-0.0541,0.9985,0.));
#723=IFCAXIS2PLACEMENT3D(#720,#721,#722);
#724=IFCCARTESIANPOINT((2500.,3000.,0.));
#725=IFCDIRECTION((0.9999,0.0135,-0.));
#726=IFCDIRECTION((-0.0135,0.9999,0.));
#727=IFCAXIS2PLACEMENT3D(#724,#725,#726);
#728=IFCCARTESIANPOINT((3000.,3000.,0.));
#729=IFCDIRECTION((1.,0.,0.));
#730=IFCDIRECTION((0.,1.,0.));
#731=IFCAXIS2PLACEMENT3D(#728,#729,#730);
#732=IFCCARTESIANPOINTLIST3D(((0.,30.,-75.),(0.,90.,-75.),(0.,90.,-55.),(0.,84.,-55.),(0.,84.,-69.),(0.,36.,-69.),(0.,36.,69.),(0.,84.,69.),(0.,84.,55.),(0.,90.,55.),(0.,90.,75.),(0.,30.,75.),(499.607,30.,-75.),(498.8209,90.,-75.),(498.8209,90.,-55.),(498.8995,84.,-55.),(498.8995,84.,-69.),(499.5284,36.,-69.),(499.5284,36.,69.),(498.8995,84.,69.),(498.8995,84.,55.),(498.8209,90.,55.),(498.8209,90.,75.),(499.607,30.,75.),(550.7664,31.3397,-75.),(547.6272,91.2781,-75.),(547.6272,91.2781,-55.),(547.9412,85.2843,-55.),(547.9412,85.2843,-69.),(550.4525,37.3336,-69.),(550.4525,37.3336,69.),(547.9412,85.2843,69.),(547.9412,85.2843,55.),(547.6272,91.2781,55.),(547.6272,91.2781,75.),(550.7664,31.3397,75.),(601.3923,35.3241,-75.),(595.12,95.016,-75.),(595.12,95.016,-55.),(595.7473,89.0468,-55.),(595.7473,89.0468,-69.),(600.7651,41.2933,-69.),(600.7651,41.2933,69.),(595.7473,89.0468,69.),(595.7473,89.0468,55.),(595.12,95.016,55.),(595.12,95.016,75.),(601.3923,35.3241,75.),(651.7409,41.9527,-75.),(642.3538,101.2346,-75.),(642.3538,101.2346,-55.),(643.2925,95.3064,-55.),(643.2925,95.3064,-69.),(650.8022,47.8809,-69.),(650.8022,47.8809,69.),(643.2925,95.3064,69.),(643.2925,95.3064,55.),(642.3538,101.2346,55.),(642.3538,101.2346,75.),(651.7409,41.9527,75.),(701.6723,51.2069,-75.),(689.1934,109.9159,-75.),(689.1934,109.9159,-55.),(690.4413,104.045,-55.),(690.4413,104.045,-69.),(700.4244,57.0778,-69.),(700.4244,57.0778,69.),(690.4413,104.045,69.),(690.4413,104.045,55.),(689.1934,109.9159,55.),(689.1934,109.9159,75.),(701.6723,51.2069,75.),(751.0521,63.062,-75.),(735.5183,121.0376,-75.),(735.5183,121.0376,-55.),(737.0717,115.24,-55.),(737.0717,115.24,-69.),(749.4987,68.8596,-69.),(749.4987,68.8596,69.),(737.0717,115.24,69.),(737.0717,115.24,55.),(735.5183,121.0376,55.),(735.5183,121.0376,75.),(751.0521,63.062,75.),(799.7442,77.4853,-75.),(781.1985,134.5688,-75.),(781.1985,134.5688,-55.),(783.053,128.8604,-55.),(783.053,128.8604,-69.),(797.8896,83.1936,-69.),(797.8896,83.1936,69.),(783.053,128.8604,69.),(783.053,128.8604,55.),(781.1985,134.5688,55.),(781.1985,134.5688,75.),(799.7442,77.4853,75.),(847.6125,94.4364,-75.),(826.1018,150.4699,-75.),(826.1018,150.4699,-55.),(828.2529,144.8665,-55.),(828.2529,144.8665,-69.),(845.4615,100.0397,-69.),(845.4615,100.0397,69.),(828.2529,144.8665,69.),(828.2529,144.8665,55.),(826.1018,150.4699,55.),(826.1018,150.4699,75.),(847.6125,94.4364,75.),(894.5307,113.8704,-75.),(870.119,168.7023,-75.),(870.119,168.7023,-55.),(872.5602,163.2191,-55.),(872.5602,163.2191,-69.),(892.0896,119.3536,-69.),(892.0896,119.3536,69.),(872.5602,163.2191,69.),(872.5602,163.2191,55.),(870.119,168.7023,55.),(870.119,168.7023,75.),(894.5307,113.8704,75.),(940.3658,135.7327,-75.),(913.1164,189.2111,-75.),(913.1164,189.2111,-55.),(915.8414,183.8633,-55.),(915.8414,183.8633,-69.),(937.6409,141.0805,-69.),(937.6409,141.0805,69.),(915.8414,183.8633,69.),(915.8414,183.8633,55.),(913.1164,189.2111,55.),(913.1164,189.2111,75.),(940.3658,135.7327,75.),(984.9945,159.9641,-75.),(954.9836,211.943,-75.),(954.9836,211.943,-55.),(957.9847,206.7451,-55.),(957.9847,206.7451,-69.),(981.9934,165.162,-69.),(981.9934,165.162,69.),(957.9847,206.7451,69.),(957.9847,206.7451,55.),(954.9836,211.943,55.),(954.9836,211.943,75.),(984.9945,159.9641,75.),(1028.2955,186.4989,-75.),(995.6084,236.838,-75.),(995.6084,236.838,-55.),(998.8771,231.8041,-55.),(998.8771,231.8041,-69.),(1025.0267,191.5328,-69.),(1025.0267,191.5328,69.),(998.8771,231.8041,69.),(998.8771,231.8041,55.),(995.6084,236.838,55.),(995.6084,236.838,75.),(1028.2955,186.4989,75.),(1070.1452,215.2614,-75.),(1034.8649,263.8183,-75.),(1034.8649,263.8183,-55.),(1038.3929,258.9626,-55.),(1038.3929,258.9626,-69.),(1066.6171,220.1171,-69.),(1066.6171,220.1171,69.),(1038.3929,258.9626,69.),(1038.3929,258.9626,55.),(1034.8649,263.8183,55.),(1034.8649,263.8183,75.),(1070.1452,215.2614,75.),(1110.434,246.1761,-75.),(1072.6612,292.8204,-75.),(1072.6612,292.8204,-55.),(1076.4385,288.1559,-55.),(1076.4385,288.1559,-69.),(1106.6567,250.8405,-69.),(1106.6567,250.8405,69.),(1076.4385,288.1559,69.),(1076.4385,288.1559,55.),(1072.6612,292.8204,55.),(1072.6612,292.8204,75.),(1110.434,246.1761,75.),(1149.0496,279.157,-75.),(1108.8877,323.7607,-75.),(1108.8877,323.7607,-55.),(1112.9039,319.3004,-55.),(1112.9039,319.3004,-69.),(1145.0334,283.6174,-69.),(1145.0334,283.6174,69.),(1112.9039,319.3004,69.),(1112.9039,319.3004,55.),(1108.8877,323.7607,55.),(1108.8877,323.7607,75.),(1149.0496,279.157,75.),(1185.8863,314.1137,-75.),(1143.4454,356.5546,-75.),(1143.4454,356.5546,-55.),(1147.6895,352.3105,-55.),(1147.6895,352.3105,-69.),(1181.6422,318.3578,-69.),(1181.6422,318.3578,69.),(1147.6895,352.3105,69.),(1147.6895,352.3105,55.),(1143.4454,356.5546,55.),(1143.4454,356.5546,75.),(1185.8863,314.1137,75.),(1220.843,350.9504,-75.),(1176.2393,391.1123,-75.),(1176.2393,391.1123,-55.),(1180.6996,387.0961,-55.),(1180.6996,387.0961,-69.),(1216.3826,354.9666,-69.),(1216.3826,354.9666,69.),(1180.6996,387.0961,69.),(1180.6996,387.0961,55.),(1176.2393,391.1123,55.),(1176.2393,391.1123,75.),(1220.843,350.9504,75.),(1253.8239,389.566,-75.),(1207.1796,427.3388,-75.),(1207.1796,427.3388,-55.),(1211.8441,423.5615,-55.),(1211.8441,423.5615,-69.),(1249.1595,393.3433,-69.),(1249.1595,393.3433,69.),(1211.8441,423.5615,69.),(1211.8441,423.5615,55.),(1207.1796,427.3388,55.),(1207.1796,427.3388,75.),(1253.8239,389.566,75.),(1284.7386,429.8548,-75.),(1236.1817,465.1351,-75.),(1236.1817,465.1351,-55.),(1241.0374,461.6071,-55.),(1241.0374,461.6071,-69.),(1279.8829,433.3829,-69.),(1279.8829,433.3829,69.),(1241.0374,461.6071,69.),(1241.0374,461.6071,55.),(1236.1817,465.1351,55.),(1236.1817,465.1351,75.),(1284.7386,429.8548,75.),(1313.5011,471.7045,-75.),(1263.162,504.3916,-75.),(1263.162,504.3916,-55.),(1268.1959,501.1229,-55.),(1268.1959,501.1229,-69.),(1308.4672,474.9733,-69.),(1308.4672,474.9733,69.),(1268.1959,501.1229,69.),(1268.1959,501.1229,55.),(1263.162,504.3916,55.),(1263.162,504.3916,75.),(1313.5011,471.7045,75.),(1340.0359,515.0055,-75.),(1288.057,545.0164,-75.),(1288.057,545.0164,-55.),(1293.2549,542.0153,-55.),(1293.2549,542.0153,-69.),(1334.838,518.0066,-69.),(1334.838,518.0066,69.),(1293.2549,542.0153,69.),(1293.2549,542.0153,55.),(1288.057,545.0164,55.),(1288.057,545.0164,75.),(1340.0359,515.0055,75.),(1364.2673,559.6342,-75.),(1310.7889,586.8836,-75.),(1310.7889,586.8836,-55.),(1316.1367,584.1586,-55.),(1316.1367,584.1586,-69.),(1358.9195,562.3591,-69.),(1358.9195,562.3591,69.),(1316.1367,584.1586,69.),(1316.1367,584.1586,55.),(1310.7889,586.8836,55.),(1310.7889,586.8836,75.),(1364.2673,559.6342,75.),(1386.1296,605.4693,-75.),(1331.2977,629.881,-75.),(1331.2977,629.881,-55.),(1336.7809,627.4398,-55.),(1336.7809,627.4398,-69.),(1380.6464,607.9104,-69.),(1380.6464,607.9104,69.),(1336.7809,627.4398,69.),(1336.7809,627.4398,55.),(1331.2977,629.881,55.),(1331.2977,629.881,75.),(1386.1296,605.4693,75.),(1405.5636,652.3875,-75.),(1349.5301,673.8982,-75.),(1349.5301,673.8982,-55.),(1355.1335,671.7471,-55.),(1355.1335,671.7471,-69.),(1399.9603,654.5385,-69.),(1399.9603,654.5385,69.),(1355.1335,671.7471,69.),(1355.1335,671.7471,55.),(1349.5301,673.8982,55.),(1349.5301,673.8982,75.),(1405.5636,652.3875,75.),(1422.5147,700.2558,-75.),(1365.4312,718.8015,-75.),(1365.4312,718.8015,-55.),(1371.1396,716.947,-55.),(1371.1396,716.947,-69.),(1416.8064,702.1104,-69.),(1416.8064,702.1104,69.),(1371.1396,716.947,69.),(1371.1396,716.947,55.),(1365.4312,718.8015,55.),(1365.4312,718.8015,75.),(1422.5147,700.2558,75.),(1436.938,748.9479,-75.),(1378.9624,764.4817,-75.),(1378.9624,764.4817,-55.),(1384.76,762.9283,-55.),(1384.76,762.9283,-69.),(1431.1404,750.5013,-69.),(1431.1404,750.5013,69.),(1384.76,762.9283,69.),(1384.76,762.9283,55.),(1378.9624,764.4817,55.),(1378.9624,764.4817,75.),(1436.938,748.9479,75.),(1448.7931,798.3277,-75.),(1390.0841,810.8066,-75.),(1390.0841,810.8066,-55.),(1395.955,809.5587,-55.),(1395.955,809.5587,-69.),(1442.9222,799.5756,-69.),(1442.9222,799.5756,69.),(1395.955,809.5587,69.),(1395.955,809.5587,55.),(1390.0841,810.8066,55.),(1390.0841,810.8066,75.),(1448.7931,798.3277,75.),(1458.0473,848.2591,-75.),(1398.7654,857.6462,-75.),(1398.7654,857.6462,-55.),(1404.6936,856.7075,-55.),(1404.6936,856.7075,-69.),(1452.1191,849.1978,-69.),(1452.1191,849.1978,69.),(1404.6936,856.7075,69.),(1404.6936,856.7075,55.),(1398.7654,857.6462,55.),(1398.7654,857.6462,75.),(1458.0473,848.2591,75.),(1464.6759,898.6077,-75.),(1404.984,904.88,-75.),(1404.984,904.88,-55.),(1410.9532,904.2527,-55.),(1410.9532,904.2527,-69.),(1458.7067,899.2349,-69.),(1458.7067,899.2349,69.),(1410.9532,904.2527,69.),(1410.9532,904.2527,55.),(1404.984,904.88,55.),(1404.984,904.88,75.),(1464.6759,898.6077,75.),(1468.6603,949.2336,-75.),(1408.7219,952.3728,-75.),(1408.7219,952.3728,-55.),(1414.7157,952.0588,-55.),(1414.7157,952.0588,-69.),(1462.6664,949.5475,-69.),(1462.6664,949.5475,69.),(1414.7157,952.0588,69.),(1414.7157,952.0588,55.),(1408.7219,952.3728,55.),(1408.7219,952.3728,75.),(1468.6603,949.2336,75.),(1470.,1000.393,-75.),(1410.,1001.1791,-75.),(1410.,1001.1791,-55.),(1416.,1001.1005,-55.),(1416.,1001.1005,-69.),(1464.,1000.4716,-69.),(1464.,1000.4716,69.),(1416.,1001.1005,69.),(1416.,1001.1005,55.),(1410.,1001.1791,55.),(1410.,1001.1791,75.),(1470.,1000.393,75.),(1470.,2000.405,-75.),(1410.,2001.2151,-75.),(1410.,2001.2151,-55.),(1416.,2001.1341,-55.),(1416.,2001.1341,-69.),(1464.,2000.486,-69.),(1464.,2000.486,69.),(1416.,2001.1341,69.),(1416.,2001.1341,55.),(1410.,2001.2151,55.),(1410.,2001.2151,75.),(1470.,2000.405,75.),(1471.4995,2055.7626,-75.),(1411.5654,2059.0099,-75.),(1411.5654,2059.0099,-55.),(1417.5589,2058.6851,-55.),(1417.5589,2058.6851,-69.),(1465.5061,2056.0873,-69.),(1465.5061,2056.0873,69.),(1417.5589,2058.6851,69.),(1417.5589,2058.6851,55.),(1411.5654,2059.0099,55.),(1411.5654,2059.0099,75.),(1471.4995,2055.7626,75.),(1476.0269,2111.3633,-75.),(1416.3566,2117.852,-75.),(1416.3566,2117.852,-55.),(1422.3236,2117.2031,-55.),(1422.3236,2117.2031,-69.),(1470.0598,2112.0122,-69.),(1470.0598,2112.0122,69.),(1422.3236,2117.2031,69.),(1422.3236,2117.2031,55.),(1416.3566,2117.852,55.),(1416.3566,2117.852,75.),(1476.0269,2111.3633,75.),(1483.558,2166.6379,-75.),(1424.3269,2176.3497,-75.),(1424.3269,2176.3497,-55.),(1430.25,2175.3785,-55.),(1430.25,2175.3785,-69.),(1477.6348,2167.6091,-69.),(1477.6348,2167.6091,69.),(1430.25,2175.3785,69.),(1430.25,2175.3785,55.),(1424.3269,2176.3497,55.),(1424.3269,2176.3497,75.),(1483.558,2166.6379,75.),(1494.0702,2221.4229,-75.),(1435.4519,2234.3278,-75.),(1435.4519,2234.3278,-55.),(1441.3138,2233.0373,-55.),(1441.3138,2233.0373,-69.),(1488.2084,2222.7133,-69.),(1488.2084,2222.7133,69.),(1441.3138,2233.0373,69.),(1441.3138,2233.0373,55.),(1435.4519,2234.3278,55.),(1435.4519,2234.3278,75.),(1494.0702,2221.4229,75.),(1507.5328,2275.5567,-75.),(1449.6984,2291.6135,-75.),(1449.6984,2291.6135,-55.),(1455.4818,2290.0078,-55.),(1455.4818,2290.0078,-69.),(1501.7493,2277.1624,-69.),(1501.7493,2277.1624,69.),(1455.4818,2290.0078,69.),(1455.4818,2290.0078,55.),(1449.6984,2291.6135,55.),(1449.6984,2291.6135,75.),(1507.5328,2275.5567,75.),(1523.9066,2328.8836,-75.),(1467.0263,2348.0478,-75.),(1467.0263,2348.0478,-55.),(1472.7143,2346.1314,-55.),(1472.7143,2346.1314,-69.),(1518.2186,2330.8,-69.),(1518.2186,2330.8,69.),(1472.7143,2346.1314,69.),(1472.7143,2346.1314,55.),(1467.0263,2348.0478,55.),(1467.0263,2348.0478,75.),(1523.9066,2328.8836,75.),(1543.1433,2381.2452,-75.),(1487.3833,2403.4592,-75.),(1487.3833,2403.4592,-55.),(1492.9593,2401.2378,-55.),(1492.9593,2401.2378,-69.),(1537.5673,2383.4666,-69.),(1537.5673,2383.4666,69.),(1492.9593,2401.2378,69.),(1492.9593,2401.2378,55.),(1487.3833,2403.4592,55.),(1487.3833,2403.4592,75.),(1543.1433,2381.2452,75.),(1565.1873,2432.4904,-75.),(1510.7128,2457.6929,-75.),(1510.7128,2457.6929,-55.),(1516.1603,2455.1727,-55.),(1516.1603,2455.1727,-69.),(1559.7399,2435.0106,-69.),(1559.7399,2435.0106,69.),(1516.1603,2455.1727,69.),(1516.1603,2455.1727,55.),(1510.7128,2457.6929,55.),(1510.7128,2457.6929,75.),(1565.1873,2432.4904,75.),(1589.9729,2482.4658,-75.),(1536.9427,2510.5805,-75.),(1536.9427,2510.5805,-55.),(1542.2457,2507.769,-55.),(1542.2457,2507.769,-69.),(1584.6699,2485.2772,-69.),(1584.6699,2485.2772,69.),(1542.2457,2507.769,69.),(1542.2457,2507.769,55.),(1536.9427,2510.5805,55.),(1536.9427,2510.5805,75.),(1589.9729,2482.4658,75.),(1617.4279,2531.0266,-75.),(1565.9982,2561.9721,-75.),(1565.9982,2561.9721,-55.),(1571.1411,2558.8776,-55.),(1571.1411,2558.8776,-69.),(1612.2849,2534.1212,-69.),(1612.2849,2534.1212,69.),(1571.1411,2558.8776,69.),(1571.1411,2558.8776,55.),(1565.9982,2561.9721,55.),(1565.9982,2561.9721,75.),(1617.4279,2531.0266,75.),(1647.4713,2578.029,-75.),(1597.7919,2611.7128,-75.),(1597.7919,2611.7128,-55.),(1602.7598,2608.3444,-55.),(1602.7598,2608.3444,-69.),(1642.5034,2581.3974,-69.),(1642.5034,2581.3974,69.),(1602.7598,2608.3444,69.),(1602.7598,2608.3444,55.),(1597.7919,2611.7128,55.),(1597.7919,2611.7128,75.),(1647.4713,2578.029,75.),(1680.0156,2623.3365,-75.),(1632.2331,2659.661,-75.),(1632.2331,2659.661,-55.),(1637.0114,2656.0286,-55.),(1637.0114,2656.0286,-69.),(1675.2374,2626.9689,-69.),(1675.2374,2626.9689,69.),(1637.0114,2656.0286,69.),(1637.0114,2656.0286,55.),(1632.2331,2659.661,55.),(1632.2331,2659.661,75.),(1680.0156,2623.3365,75.),(1714.9644,2666.8147,-75.),(1669.2173,2705.6715,-75.),(1669.2173,2705.6715,-55.),(1673.792,2701.7858,-55.),(1673.792,2701.7858,-69.),(1710.3897,2670.7004,-69.),(1710.3897,2670.7004,69.),(1673.792,2701.7858,69.),(1673.792,2701.7858,55.),(1669.2173,2705.6715,55.),(1669.2173,2705.6715,75.),(1714.9644,2666.8147,75.),(1752.2166,2708.338,-75.),(1708.6408,2749.615,-75.),(1708.6408,2749.615,-55.),(1712.9984,2745.4873,-55.),(1712.9984,2745.4873,-69.),(1747.859,2712.4657,-69.),(1747.859,2712.4657,69.),(1712.9984,2745.4873,69.),(1712.9984,2745.4873,55.),(1708.6408,2749.615,55.),(1708.6408,2749.615,75.),(1752.2166,2708.338,75.),(1791.662,2747.7834,-75.),(1750.385,2791.3592,-75.),(1750.385,2791.3592,-55.),(1754.5127,2787.0016,-55.),(1754.5127,2787.0016,-69.),(1787.5343,2752.141,-69.),(1787.5343,2752.141,69.),(1754.5127,2787.0016,69.),(1754.5127,2787.0016,55.),(1750.385,2791.3592,55.),(1750.385,2791.3592,75.),(1791.662,2747.7834,75.),(1833.1853,2785.0356,-75.),(1794.3285,2830.7827,-75.),(1794.3285,2830.7827,-55.),(1798.2142,2826.208,-55.),(1798.2142,2826.208,-69.),(1829.2996,2789.6103,-69.),(1829.2996,2789.6103,69.),(1798.2142,2826.208,69.),(1798.2142,2826.208,55.),(1794.3285,2830.7827,55.),(1794.3285,2830.7827,75.),(1833.1853,2785.0356,75.),(1876.6635,2819.9844,-75.),(1840.339,2867.7669,-75.),(1840.339,2867.7669,-55.),(1843.9714,2862.9886,-55.),(1843.9714,2862.9886,-69.),(1873.0311,2824.7626,-69.),(1873.0311,2824.7626,69.),(1843.9714,2862.9886,69.),(1843.9714,2862.9886,55.),(1840.339,2867.7669,55.),(1840.339,2867.7669,75.),(1876.6635,2819.9844,75.),(1921.971,2852.5287,-75.),(1888.2872,2902.2081,-75.),(1888.2872,2902.2081,-55.),(1891.6556,2897.2402,-55.),(1891.6556,2897.2402,-69.),(1918.6026,2857.4966,-69.),(1918.6026,2857.4966,69.),(1891.6556,2897.2402,69.),(1891.6556,2897.2402,55.),(1888.2872,2902.2081,55.),(1888.2872,2902.2081,75.),(1921.971,2852.5287,75.),(1968.9734,2882.5721,-75.),(1938.0279,2934.0018,-75.),(1938.0279,2934.0018,-55.),(1941.1224,2928.8589,-55.),(1941.1224,2928.8589,-69.),(1965.8788,2887.7151,-69.),(1965.8788,2887.7151,69.),(1941.1224,2928.8589,69.),(1941.1224,2928.8589,55.),(1938.0279,2934.0018,55.),(1938.0279,2934.0018,75.),(1968.9734,2882.5721,75.),(2017.5342,2910.0271,-75.),(1989.4195,2963.0573,-75.),(1989.4195,2963.0573,-55.),(1992.231,2957.7543,-55.),(1992.231,2957.7543,-69.),(2014.7228,2915.3301,-69.),(2014.7228,2915.3301,69.),(1992.231,2957.7543,69.),(1992.231,2957.7543,55.),(1989.4195,2963.0573,55.),(1989.4195,2963.0573,75.),(2017.5342,2910.0271,75.),(2067.5096,2934.8127,-75.),(2042.3071,2989.2872,-75.),(2042.3071,2989.2872,-55.),(2044.8273,2983.8397,-55.),(2044.8273,2983.8397,-69.),(2064.9894,2940.2601,-69.),(2064.9894,2940.2601,69.),(2044.8273,2983.8397,69.),(2044.8273,2983.8397,55.),(2042.3071,2989.2872,55.),(2042.3071,2989.2872,75.),(2067.5096,2934.8127,75.),(2118.7548,2956.8567,-75.),(2096.5408,3012.6167,-75.),(2096.5408,3012.6167,-55.),(2098.7622,3007.0407,-55.),(2098.7622,3007.0407,-69.),(2116.5334,2962.4327,-69.),(2116.5334,2962.4327,69.),(2098.7622,3007.0407,69.),(2098.7622,3007.0407,55.),(2096.5408,3012.6167,55.),(2096.5408,3012.6167,75.),(2118.7548,2956.8567,75.),(2171.1164,2976.0934,-75.),(2151.9522,3032.9737,-75.),(2151.9522,3032.9737,-55.),(2153.8686,3027.2857,-55.),(2153.8686,3027.2857,-69.),(2169.2,2981.7814,-69.),(2169.2,2981.7814,69.),(2153.8686,3027.2857,69.),(2153.8686,3027.2857,55.),(2151.9522,3032.9737,55.),(2151.9522,3032.9737,75.),(2171.1164,2976.0934,75.),(2224.4433,2992.4672,-75.),(2208.3865,3050.3016,-75.),(2208.3865,3050.3016,-55.),(2209.9922,3044.5182,-55.),(2209.9922,3044.5182,-69.),(2222.8376,2998.2507,-69.),(2222.8376,2998.2507,69.),(2209.9922,3044.5182,69.),(2209.9922,3044.5182,55.),(2208.3865,3050.3016,55.),(2208.3865,3050.3016,75.),(2224.4433,2992.4672,75.),(2278.5771,3005.9298,-75.),(2265.6722,3064.5481,-75.),(2265.6722,3064.5481,-55.),(2266.9627,3058.6862,-55.),(2266.9627,3058.6862,-69.),(2277.2867,3011.7916,-69.),(2277.2867,3011.7916,69.),(2266.9627,3058.6862,69.),(2266.9627,3058.6862,55.),(2265.6722,3064.5481,55.),(2265.6722,3064.5481,75.),(2278.5771,3005.9298,75.),(2333.3621,3016.442,-75.),(2323.6503,3075.6731,-75.),(2323.6503,3075.6731,-55.),(2324.6215,3069.75,-55.),(2324.6215,3069.75,-69.),(2332.3909,3022.3652,-69.),(2332.3909,3022.3652,69.),(2324.6215,3069.75,69.),(2324.6215,3069.75,55.),(2323.6503,3075.6731,55.),(2323.6503,3075.6731,75.),(2333.3621,3016.442,75.),(2388.6367,3023.9731,-75.),(2382.148,3083.6434,-75.),(2382.148,3083.6434,-55.),(2382.7969,3077.6764,-55.),(2382.7969,3077.6764,-69.),(2387.9878,3029.9402,-69.),(2387.9878,3029.9402,69.),(2382.7969,3077.6764,69.),(2382.7969,3077.6764,55.),(2382.148,3083.6434,55.),(2382.148,3083.6434,75.),(2388.6367,3023.9731,75.),(2444.2374,3028.5005,-75.),(2440.9901,3088.4346,-75.),(2440.9901,3088.4346,-55.),(2441.3149,3082.4411,-55.),(2441.3149,3082.4411,-69.),(2443.9127,3034.4939,-69.),(2443.9127,3034.4939,69.),(2441.3149,3082.4411,69.),(2441.3149,3082.4411,55.),(2440.9901,3088.4346,55.),(2440.9901,3088.4346,75.),(2444.2374,3028.5005,75.),(2499.595,3030.,-75.),(2498.7849,3090.,-75.),(2498.7849,3090.,-55.),(2498.8659,3084.,-55.),(2498.8659,3084.,-69.),(2499.514,3036.,-69.),(2499.514,3036.,69.),(2498.8659,3084.,69.),(2498.8659,3084.,55.),(2498.7849,3090.,55.),(2498.7849,3090.,75.),(2499.595,3030.,75.),(3000.,3030.,-75.),(3000.,3090.,-75.),(3000.,3090.,-55.),(3000.,3084.,-55.),(3000.,3084.,-69.),(3000.,3036.,-69.),(3000.,3036.,69.),(3000.,3084.,69.),(3000.,3084.,55.),(3000.,3090.,55.),(3000.,3090.,75.),(3000.,3030.,75.)));
#733=IFCTRIANGULATEDFACESET(#732,$,.F.,((1,2,14),(1,14,13),(2,3,15),(2,15,14),(3,4,16),(3,16,15),(4,5,17),(4,17,16),(5,6,18),(5,18,17),(6,7,19),(6,19,18),(7,8,20),(7,20,19),(8,9,21),(8,21,20),(9,10,22),(9,22,21),(10,11,23),(10,23,22),(11,12,24),(11,24,23),(12,1,13),(12,13,24),(13,14,26),(13,26,25),(14,15,27),(14,27,26),(15,16,28),(15,28,27),(16,17,29),(16,29,28),(17,18,30),(17,30,29),(18,19,31),(18,31,30),(19,20,32),(19,32,31),(20,21,33),(20,33,32),(21,22,34),(21,34,33),(22,23,35),(22,35,34),(23,24,36),(23,36,35),(24,13,25),(24,25,36),(25,26,38),(25,38,37),(26,27,39),(26,39,38),(27,28,40),(27,40,39),(28,29,41),(28,41,40),(29,30,42),(29,42,41),(30,31,43),(30,43,42),(31,32,44),(31,44,43),(32,33,45),(32,45,44),(33,34,46),(33,46,45),(34,35,47),(34,47,46),(35,36,48),(35,48,47),(36,25,37),(36,37,48),(37,38,50),(37,50,49),(38,39,51),(38,51,50),(39,40,52),(39,52,51),(40,41,53),(40,53,52),(41,42,54),(41,54,53),(42,43,55),(42,55,54),(43,44,56),(43,56,55),(44,45,57),(44,57,56),(45,46,58),(45,58,57),(46,47,59),(46,59,58),(47,48,60),(47,60,59),(48,37,49),(48,49,60),(49,50,62),(49,62,61),(50,51,63),(50,63,62),(51,52,64),(51,64,63),(52,53,65),(52,65,64),(53,54,66),(53,66,65),(54,55,67),(54,67,66),(55,56,68),(55,68,67),(56,57,69),(56,69,68),(57,58,70),(57,70,69),(58,59,71),(58,71,70),(59,60,72),(59,72,71),(60,49,61),(60,61,72),(61,62,74),(61,74,73),(62,63,75),(62,75,74),(63,64,76),(63,76,75),(64,65,77),(64,77,76),(65,66,78),(65,78,77),(66,67,79),(66,79,78),(67,68,80),(67,80,79),(68,69,81),(68,81,80),(69,70,82),(69,82,81),(70,71,83),(70,83,82),(71,72,84),(71,84,83),(72,61,73),(72,73,84),(73,74,86),(73,86,85),(74,75,87),(74,87,86),(75,76,88),(75,88,87),(76,77,89),(76,89,88),(77,78,90),(77,90,89),(78,79,91),(78,91,90),(79,80,92),(79,92,91),(80,81,93),(80,93,92),(81,82,94),(81,94,93),(82,83,95),(82,95,94),(83,84,96),(83,96,95),(84,73,85),(84,85,96),(85,86,98),(85,98,97),(86,87,99),(86,99,98),(87,88,100),(87,100,99),(88,89,101),(88,101,100),(89,90,102),(89,102,101),(90,91,103),(90,103,102),(91,92,104),(91,104,103),(92,93,105),(92,105,104),(93,94,106),(93,106,105),(94,95,107),(94,107,106),(95,96,108),(95,108,107),(96,85,97),(96,97,108),(97,98,110),(97,110,109),(98,99,111),(98,111,110),(99,100,112),(99,112,111),(100,101,113),(100,113,112),(101,102,114),(101,114,113),(102,103,115),(102,115,114),(103,104,116),(103,116,115),(104,105,117),(104,117,116),(105,106,118),(105,118,117),(106,107,119),(106,119,118),(107,108,120),(107,120,119),(108,97,109),(108,109,120),(109,110,122),(109,122,121),(110,111,123),(110,123,122),(111,112,124),(111,124,123),(112,113,125),(112,125,124),(113,114,126),(113,126,125),(114,115,127),(114,127,126),(115,116,128),(115,128,127),(116,117,129),(116,129,128),(117,118,130),(117,130,129),(118,119,131),(118,131,130),(119,120,132),(119,132,131),(120,109,121),(120,121,132),(121,122,134),(121,134,133),(122,123,135),(122,135,134),(123,124,136),(123,136,135),(124,125,137),(124,137,136),(125,126,138),(125,138,137),(126,127,139),(126,139,138),(127,128,140),(127,140,139),(128,129,141),(128,141,140),(129,130,142),(129,142,141),(130,131,143),(130,143,142),(131,132,144),(131,144,143),(132,121,133),(132,133,144),(133,134,146),(133,146,145),(134,135,147),(134,147,146),(135,136,148),(135,148,147),(136,137,149),(136,149,148),(137,138,150),(137,150,149),(138,139,151),(138,151,150),(139,140,152),(139,152,151),(140,141,153),(140,153,152),(141,142,154),(141,154,153),(142,143,155),(142,155,154),(143,144,156),(143,156,155),(144,133,145),(144,145,156),(145,146,158),(145,158,157),(146,147,159),(146,159,158),(147,148,160),(147,160,159),(148,149,161),(148,161,160),(149,150,162),(149,162,161),(150,151,163),(150,163,162),(151,152,164),(151,164,163),(152,153,165),(152,165,164),(153,154,166),(153,166,165),(154,155,167),(154,167,166),(155,156,168),(155,168,167),(156,145,157),(156,157,168),(157,158,170),(157,170,169),(158,159,171),(158,171,170),(159,160,172),(159,172,171),(160,161,173),(160,173,172),(161,162,174),(161,174,173),(162,163,175),(162,175,174),(163,164,176),(163,176,175),(164,165,177),(164,177,176),(165,166,178),(165,178,177),(166,167,179),(166,179,178),(167,168,180),(167,180,179),(168,157,169),(168,169,180),(169,170,182),(169,182,181),(170,171,183),(170,183,182),(171,172,184),(171,184,183),(172,173,185),(172,185,184),(173,174,186),(173,186,185),(174,175,187),(174,187,186),(175,176,188),(175,188,187),(176,177,189),(176,189,188),(177,178,190),(177,190,189),(178,179,191),(178,191,190),(179,180,192),(179,192,191),(180,169,181),(180,181,192),(181,182,194),(181,194,193),(182,183,195),(182,195,194),(183,184,196),(183,196,195),(184,185,197),(184,197,196),(185,186,198),(185,198,197),(186,187,199),(186,199,198),(187,188,200),(187,200,199),(188,189,201),(188,201,200),(189,190,202),(189,202,201),(190,191,203),(190,203,202),(191,192,204),(191,204,203),(192,181,193),(192,193,204),(193,194,206),(193,206,205),(194,195,207),(194,207,206),(195,196,208),(195,208,207),(196,197,209),(196,209,208),(197,198,210),(197,210,209),(198,199,211),(198,211,210),(199,200,212),(199,212,211),(200,201,213),(200,213,212),(201,202,214),(201,214,213),(202,203,215),(202,215,214),(203,204,216),(203,216,215),(204,193,205),(204,205,216),(205,206,218),(205,218,217),(206,207,219),(206,219,218),(207,208,220),(207,220,219),(208,209,221),(208,221,220),(209,210,222),(209,222,221),(210,211,223),(210,223,222),(211,212,224),(211,224,223),(212,213,225),(212,225,224),(213,214,226),(213,226,225),(214,215,227),(214,227,226),(215,216,228),(215,228,227),(216,205,217),(216,217,228),(217,218,230),(217,230,229),(218,219,231),(218,231,230),(219,220,232),(219,232,231),(220,221,233),(220,233,232),(221,222,234),(221,234,233),(222,223,235),(222,235,234),(223,224,236),(223,236,235),(224,225,237),(224,237,236),(225,226,238),(225,238,237),(226,227,239),(226,239,238),(227,228,240),(227,240,239),(228,217,229),(228,229,240),(229,230,242),(229,242,241),(230,231,243),(230,243,242),(231,232,244),(231,244,243),(232,233,245),(232,245,244),(233,234,246),(233,246,245),(234,235,247),(234,247,246),(235,236,248),(235,248,247),(236,237,249),(236,249,248),(237,238,250),(237,250,249),(238,239,251),(238,251,250),(239,240,252),(239,252,251),(240,229,241),(240,241,252),(241,242,254),(241,254,253),(242,243,255),(242,255,254),(243,244,256),(243,256,255),(244,245,257),(244,257,256),(245,246,258),(245,258,257),(246,247,259),(246,259,258),(247,248,260),(247,260,259),(248,249,261),(248,261,260),(249,250,262),(249,262,261),(250,251,263),(250,263,262),(251,252,264),(251,264,263),(252,241,253),(252,253,264),(253,254,266),(253,266,265),(254,255,267),(254,267,266),(255,256,268),(255,268,267),(256,257,269),(256,269,268),(257,258,270),(257,270,269),(258,259,271),(258,271,270),(259,260,272),(259,272,271),(260,261,273),(260,273,272),(261,262,274),(261,274,273),(262,263,275),(262,275,274),(263,264,276),(263,276,275),(264,253,265),(264,265,276),(265,266,278),(265,278,277),(266,267,279),(266,279,278),(267,268,280),(267,280,279),(268,269,281),(268,281,280),(269,270,282),(269,282,281),(270,271,283),(270,283,282),(271,272,284),(271,284,283),(272,273,285),(272,285,284),(273,274,286),(273,286,285),(274,275,287),(274,287,286),(275,276,288),(275,288,287),(276,265,277),(276,277,288),(277,278,290),(277,290,289),(278,279,291),(278,291,290),(279,280,292),(279,292,291),(280,281,293),(280,293,292),(281,282,294),(281,294,293),(282,283,295),(282,295,294),(283,284,296),(283,296,295),(284,285,297),(284,297,296),(285,286,298),(285,298,297),(286,287,299),(286,299,298),(287,288,300),(287,300,299),(288,277,289),(288,289,300),(289,290,302),(289,302,301),(290,291,303),(290,303,302),(291,292,304),(291,304,303),(292,293,305),(292,305,304),(293,294,306),(293,306,305),(294,295,307),(294,307,306),(295,296,308),(295,308,307),(296,297,309),(296,309,308),(297,298,310),(297,310,309),(298,299,311),(298,311,310),(299,300,312),(299,312,311),(300,289,301),(300,301,312),(301,302,314),(301,314,313),(302,303,315),(302,315,314),(303,304,316),(303,316,315),(304,305,317),(304,317,316),(305,306,318),(305,318,317),(306,307,319),(306,319,318),(307,308,320),(307,320,319),(308,309,321),(308,321,320),(309,310,322),(309,322,321),(310,311,323),(310,323,322),(311,312,324),(311,324,323),(312,301,313),(312,313,324),(313,314,326),(313,326,325),(314,315,327),(314,327,326),(315,316,328),(315,328,327),(316,317,329),(316,329,328),(317,318,330),(317,330,329),(318,319,331),(318,331,330),(319,320,332),(319,332,331),(320,321,333),(320,333,332),(321,322,334),(321,334,333),(322,323,335),(322,335,334),(323,324,336),(323,336,335),(324,313,325),(324,325,336),(325,326,338),(325,338,337),(326,327,339),(326,339,338),(327,328,340),(327,340,339),(328,329,341),(328,341,340),(329,330,342),(329,342,341),(330,331,343),(330,343,342),(331,332,344),(331,344,343),(332,333,345),(332,345,344),(333,334,346),(333,346,345),(334,335,347),(334,347,346),(335,336,348),(335,348,347),(336,325,337),(336,337,348),(337,338,350),(337,350,349),(338,339,351),(338,351,350),(339,340,352),(339,352,351),(340,341,353),(340,353,352),(341,342,354),(341,354,353),(342,343,355),(342,355,354),(343,344,356),(343,356,355),(344,345,357),(344,357,356),(345,346,358),(345,358,357),(346,347,359),(346,359,358),(347,348,360),(347,360,359),(348,337,349),(348,349,360),(349,350,362),(349,362,361),(350,351,363),(350,363,362),(351,352,364),(351,364,363),(352,353,365),(352,365,364),(353,354,366),(353,366,365),(354,355,367),(354,367,366),(355,356,368),(355,368,367),(356,357,369),(356,369,368),(357,358,370),(357,370,369),(358,359,371),(358,371,370),(359,360,372),(359,372,371),(360,349,361),(360,361,372),(361,362,374),(361,374,373),(362,363,375),(362,375,374),(363,364,376),(363,376,375),(364,365,377),(364,377,376),(365,366,378),(365,378,377),(366,367,379),(366,379,378),(367,368,380),(367,380,379),(368,369,381),(368,381,380),(369,370,382),(369,382,381),(370,371,383),(370,383,382),(371,372,384),(371,384,383),(372,361,373),(372,373,384),(373,374,386),(373,386,385),(374,375,387),(374,387,386),(375,376,388),(375,388,387),(376,377,389),(376,389,388),(377,378,390),(377,390,389),(378,379,391),(378,391,390),(379,380,392),(379,392,391),(380,381,393),(380,393,392),(381,382,394),(381,394,393),(382,383,395),(382,395,394),(383,384,396),(383,396,395),(384,373,385),(384,385,396),(385,386,398),(385,398,397),(386,387,399),(386,399,398),(387,388,400),(387,400,399),(388,389,401),(388,401,400),(389,390,402),(389,402,401),(390,391,403),(390,403,402),(391,392,404),(391,404,403),(392,393,405),(392,405,404),(393,394,406),(393,406,405),(394,395,407),(394,407,406),(395,396,408),(395,408,407),(396,385,397),(396,397,408),(397,398,410),(397,410,409),(398,399,411),(398,411,410),(399,400,412),(399,412,411),(400,401,413),(400,413,412),(401,402,414),(401,414,413),(402,403,415),(402,415,414),(403,404,416),(403,416,415),(404,405,417),(404,417,416),(405,406,418),(405,418,417),(406,407,419),(406,419,418),(407,408,420),(407,420,419),(408,397,409),(408,409,420),(409,410,422),(409,422,421),(410,411,423),(410,423,422),(411,412,424),(411,424,423),(412,413,425),(412,425,424),(413,414,426),(413,426,425),(414,415,427),(414,427,426),(415,416,428),(415,428,427),(416,417,429),(416,429,428),(417,418,430),(417,430,429),(418,419,431),(418,431,430),(419,420,432),(419,432,431),(420,409,421),(420,421,432),(421,422,434),(421,434,433),(422,423,435),(422,435,434),(423,424,436),(423,436,435),(424,425,437),(424,437,436),(425,426,438),(425,438,437),(426,427,439),(426,439,438),(427,428,440),(427,440,439),(428,429,441),(428,441,440),(429,430,442),(429,442,441),(430,431,443),(430,443,442),(431,432,444),(431,444,443),(432,421,433),(432,433,444),(433,434,446),(433,446,445),(434,435,447),(434,447,446),(435,436,448),(435,448,447),(436,437,449),(436,449,448),(437,438,450),(437,450,449),(438,439,451),(438,451,450),(439,440,452),(439,452,451),(440,441,453),(440,453,452),(441,442,454),(441,454,453),(442,443,455),(442,455,454),(443,444,456),(443,456,455),(444,433,445),(444,445,456),(445,446,458),(445,458,457),(446,447,459),(446,459,458),(447,448,460),(447,460,459),(448,449,461),(448,461,460),(449,450,462),(449,462,461),(450,451,463),(450,463,462),(451,452,464),(451,464,463),(452,453,465),(452,465,464),(453,454,466),(453,466,465),(454,455,467),(454,467,466),(455,456,468),(455,468,467),(456,445,457),(456,457,468),(457,458,470),(457,470,469),(458,459,471),(458,471,470),(459,460,472),(459,472,471),(460,461,473),(460,473,472),(461,462,474),(461,474,473),(462,463,475),(462,475,474),(463,464,476),(463,476,475),(464,465,477),(464,477,476),(465,466,478),(465,478,477),(466,467,479),(466,479,478),(467,468,480),(467,480,479),(468,457,469),(468,469,480),(469,470,482),(469,482,481),(470,471,483),(470,483,482),(471,472,484),(471,484,483),(472,473,485),(472,485,484),(473,474,486),(473,486,485),(474,475,487),(474,487,486),(475,476,488),(475,488,487),(476,477,489),(476,489,488),(477,478,490),(477,490,489),(478,479,491),(478,491,490),(479,480,492),(479,492,491),(480,469,481),(480,481,492),(481,482,494),(481,494,493),(482,483,495),(482,495,494),(483,484,496),(483,496,495),(484,485,497),(484,497,496),(485,486,498),(485,498,497),(486,487,499),(486,499,498),(487,488,500),(487,500,499),(488,489,501),(488,501,500),(489,490,502),(489,502,501),(490,491,503),(490,503,502),(491,492,504),(491,504,503),(492,481,493),(492,493,504),(493,494,506),(493,506,505),(494,495,507),(494,507,506),(495,496,508),(495,508,507),(496,497,509),(496,509,508),(497,498,510),(497,510,509),(498,499,511),(498,511,510),(499,500,512),(499,512,511),(500,501,513),(500,513,512),(501,502,514),(501,514,513),(502,503,515),(502,515,514),(503,504,516),(503,516,515),(504,493,505),(504,505,516),(505,506,518),(505,518,517),(506,507,519),(506,519,518),(507,508,520),(507,520,519),(508,509,521),(508,521,520),(509,510,522),(509,522,521),(510,511,523),(510,523,522),(511,512,524),(511,524,523),(512,513,525),(512,525,524),(513,514,526),(513,526,525),(514,515,527),(514,527,526),(515,516,528),(515,528,527),(516,505,517),(516,517,528),(517,518,530),(517,530,529),(518,519,531),(518,531,530),(519,520,532),(519,532,531),(520,521,533),(520,533,532),(521,522,534),(521,534,533),(522,523,535),(522,535,534),(523,524,536),(523,536,535),(524,525,537),(524,537,536),(525,526,538),(525,538,537),(526,527,539),(526,539,538),(527,528,540),(527,540,539),(528,517,529),(528,529,540),(529,530,542),(529,542,541),(530,531,543),(530,543,542),(531,532,544),(531,544,543),(532,533,545),(532,545,544),(533,534,546),(533,546,545),(534,535,547),(534,547,546),(535,536,548),(535,548,547),(536,537,549),(536,549,548),(537,538,550),(537,550,549),(538,539,551),(538,551,550),(539,540,552),(539,552,551),(540,529,541),(540,541,552),(541,542,554),(541,554,553),(542,543,555),(542,555,554),(543,544,556),(543,556,555),(544,545,557),(544,557,556),(545,546,558),(545,558,557),(546,547,559),(546,559,558),(547,548,560),(547,560,559),(548,549,561),(548,561,560),(549,550,562),(549,562,561),(550,551,563),(550,563,562),(551,552,564),(551,564,563),(552,541,553),(552,553,564),(553,554,566),(553,566,565),(554,555,567),(554,567,566),(555,556,568),(555,568,567),(556,557,569),(556,569,568),(557,558,570),(557,570,569),(558,559,571),(558,571,570),(559,560,572),(559,572,571),(560,561,573),(560,573,572),(561,562,574),(561,574,573),(562,563,575),(562,575,574),(563,564,576),(563,576,575),(564,553,565),(564,565,576),(565,566,578),(565,578,577),(566,567,579),(566,579,578),(567,568,580),(567,580,579),(568,569,581),(568,581,580),(569,570,582),(569,582,581),(570,571,583),(570,583,582),(571,572,584),(571,584,583),(572,573,585),(572,585,584),(573,574,586),(573,586,585),(574,575,587),(574,587,586),(575,576,588),(575,588,587),(576,565,577),(576,577,588),(577,578,590),(577,590,589),(578,579,591),(578,591,590),(579,580,592),(579,592,591),(580,581,593),(580,593,592),(581,582,594),(581,594,593),(582,583,595),(582,595,594),(583,584,596),(583,596,595),(584,585,597),(584,597,596),(585,586,598),(585,598,597),(586,587,599),(586,599,598),(587,588,600),(587,600,599),(588,577,589),(588,589,600),(589,590,602),(589,602,601),(590,591,603),(590,603,602),(591,592,604),(591,604,603),(592,593,605),(592,605,604),(593,594,606),(593,606,605),(594,595,607),(594,607,606),(595,596,608),(595,608,607),(596,597,609),(596,609,608),(597,598,610),(597,610,609),(598,599,611),(598,611,610),(599,600,612),(599,612,611),(600,589,601),(600,601,612),(601,602,614),(601,614,613),(602,603,615),(602,615,614),(603,604,616),(603,616,615),(604,605,617),(604,617,616),(605,606,618),(605,618,617),(606,607,619),(606,619,618),(607,608,620),(607,620,619),(608,609,621),(608,621,620),(609,610,622),(609,622,621),(610,611,623),(610,623,622),(611,612,624),(611,624,623),(612,601,613),(612,613,624),(613,614,626),(613,626,625),(614,615,627),(614,627,626),(615,616,628),(615,628,627),(616,617,629),(616,629,628),(617,618,630),(617,630,629),(618,619,631),(618,631,630),(619,620,632),(619,632,631),(620,621,633),(620,633,632),(621,622,634),(621,634,633),(622,623,635),(622,635,634),(623,624,636),(623,636,635),(624,613,625),(624,625,636),(625,626,638),(625,638,637),(626,627,639),(626,639,638),(627,628,640),(627,640,639),(628,629,641),(628,641,640),(629,630,642),(629,642,641),(630,631,643),(630,643,642),(631,632,644),(631,644,643),(632,633,645),(632,645,644),(633,634,646),(633,646,645),(634,635,647),(634,647,646),(635,636,648),(635,648,647),(636,625,637),(636,637,648),(637,638,650),(637,650,649),(638,639,651),(638,651,650),(639,640,652),(639,652,651),(640,641,653),(640,653,652),(641,642,654),(641,654,653),(642,643,655),(642,655,654),(643,644,656),(643,656,655),(644,645,657),(644,657,656),(645,646,658),(645,658,657),(646,647,659),(646,659,658),(647,648,660),(647,660,659),(648,637,649),(648,649,660),(649,650,662),(649,662,661),(650,651,663),(650,663,662),(651,652,664),(651,664,663),(652,653,665),(652,665,664),(653,654,666),(653,666,665),(654,655,667),(654,667,666),(655,656,668),(655,668,667),(656,657,669),(656,669,668),(657,658,670),(657,670,669),(658,659,671),(658,671,670),(659,660,672),(659,672,671),(660,649,661),(660,661,672),(661,662,674),(661,674,673),(662,663,675),(662,675,674),(663,664,676),(663,676,675),(664,665,677),(664,677,676),(665,666,678),(665,678,677),(666,667,679),(666,679,678),(667,668,680),(667,680,679),(668,669,681),(668,681,680),(669,670,682),(669,682,681),(670,671,683),(670,683,682),(671,672,684),(671,684,683),(672,661,673),(672,673,684),(673,674,686),(673,686,685),(674,675,687),(674,687,686),(675,676,688),(675,688,687),(676,677,689),(676,689,688),(677,678,690),(677,690,689),(678,679,691),(678,691,690),(679,680,692),(679,692,691),(680,681,693),(680,693,692),(681,682,694),(681,694,693),(682,683,695),(682,695,694),(683,684,696),(683,696,695),(684,673,685),(684,685,696),(685,686,698),(685,698,697),(686,687,699),(686,699,698),(687,688,700),(687,700,699),(688,689,701),(688,701,700),(689,690,702),(689,702,701),(690,691,703),(690,703,702),(691,692,704),(691,704,703),(692,693,705),(692,705,704),(693,694,706),(693,706,705),(694,695,707),(694,707,706),(695,696,708),(695,708,707),(696,685,697),(696,697,708),(697,698,710),(697,710,709),(698,699,711),(698,711,710),(699,700,712),(699,712,711),(700,701,713),(700,713,712),(701,702,714),(701,714,713),(702,703,715),(702,715,714),(703,704,716),(703,716,715),(704,705,717),(704,717,716),(705,706,718),(705,718,717),(706,707,719),(706,719,718),(707,708,720),(707,720,719),(708,697,709),(708,709,720),(709,710,722),(709,722,721),(710,711,723),(710,723,722),(711,712,724),(711,724,723),(712,713,725),(712,725,724),(713,714,726),(713,726,725),(714,715,727),(714,727,726),(715,716,728),(715,728,727),(716,717,729),(716,729,728),(717,718,730),(717,730,729),(718,719,731),(718,731,730),(719,720,732),(719,732,731),(720,709,721),(720,721,732),(721,722,734),(721,734,733),(722,723,735),(722,735,734),(723,724,736),(723,736,735),(724,725,737),(724,737,736),(725,726,738),(725,738,737),(726,727,739),(726,739,738),(727,728,740),(727,740,739),(728,729,741),(728,741,740),(729,730,742),(729,742,741),(730,731,743),(730,743,742),(731,732,744),(731,744,743),(732,721,733),(732,733,744),(733,734,746),(733,746,745),(734,735,747),(734,747,746),(735,736,748),(735,748,747),(736,737,749),(736,749,748),(737,738,750),(737,750,749),(738,739,751),(738,751,750),(739,740,752),(739,752,751),(740,741,753),(740,753,752),(741,742,754),(741,754,753),(742,743,755),(742,755,754),(743,744,756),(743,756,755),(744,733,745),(744,745,756),(4,3,2),(5,4,2),(6,5,2),(10,9,8),(11,10,8),(12,11,8),(746,747,748),(746,748,749),(746,749,750),(752,753,754),(752,754,755),(752,755,756)),$);
#734=IFCSHAPEREPRESENTATION(#12,'Body','Tessellation',(#733));
#735=IFCCARTESIANPOINT((0.,0.,0.));
#736=IFCDIRECTION((0.,0.,1.));
#737=IFCDIRECTION((1.,0.,0.));
#738=IFCAXIS2PLACEMENT3D(#735,#736,#737);
#739=IFCLOCALPLACEMENT(#17,#738);
#740=IFCPRODUCTDEFINITIONSHAPE($,$,(#734));
#741=IFCBUILDINGELEMENTPROXY('3J_5ir7E560R3nReR63DNB',$,'fillet_s_curve',$,$,#739,#740,$,$);
#742=IFCRELCONTAINEDINSPATIALSTRUCTURE('2MncFq5YD7dv2C67nttxTZ',$,$,$,(#741),#18);
#743=IFCCOLOURRGB($,0.501960784313725,0.501960784313725,0.501960784313725);
#744=IFCSURFACESTYLERENDERING(#743,0.,$,$,$,$,$,$,.FLAT.);
#745=IFCSURFACESTYLE($,.BOTH.,(#744));
#746=IFCSTYLEDITEM(#733,(#745),$);
ENDSEC;
END-ISO-10303-21;
