ISO-10303-21;
HEADER;
FILE_DESCRIPTION(('ViewDefinition [CoordinationView]'),'2;1');
FILE_NAME('','2026-05-09T16:11:08',(''),(''),'IfcOpenShell 0.8.4-e8eb5e4','IfcOpenShell 0.8.4-e8eb5e4','');
FILE_SCHEMA(('IFC4'));
ENDSEC;
DATA;
#1=IFCPROJECT('2HMrH_0S5DZwDztuYdqKgR',$,'Unnamed Project',$,$,$,$,(#11),#6);
#2=IFCSIUNIT(*,.LENGTHUNIT.,.MILLI.,.METRE.);
#3=IFCSIUNIT(*,.AREAUNIT.,$,.SQUARE_METRE.);
#4=IFCSIUNIT(*,.VOLUMEUNIT.,$,.CUBIC_METRE.);
#5=IFCSIUNIT(*,.PLANEANGLEUNIT.,$,.RADIAN.);
#6=IFCUNITASSIGNMENT((#4,#2,#3,#5));
#7=IFCCARTESIANPOINT((0.,0.,0.));
#8=IFCDIRECTION((0.,0.,1.));
#9=IFCDIRECTION((1.,0.,0.));
#10=IFCAXIS2PLACEMENT3D(#7,#8,#9);
#11=IFCGEOMETRICREPRESENTATIONCONTEXT($,'Model',3,1.E-05,#10,$);
#12=IFCGEOMETRICREPRESENTATIONSUBCONTEXT('Body','Model',*,*,*,*,#11,$,.MODEL_VIEW.,$);
#13=IFCCARTESIANPOINT((0.,0.,0.));
#14=IFCDIRECTION((0.,0.,1.));
#15=IFCDIRECTION((1.,0.,0.));
#16=IFCAXIS2PLACEMENT3D(#13,#14,#15);
#17=IFCLOCALPLACEMENT($,#16);
#18=IFCBUILDINGSTOREY('3lKXYz2QXF0uS8uc489aeF',$,'Storey',$,$,#17,$,$,$,$);
#19=IFCRELAGGREGATES('0EJJoRAvz48e6BMvvlpZ5d',$,$,$,#1,(#18));
#20=IFCCARTESIANPOINT((0.,0.,0.));
#21=IFCCARTESIANPOINT((2000.,0.,0.));
#22=IFCPOLYLINE((#20,#21));
#23=IFCCOMPOSITECURVESEGMENT(.CONTSAMEGRADIENT.,.T.,#22);
#24=IFCCARTESIANPOINT((2000.,2000.,0.));
#25=IFCDIRECTION((0.,0.,1.));
#26=IFCDIRECTION((-0.,-1.,0.));
#27=IFCAXIS2PLACEMENT3D(#24,#25,#26);
#28=IFCCIRCLE(#27,2000.);
#29=IFCTRIMMEDCURVE(#28,(IFCPARAMETERVALUE(0.)),(IFCPARAMETERVALUE(90.)),.T.,.PARAMETER.);
#30=IFCCOMPOSITECURVESEGMENT(.CONTSAMEGRADIENT.,.T.,#29);
#31=IFCCARTESIANPOINT((4000.,2000.,0.));
#32=IFCCARTESIANPOINT((4000.,4000.,0.));
#33=IFCPOLYLINE((#31,#32));
#34=IFCCOMPOSITECURVESEGMENT(.DISCONTINUOUS.,.T.,#33);
#35=IFCCOMPOSITECURVE((#23,#30,#34),.F.);
#36=IFCCARTESIANPOINT((0.,0.));
#37=IFCAXIS2PLACEMENT2D(#36,$);
#38=IFCRECTANGLEPROFILEDEF(.AREA.,$,#37,80.,200.);
#39=IFCCARTESIANPOINT((0.,0.));
#40=IFCAXIS2PLACEMENT2D(#39,$);
#41=IFCRECTANGLEPROFILEDEF(.AREA.,$,#40,80.,200.);
#42=IFCCARTESIANPOINT((0.,0.));
#43=IFCCARTESIANTRANSFORMATIONOPERATOR2D($,$,#42,$);
#44=IFCCARTESIANTRANSFORMATIONOPERATOR2DNONUNIFORM($,$,#42,$,1.);
#45=IFCDERIVEDPROFILEDEF($,$,#41,#44,$);
#46=IFCCARTESIANPOINT((0.,0.));
#47=IFCAXIS2PLACEMENT2D(#46,$);
#48=IFCRECTANGLEPROFILEDEF(.AREA.,$,#47,80.,200.);
#49=IFCCARTESIANPOINT((0.,0.));
#50=IFCCARTESIANTRANSFORMATIONOPERATOR2D($,$,#49,$);
#51=IFCCARTESIANTRANSFORMATIONOPERATOR2DNONUNIFORM($,$,#49,$,1.);
#52=IFCDERIVEDPROFILEDEF($,$,#48,#51,$);
#53=IFCCARTESIANPOINT((0.,0.));
#54=IFCAXIS2PLACEMENT2D(#53,$);
#55=IFCRECTANGLEPROFILEDEF(.AREA.,$,#54,80.,200.);
#56=IFCCARTESIANPOINT((0.,0.));
#57=IFCCARTESIANTRANSFORMATIONOPERATOR2D($,$,#56,$);
#58=IFCCARTESIANTRANSFORMATIONOPERATOR2DNONUNIFORM($,$,#56,$,1.);
#59=IFCDERIVEDPROFILEDEF($,$,#55,#58,$);
#60=IFCCARTESIANPOINT((0.,0.));
#61=IFCAXIS2PLACEMENT2D(#60,$);
#62=IFCRECTANGLEPROFILEDEF(.AREA.,$,#61,80.,200.);
#63=IFCCARTESIANPOINT((0.,0.));
#64=IFCCARTESIANTRANSFORMATIONOPERATOR2D($,$,#63,$);
#65=IFCCARTESIANTRANSFORMATIONOPERATOR2DNONUNIFORM($,$,#63,$,1.);
#66=IFCDERIVEDPROFILEDEF($,$,#62,#65,$);
#67=IFCCARTESIANPOINT((0.,0.));
#68=IFCAXIS2PLACEMENT2D(#67,$);
#69=IFCRECTANGLEPROFILEDEF(.AREA.,$,#68,80.,200.);
#70=IFCCARTESIANPOINT((0.,0.));
#71=IFCCARTESIANTRANSFORMATIONOPERATOR2D($,$,#70,$);
#72=IFCCARTESIANTRANSFORMATIONOPERATOR2DNONUNIFORM($,$,#70,$,1.);
#73=IFCDERIVEDPROFILEDEF($,$,#69,#72,$);
#74=IFCCARTESIANPOINT((0.,0.));
#75=IFCAXIS2PLACEMENT2D(#74,$);
#76=IFCRECTANGLEPROFILEDEF(.AREA.,$,#75,80.,200.);
#77=IFCCARTESIANPOINT((0.,0.));
#78=IFCCARTESIANTRANSFORMATIONOPERATOR2D($,$,#77,$);
#79=IFCCARTESIANTRANSFORMATIONOPERATOR2DNONUNIFORM($,$,#77,$,1.);
#80=IFCDERIVEDPROFILEDEF($,$,#76,#79,$);
#81=IFCCARTESIANPOINT((0.,0.));
#82=IFCAXIS2PLACEMENT2D(#81,$);
#83=IFCRECTANGLEPROFILEDEF(.AREA.,$,#82,80.,200.);
#84=IFCCARTESIANPOINT((0.,0.));
#85=IFCCARTESIANTRANSFORMATIONOPERATOR2D($,$,#84,$);
#86=IFCCARTESIANTRANSFORMATIONOPERATOR2DNONUNIFORM($,$,#84,$,1.);
#87=IFCDERIVEDPROFILEDEF($,$,#83,#86,$);
#88=IFCCARTESIANPOINT((0.,0.));
#89=IFCAXIS2PLACEMENT2D(#88,$);
#90=IFCRECTANGLEPROFILEDEF(.AREA.,$,#89,80.,200.);
#91=IFCCARTESIANPOINT((0.,0.));
#92=IFCCARTESIANTRANSFORMATIONOPERATOR2D($,$,#91,$);
#93=IFCCARTESIANTRANSFORMATIONOPERATOR2DNONUNIFORM($,$,#91,$,1.);
#94=IFCDERIVEDPROFILEDEF($,$,#90,#93,$);
#95=IFCCARTESIANPOINT((0.,0.));
#96=IFCAXIS2PLACEMENT2D(#95,$);
#97=IFCRECTANGLEPROFILEDEF(.AREA.,$,#96,80.,200.);
#98=IFCCARTESIANPOINT((0.,0.));
#99=IFCCARTESIANTRANSFORMATIONOPERATOR2D($,$,#98,$);
#100=IFCCARTESIANTRANSFORMATIONOPERATOR2DNONUNIFORM($,$,#98,$,1.);
#101=IFCDERIVEDPROFILEDEF($,$,#97,#100,$);
#102=IFCCARTESIANPOINT((0.,0.));
#103=IFCAXIS2PLACEMENT2D(#102,$);
#104=IFCRECTANGLEPROFILEDEF(.AREA.,$,#103,80.,200.);
#105=IFCCARTESIANPOINT((0.,0.));
#106=IFCCARTESIANTRANSFORMATIONOPERATOR2D($,$,#105,$);
#107=IFCCARTESIANTRANSFORMATIONOPERATOR2DNONUNIFORM($,$,#105,$,1.);
#108=IFCDERIVEDPROFILEDEF($,$,#104,#107,$);
#109=IFCCARTESIANPOINT((0.,0.));
#110=IFCAXIS2PLACEMENT2D(#109,$);
#111=IFCRECTANGLEPROFILEDEF(.AREA.,$,#110,80.,200.);
#112=IFCCARTESIANPOINT((0.,0.));
#113=IFCCARTESIANTRANSFORMATIONOPERATOR2D($,$,#112,$);
#114=IFCCARTESIANTRANSFORMATIONOPERATOR2DNONUNIFORM($,$,#112,$,1.);
#115=IFCDERIVEDPROFILEDEF($,$,#111,#114,$);
#116=IFCCARTESIANPOINT((0.,0.));
#117=IFCAXIS2PLACEMENT2D(#116,$);
#118=IFCRECTANGLEPROFILEDEF(.AREA.,$,#117,80.,200.);
#119=IFCCARTESIANPOINT((0.,0.));
#120=IFCCARTESIANTRANSFORMATIONOPERATOR2D($,$,#119,$);
#121=IFCCARTESIANTRANSFORMATIONOPERATOR2DNONUNIFORM($,$,#119,$,1.);
#122=IFCDERIVEDPROFILEDEF($,$,#118,#121,$);
#123=IFCCARTESIANPOINT((0.,0.));
#124=IFCAXIS2PLACEMENT2D(#123,$);
#125=IFCRECTANGLEPROFILEDEF(.AREA.,$,#124,80.,200.);
#126=IFCCARTESIANPOINT((0.,0.));
#127=IFCCARTESIANTRANSFORMATIONOPERATOR2D($,$,#126,$);
#128=IFCCARTESIANTRANSFORMATIONOPERATOR2DNONUNIFORM($,$,#126,$,1.);
#129=IFCDERIVEDPROFILEDEF($,$,#125,#128,$);
#130=IFCCARTESIANPOINT((0.,0.));
#131=IFCAXIS2PLACEMENT2D(#130,$);
#132=IFCRECTANGLEPROFILEDEF(.AREA.,$,#131,80.,200.);
#133=IFCCARTESIANPOINT((0.,0.));
#134=IFCCARTESIANTRANSFORMATIONOPERATOR2D($,$,#133,$);
#135=IFCCARTESIANTRANSFORMATIONOPERATOR2DNONUNIFORM($,$,#133,$,1.);
#136=IFCDERIVEDPROFILEDEF($,$,#132,#135,$);
#137=IFCCARTESIANPOINT((0.,0.));
#138=IFCAXIS2PLACEMENT2D(#137,$);
#139=IFCRECTANGLEPROFILEDEF(.AREA.,$,#138,80.,200.);
#140=IFCCARTESIANPOINT((0.,0.));
#141=IFCCARTESIANTRANSFORMATIONOPERATOR2D($,$,#140,$);
#142=IFCCARTESIANTRANSFORMATIONOPERATOR2DNONUNIFORM($,$,#140,$,1.);
#143=IFCDERIVEDPROFILEDEF($,$,#139,#142,$);
#144=IFCCARTESIANPOINT((0.,0.));
#145=IFCAXIS2PLACEMENT2D(#144,$);
#146=IFCRECTANGLEPROFILEDEF(.AREA.,$,#145,80.,200.);
#147=IFCCARTESIANPOINT((0.,0.));
#148=IFCCARTESIANTRANSFORMATIONOPERATOR2D($,$,#147,$);
#149=IFCCARTESIANTRANSFORMATIONOPERATOR2DNONUNIFORM($,$,#147,$,1.);
#150=IFCDERIVEDPROFILEDEF($,$,#146,#149,$);
#151=IFCCARTESIANPOINT((0.,0.));
#152=IFCAXIS2PLACEMENT2D(#151,$);
#153=IFCRECTANGLEPROFILEDEF(.AREA.,$,#152,80.,200.);
#154=IFCCARTESIANPOINT((0.,0.));
#155=IFCCARTESIANTRANSFORMATIONOPERATOR2D($,$,#154,$);
#156=IFCCARTESIANTRANSFORMATIONOPERATOR2DNONUNIFORM($,$,#154,$,1.);
#157=IFCDERIVEDPROFILEDEF($,$,#153,#156,$);
#158=IFCCARTESIANPOINT((0.,0.));
#159=IFCAXIS2PLACEMENT2D(#158,$);
#160=IFCRECTANGLEPROFILEDEF(.AREA.,$,#159,80.,200.);
#161=IFCCARTESIANPOINT((0.,0.));
#162=IFCCARTESIANTRANSFORMATIONOPERATOR2D($,$,#161,$);
#163=IFCCARTESIANTRANSFORMATIONOPERATOR2DNONUNIFORM($,$,#161,$,1.);
#164=IFCDERIVEDPROFILEDEF($,$,#160,#163,$);
#165=IFCCARTESIANPOINT((0.,0.));
#166=IFCAXIS2PLACEMENT2D(#165,$);
#167=IFCRECTANGLEPROFILEDEF(.AREA.,$,#166,80.,200.);
#168=IFCCARTESIANPOINT((0.,0.));
#169=IFCCARTESIANTRANSFORMATIONOPERATOR2D($,$,#168,$);
#170=IFCCARTESIANTRANSFORMATIONOPERATOR2DNONUNIFORM($,$,#168,$,1.);
#171=IFCDERIVEDPROFILEDEF($,$,#167,#170,$);
#172=IFCCARTESIANPOINT((0.,0.));
#173=IFCAXIS2PLACEMENT2D(#172,$);
#174=IFCRECTANGLEPROFILEDEF(.AREA.,$,#173,80.,200.);
#175=IFCCARTESIANPOINT((0.,0.));
#176=IFCCARTESIANTRANSFORMATIONOPERATOR2D($,$,#175,$);
#177=IFCCARTESIANTRANSFORMATIONOPERATOR2DNONUNIFORM($,$,#175,$,1.);
#178=IFCDERIVEDPROFILEDEF($,$,#174,#177,$);
#179=IFCCARTESIANPOINT((0.,0.));
#180=IFCAXIS2PLACEMENT2D(#179,$);
#181=IFCRECTANGLEPROFILEDEF(.AREA.,$,#180,80.,200.);
#182=IFCCARTESIANPOINT((0.,0.));
#183=IFCCARTESIANTRANSFORMATIONOPERATOR2D($,$,#182,$);
#184=IFCCARTESIANTRANSFORMATIONOPERATOR2DNONUNIFORM($,$,#182,$,1.);
#185=IFCDERIVEDPROFILEDEF($,$,#181,#184,$);
#186=IFCCARTESIANPOINT((0.,0.));
#187=IFCAXIS2PLACEMENT2D(#186,$);
#188=IFCRECTANGLEPROFILEDEF(.AREA.,$,#187,80.,200.);
#189=IFCCARTESIANPOINT((0.,0.));
#190=IFCCARTESIANTRANSFORMATIONOPERATOR2D($,$,#189,$);
#191=IFCCARTESIANTRANSFORMATIONOPERATOR2DNONUNIFORM($,$,#189,$,1.);
#192=IFCDERIVEDPROFILEDEF($,$,#188,#191,$);
#193=IFCCARTESIANPOINT((0.,0.));
#194=IFCAXIS2PLACEMENT2D(#193,$);
#195=IFCRECTANGLEPROFILEDEF(.AREA.,$,#194,80.,200.);
#196=IFCCARTESIANPOINT((0.,0.));
#197=IFCCARTESIANTRANSFORMATIONOPERATOR2D($,$,#196,$);
#198=IFCCARTESIANTRANSFORMATIONOPERATOR2DNONUNIFORM($,$,#196,$,1.);
#199=IFCDERIVEDPROFILEDEF($,$,#195,#198,$);
#200=IFCCARTESIANPOINT((0.,0.));
#201=IFCAXIS2PLACEMENT2D(#200,$);
#202=IFCRECTANGLEPROFILEDEF(.AREA.,$,#201,80.,200.);
#203=IFCCARTESIANPOINT((0.,0.));
#204=IFCCARTESIANTRANSFORMATIONOPERATOR2D($,$,#203,$);
#205=IFCCARTESIANTRANSFORMATIONOPERATOR2DNONUNIFORM($,$,#203,$,1.);
#206=IFCDERIVEDPROFILEDEF($,$,#202,#205,$);
#207=IFCCARTESIANPOINT((0.,0.));
#208=IFCAXIS2PLACEMENT2D(#207,$);
#209=IFCRECTANGLEPROFILEDEF(.AREA.,$,#208,80.,200.);
#210=IFCCARTESIANPOINT((0.,0.));
#211=IFCCARTESIANTRANSFORMATIONOPERATOR2D($,$,#210,$);
#212=IFCCARTESIANTRANSFORMATIONOPERATOR2DNONUNIFORM($,$,#210,$,1.);
#213=IFCDERIVEDPROFILEDEF($,$,#209,#212,$);
#214=IFCCARTESIANPOINT((0.,0.));
#215=IFCAXIS2PLACEMENT2D(#214,$);
#216=IFCRECTANGLEPROFILEDEF(.AREA.,$,#215,80.,200.);
#217=IFCCARTESIANPOINT((0.,0.));
#218=IFCCARTESIANTRANSFORMATIONOPERATOR2D($,$,#217,$);
#219=IFCCARTESIANTRANSFORMATIONOPERATOR2DNONUNIFORM($,$,#217,$,1.);
#220=IFCDERIVEDPROFILEDEF($,$,#216,#219,$);
#221=IFCCARTESIANPOINT((0.,0.));
#222=IFCAXIS2PLACEMENT2D(#221,$);
#223=IFCRECTANGLEPROFILEDEF(.AREA.,$,#222,80.,200.);
#224=IFCCARTESIANPOINT((0.,0.));
#225=IFCCARTESIANTRANSFORMATIONOPERATOR2D($,$,#224,$);
#226=IFCCARTESIANTRANSFORMATIONOPERATOR2DNONUNIFORM($,$,#224,$,1.);
#227=IFCDERIVEDPROFILEDEF($,$,#223,#226,$);
#228=IFCCARTESIANPOINT((0.,0.));
#229=IFCAXIS2PLACEMENT2D(#228,$);
#230=IFCRECTANGLEPROFILEDEF(.AREA.,$,#229,80.,200.);
#231=IFCCARTESIANPOINT((0.,0.));
#232=IFCCARTESIANTRANSFORMATIONOPERATOR2D($,$,#231,$);
#233=IFCCARTESIANTRANSFORMATIONOPERATOR2DNONUNIFORM($,$,#231,$,1.);
#234=IFCDERIVEDPROFILEDEF($,$,#230,#233,$);
#235=IFCCARTESIANPOINT((0.,0.));
#236=IFCAXIS2PLACEMENT2D(#235,$);
#237=IFCRECTANGLEPROFILEDEF(.AREA.,$,#236,80.,200.);
#238=IFCCARTESIANPOINT((0.,0.));
#239=IFCCARTESIANTRANSFORMATIONOPERATOR2D($,$,#238,$);
#240=IFCCARTESIANTRANSFORMATIONOPERATOR2DNONUNIFORM($,$,#238,$,1.);
#241=IFCDERIVEDPROFILEDEF($,$,#237,#240,$);
#242=IFCCARTESIANPOINT((0.,0.));
#243=IFCAXIS2PLACEMENT2D(#242,$);
#244=IFCRECTANGLEPROFILEDEF(.AREA.,$,#243,80.,200.);
#245=IFCCARTESIANPOINT((0.,0.));
#246=IFCCARTESIANTRANSFORMATIONOPERATOR2D($,$,#245,$);
#247=IFCCARTESIANTRANSFORMATIONOPERATOR2DNONUNIFORM($,$,#245,$,1.);
#248=IFCDERIVEDPROFILEDEF($,$,#244,#247,$);
#249=IFCCARTESIANPOINT((0.,0.));
#250=IFCAXIS2PLACEMENT2D(#249,$);
#251=IFCRECTANGLEPROFILEDEF(.AREA.,$,#250,80.,200.);
#252=IFCCARTESIANPOINT((0.,0.));
#253=IFCCARTESIANTRANSFORMATIONOPERATOR2D($,$,#252,$);
#254=IFCCARTESIANTRANSFORMATIONOPERATOR2DNONUNIFORM($,$,#252,$,1.);
#255=IFCDERIVEDPROFILEDEF($,$,#251,#254,$);
#256=IFCCARTESIANPOINT((0.,0.));
#257=IFCAXIS2PLACEMENT2D(#256,$);
#258=IFCRECTANGLEPROFILEDEF(.AREA.,$,#257,80.,200.);
#259=IFCCARTESIANPOINT((0.,0.,0.));
#260=IFCDIRECTION((1.,0.,0.));
#261=IFCDIRECTION((0.,1.,0.));
#262=IFCAXIS2PLACEMENT3D(#259,#260,#261);
#263=IFCCARTESIANPOINT((2000.,0.,0.));
#264=IFCDIRECTION((0.9999,0.0131,-0.));
#265=IFCDIRECTION((-0.0131,0.9999,0.));
#266=IFCAXIS2PLACEMENT3D(#263,#264,#265);
#267=IFCCARTESIANPOINT((2104.6719,2.7409,0.));
#268=IFCDIRECTION((0.9986,0.0523,-0.));
#269=IFCDIRECTION((-0.0523,0.9986,0.));
#270=IFCAXIS2PLACEMENT3D(#267,#268,#269);
#271=IFCCARTESIANPOINT((2209.0569,10.9562,0.));
#272=IFCDIRECTION((0.9945,0.1045,-0.));
#273=IFCDIRECTION((-0.1045,0.9945,0.));
#274=IFCAXIS2PLACEMENT3D(#271,#272,#273);
#275=IFCCARTESIANPOINT((2312.8689,24.6233,0.));
#276=IFCDIRECTION((0.9877,0.1564,-0.));
#277=IFCDIRECTION((-0.1564,0.9877,0.));
#278=IFCAXIS2PLACEMENT3D(#275,#276,#277);
#279=IFCCARTESIANPOINT((2415.8234,43.7048,0.));
#280=IFCDIRECTION((0.9781,0.2079,-0.));
#281=IFCDIRECTION((-0.2079,0.9781,0.));
#282=IFCAXIS2PLACEMENT3D(#279,#280,#281);
#283=IFCCARTESIANPOINT((2517.6381,68.1483,0.));
#284=IFCDIRECTION((0.9659,0.2588,-0.));
#285=IFCDIRECTION((-0.2588,0.9659,0.));
#286=IFCAXIS2PLACEMENT3D(#283,#284,#285);
#287=IFCCARTESIANPOINT((2618.034,97.887,0.));
#288=IFCDIRECTION((0.9511,0.309,-0.));
#289=IFCDIRECTION((-0.309,0.9511,0.));
#290=IFCAXIS2PLACEMENT3D(#287,#288,#289);
#291=IFCCARTESIANPOINT((2716.7359,132.8391,0.));
#292=IFCDIRECTION((0.9336,0.3584,-0.));
#293=IFCDIRECTION((-0.3584,0.9336,0.));
#294=IFCAXIS2PLACEMENT3D(#291,#292,#293);
#295=IFCCARTESIANPOINT((2813.4733,172.9091,0.));
#296=IFCDIRECTION((0.9135,0.4067,-0.));
#297=IFCDIRECTION((-0.4067,0.9135,0.));
#298=IFCAXIS2PLACEMENT3D(#295,#296,#297);
#299=IFCCARTESIANPOINT((2907.981,217.987,0.));
#300=IFCDIRECTION((0.891,0.454,-0.));
#301=IFCDIRECTION((-0.454,0.891,0.));
#302=IFCAXIS2PLACEMENT3D(#299,#300,#301);
#303=IFCCARTESIANPOINT((3000.,267.9492,0.));
#304=IFCDIRECTION((0.866,0.5,-0.));
#305=IFCDIRECTION((-0.5,0.866,0.));
#306=IFCAXIS2PLACEMENT3D(#303,#304,#305);
#307=IFCCARTESIANPOINT((3089.2781,322.6589,0.));
#308=IFCDIRECTION((0.8387,0.5446,-0.));
#309=IFCDIRECTION((-0.5446,0.8387,0.));
#310=IFCAXIS2PLACEMENT3D(#307,#308,#309);
#311=IFCCARTESIANPOINT((3175.5705,381.966,0.));
#312=IFCDIRECTION((0.809,0.5878,-0.));
#313=IFCDIRECTION((-0.5878,0.809,0.));
#314=IFCAXIS2PLACEMENT3D(#311,#312,#313);
#315=IFCCARTESIANPOINT((3258.6408,445.7081,0.));
#316=IFCDIRECTION((0.7771,0.6293,-0.));
#317=IFCDIRECTION((-0.6293,0.7771,0.));
#318=IFCAXIS2PLACEMENT3D(#315,#316,#317);
#319=IFCCARTESIANPOINT((3338.2612,513.7103,0.));
#320=IFCDIRECTION((0.7431,0.6691,-0.));
#321=IFCDIRECTION((-0.6691,0.7431,0.));
#322=IFCAXIS2PLACEMENT3D(#319,#320,#321);
#323=IFCCARTESIANPOINT((3414.2136,585.7864,0.));
#324=IFCDIRECTION((0.7071,0.7071,-0.));
#325=IFCDIRECTION((-0.7071,0.7071,0.));
#326=IFCAXIS2PLACEMENT3D(#323,#324,#325);
#327=IFCCARTESIANPOINT((3486.2897,661.7388,0.));
#328=IFCDIRECTION((0.6691,0.7431,-0.));
#329=IFCDIRECTION((-0.7431,0.6691,0.));
#330=IFCAXIS2PLACEMENT3D(#327,#328,#329);
#331=IFCCARTESIANPOINT((3554.2919,741.3592,0.));
#332=IFCDIRECTION((0.6293,0.7771,-0.));
#333=IFCDIRECTION((-0.7771,0.6293,0.));
#334=IFCAXIS2PLACEMENT3D(#331,#332,#333);
#335=IFCCARTESIANPOINT((3618.034,824.4295,0.));
#336=IFCDIRECTION((0.5878,0.809,-0.));
#337=IFCDIRECTION((-0.809,0.5878,0.));
#338=IFCAXIS2PLACEMENT3D(#335,#336,#337);
#339=IFCCARTESIANPOINT((3677.3411,910.7219,0.));
#340=IFCDIRECTION((0.5446,0.8387,-0.));
#341=IFCDIRECTION((-0.8387,0.5446,0.));
#342=IFCAXIS2PLACEMENT3D(#339,#340,#341);
#343=IFCCARTESIANPOINT((3732.0508,1000.,0.));
#344=IFCDIRECTION((0.5,0.866,-0.));
#345=IFCDIRECTION((-0.866,0.5,0.));
#346=IFCAXIS2PLACEMENT3D(#343,#344,#345);
#347=IFCCARTESIANPOINT((3782.013,1092.019,0.));
#348=IFCDIRECTION((0.454,0.891,-0.));
#349=IFCDIRECTION((-0.891,0.454,0.));
#350=IFCAXIS2PLACEMENT3D(#347,#348,#349);
#351=IFCCARTESIANPOINT((3827.0909,1186.5267,0.));
#352=IFCDIRECTION((0.4067,0.9135,-0.));
#353=IFCDIRECTION((-0.9135,0.4067,0.));
#354=IFCAXIS2PLACEMENT3D(#351,#352,#353);
#355=IFCCARTESIANPOINT((3867.1609,1283.2641,0.));
#356=IFCDIRECTION((0.3584,0.9336,-0.));
#357=IFCDIRECTION((-0.9336,0.3584,0.));
#358=IFCAXIS2PLACEMENT3D(#355,#356,#357);
#359=IFCCARTESIANPOINT((3902.113,1381.966,0.));
#360=IFCDIRECTION((0.309,0.9511,-0.));
#361=IFCDIRECTION((-0.9511,0.309,0.));
#362=IFCAXIS2PLACEMENT3D(#359,#360,#361);
#363=IFCCARTESIANPOINT((3931.8517,1482.3619,0.));
#364=IFCDIRECTION((0.2588,0.9659,-0.));
#365=IFCDIRECTION((-0.9659,0.2588,0.));
#366=IFCAXIS2PLACEMENT3D(#363,#364,#365);
#367=IFCCARTESIANPOINT((3956.2952,1584.1766,0.));
#368=IFCDIRECTION((0.2079,0.9781,-0.));
#369=IFCDIRECTION((-0.9781,0.2079,0.));
#370=IFCAXIS2PLACEMENT3D(#367,#368,#369);
#371=IFCCARTESIANPOINT((3975.3767,1687.1311,0.));
#372=IFCDIRECTION((0.1564,0.9877,-0.));
#373=IFCDIRECTION((-0.9877,0.1564,0.));
#374=IFCAXIS2PLACEMENT3D(#371,#372,#373);
#375=IFCCARTESIANPOINT((3989.0438,1790.9431,0.));
#376=IFCDIRECTION((0.1045,0.9945,-0.));
#377=IFCDIRECTION((-0.9945,0.1045,0.));
#378=IFCAXIS2PLACEMENT3D(#375,#376,#377);
#379=IFCCARTESIANPOINT((3997.2591,1895.3281,0.));
#380=IFCDIRECTION((0.0523,0.9986,-0.));
#381=IFCDIRECTION((-0.9986,0.0523,0.));
#382=IFCAXIS2PLACEMENT3D(#379,#380,#381);
#383=IFCCARTESIANPOINT((4000.,2000.,0.));
#384=IFCDIRECTION((0.0131,0.9999,-0.));
#385=IFCDIRECTION((-0.9999,0.0131,0.));
#386=IFCAXIS2PLACEMENT3D(#383,#384,#385);
#387=IFCCARTESIANPOINT((4000.,4000.,0.));
#388=IFCDIRECTION((0.,1.,-0.));
#389=IFCDIRECTION((-1.,0.,0.));
#390=IFCAXIS2PLACEMENT3D(#387,#388,#389);
#391=IFCCARTESIANPOINTLIST3D(((0.,-40.,-100.),(0.,40.,-100.),(0.,40.,100.),(0.,-40.,100.),(2000.524,-39.9966,-100.),(1999.476,39.9966,-100.),(1999.476,39.9966,100.),(2000.524,-39.9966,100.),(2106.764,-37.2044,-100.),(2102.5798,42.6862,-100.),(2102.5798,42.6862,100.),(2106.764,-37.2044,100.),(2213.237,-28.8248,-100.),(2204.8768,50.7372,-100.),(2204.8768,50.7372,100.),(2213.237,-28.8248,100.),(2319.1249,-14.8845,-100.),(2306.6129,64.1311,-100.),(2306.6129,64.1311,100.),(2319.1249,-14.8845,100.),(2424.1398,4.5789,-100.),(2407.507,82.8307,-100.),(2407.507,82.8307,100.),(2424.1398,4.5789,100.),(2527.9904,29.5111,-100.),(2507.2858,106.7855,-100.),(2507.2858,106.7855,100.),(2527.9904,29.5111,100.),(2630.3936,59.8444,-100.),(2605.6744,135.9296,-100.),(2605.6744,135.9296,100.),(2630.3936,59.8444,100.),(2731.0715,95.4962,-100.),(2702.4003,170.182,-100.),(2702.4003,170.182,100.),(2731.0715,95.4962,100.),(2829.7422,136.367,-100.),(2797.2044,209.4512,-100.),(2797.2044,209.4512,100.),(2829.7422,136.367,100.),(2926.141,182.3469,-100.),(2889.821,253.6271,-100.),(2889.821,253.6271,100.),(2926.141,182.3469,100.),(3020.0004,233.3084,-100.),(2979.9996,302.59,-100.),(2979.9996,302.59,100.),(3020.0004,233.3084,100.),(3111.062,289.111,-100.),(3067.4942,356.2068,-100.),(3067.4942,356.2068,100.),(3111.062,289.111,100.),(3199.0826,349.6058,-100.),(3152.0584,414.3262,-100.),(3152.0584,414.3262,100.),(3199.0826,349.6058,100.),(3283.814,414.6226,-100.),(3233.4676,476.7936,-100.),(3233.4676,476.7936,100.),(3283.814,414.6226,100.),(3365.0266,483.9847,-100.),(3311.4958,543.4359,-100.),(3311.4958,543.4359,100.),(3365.0266,483.9847,100.),(3442.4979,557.5021,-100.),(3385.9293,614.0707,-100.),(3385.9293,614.0707,100.),(3442.4979,557.5021,100.),(3516.0153,634.9734,-100.),(3456.5641,688.5042,-100.),(3456.5641,688.5042,100.),(3516.0153,634.9734,100.),(3585.3774,716.186,-100.),(3523.2064,766.5324,-100.),(3523.2064,766.5324,100.),(3585.3774,716.186,100.),(3650.3942,800.9174,-100.),(3585.6738,847.9416,-100.),(3585.6738,847.9416,100.),(3650.3942,800.9174,100.),(3710.889,888.938,-100.),(3643.7932,932.5058,-100.),(3643.7932,932.5058,100.),(3710.889,888.938,100.),(3766.6916,979.9996,-100.),(3697.41,1020.0004,-100.),(3697.41,1020.0004,100.),(3766.6916,979.9996,100.),(3817.6531,1073.859,-100.),(3746.3729,1110.179,-100.),(3746.3729,1110.179,100.),(3817.6531,1073.859,100.),(3863.633,1170.2578,-100.),(3790.5488,1202.7956,-100.),(3790.5488,1202.7956,100.),(3863.633,1170.2578,100.),(3904.5038,1268.9285,-100.),(3829.818,1297.5997,-100.),(3829.818,1297.5997,100.),(3904.5038,1268.9285,100.),(3940.1556,1369.6064,-100.),(3864.0704,1394.3256,-100.),(3864.0704,1394.3256,100.),(3940.1556,1369.6064,100.),(3970.4889,1472.0096,-100.),(3893.2145,1492.7142,-100.),(3893.2145,1492.7142,100.),(3970.4889,1472.0096,100.),(3995.4211,1575.8602,-100.),(3917.1693,1592.493,-100.),(3917.1693,1592.493,100.),(3995.4211,1575.8602,100.),(4014.8845,1680.8751,-100.),(3935.8689,1693.3871,-100.),(3935.8689,1693.3871,100.),(4014.8845,1680.8751,100.),(4028.8248,1786.763,-100.),(3949.2628,1795.1232,-100.),(3949.2628,1795.1232,100.),(4028.8248,1786.763,100.),(4037.2044,1893.236,-100.),(3957.3138,1897.4202,-100.),(3957.3138,1897.4202,100.),(4037.2044,1893.236,100.),(4039.9966,1999.476,-100.),(3960.0034,2000.524,-100.),(3960.0034,2000.524,100.),(4039.9966,1999.476,100.),(4040.,4000.,-100.),(3960.,4000.,-100.),(3960.,4000.,100.),(4040.,4000.,100.)));
#392=IFCTRIANGULATEDFACESET(#391,$,.F.,((1,2,6),(1,6,5),(2,3,7),(2,7,6),(3,4,8),(3,8,7),(4,1,5),(4,5,8),(5,6,10),(5,10,9),(6,7,11),(6,11,10),(7,8,12),(7,12,11),(8,5,9),(8,9,12),(9,10,14),(9,14,13),(10,11,15),(10,15,14),(11,12,16),(11,16,15),(12,9,13),(12,13,16),(13,14,18),(13,18,17),(14,15,19),(14,19,18),(15,16,20),(15,20,19),(16,13,17),(16,17,20),(17,18,22),(17,22,21),(18,19,23),(18,23,22),(19,20,24),(19,24,23),(20,17,21),(20,21,24),(21,22,26),(21,26,25),(22,23,27),(22,27,26),(23,24,28),(23,28,27),(24,21,25),(24,25,28),(25,26,30),(25,30,29),(26,27,31),(26,31,30),(27,28,32),(27,32,31),(28,25,29),(28,29,32),(29,30,34),(29,34,33),(30,31,35),(30,35,34),(31,32,36),(31,36,35),(32,29,33),(32,33,36),(33,34,38),(33,38,37),(34,35,39),(34,39,38),(35,36,40),(35,40,39),(36,33,37),(36,37,40),(37,38,42),(37,42,41),(38,39,43),(38,43,42),(39,40,44),(39,44,43),(40,37,41),(40,41,44),(41,42,46),(41,46,45),(42,43,47),(42,47,46),(43,44,48),(43,48,47),(44,41,45),(44,45,48),(45,46,50),(45,50,49),(46,47,51),(46,51,50),(47,48,52),(47,52,51),(48,45,49),(48,49,52),(49,50,54),(49,54,53),(50,51,55),(50,55,54),(51,52,56),(51,56,55),(52,49,53),(52,53,56),(53,54,58),(53,58,57),(54,55,59),(54,59,58),(55,56,60),(55,60,59),(56,53,57),(56,57,60),(57,58,62),(57,62,61),(58,59,63),(58,63,62),(59,60,64),(59,64,63),(60,57,61),(60,61,64),(61,62,66),(61,66,65),(62,63,67),(62,67,66),(63,64,68),(63,68,67),(64,61,65),(64,65,68),(65,66,70),(65,70,69),(66,67,71),(66,71,70),(67,68,72),(67,72,71),(68,65,69),(68,69,72),(69,70,74),(69,74,73),(70,71,75),(70,75,74),(71,72,76),(71,76,75),(72,69,73),(72,73,76),(73,74,78),(73,78,77),(74,75,79),(74,79,78),(75,76,80),(75,80,79),(76,73,77),(76,77,80),(77,78,82),(77,82,81),(78,79,83),(78,83,82),(79,80,84),(79,84,83),(80,77,81),(80,81,84),(81,82,86),(81,86,85),(82,83,87),(82,87,86),(83,84,88),(83,88,87),(84,81,85),(84,85,88),(85,86,90),(85,90,89),(86,87,91),(86,91,90),(87,88,92),(87,92,91),(88,85,89),(88,89,92),(89,90,94),(89,94,93),(90,91,95),(90,95,94),(91,92,96),(91,96,95),(92,89,93),(92,93,96),(93,94,98),(93,98,97),(94,95,99),(94,99,98),(95,96,100),(95,100,99),(96,93,97),(96,97,100),(97,98,102),(97,102,101),(98,99,103),(98,103,102),(99,100,104),(99,104,103),(100,97,101),(100,101,104),(101,102,106),(101,106,105),(102,103,107),(102,107,106),(103,104,108),(103,108,107),(104,101,105),(104,105,108),(105,106,110),(105,110,109),(106,107,111),(106,111,110),(107,108,112),(107,112,111),(108,105,109),(108,109,112),(109,110,114),(109,114,113),(110,111,115),(110,115,114),(111,112,116),(111,116,115),(112,109,113),(112,113,116),(113,114,118),(113,118,117),(114,115,119),(114,119,118),(115,116,120),(115,120,119),(116,113,117),(116,117,120),(117,118,122),(117,122,121),(118,119,123),(118,123,122),(119,120,124),(119,124,123),(120,117,121),(120,121,124),(121,122,126),(121,126,125),(122,123,127),(122,127,126),(123,124,128),(123,128,127),(124,121,125),(124,125,128),(125,126,130),(125,130,129),(126,127,131),(126,131,130),(127,128,132),(127,132,131),(128,125,129),(128,129,132),(1,4,3),(1,3,2),(129,130,131),(129,131,132)),$);
#393=IFCSHAPEREPRESENTATION(#12,'Body','Tessellation',(#392));
#394=IFCCARTESIANPOINT((0.,0.,0.));
#395=IFCDIRECTION((0.,0.,1.));
#396=IFCDIRECTION((1.,0.,0.));
#397=IFCAXIS2PLACEMENT3D(#394,#395,#396);
#398=IFCLOCALPLACEMENT(#17,#397);
#399=IFCPRODUCTDEFINITIONSHAPE($,$,(#393));
#400=IFCBUILDINGELEMENTPROXY('2PioSBhk90dfIx_TUm05vt',$,'fillet_single_corner',$,$,#398,#399,$,$);
#401=IFCRELCONTAINEDINSPATIALSTRUCTURE('2NVhg9mcLAwxWnrFmfmOIi',$,$,$,(#400),#18);
#402=IFCCOLOURRGB($,0.501960784313725,0.501960784313725,0.501960784313725);
#403=IFCSURFACESTYLERENDERING(#402,0.,$,$,$,$,$,$,.FLAT.);
#404=IFCSURFACESTYLE($,.BOTH.,(#403));
#405=IFCSTYLEDITEM(#392,(#404),$);
ENDSEC;
END-ISO-10303-21;
