ISO-10303-21;
HEADER;
FILE_DESCRIPTION(('ViewDefinition [CoordinationView]'),'2;1');
FILE_NAME('','2026-05-10T11:09:05',(''),(''),'IfcOpenShell 0.8.4-e8eb5e4','IfcOpenShell 0.8.4-e8eb5e4','');
FILE_SCHEMA(('IFC4'));
ENDSEC;
DATA;
#1=IFCPROJECT('25BpKGYlPCwhvzJmnp5pNb',$,'Unnamed Project',$,$,$,$,(#11),#6);
#2=IFCSIUNIT(*,.LENGTHUNIT.,.MILLI.,.METRE.);
#3=IFCSIUNIT(*,.AREAUNIT.,$,.SQUARE_METRE.);
#4=IFCSIUNIT(*,.VOLUMEUNIT.,$,.CUBIC_METRE.);
#5=IFCSIUNIT(*,.PLANEANGLEUNIT.,$,.RADIAN.);
#6=IFCUNITASSIGNMENT((#5,#3,#4,#2));
#7=IFCCARTESIANPOINT((0.,0.,0.));
#8=IFCDIRECTION((0.,0.,1.));
#9=IFCDIRECTION((1.,0.,0.));
#10=IFCAXIS2PLACEMENT3D(#7,#8,#9);
#11=IFCGEOMETRICREPRESENTATIONCONTEXT($,'Model',3,1.E-05,#10,$);
#12=IFCGEOMETRICREPRESENTATIONSUBCONTEXT('Body','Model',*,*,*,*,#11,$,.MODEL_VIEW.,$);
#13=IFCCARTESIANPOINT((0.,0.,0.));
#14=IFCDIRECTION((0.,0.,1.));
#15=IFCDIRECTION((1.,0.,0.));
#16=IFCAXIS2PLACEMENT3D(#13,#14,#15);
#17=IFCLOCALPLACEMENT($,#16);
#18=IFCBUILDINGSTOREY('34WIjAwaHANRgnqbkLzegu',$,'Storey',$,$,#17,$,$,$,$);
#19=IFCRELAGGREGATES('0tF7U5KmD7hAa1AbdU4iWE',$,$,$,#1,(#18));
#20=IFCCARTESIANPOINT((0.,0.,0.));
#21=IFCCARTESIANPOINT((1500.,0.,0.));
#22=IFCPOLYLINE((#20,#21));
#23=IFCCOMPOSITECURVESEGMENT(.CONTSAMEGRADIENT.,.T.,#22);
#24=IFCCARTESIANPOINT((1500.,1500.,0.));
#25=IFCDIRECTION((0.,0.,1.));
#26=IFCDIRECTION((-0.,-1.,0.));
#27=IFCAXIS2PLACEMENT3D(#24,#25,#26);
#28=IFCCIRCLE(#27,1500.);
#29=IFCTRIMMEDCURVE(#28,(IFCPARAMETERVALUE(0.)),(IFCPARAMETERVALUE(90.)),.T.,.PARAMETER.);
#30=IFCCOMPOSITECURVESEGMENT(.CONTSAMEGRADIENT.,.T.,#29);
#31=IFCCARTESIANPOINT((3000.,1500.,0.));
#32=IFCCARTESIANPOINT((3000.,4500.,0.));
#33=IFCPOLYLINE((#31,#32));
#34=IFCCOMPOSITECURVESEGMENT(.DISCONTINUOUS.,.T.,#33);
#35=IFCCOMPOSITECURVE((#23,#30,#34),.F.);
#36=IFCCARTESIANPOINT((0.,100.));
#37=IFCAXIS2PLACEMENT2D(#36,$);
#38=IFCISHAPEPROFILEDEF(.AREA.,'I-Profile',#37,100.,200.,7.,12.,$,$,$);
#39=IFCCARTESIANPOINT((0.,100.));
#40=IFCAXIS2PLACEMENT2D(#39,$);
#41=IFCISHAPEPROFILEDEF(.AREA.,'I-Profile',#40,100.,200.,7.,12.,$,$,$);
#42=IFCCARTESIANPOINT((0.,0.));
#43=IFCCARTESIANTRANSFORMATIONOPERATOR2D($,$,#42,$);
#44=IFCCARTESIANTRANSFORMATIONOPERATOR2DNONUNIFORM($,$,#42,1.00008567976639,1.);
#45=IFCDERIVEDPROFILEDEF($,$,#41,#44,$);
#46=IFCCARTESIANPOINT((0.,100.));
#47=IFCAXIS2PLACEMENT2D(#46,$);
#48=IFCISHAPEPROFILEDEF(.AREA.,'I-Profile',#47,100.,200.,7.,12.,$,$,$);
#49=IFCCARTESIANPOINT((0.,0.));
#50=IFCCARTESIANTRANSFORMATIONOPERATOR2D($,$,#49,$);
#51=IFCCARTESIANTRANSFORMATIONOPERATOR2DNONUNIFORM($,$,#49,1.00034279249087,1.);
#52=IFCDERIVEDPROFILEDEF($,$,#48,#51,$);
#53=IFCCARTESIANPOINT((0.,100.));
#54=IFCAXIS2PLACEMENT2D(#53,$);
#55=IFCISHAPEPROFILEDEF(.AREA.,'I-Profile',#54,100.,200.,7.,12.,$,$,$);
#56=IFCCARTESIANPOINT((0.,0.));
#57=IFCCARTESIANTRANSFORMATIONOPERATOR2D($,$,#56,$);
#58=IFCCARTESIANTRANSFORMATIONOPERATOR2DNONUNIFORM($,$,#56,1.00034279249087,1.);
#59=IFCDERIVEDPROFILEDEF($,$,#55,#58,$);
#60=IFCCARTESIANPOINT((0.,100.));
#61=IFCAXIS2PLACEMENT2D(#60,$);
#62=IFCISHAPEPROFILEDEF(.AREA.,'I-Profile',#61,100.,200.,7.,12.,$,$,$);
#63=IFCCARTESIANPOINT((0.,0.));
#64=IFCCARTESIANTRANSFORMATIONOPERATOR2D($,$,#63,$);
#65=IFCCARTESIANTRANSFORMATIONOPERATOR2DNONUNIFORM($,$,#63,1.00034279249087,1.);
#66=IFCDERIVEDPROFILEDEF($,$,#62,#65,$);
#67=IFCCARTESIANPOINT((0.,100.));
#68=IFCAXIS2PLACEMENT2D(#67,$);
#69=IFCISHAPEPROFILEDEF(.AREA.,'I-Profile',#68,100.,200.,7.,12.,$,$,$);
#70=IFCCARTESIANPOINT((0.,0.));
#71=IFCCARTESIANTRANSFORMATIONOPERATOR2D($,$,#70,$);
#72=IFCCARTESIANTRANSFORMATIONOPERATOR2DNONUNIFORM($,$,#70,1.00034279249087,1.);
#73=IFCDERIVEDPROFILEDEF($,$,#69,#72,$);
#74=IFCCARTESIANPOINT((0.,100.));
#75=IFCAXIS2PLACEMENT2D(#74,$);
#76=IFCISHAPEPROFILEDEF(.AREA.,'I-Profile',#75,100.,200.,7.,12.,$,$,$);
#77=IFCCARTESIANPOINT((0.,0.));
#78=IFCCARTESIANTRANSFORMATIONOPERATOR2D($,$,#77,$);
#79=IFCCARTESIANTRANSFORMATIONOPERATOR2DNONUNIFORM($,$,#77,1.00034279249087,1.);
#80=IFCDERIVEDPROFILEDEF($,$,#76,#79,$);
#81=IFCCARTESIANPOINT((0.,100.));
#82=IFCAXIS2PLACEMENT2D(#81,$);
#83=IFCISHAPEPROFILEDEF(.AREA.,'I-Profile',#82,100.,200.,7.,12.,$,$,$);
#84=IFCCARTESIANPOINT((0.,0.));
#85=IFCCARTESIANTRANSFORMATIONOPERATOR2D($,$,#84,$);
#86=IFCCARTESIANTRANSFORMATIONOPERATOR2DNONUNIFORM($,$,#84,1.00034279249087,1.);
#87=IFCDERIVEDPROFILEDEF($,$,#83,#86,$);
#88=IFCCARTESIANPOINT((0.,100.));
#89=IFCAXIS2PLACEMENT2D(#88,$);
#90=IFCISHAPEPROFILEDEF(.AREA.,'I-Profile',#89,100.,200.,7.,12.,$,$,$);
#91=IFCCARTESIANPOINT((0.,0.));
#92=IFCCARTESIANTRANSFORMATIONOPERATOR2D($,$,#91,$);
#93=IFCCARTESIANTRANSFORMATIONOPERATOR2DNONUNIFORM($,$,#91,1.00034279249087,1.);
#94=IFCDERIVEDPROFILEDEF($,$,#90,#93,$);
#95=IFCCARTESIANPOINT((0.,100.));
#96=IFCAXIS2PLACEMENT2D(#95,$);
#97=IFCISHAPEPROFILEDEF(.AREA.,'I-Profile',#96,100.,200.,7.,12.,$,$,$);
#98=IFCCARTESIANPOINT((0.,0.));
#99=IFCCARTESIANTRANSFORMATIONOPERATOR2D($,$,#98,$);
#100=IFCCARTESIANTRANSFORMATIONOPERATOR2DNONUNIFORM($,$,#98,1.00034279249087,1.);
#101=IFCDERIVEDPROFILEDEF($,$,#97,#100,$);
#102=IFCCARTESIANPOINT((0.,100.));
#103=IFCAXIS2PLACEMENT2D(#102,$);
#104=IFCISHAPEPROFILEDEF(.AREA.,'I-Profile',#103,100.,200.,7.,12.,$,$,$);
#105=IFCCARTESIANPOINT((0.,0.));
#106=IFCCARTESIANTRANSFORMATIONOPERATOR2D($,$,#105,$);
#107=IFCCARTESIANTRANSFORMATIONOPERATOR2DNONUNIFORM($,$,#105,1.00034279249087,1.);
#108=IFCDERIVEDPROFILEDEF($,$,#104,#107,$);
#109=IFCCARTESIANPOINT((0.,100.));
#110=IFCAXIS2PLACEMENT2D(#109,$);
#111=IFCISHAPEPROFILEDEF(.AREA.,'I-Profile',#110,100.,200.,7.,12.,$,$,$);
#112=IFCCARTESIANPOINT((0.,0.));
#113=IFCCARTESIANTRANSFORMATIONOPERATOR2D($,$,#112,$);
#114=IFCCARTESIANTRANSFORMATIONOPERATOR2DNONUNIFORM($,$,#112,1.00034279249087,1.);
#115=IFCDERIVEDPROFILEDEF($,$,#111,#114,$);
#116=IFCCARTESIANPOINT((0.,100.));
#117=IFCAXIS2PLACEMENT2D(#116,$);
#118=IFCISHAPEPROFILEDEF(.AREA.,'I-Profile',#117,100.,200.,7.,12.,$,$,$);
#119=IFCCARTESIANPOINT((0.,0.));
#120=IFCCARTESIANTRANSFORMATIONOPERATOR2D($,$,#119,$);
#121=IFCCARTESIANTRANSFORMATIONOPERATOR2DNONUNIFORM($,$,#119,1.00034279249087,1.);
#122=IFCDERIVEDPROFILEDEF($,$,#118,#121,$);
#123=IFCCARTESIANPOINT((0.,100.));
#124=IFCAXIS2PLACEMENT2D(#123,$);
#125=IFCISHAPEPROFILEDEF(.AREA.,'I-Profile',#124,100.,200.,7.,12.,$,$,$);
#126=IFCCARTESIANPOINT((0.,0.));
#127=IFCCARTESIANTRANSFORMATIONOPERATOR2D($,$,#126,$);
#128=IFCCARTESIANTRANSFORMATIONOPERATOR2DNONUNIFORM($,$,#126,1.00034279249087,1.);
#129=IFCDERIVEDPROFILEDEF($,$,#125,#128,$);
#130=IFCCARTESIANPOINT((0.,100.));
#131=IFCAXIS2PLACEMENT2D(#130,$);
#132=IFCISHAPEPROFILEDEF(.AREA.,'I-Profile',#131,100.,200.,7.,12.,$,$,$);
#133=IFCCARTESIANPOINT((0.,0.));
#134=IFCCARTESIANTRANSFORMATIONOPERATOR2D($,$,#133,$);
#135=IFCCARTESIANTRANSFORMATIONOPERATOR2DNONUNIFORM($,$,#133,1.00034279249087,1.);
#136=IFCDERIVEDPROFILEDEF($,$,#132,#135,$);
#137=IFCCARTESIANPOINT((0.,100.));
#138=IFCAXIS2PLACEMENT2D(#137,$);
#139=IFCISHAPEPROFILEDEF(.AREA.,'I-Profile',#138,100.,200.,7.,12.,$,$,$);
#140=IFCCARTESIANPOINT((0.,0.));
#141=IFCCARTESIANTRANSFORMATIONOPERATOR2D($,$,#140,$);
#142=IFCCARTESIANTRANSFORMATIONOPERATOR2DNONUNIFORM($,$,#140,1.00034279249087,1.);
#143=IFCDERIVEDPROFILEDEF($,$,#139,#142,$);
#144=IFCCARTESIANPOINT((0.,100.));
#145=IFCAXIS2PLACEMENT2D(#144,$);
#146=IFCISHAPEPROFILEDEF(.AREA.,'I-Profile',#145,100.,200.,7.,12.,$,$,$);
#147=IFCCARTESIANPOINT((0.,0.));
#148=IFCCARTESIANTRANSFORMATIONOPERATOR2D($,$,#147,$);
#149=IFCCARTESIANTRANSFORMATIONOPERATOR2DNONUNIFORM($,$,#147,1.00034279249087,1.);
#150=IFCDERIVEDPROFILEDEF($,$,#146,#149,$);
#151=IFCCARTESIANPOINT((0.,100.));
#152=IFCAXIS2PLACEMENT2D(#151,$);
#153=IFCISHAPEPROFILEDEF(.AREA.,'I-Profile',#152,100.,200.,7.,12.,$,$,$);
#154=IFCCARTESIANPOINT((0.,0.));
#155=IFCCARTESIANTRANSFORMATIONOPERATOR2D($,$,#154,$);
#156=IFCCARTESIANTRANSFORMATIONOPERATOR2DNONUNIFORM($,$,#154,1.00034279249087,1.);
#157=IFCDERIVEDPROFILEDEF($,$,#153,#156,$);
#158=IFCCARTESIANPOINT((0.,100.));
#159=IFCAXIS2PLACEMENT2D(#158,$);
#160=IFCISHAPEPROFILEDEF(.AREA.,'I-Profile',#159,100.,200.,7.,12.,$,$,$);
#161=IFCCARTESIANPOINT((0.,0.));
#162=IFCCARTESIANTRANSFORMATIONOPERATOR2D($,$,#161,$);
#163=IFCCARTESIANTRANSFORMATIONOPERATOR2DNONUNIFORM($,$,#161,1.00034279249087,1.);
#164=IFCDERIVEDPROFILEDEF($,$,#160,#163,$);
#165=IFCCARTESIANPOINT((0.,100.));
#166=IFCAXIS2PLACEMENT2D(#165,$);
#167=IFCISHAPEPROFILEDEF(.AREA.,'I-Profile',#166,100.,200.,7.,12.,$,$,$);
#168=IFCCARTESIANPOINT((0.,0.));
#169=IFCCARTESIANTRANSFORMATIONOPERATOR2D($,$,#168,$);
#170=IFCCARTESIANTRANSFORMATIONOPERATOR2DNONUNIFORM($,$,#168,1.00034279249087,1.);
#171=IFCDERIVEDPROFILEDEF($,$,#167,#170,$);
#172=IFCCARTESIANPOINT((0.,100.));
#173=IFCAXIS2PLACEMENT2D(#172,$);
#174=IFCISHAPEPROFILEDEF(.AREA.,'I-Profile',#173,100.,200.,7.,12.,$,$,$);
#175=IFCCARTESIANPOINT((0.,0.));
#176=IFCCARTESIANTRANSFORMATIONOPERATOR2D($,$,#175,$);
#177=IFCCARTESIANTRANSFORMATIONOPERATOR2DNONUNIFORM($,$,#175,1.00034279249087,1.);
#178=IFCDERIVEDPROFILEDEF($,$,#174,#177,$);
#179=IFCCARTESIANPOINT((0.,100.));
#180=IFCAXIS2PLACEMENT2D(#179,$);
#181=IFCISHAPEPROFILEDEF(.AREA.,'I-Profile',#180,100.,200.,7.,12.,$,$,$);
#182=IFCCARTESIANPOINT((0.,0.));
#183=IFCCARTESIANTRANSFORMATIONOPERATOR2D($,$,#182,$);
#184=IFCCARTESIANTRANSFORMATIONOPERATOR2DNONUNIFORM($,$,#182,1.00034279249087,1.);
#185=IFCDERIVEDPROFILEDEF($,$,#181,#184,$);
#186=IFCCARTESIANPOINT((0.,100.));
#187=IFCAXIS2PLACEMENT2D(#186,$);
#188=IFCISHAPEPROFILEDEF(.AREA.,'I-Profile',#187,100.,200.,7.,12.,$,$,$);
#189=IFCCARTESIANPOINT((0.,0.));
#190=IFCCARTESIANTRANSFORMATIONOPERATOR2D($,$,#189,$);
#191=IFCCARTESIANTRANSFORMATIONOPERATOR2DNONUNIFORM($,$,#189,1.00034279249087,1.);
#192=IFCDERIVEDPROFILEDEF($,$,#188,#191,$);
#193=IFCCARTESIANPOINT((0.,100.));
#194=IFCAXIS2PLACEMENT2D(#193,$);
#195=IFCISHAPEPROFILEDEF(.AREA.,'I-Profile',#194,100.,200.,7.,12.,$,$,$);
#196=IFCCARTESIANPOINT((0.,0.));
#197=IFCCARTESIANTRANSFORMATIONOPERATOR2D($,$,#196,$);
#198=IFCCARTESIANTRANSFORMATIONOPERATOR2DNONUNIFORM($,$,#196,1.00034279249087,1.);
#199=IFCDERIVEDPROFILEDEF($,$,#195,#198,$);
#200=IFCCARTESIANPOINT((0.,100.));
#201=IFCAXIS2PLACEMENT2D(#200,$);
#202=IFCISHAPEPROFILEDEF(.AREA.,'I-Profile',#201,100.,200.,7.,12.,$,$,$);
#203=IFCCARTESIANPOINT((0.,0.));
#204=IFCCARTESIANTRANSFORMATIONOPERATOR2D($,$,#203,$);
#205=IFCCARTESIANTRANSFORMATIONOPERATOR2DNONUNIFORM($,$,#203,1.00034279249087,1.);
#206=IFCDERIVEDPROFILEDEF($,$,#202,#205,$);
#207=IFCCARTESIANPOINT((0.,100.));
#208=IFCAXIS2PLACEMENT2D(#207,$);
#209=IFCISHAPEPROFILEDEF(.AREA.,'I-Profile',#208,100.,200.,7.,12.,$,$,$);
#210=IFCCARTESIANPOINT((0.,0.));
#211=IFCCARTESIANTRANSFORMATIONOPERATOR2D($,$,#210,$);
#212=IFCCARTESIANTRANSFORMATIONOPERATOR2DNONUNIFORM($,$,#210,1.00034279249087,1.);
#213=IFCDERIVEDPROFILEDEF($,$,#209,#212,$);
#214=IFCCARTESIANPOINT((0.,100.));
#215=IFCAXIS2PLACEMENT2D(#214,$);
#216=IFCISHAPEPROFILEDEF(.AREA.,'I-Profile',#215,100.,200.,7.,12.,$,$,$);
#217=IFCCARTESIANPOINT((0.,0.));
#218=IFCCARTESIANTRANSFORMATIONOPERATOR2D($,$,#217,$);
#219=IFCCARTESIANTRANSFORMATIONOPERATOR2DNONUNIFORM($,$,#217,1.00034279249087,1.);
#220=IFCDERIVEDPROFILEDEF($,$,#216,#219,$);
#221=IFCCARTESIANPOINT((0.,100.));
#222=IFCAXIS2PLACEMENT2D(#221,$);
#223=IFCISHAPEPROFILEDEF(.AREA.,'I-Profile',#222,100.,200.,7.,12.,$,$,$);
#224=IFCCARTESIANPOINT((0.,0.));
#225=IFCCARTESIANTRANSFORMATIONOPERATOR2D($,$,#224,$);
#226=IFCCARTESIANTRANSFORMATIONOPERATOR2DNONUNIFORM($,$,#224,1.00034279249087,1.);
#227=IFCDERIVEDPROFILEDEF($,$,#223,#226,$);
#228=IFCCARTESIANPOINT((0.,100.));
#229=IFCAXIS2PLACEMENT2D(#228,$);
#230=IFCISHAPEPROFILEDEF(.AREA.,'I-Profile',#229,100.,200.,7.,12.,$,$,$);
#231=IFCCARTESIANPOINT((0.,0.));
#232=IFCCARTESIANTRANSFORMATIONOPERATOR2D($,$,#231,$);
#233=IFCCARTESIANTRANSFORMATIONOPERATOR2DNONUNIFORM($,$,#231,1.00034279249087,1.);
#234=IFCDERIVEDPROFILEDEF($,$,#230,#233,$);
#235=IFCCARTESIANPOINT((0.,100.));
#236=IFCAXIS2PLACEMENT2D(#235,$);
#237=IFCISHAPEPROFILEDEF(.AREA.,'I-Profile',#236,100.,200.,7.,12.,$,$,$);
#238=IFCCARTESIANPOINT((0.,0.));
#239=IFCCARTESIANTRANSFORMATIONOPERATOR2D($,$,#238,$);
#240=IFCCARTESIANTRANSFORMATIONOPERATOR2DNONUNIFORM($,$,#238,1.00034279249087,1.);
#241=IFCDERIVEDPROFILEDEF($,$,#237,#240,$);
#242=IFCCARTESIANPOINT((0.,100.));
#243=IFCAXIS2PLACEMENT2D(#242,$);
#244=IFCISHAPEPROFILEDEF(.AREA.,'I-Profile',#243,100.,200.,7.,12.,$,$,$);
#245=IFCCARTESIANPOINT((0.,0.));
#246=IFCCARTESIANTRANSFORMATIONOPERATOR2D($,$,#245,$);
#247=IFCCARTESIANTRANSFORMATIONOPERATOR2DNONUNIFORM($,$,#245,1.00034279249087,1.);
#248=IFCDERIVEDPROFILEDEF($,$,#244,#247,$);
#249=IFCCARTESIANPOINT((0.,100.));
#250=IFCAXIS2PLACEMENT2D(#249,$);
#251=IFCISHAPEPROFILEDEF(.AREA.,'I-Profile',#250,100.,200.,7.,12.,$,$,$);
#252=IFCCARTESIANPOINT((0.,0.));
#253=IFCCARTESIANTRANSFORMATIONOPERATOR2D($,$,#252,$);
#254=IFCCARTESIANTRANSFORMATIONOPERATOR2DNONUNIFORM($,$,#252,1.00008567976639,1.);
#255=IFCDERIVEDPROFILEDEF($,$,#251,#254,$);
#256=IFCCARTESIANPOINT((0.,100.));
#257=IFCAXIS2PLACEMENT2D(#256,$);
#258=IFCISHAPEPROFILEDEF(.AREA.,'I-Profile',#257,100.,200.,7.,12.,$,$,$);
#259=IFCCARTESIANPOINT((0.,0.,0.));
#260=IFCDIRECTION((1.,0.,0.));
#261=IFCDIRECTION((0.,1.,0.));
#262=IFCAXIS2PLACEMENT3D(#259,#260,#261);
#263=IFCCARTESIANPOINT((1500.,0.,0.));
#264=IFCDIRECTION((0.9999,0.0131,-0.));
#265=IFCDIRECTION((-0.0131,0.9999,0.));
#266=IFCAXIS2PLACEMENT3D(#263,#264,#265);
#267=IFCCARTESIANPOINT((1578.5039,2.0557,0.));
#268=IFCDIRECTION((0.9986,0.0523,-0.));
#269=IFCDIRECTION((-0.0523,0.9986,0.));
#270=IFCAXIS2PLACEMENT3D(#267,#268,#269);
#271=IFCCARTESIANPOINT((1656.7927,8.2172,0.));
#272=IFCDIRECTION((0.9945,0.1045,-0.));
#273=IFCDIRECTION((-0.1045,0.9945,0.));
#274=IFCAXIS2PLACEMENT3D(#271,#272,#273);
#275=IFCCARTESIANPOINT((1734.6517,18.4675,0.));
#276=IFCDIRECTION((0.9877,0.1564,-0.));
#277=IFCDIRECTION((-0.1564,0.9877,0.));
#278=IFCAXIS2PLACEMENT3D(#275,#276,#277);
#279=IFCCARTESIANPOINT((1811.8675,32.7786,0.));
#280=IFCDIRECTION((0.9781,0.2079,-0.));
#281=IFCDIRECTION((-0.2079,0.9781,0.));
#282=IFCAXIS2PLACEMENT3D(#279,#280,#281);
#283=IFCCARTESIANPOINT((1888.2286,51.1113,0.));
#284=IFCDIRECTION((0.9659,0.2588,-0.));
#285=IFCDIRECTION((-0.2588,0.9659,0.));
#286=IFCAXIS2PLACEMENT3D(#283,#284,#285);
#287=IFCCARTESIANPOINT((1963.5255,73.4152,0.));
#288=IFCDIRECTION((0.9511,0.309,-0.));
#289=IFCDIRECTION((-0.309,0.9511,0.));
#290=IFCAXIS2PLACEMENT3D(#287,#288,#289);
#291=IFCCARTESIANPOINT((2037.5519,99.6294,0.));
#292=IFCDIRECTION((0.9336,0.3584,-0.));
#293=IFCDIRECTION((-0.3584,0.9336,0.));
#294=IFCAXIS2PLACEMENT3D(#291,#292,#293);
#295=IFCCARTESIANPOINT((2110.105,129.6818,0.));
#296=IFCDIRECTION((0.9135,0.4067,-0.));
#297=IFCDIRECTION((-0.4067,0.9135,0.));
#298=IFCAXIS2PLACEMENT3D(#295,#296,#297);
#299=IFCCARTESIANPOINT((2180.9857,163.4902,0.));
#300=IFCDIRECTION((0.891,0.454,-0.));
#301=IFCDIRECTION((-0.454,0.891,0.));
#302=IFCAXIS2PLACEMENT3D(#299,#300,#301);
#303=IFCCARTESIANPOINT((2250.,200.9619,0.));
#304=IFCDIRECTION((0.866,0.5,-0.));
#305=IFCDIRECTION((-0.5,0.866,0.));
#306=IFCAXIS2PLACEMENT3D(#303,#304,#305);
#307=IFCCARTESIANPOINT((2316.9586,241.9941,0.));
#308=IFCDIRECTION((0.8387,0.5446,-0.));
#309=IFCDIRECTION((-0.5446,0.8387,0.));
#310=IFCAXIS2PLACEMENT3D(#307,#308,#309);
#311=IFCCARTESIANPOINT((2381.6779,286.4745,0.));
#312=IFCDIRECTION((0.809,0.5878,-0.));
#313=IFCDIRECTION((-0.5878,0.809,0.));
#314=IFCAXIS2PLACEMENT3D(#311,#312,#313);
#315=IFCCARTESIANPOINT((2443.9806,334.2811,0.));
#316=IFCDIRECTION((0.7771,0.6293,-0.));
#317=IFCDIRECTION((-0.6293,0.7771,0.));
#318=IFCAXIS2PLACEMENT3D(#315,#316,#317);
#319=IFCCARTESIANPOINT((2503.6959,385.2828,0.));
#320=IFCDIRECTION((0.7431,0.6691,-0.));
#321=IFCDIRECTION((-0.6691,0.7431,0.));
#322=IFCAXIS2PLACEMENT3D(#319,#320,#321);
#323=IFCCARTESIANPOINT((2560.6602,439.3398,0.));
#324=IFCDIRECTION((0.7071,0.7071,-0.));
#325=IFCDIRECTION((-0.7071,0.7071,0.));
#326=IFCAXIS2PLACEMENT3D(#323,#324,#325);
#327=IFCCARTESIANPOINT((2614.7172,496.3041,0.));
#328=IFCDIRECTION((0.6691,0.7431,-0.));
#329=IFCDIRECTION((-0.7431,0.6691,0.));
#330=IFCAXIS2PLACEMENT3D(#327,#328,#329);
#331=IFCCARTESIANPOINT((2665.7189,556.0194,0.));
#332=IFCDIRECTION((0.6293,0.7771,-0.));
#333=IFCDIRECTION((-0.7771,0.6293,0.));
#334=IFCAXIS2PLACEMENT3D(#331,#332,#333);
#335=IFCCARTESIANPOINT((2713.5255,618.3221,0.));
#336=IFCDIRECTION((0.5878,0.809,-0.));
#337=IFCDIRECTION((-0.809,0.5878,0.));
#338=IFCAXIS2PLACEMENT3D(#335,#336,#337);
#339=IFCCARTESIANPOINT((2758.0059,683.0414,0.));
#340=IFCDIRECTION((0.5446,0.8387,-0.));
#341=IFCDIRECTION((-0.8387,0.5446,0.));
#342=IFCAXIS2PLACEMENT3D(#339,#340,#341);
#343=IFCCARTESIANPOINT((2799.0381,750.,0.));
#344=IFCDIRECTION((0.5,0.866,-0.));
#345=IFCDIRECTION((-0.866,0.5,0.));
#346=IFCAXIS2PLACEMENT3D(#343,#344,#345);
#347=IFCCARTESIANPOINT((2836.5098,819.0143,0.));
#348=IFCDIRECTION((0.454,0.891,-0.));
#349=IFCDIRECTION((-0.891,0.454,0.));
#350=IFCAXIS2PLACEMENT3D(#347,#348,#349);
#351=IFCCARTESIANPOINT((2870.3182,889.895,0.));
#352=IFCDIRECTION((0.4067,0.9135,-0.));
#353=IFCDIRECTION((-0.9135,0.4067,0.));
#354=IFCAXIS2PLACEMENT3D(#351,#352,#353);
#355=IFCCARTESIANPOINT((2900.3706,962.4481,0.));
#356=IFCDIRECTION((0.3584,0.9336,-0.));
#357=IFCDIRECTION((-0.9336,0.3584,0.));
#358=IFCAXIS2PLACEMENT3D(#355,#356,#357);
#359=IFCCARTESIANPOINT((2926.5848,1036.4745,0.));
#360=IFCDIRECTION((0.309,0.9511,-0.));
#361=IFCDIRECTION((-0.9511,0.309,0.));
#362=IFCAXIS2PLACEMENT3D(#359,#360,#361);
#363=IFCCARTESIANPOINT((2948.8887,1111.7714,0.));
#364=IFCDIRECTION((0.2588,0.9659,-0.));
#365=IFCDIRECTION((-0.9659,0.2588,0.));
#366=IFCAXIS2PLACEMENT3D(#363,#364,#365);
#367=IFCCARTESIANPOINT((2967.2214,1188.1325,0.));
#368=IFCDIRECTION((0.2079,0.9781,-0.));
#369=IFCDIRECTION((-0.9781,0.2079,0.));
#370=IFCAXIS2PLACEMENT3D(#367,#368,#369);
#371=IFCCARTESIANPOINT((2981.5325,1265.3483,0.));
#372=IFCDIRECTION((0.1564,0.9877,-0.));
#373=IFCDIRECTION((-0.9877,0.1564,0.));
#374=IFCAXIS2PLACEMENT3D(#371,#372,#373);
#375=IFCCARTESIANPOINT((2991.7828,1343.2073,0.));
#376=IFCDIRECTION((0.1045,0.9945,-0.));
#377=IFCDIRECTION((-0.9945,0.1045,0.));
#378=IFCAXIS2PLACEMENT3D(#375,#376,#377);
#379=IFCCARTESIANPOINT((2997.9443,1421.4961,0.));
#380=IFCDIRECTION((0.0523,0.9986,-0.));
#381=IFCDIRECTION((-0.9986,0.0523,0.));
#382=IFCAXIS2PLACEMENT3D(#379,#380,#381);
#383=IFCCARTESIANPOINT((3000.,1500.,0.));
#384=IFCDIRECTION((0.0131,0.9999,-0.));
#385=IFCDIRECTION((-0.9999,0.0131,0.));
#386=IFCAXIS2PLACEMENT3D(#383,#384,#385);
#387=IFCCARTESIANPOINT((3000.,4500.,0.));
#388=IFCDIRECTION((0.,1.,-0.));
#389=IFCDIRECTION((-1.,0.,0.));
#390=IFCAXIS2PLACEMENT3D(#387,#388,#389);
#391=IFCCARTESIANPOINTLIST3D(((0.,-50.,0.),(0.,50.,0.),(0.,50.,12.),(0.,3.5,12.),(0.,3.5,188.),(0.,50.,188.),(0.,50.,200.),(0.,-50.,200.),(0.,-50.,188.),(0.,-3.5,188.),(0.,-3.5,12.),(0.,-50.,12.),(1500.6551,-50.,0.),(1499.3449,50.,0.),(1499.3449,50.,12.),(1499.9541,3.5,12.),(1499.9541,3.5,188.),(1499.3449,50.,188.),(1499.3449,50.,200.),(1500.6551,-50.,200.),(1500.6551,-50.,188.),(1500.0459,-3.5,188.),(1500.0459,-3.5,12.),(1500.6551,-50.,12.),(1581.1199,-47.893,0.),(1575.8879,52.0044,0.),(1575.8879,52.0044,12.),(1578.3208,5.5521,12.),(1578.3208,5.5521,188.),(1575.8879,52.0044,188.),(1575.8879,52.0044,200.),(1581.1199,-47.893,200.),(1581.1199,-47.893,188.),(1578.687,-1.4407,188.),(1578.687,-1.4407,12.),(1581.1199,-47.893,12.),(1662.0196,-41.5261,0.),(1651.5658,57.9605,0.),(1651.5658,57.9605,12.),(1656.4268,11.6992,12.),(1656.4268,11.6992,188.),(1651.5658,57.9605,188.),(1651.5658,57.9605,200.),(1662.0196,-41.5261,200.),(1662.0196,-41.5261,188.),(1657.1586,4.7352,188.),(1657.1586,4.7352,12.),(1662.0196,-41.5261,12.),(1742.4743,-30.9341,0.),(1726.8291,67.8691,0.),(1726.8291,67.8691,12.),(1734.1041,21.9256,12.),(1734.1041,21.9256,188.),(1726.8291,67.8691,188.),(1726.8291,67.8691,200.),(1742.4743,-30.9341,200.),(1742.4743,-30.9341,188.),(1735.1993,15.0094,188.),(1735.1993,15.0094,12.),(1742.4743,-30.9341,12.),(1822.2666,-16.1456,0.),(1801.4684,81.7028,0.),(1801.4684,81.7028,12.),(1811.1396,36.2033,12.),(1811.1396,36.2033,188.),(1801.4684,81.7028,188.),(1801.4684,81.7028,200.),(1822.2666,-16.1456,200.),(1822.2666,-16.1456,188.),(1812.5954,29.3539,188.),(1812.5954,29.3539,12.),(1822.2666,-16.1456,12.),(1901.1734,2.7983,0.),(1875.2838,99.4243,0.),(1875.2838,99.4243,12.),(1887.3225,54.4932,12.),(1887.3225,54.4932,188.),(1875.2838,99.4243,188.),(1875.2838,99.4243,200.),(1901.1734,2.7983,200.),(1901.1734,2.7983,188.),(1889.1347,47.7294,188.),(1889.1347,47.7294,12.),(1901.1734,2.7983,12.),(1978.9802,25.8456,0.),(1948.0708,120.9848,0.),(1948.0708,120.9848,12.),(1962.4437,76.7451,12.),(1962.4437,76.7451,188.),(1948.0708,120.9848,188.),(1948.0708,120.9848,200.),(1978.9802,25.8456,200.),(1978.9802,25.8456,188.),(1964.6073,70.0853,188.),(1964.6073,70.0853,12.),(1978.9802,25.8456,12.),(2055.4775,52.9348,0.),(2019.6263,146.324,0.),(2019.6263,146.324,12.),(2036.2971,102.898,12.),(2036.2971,102.898,188.),(2019.6263,146.324,188.),(2019.6263,146.324,200.),(2055.4775,52.9348,200.),(2055.4775,52.9348,188.),(2038.8067,96.3608,188.),(2038.8067,96.3608,12.),(2055.4775,52.9348,12.),(2130.4481,83.9886,0.),(2089.7619,175.375,0.),(2089.7619,175.375,12.),(2108.681,132.8803,12.),(2108.681,132.8803,188.),(2089.7619,175.375,188.),(2089.7619,175.375,200.),(2130.4481,83.9886,200.),(2130.4481,83.9886,188.),(2111.529,126.4833,188.),(2111.529,126.4833,12.),(2130.4481,83.9886,12.),(2203.6935,118.9249,0.),(2158.2779,208.0555,0.),(2158.2779,208.0555,12.),(2179.3962,166.6098,12.),(2179.3962,166.6098,188.),(2158.2779,208.0555,188.),(2158.2779,208.0555,200.),(2203.6935,118.9249,200.),(2203.6935,118.9249,188.),(2182.5752,160.3706,188.),(2182.5752,160.3706,12.),(2203.6935,118.9249,12.),(2275.0091,157.6461,0.),(2224.9909,244.2777,0.),(2224.9909,244.2777,12.),(2248.2494,203.994,12.),(2248.2494,203.994,188.),(2224.9909,244.2777,188.),(2224.9909,244.2777,200.),(2275.0091,157.6461,200.),(2275.0091,157.6461,188.),(2251.7506,197.9298,188.),(2251.7506,197.9298,12.),(2275.0091,157.6461,12.),(2344.1978,200.0449,0.),(2289.7194,283.9433,0.),(2289.7194,283.9433,12.),(2315.0519,244.9305,12.),(2315.0519,244.9305,188.),(2289.7194,283.9433,188.),(2289.7194,283.9433,200.),(2344.1978,200.0449,200.),(2344.1978,200.0449,188.),(2318.8653,239.0577,188.),(2318.8653,239.0577,12.),(2344.1978,200.0449,12.),(2411.0781,246.0104,0.),(2352.2777,326.9386,0.),(2352.2777,326.9386,12.),(2379.6199,289.307,12.),(2379.6199,289.307,188.),(2352.2777,326.9386,188.),(2352.2777,326.9386,200.),(2411.0781,246.0104,200.),(2411.0781,246.0104,188.),(2383.7359,283.642,188.),(2383.7359,283.642,12.),(2411.0781,246.0104,12.),(2475.4579,295.4109,0.),(2412.5033,373.1513,0.),(2412.5033,373.1513,12.),(2441.7772,337.002,12.),(2441.7772,337.002,188.),(2412.5033,373.1513,188.),(2412.5033,373.1513,200.),(2475.4579,295.4109,200.),(2475.4579,295.4109,188.),(2446.184,331.5602,188.),(2446.184,331.5602,12.),(2475.4579,295.4109,12.),(2537.1642,348.1131,0.),(2470.2276,422.4525,0.),(2470.2276,422.4525,12.),(2501.3531,387.8847,12.),(2501.3531,387.8847,188.),(2470.2276,422.4525,188.),(2470.2276,422.4525,200.),(2537.1642,348.1131,200.),(2537.1642,348.1131,188.),(2506.0387,382.6809,188.),(2506.0387,382.6809,12.),(2537.1642,348.1131,12.),(2596.0277,403.9723,0.),(2525.2927,474.7073,0.),(2525.2927,474.7073,12.),(2558.1845,441.8155,12.),(2558.1845,441.8155,188.),(2525.2927,474.7073,188.),(2525.2927,474.7073,200.),(2596.0277,403.9723,200.),(2596.0277,403.9723,188.),(2563.1359,436.8641,188.),(2563.1359,436.8641,12.),(2596.0277,403.9723,12.),(2651.8869,462.8358,0.),(2577.5475,529.7724,0.),(2577.5475,529.7724,12.),(2612.1153,498.6469,12.),(2612.1153,498.6469,188.),(2577.5475,529.7724,188.),(2577.5475,529.7724,200.),(2651.8869,462.8358,200.),(2651.8869,462.8358,188.),(2617.3191,493.9613,188.),(2617.3191,493.9613,12.),(2651.8869,462.8358,12.),(2704.5891,524.5421,0.),(2626.8487,587.4967,0.),(2626.8487,587.4967,12.),(2662.998,558.2228,12.),(2662.998,558.2228,188.),(2626.8487,587.4967,188.),(2626.8487,587.4967,200.),(2704.5891,524.5421,200.),(2704.5891,524.5421,188.),(2668.4398,553.816,188.),(2668.4398,553.816,12.),(2704.5891,524.5421,12.),(2753.9896,588.9219,0.),(2673.0614,647.7223,0.),(2673.0614,647.7223,12.),(2710.693,620.3801,12.),(2710.693,620.3801,188.),(2673.0614,647.7223,188.),(2673.0614,647.7223,200.),(2753.9896,588.9219,200.),(2753.9896,588.9219,188.),(2716.358,616.2641,188.),(2716.358,616.2641,12.),(2753.9896,588.9219,12.),(2799.9551,655.8022,0.),(2716.0567,710.2806,0.),(2716.0567,710.2806,12.),(2755.0695,684.9481,12.),(2755.0695,684.9481,188.),(2716.0567,710.2806,188.),(2716.0567,710.2806,200.),(2799.9551,655.8022,200.),(2799.9551,655.8022,188.),(2760.9423,681.1347,188.),(2760.9423,681.1347,12.),(2799.9551,655.8022,12.),(2842.3539,724.9909,0.),(2755.7223,775.0091,0.),(2755.7223,775.0091,12.),(2796.006,751.7506,12.),(2796.006,751.7506,188.),(2755.7223,775.0091,188.),(2755.7223,775.0091,200.),(2842.3539,724.9909,200.),(2842.3539,724.9909,188.),(2802.0702,748.2494,188.),(2802.0702,748.2494,12.),(2842.3539,724.9909,12.),(2881.0751,796.3065,0.),(2791.9445,841.7221,0.),(2791.9445,841.7221,12.),(2833.3902,820.6038,12.),(2833.3902,820.6038,188.),(2791.9445,841.7221,188.),(2791.9445,841.7221,200.),(2881.0751,796.3065,200.),(2881.0751,796.3065,188.),(2839.6294,817.4248,188.),(2839.6294,817.4248,12.),(2881.0751,796.3065,12.),(2916.0114,869.5519,0.),(2824.625,910.2381,0.),(2824.625,910.2381,12.),(2867.1197,891.319,12.),(2867.1197,891.319,188.),(2824.625,910.2381,188.),(2824.625,910.2381,200.),(2916.0114,869.5519,200.),(2916.0114,869.5519,188.),(2873.5167,888.471,188.),(2873.5167,888.471,12.),(2916.0114,869.5519,12.),(2947.0652,944.5225,0.),(2853.676,980.3737,0.),(2853.676,980.3737,12.),(2897.102,963.7029,12.),(2897.102,963.7029,188.),(2853.676,980.3737,188.),(2853.676,980.3737,200.),(2947.0652,944.5225,200.),(2947.0652,944.5225,188.),(2903.6392,961.1933,188.),(2903.6392,961.1933,12.),(2947.0652,944.5225,12.),(2974.1544,1021.0198,0.),(2879.0152,1051.9292,0.),(2879.0152,1051.9292,12.),(2923.2549,1037.5563,12.),(2923.2549,1037.5563,188.),(2879.0152,1051.9292,188.),(2879.0152,1051.9292,200.),(2974.1544,1021.0198,200.),(2974.1544,1021.0198,188.),(2929.9147,1035.3927,188.),(2929.9147,1035.3927,12.),(2974.1544,1021.0198,12.),(2997.2017,1098.8266,0.),(2900.5757,1124.7162,0.),(2900.5757,1124.7162,12.),(2945.5068,1112.6775,12.),(2945.5068,1112.6775,188.),(2900.5757,1124.7162,188.),(2900.5757,1124.7162,200.),(2997.2017,1098.8266,200.),(2997.2017,1098.8266,188.),(2952.2706,1110.8653,188.),(2952.2706,1110.8653,12.),(2997.2017,1098.8266,12.),(3016.1456,1177.7334,0.),(2918.2972,1198.5316,0.),(2918.2972,1198.5316,12.),(2963.7967,1188.8604,12.),(2963.7967,1188.8604,188.),(2918.2972,1198.5316,188.),(2918.2972,1198.5316,200.),(3016.1456,1177.7334,200.),(3016.1456,1177.7334,188.),(2970.6461,1187.4046,188.),(2970.6461,1187.4046,12.),(3016.1456,1177.7334,12.),(3030.9341,1257.5257,0.),(2932.1309,1273.1709,0.),(2932.1309,1273.1709,12.),(2978.0744,1265.8959,12.),(2978.0744,1265.8959,188.),(2932.1309,1273.1709,188.),(2932.1309,1273.1709,200.),(3030.9341,1257.5257,200.),(3030.9341,1257.5257,188.),(2984.9906,1264.8007,188.),(2984.9906,1264.8007,12.),(3030.9341,1257.5257,12.),(3041.5261,1337.9804,0.),(2942.0395,1348.4342,0.),(2942.0395,1348.4342,12.),(2988.3008,1343.5732,12.),(2988.3008,1343.5732,188.),(2942.0395,1348.4342,188.),(2942.0395,1348.4342,200.),(3041.5261,1337.9804,200.),(3041.5261,1337.9804,188.),(2995.2648,1342.8414,188.),(2995.2648,1342.8414,12.),(3041.5261,1337.9804,12.),(3047.893,1418.8801,0.),(2947.9956,1424.1121,0.),(2947.9956,1424.1121,12.),(2994.4479,1421.6792,12.),(2994.4479,1421.6792,188.),(2947.9956,1424.1121,188.),(2947.9956,1424.1121,200.),(3047.893,1418.8801,200.),(3047.893,1418.8801,188.),(3001.4407,1421.313,188.),(3001.4407,1421.313,12.),(3047.893,1418.8801,12.),(3050.,1499.3449,0.),(2950.,1500.6551,0.),(2950.,1500.6551,12.),(2996.5,1500.0459,12.),(2996.5,1500.0459,188.),(2950.,1500.6551,188.),(2950.,1500.6551,200.),(3050.,1499.3449,200.),(3050.,1499.3449,188.),(3003.5,1499.9541,188.),(3003.5,1499.9541,12.),(3050.,1499.3449,12.),(3050.,4500.,0.),(2950.,4500.,0.),(2950.,4500.,12.),(2996.5,4500.,12.),(2996.5,4500.,188.),(2950.,4500.,188.),(2950.,4500.,200.),(3050.,4500.,200.),(3050.,4500.,188.),(3003.5,4500.,188.),(3003.5,4500.,12.),(3050.,4500.,12.)));
#392=IFCTRIANGULATEDFACESET(#391,$,.F.,((1,2,14),(1,14,13),(2,3,15),(2,15,14),(3,4,16),(3,16,15),(4,5,17),(4,17,16),(5,6,18),(5,18,17),(6,7,19),(6,19,18),(7,8,20),(7,20,19),(8,9,21),(8,21,20),(9,10,22),(9,22,21),(10,11,23),(10,23,22),(11,12,24),(11,24,23),(12,1,13),(12,13,24),(13,14,26),(13,26,25),(14,15,27),(14,27,26),(15,16,28),(15,28,27),(16,17,29),(16,29,28),(17,18,30),(17,30,29),(18,19,31),(18,31,30),(19,20,32),(19,32,31),(20,21,33),(20,33,32),(21,22,34),(21,34,33),(22,23,35),(22,35,34),(23,24,36),(23,36,35),(24,13,25),(24,25,36),(25,26,38),(25,38,37),(26,27,39),(26,39,38),(27,28,40),(27,40,39),(28,29,41),(28,41,40),(29,30,42),(29,42,41),(30,31,43),(30,43,42),(31,32,44),(31,44,43),(32,33,45),(32,45,44),(33,34,46),(33,46,45),(34,35,47),(34,47,46),(35,36,48),(35,48,47),(36,25,37),(36,37,48),(37,38,50),(37,50,49),(38,39,51),(38,51,50),(39,40,52),(39,52,51),(40,41,53),(40,53,52),(41,42,54),(41,54,53),(42,43,55),(42,55,54),(43,44,56),(43,56,55),(44,45,57),(44,57,56),(45,46,58),(45,58,57),(46,47,59),(46,59,58),(47,48,60),(47,60,59),(48,37,49),(48,49,60),(49,50,62),(49,62,61),(50,51,63),(50,63,62),(51,52,64),(51,64,63),(52,53,65),(52,65,64),(53,54,66),(53,66,65),(54,55,67),(54,67,66),(55,56,68),(55,68,67),(56,57,69),(56,69,68),(57,58,70),(57,70,69),(58,59,71),(58,71,70),(59,60,72),(59,72,71),(60,49,61),(60,61,72),(61,62,74),(61,74,73),(62,63,75),(62,75,74),(63,64,76),(63,76,75),(64,65,77),(64,77,76),(65,66,78),(65,78,77),(66,67,79),(66,79,78),(67,68,80),(67,80,79),(68,69,81),(68,81,80),(69,70,82),(69,82,81),(70,71,83),(70,83,82),(71,72,84),(71,84,83),(72,61,73),(72,73,84),(73,74,86),(73,86,85),(74,75,87),(74,87,86),(75,76,88),(75,88,87),(76,77,89),(76,89,88),(77,78,90),(77,90,89),(78,79,91),(78,91,90),(79,80,92),(79,92,91),(80,81,93),(80,93,92),(81,82,94),(81,94,93),(82,83,95),(82,95,94),(83,84,96),(83,96,95),(84,73,85),(84,85,96),(85,86,98),(85,98,97),(86,87,99),(86,99,98),(87,88,100),(87,100,99),(88,89,101),(88,101,100),(89,90,102),(89,102,101),(90,91,103),(90,103,102),(91,92,104),(91,104,103),(92,93,105),(92,105,104),(93,94,106),(93,106,105),(94,95,107),(94,107,106),(95,96,108),(95,108,107),(96,85,97),(96,97,108),(97,98,110),(97,110,109),(98,99,111),(98,111,110),(99,100,112),(99,112,111),(100,101,113),(100,113,112),(101,102,114),(101,114,113),(102,103,115),(102,115,114),(103,104,116),(103,116,115),(104,105,117),(104,117,116),(105,106,118),(105,118,117),(106,107,119),(106,119,118),(107,108,120),(107,120,119),(108,97,109),(108,109,120),(109,110,122),(109,122,121),(110,111,123),(110,123,122),(111,112,124),(111,124,123),(112,113,125),(112,125,124),(113,114,126),(113,126,125),(114,115,127),(114,127,126),(115,116,128),(115,128,127),(116,117,129),(116,129,128),(117,118,130),(117,130,129),(118,119,131),(118,131,130),(119,120,132),(119,132,131),(120,109,121),(120,121,132),(121,122,134),(121,134,133),(122,123,135),(122,135,134),(123,124,136),(123,136,135),(124,125,137),(124,137,136),(125,126,138),(125,138,137),(126,127,139),(126,139,138),(127,128,140),(127,140,139),(128,129,141),(128,141,140),(129,130,142),(129,142,141),(130,131,143),(130,143,142),(131,132,144),(131,144,143),(132,121,133),(132,133,144),(133,134,146),(133,146,145),(134,135,147),(134,147,146),(135,136,148),(135,148,147),(136,137,149),(136,149,148),(137,138,150),(137,150,149),(138,139,151),(138,151,150),(139,140,152),(139,152,151),(140,141,153),(140,153,152),(141,142,154),(141,154,153),(142,143,155),(142,155,154),(143,144,156),(143,156,155),(144,133,145),(144,145,156),(145,146,158),(145,158,157),(146,147,159),(146,159,158),(147,148,160),(147,160,159),(148,149,161),(148,161,160),(149,150,162),(149,162,161),(150,151,163),(150,163,162),(151,152,164),(151,164,163),(152,153,165),(152,165,164),(153,154,166),(153,166,165),(154,155,167),(154,167,166),(155,156,168),(155,168,167),(156,145,157),(156,157,168),(157,158,170),(157,170,169),(158,159,171),(158,171,170),(159,160,172),(159,172,171),(160,161,173),(160,173,172),(161,162,174),(161,174,173),(162,163,175),(162,175,174),(163,164,176),(163,176,175),(164,165,177),(164,177,176),(165,166,178),(165,178,177),(166,167,179),(166,179,178),(167,168,180),(167,180,179),(168,157,169),(168,169,180),(169,170,182),(169,182,181),(170,171,183),(170,183,182),(171,172,184),(171,184,183),(172,173,185),(172,185,184),(173,174,186),(173,186,185),(174,175,187),(174,187,186),(175,176,188),(175,188,187),(176,177,189),(176,189,188),(177,178,190),(177,190,189),(178,179,191),(178,191,190),(179,180,192),(179,192,191),(180,169,181),(180,181,192),(181,182,194),(181,194,193),(182,183,195),(182,195,194),(183,184,196),(183,196,195),(184,185,197),(184,197,196),(185,186,198),(185,198,197),(186,187,199),(186,199,198),(187,188,200),(187,200,199),(188,189,201),(188,201,200),(189,190,202),(189,202,201),(190,191,203),(190,203,202),(191,192,204),(191,204,203),(192,181,193),(192,193,204),(193,194,206),(193,206,205),(194,195,207),(194,207,206),(195,196,208),(195,208,207),(196,197,209),(196,209,208),(197,198,210),(197,210,209),(198,199,211),(198,211,210),(199,200,212),(199,212,211),(200,201,213),(200,213,212),(201,202,214),(201,214,213),(202,203,215),(202,215,214),(203,204,216),(203,216,215),(204,193,205),(204,205,216),(205,206,218),(205,218,217),(206,207,219),(206,219,218),(207,208,220),(207,220,219),(208,209,221),(208,221,220),(209,210,222),(209,222,221),(210,211,223),(210,223,222),(211,212,224),(211,224,223),(212,213,225),(212,225,224),(213,214,226),(213,226,225),(214,215,227),(214,227,226),(215,216,228),(215,228,227),(216,205,217),(216,217,228),(217,218,230),(217,230,229),(218,219,231),(218,231,230),(219,220,232),(219,232,231),(220,221,233),(220,233,232),(221,222,234),(221,234,233),(222,223,235),(222,235,234),(223,224,236),(223,236,235),(224,225,237),(224,237,236),(225,226,238),(225,238,237),(226,227,239),(226,239,238),(227,228,240),(227,240,239),(228,217,229),(228,229,240),(229,230,242),(229,242,241),(230,231,243),(230,243,242),(231,232,244),(231,244,243),(232,233,245),(232,245,244),(233,234,246),(233,246,245),(234,235,247),(234,247,246),(235,236,248),(235,248,247),(236,237,249),(236,249,248),(237,238,250),(237,250,249),(238,239,251),(238,251,250),(239,240,252),(239,252,251),(240,229,241),(240,241,252),(241,242,254),(241,254,253),(242,243,255),(242,255,254),(243,244,256),(243,256,255),(244,245,257),(244,257,256),(245,246,258),(245,258,257),(246,247,259),(246,259,258),(247,248,260),(247,260,259),(248,249,261),(248,261,260),(249,250,262),(249,262,261),(250,251,263),(250,263,262),(251,252,264),(251,264,263),(252,241,253),(252,253,264),(253,254,266),(253,266,265),(254,255,267),(254,267,266),(255,256,268),(255,268,267),(256,257,269),(256,269,268),(257,258,270),(257,270,269),(258,259,271),(258,271,270),(259,260,272),(259,272,271),(260,261,273),(260,273,272),(261,262,274),(261,274,273),(262,263,275),(262,275,274),(263,264,276),(263,276,275),(264,253,265),(264,265,276),(265,266,278),(265,278,277),(266,267,279),(266,279,278),(267,268,280),(267,280,279),(268,269,281),(268,281,280),(269,270,282),(269,282,281),(270,271,283),(270,283,282),(271,272,284),(271,284,283),(272,273,285),(272,285,284),(273,274,286),(273,286,285),(274,275,287),(274,287,286),(275,276,288),(275,288,287),(276,265,277),(276,277,288),(277,278,290),(277,290,289),(278,279,291),(278,291,290),(279,280,292),(279,292,291),(280,281,293),(280,293,292),(281,282,294),(281,294,293),(282,283,295),(282,295,294),(283,284,296),(283,296,295),(284,285,297),(284,297,296),(285,286,298),(285,298,297),(286,287,299),(286,299,298),(287,288,300),(287,300,299),(288,277,289),(288,289,300),(289,290,302),(289,302,301),(290,291,303),(290,303,302),(291,292,304),(291,304,303),(292,293,305),(292,305,304),(293,294,306),(293,306,305),(294,295,307),(294,307,306),(295,296,308),(295,308,307),(296,297,309),(296,309,308),(297,298,310),(297,310,309),(298,299,311),(298,311,310),(299,300,312),(299,312,311),(300,289,301),(300,301,312),(301,302,314),(301,314,313),(302,303,315),(302,315,314),(303,304,316),(303,316,315),(304,305,317),(304,317,316),(305,306,318),(305,318,317),(306,307,319),(306,319,318),(307,308,320),(307,320,319),(308,309,321),(308,321,320),(309,310,322),(309,322,321),(310,311,323),(310,323,322),(311,312,324),(311,324,323),(312,301,313),(312,313,324),(313,314,326),(313,326,325),(314,315,327),(314,327,326),(315,316,328),(315,328,327),(316,317,329),(316,329,328),(317,318,330),(317,330,329),(318,319,331),(318,331,330),(319,320,332),(319,332,331),(320,321,333),(320,333,332),(321,322,334),(321,334,333),(322,323,335),(322,335,334),(323,324,336),(323,336,335),(324,313,325),(324,325,336),(325,326,338),(325,338,337),(326,327,339),(326,339,338),(327,328,340),(327,340,339),(328,329,341),(328,341,340),(329,330,342),(329,342,341),(330,331,343),(330,343,342),(331,332,344),(331,344,343),(332,333,345),(332,345,344),(333,334,346),(333,346,345),(334,335,347),(334,347,346),(335,336,348),(335,348,347),(336,325,337),(336,337,348),(337,338,350),(337,350,349),(338,339,351),(338,351,350),(339,340,352),(339,352,351),(340,341,353),(340,353,352),(341,342,354),(341,354,353),(342,343,355),(342,355,354),(343,344,356),(343,356,355),(344,345,357),(344,357,356),(345,346,358),(345,358,357),(346,347,359),(346,359,358),(347,348,360),(347,360,359),(348,337,349),(348,349,360),(349,350,362),(349,362,361),(350,351,363),(350,363,362),(351,352,364),(351,364,363),(352,353,365),(352,365,364),(353,354,366),(353,366,365),(354,355,367),(354,367,366),(355,356,368),(355,368,367),(356,357,369),(356,369,368),(357,358,370),(357,370,369),(358,359,371),(358,371,370),(359,360,372),(359,372,371),(360,349,361),(360,361,372),(361,362,374),(361,374,373),(362,363,375),(362,375,374),(363,364,376),(363,376,375),(364,365,377),(364,377,376),(365,366,378),(365,378,377),(366,367,379),(366,379,378),(367,368,380),(367,380,379),(368,369,381),(368,381,380),(369,370,382),(369,382,381),(370,371,383),(370,383,382),(371,372,384),(371,384,383),(372,361,373),(372,373,384),(373,374,386),(373,386,385),(374,375,387),(374,387,386),(375,376,388),(375,388,387),(376,377,389),(376,389,388),(377,378,390),(377,390,389),(378,379,391),(378,391,390),(379,380,392),(379,392,391),(380,381,393),(380,393,392),(381,382,394),(381,394,393),(382,383,395),(382,395,394),(383,384,396),(383,396,395),(384,373,385),(384,385,396),(2,1,12),(4,3,2),(7,6,5),(8,7,5),(10,9,8),(2,12,11),(4,2,11),(5,4,11),(10,8,5),(11,10,5),(396,385,386),(386,387,388),(389,390,391),(389,391,392),(392,393,394),(395,396,386),(395,386,388),(395,388,389),(389,392,394),(389,394,395)),$);
#393=IFCSHAPEREPRESENTATION(#12,'Body','Tessellation',(#392));
#394=IFCCARTESIANPOINT((0.,0.,0.));
#395=IFCDIRECTION((0.,0.,1.));
#396=IFCDIRECTION((1.,0.,0.));
#397=IFCAXIS2PLACEMENT3D(#394,#395,#396);
#398=IFCLOCALPLACEMENT(#17,#397);
#399=IFCPRODUCTDEFINITIONSHAPE($,$,(#393));
#400=IFCBUILDINGELEMENTPROXY('3zLOGwmFT7TBmvfF8LRgkD',$,'fillet_line_arc_line',$,$,#398,#399,$,$);
#401=IFCRELCONTAINEDINSPATIALSTRUCTURE('0FkiBp2bP3fuWh4EsmZb1I',$,$,$,(#400),#18);
#402=IFCCOLOURRGB($,0.501960784313725,0.501960784313725,0.501960784313725);
#403=IFCSURFACESTYLERENDERING(#402,0.,$,$,$,$,$,$,.FLAT.);
#404=IFCSURFACESTYLE($,.BOTH.,(#403));
#405=IFCSTYLEDITEM(#392,(#404),$);
ENDSEC;
END-ISO-10303-21;
