ISO-10303-21;
HEADER;
FILE_DESCRIPTION(('ViewDefinition [CoordinationView]'),'2;1');
FILE_NAME('','2026-05-09T22:51:24',(''),(''),'IfcOpenShell 0.8.4-e8eb5e4','IfcOpenShell 0.8.4-e8eb5e4','');
FILE_SCHEMA(('IFC4'));
ENDSEC;
DATA;
#1=IFCPROJECT('1i9syOVfL4PP0xeAIrOMit',$,'Unnamed Project',$,$,$,$,(#11),#6);
#2=IFCSIUNIT(*,.LENGTHUNIT.,.MILLI.,.METRE.);
#3=IFCSIUNIT(*,.AREAUNIT.,$,.SQUARE_METRE.);
#4=IFCSIUNIT(*,.VOLUMEUNIT.,$,.CUBIC_METRE.);
#5=IFCSIUNIT(*,.PLANEANGLEUNIT.,$,.RADIAN.);
#6=IFCUNITASSIGNMENT((#5,#4,#2,#3));
#7=IFCCARTESIANPOINT((0.,0.,0.));
#8=IFCDIRECTION((0.,0.,1.));
#9=IFCDIRECTION((1.,0.,0.));
#10=IFCAXIS2PLACEMENT3D(#7,#8,#9);
#11=IFCGEOMETRICREPRESENTATIONCONTEXT($,'Model',3,1.E-05,#10,$);
#12=IFCGEOMETRICREPRESENTATIONSUBCONTEXT('Body','Model',*,*,*,*,#11,$,.MODEL_VIEW.,$);
#13=IFCCARTESIANPOINT((0.,0.,0.));
#14=IFCDIRECTION((0.,0.,1.));
#15=IFCDIRECTION((1.,0.,0.));
#16=IFCAXIS2PLACEMENT3D(#13,#14,#15);
#17=IFCLOCALPLACEMENT($,#16);
#18=IFCBUILDINGSTOREY('0vh0alfjf9_B2CojLkL2jv',$,'Storey',$,$,#17,$,$,$,$);
#19=IFCRELAGGREGATES('3ZXcM8zzz8d9dJ1yvo42hf',$,$,$,#1,(#18));
#20=IFCCARTESIANPOINT((0.,0.,0.));
#21=IFCCARTESIANPOINT((3000.,0.,0.));
#22=IFCPOLYLINE((#20,#21));
#23=IFCCOMPOSITECURVESEGMENT(.DISCONTINUOUS.,.T.,#22);
#24=IFCCOMPOSITECURVE((#23),.F.);
#25=IFCCARTESIANPOINT((0.,0.));
#26=IFCAXIS2PLACEMENT2D(#25,$);
#27=IFCCIRCLEHOLLOWPROFILEDEF(.AREA.,$,#26,57.15,6.3);
#28=IFCCARTESIANPOINT((0.,0.));
#29=IFCAXIS2PLACEMENT2D(#28,$);
#30=IFCCIRCLEHOLLOWPROFILEDEF(.AREA.,$,#29,57.15,6.3);
#31=IFCCARTESIANPOINT((0.,0.,0.));
#32=IFCDIRECTION((1.,0.,0.));
#33=IFCDIRECTION((0.,1.,0.));
#34=IFCAXIS2PLACEMENT3D(#31,#32,#33);
#35=IFCCARTESIANPOINT((3000.,0.,0.));
#36=IFCDIRECTION((1.,0.,0.));
#37=IFCDIRECTION((0.,1.,0.));
#38=IFCAXIS2PLACEMENT3D(#35,#36,#37);
#39=IFCCARTESIANPOINTLIST3D(((0.,57.15,0.),(0.,56.0519,11.1494),(0.,52.7997,21.8704),(0.,47.5185,31.7508),(0.,40.4112,40.4112),(0.,31.7508,47.5185),(0.,21.8704,52.7997),(0.,11.1494,56.0519),(0.,0.,57.15),(0.,-11.1494,56.0519),(0.,-21.8704,52.7997),(0.,-31.7508,47.5185),(0.,-40.4112,40.4112),(0.,-47.5185,31.7508),(0.,-52.7997,21.8704),(0.,-56.0519,11.1494),(0.,-57.15,0.),(0.,-56.0519,-11.1494),(0.,-52.7997,-21.8704),(0.,-47.5185,-31.7508),(0.,-40.4112,-40.4112),(0.,-31.7508,-47.5185),(0.,-21.8704,-52.7997),(0.,-11.1494,-56.0519),(0.,-0.,-57.15),(0.,11.1494,-56.0519),(0.,21.8704,-52.7997),(0.,31.7508,-47.5185),(0.,40.4112,-40.4112),(0.,47.5185,-31.7508),(0.,52.7997,-21.8704),(0.,56.0519,-11.1494),(0.,49.8729,-9.9203),(0.,46.9793,-19.4595),(0.,42.2802,-28.2507),(0.,35.9564,-35.9564),(0.,28.2507,-42.2802),(0.,19.4595,-46.9793),(0.,9.9203,-49.8729),(0.,-0.,-50.85),(0.,-9.9203,-49.8729),(0.,-19.4595,-46.9793),(0.,-28.2507,-42.2802),(0.,-35.9564,-35.9564),(0.,-42.2802,-28.2507),(0.,-46.9793,-19.4595),(0.,-49.8729,-9.9203),(0.,-50.85,0.),(0.,-49.8729,9.9203),(0.,-46.9793,19.4595),(0.,-42.2802,28.2507),(0.,-35.9564,35.9564),(0.,-28.2507,42.2802),(0.,-19.4595,46.9793),(0.,-9.9203,49.8729),(0.,0.,50.85),(0.,9.9203,49.8729),(0.,19.4595,46.9793),(0.,28.2507,42.2802),(0.,35.9564,35.9564),(0.,42.2802,28.2507),(0.,46.9793,19.4595),(0.,49.8729,9.9203),(0.,50.85,0.),(3000.,57.15,0.),(3000.,56.0519,11.1494),(3000.,52.7997,21.8704),(3000.,47.5185,31.7508),(3000.,40.4112,40.4112),(3000.,31.7508,47.5185),(3000.,21.8704,52.7997),(3000.,11.1494,56.0519),(3000.,0.,57.15),(3000.,-11.1494,56.0519),(3000.,-21.8704,52.7997),(3000.,-31.7508,47.5185),(3000.,-40.4112,40.4112),(3000.,-47.5185,31.7508),(3000.,-52.7997,21.8704),(3000.,-56.0519,11.1494),(3000.,-57.15,0.),(3000.,-56.0519,-11.1494),(3000.,-52.7997,-21.8704),(3000.,-47.5185,-31.7508),(3000.,-40.4112,-40.4112),(3000.,-31.7508,-47.5185),(3000.,-21.8704,-52.7997),(3000.,-11.1494,-56.0519),(3000.,-0.,-57.15),(3000.,11.1494,-56.0519),(3000.,21.8704,-52.7997),(3000.,31.7508,-47.5185),(3000.,40.4112,-40.4112),(3000.,47.5185,-31.7508),(3000.,52.7997,-21.8704),(3000.,56.0519,-11.1494),(3000.,49.8729,-9.9203),(3000.,46.9793,-19.4595),(3000.,42.2802,-28.2507),(3000.,35.9564,-35.9564),(3000.,28.2507,-42.2802),(3000.,19.4595,-46.9793),(3000.,9.9203,-49.8729),(3000.,-0.,-50.85),(3000.,-9.9203,-49.8729),(3000.,-19.4595,-46.9793),(3000.,-28.2507,-42.2802),(3000.,-35.9564,-35.9564),(3000.,-42.2802,-28.2507),(3000.,-46.9793,-19.4595),(3000.,-49.8729,-9.9203),(3000.,-50.85,0.),(3000.,-49.8729,9.9203),(3000.,-46.9793,19.4595),(3000.,-42.2802,28.2507),(3000.,-35.9564,35.9564),(3000.,-28.2507,42.2802),(3000.,-19.4595,46.9793),(3000.,-9.9203,49.8729),(3000.,0.,50.85),(3000.,9.9203,49.8729),(3000.,19.4595,46.9793),(3000.,28.2507,42.2802),(3000.,35.9564,35.9564),(3000.,42.2802,28.2507),(3000.,46.9793,19.4595),(3000.,49.8729,9.9203),(3000.,50.85,0.),(0.,57.15,0.),(0.,56.0519,11.1494),(0.,52.7997,21.8704),(0.,47.5185,31.7508),(0.,40.4112,40.4112),(0.,31.7508,47.5185),(0.,21.8704,52.7997),(0.,11.1494,56.0519),(0.,0.,57.15),(0.,-11.1494,56.0519),(0.,-21.8704,52.7997),(0.,-31.7508,47.5185),(0.,-40.4112,40.4112),(0.,-47.5185,31.7508),(0.,-52.7997,21.8704),(0.,-56.0519,11.1494),(0.,-57.15,0.),(0.,-56.0519,-11.1494),(0.,-52.7997,-21.8704),(0.,-47.5185,-31.7508),(0.,-40.4112,-40.4112),(0.,-31.7508,-47.5185),(0.,-21.8704,-52.7997),(0.,-11.1494,-56.0519),(0.,-0.,-57.15),(0.,11.1494,-56.0519),(0.,21.8704,-52.7997),(0.,31.7508,-47.5185),(0.,40.4112,-40.4112),(0.,47.5185,-31.7508),(0.,52.7997,-21.8704),(0.,56.0519,-11.1494),(0.,49.8729,-9.9203),(0.,46.9793,-19.4595),(0.,42.2802,-28.2507),(0.,35.9564,-35.9564),(0.,28.2507,-42.2802),(0.,19.4595,-46.9793),(0.,9.9203,-49.8729),(0.,-0.,-50.85),(0.,-9.9203,-49.8729),(0.,-19.4595,-46.9793),(0.,-28.2507,-42.2802),(0.,-35.9564,-35.9564),(0.,-42.2802,-28.2507),(0.,-46.9793,-19.4595),(0.,-49.8729,-9.9203),(0.,-50.85,0.),(0.,-49.8729,9.9203),(0.,-46.9793,19.4595),(0.,-42.2802,28.2507),(0.,-35.9564,35.9564),(0.,-28.2507,42.2802),(0.,-19.4595,46.9793),(0.,-9.9203,49.8729),(0.,0.,50.85),(0.,9.9203,49.8729),(0.,19.4595,46.9793),(0.,28.2507,42.2802),(0.,35.9564,35.9564),(0.,42.2802,28.2507),(0.,46.9793,19.4595),(0.,49.8729,9.9203),(0.,50.85,0.),(3000.,57.15,0.),(3000.,56.0519,11.1494),(3000.,52.7997,21.8704),(3000.,47.5185,31.7508),(3000.,40.4112,40.4112),(3000.,31.7508,47.5185),(3000.,21.8704,52.7997),(3000.,11.1494,56.0519),(3000.,0.,57.15),(3000.,-11.1494,56.0519),(3000.,-21.8704,52.7997),(3000.,-31.7508,47.5185),(3000.,-40.4112,40.4112),(3000.,-47.5185,31.7508),(3000.,-52.7997,21.8704),(3000.,-56.0519,11.1494),(3000.,-57.15,0.),(3000.,-56.0519,-11.1494),(3000.,-52.7997,-21.8704),(3000.,-47.5185,-31.7508),(3000.,-40.4112,-40.4112),(3000.,-31.7508,-47.5185),(3000.,-21.8704,-52.7997),(3000.,-11.1494,-56.0519),(3000.,-0.,-57.15),(3000.,11.1494,-56.0519),(3000.,21.8704,-52.7997),(3000.,31.7508,-47.5185),(3000.,40.4112,-40.4112),(3000.,47.5185,-31.7508),(3000.,52.7997,-21.8704),(3000.,56.0519,-11.1494),(3000.,49.8729,-9.9203),(3000.,46.9793,-19.4595),(3000.,42.2802,-28.2507),(3000.,35.9564,-35.9564),(3000.,28.2507,-42.2802),(3000.,19.4595,-46.9793),(3000.,9.9203,-49.8729),(3000.,-0.,-50.85),(3000.,-9.9203,-49.8729),(3000.,-19.4595,-46.9793),(3000.,-28.2507,-42.2802),(3000.,-35.9564,-35.9564),(3000.,-42.2802,-28.2507),(3000.,-46.9793,-19.4595),(3000.,-49.8729,-9.9203),(3000.,-50.85,0.),(3000.,-49.8729,9.9203),(3000.,-46.9793,19.4595),(3000.,-42.2802,28.2507),(3000.,-35.9564,35.9564),(3000.,-28.2507,42.2802),(3000.,-19.4595,46.9793),(3000.,-9.9203,49.8729),(3000.,0.,50.85),(3000.,9.9203,49.8729),(3000.,19.4595,46.9793),(3000.,28.2507,42.2802),(3000.,35.9564,35.9564),(3000.,42.2802,28.2507),(3000.,46.9793,19.4595),(3000.,49.8729,9.9203),(3000.,50.85,0.)));
#40=IFCTRIANGULATEDFACESET(#39,$,.F.,((1,2,66),(1,66,65),(2,3,67),(2,67,66),(3,4,68),(3,68,67),(4,5,69),(4,69,68),(5,6,70),(5,70,69),(6,7,71),(6,71,70),(7,8,72),(7,72,71),(8,9,73),(8,73,72),(9,10,74),(9,74,73),(10,11,75),(10,75,74),(11,12,76),(11,76,75),(12,13,77),(12,77,76),(13,14,78),(13,78,77),(14,15,79),(14,79,78),(15,16,80),(15,80,79),(16,17,81),(16,81,80),(17,18,82),(17,82,81),(18,19,83),(18,83,82),(19,20,84),(19,84,83),(20,21,85),(20,85,84),(21,22,86),(21,86,85),(22,23,87),(22,87,86),(23,24,88),(23,88,87),(24,25,89),(24,89,88),(25,26,90),(25,90,89),(26,27,91),(26,91,90),(27,28,92),(27,92,91),(28,29,93),(28,93,92),(29,30,94),(29,94,93),(30,31,95),(30,95,94),(31,32,96),(31,96,95),(32,1,65),(32,65,96),(97,98,34),(97,34,33),(98,99,35),(98,35,34),(99,100,36),(99,36,35),(100,101,37),(100,37,36),(101,102,38),(101,38,37),(102,103,39),(102,39,38),(103,104,40),(103,40,39),(104,105,41),(104,41,40),(105,106,42),(105,42,41),(106,107,43),(106,43,42),(107,108,44),(107,44,43),(108,109,45),(108,45,44),(109,110,46),(109,46,45),(110,111,47),(110,47,46),(111,112,48),(111,48,47),(112,113,49),(112,49,48),(113,114,50),(113,50,49),(114,115,51),(114,51,50),(115,116,52),(115,52,51),(116,117,53),(116,53,52),(117,118,54),(117,54,53),(118,119,55),(118,55,54),(119,120,56),(119,56,55),(120,121,57),(120,57,56),(121,122,58),(121,58,57),(122,123,59),(122,59,58),(123,124,60),(123,60,59),(124,125,61),(124,61,60),(125,126,62),(125,62,61),(126,127,63),(126,63,62),(127,128,64),(127,64,63),(128,97,33),(128,33,64),(161,162,130),(161,130,129),(162,163,131),(162,131,130),(163,164,132),(163,132,131),(164,165,133),(164,133,132),(165,166,134),(165,134,133),(166,167,135),(166,135,134),(167,168,136),(167,136,135),(168,169,137),(168,137,136),(169,170,138),(169,138,137),(170,171,139),(170,139,138),(171,172,140),(171,140,139),(172,173,141),(172,141,140),(173,174,142),(173,142,141),(174,175,143),(174,143,142),(175,176,144),(175,144,143),(176,177,145),(176,145,144),(177,178,146),(177,146,145),(178,179,147),(178,147,146),(179,180,148),(179,148,147),(180,181,149),(180,149,148),(181,182,150),(181,150,149),(182,183,151),(182,151,150),(183,184,152),(183,152,151),(184,185,153),(184,153,152),(185,186,154),(185,154,153),(186,187,155),(186,155,154),(187,188,156),(187,156,155),(188,189,157),(188,157,156),(189,190,158),(189,158,157),(190,191,159),(190,159,158),(191,192,160),(191,160,159),(192,161,129),(192,129,160),(193,194,226),(193,226,225),(194,195,227),(194,227,226),(195,196,228),(195,228,227),(196,197,229),(196,229,228),(197,198,230),(197,230,229),(198,199,231),(198,231,230),(199,200,232),(199,232,231),(200,201,233),(200,233,232),(201,202,234),(201,234,233),(202,203,235),(202,235,234),(203,204,236),(203,236,235),(204,205,237),(204,237,236),(205,206,238),(205,238,237),(206,207,239),(206,239,238),(207,208,240),(207,240,239),(208,209,241),(208,241,240),(209,210,242),(209,242,241),(210,211,243),(210,243,242),(211,212,244),(211,244,243),(212,213,245),(212,245,244),(213,214,246),(213,246,245),(214,215,247),(214,247,246),(215,216,248),(215,248,247),(216,217,249),(216,249,248),(217,218,250),(217,250,249),(218,219,251),(218,251,250),(219,220,252),(219,252,251),(220,221,253),(220,253,252),(221,222,254),(221,254,253),(222,223,255),(222,255,254),(223,224,256),(223,256,255),(224,193,225),(224,225,256)),$);
#41=IFCSHAPEREPRESENTATION(#12,'Body','Tessellation',(#40));
#42=IFCCARTESIANPOINT((0.,0.,0.));
#43=IFCDIRECTION((0.,0.,1.));
#44=IFCDIRECTION((1.,0.,0.));
#45=IFCAXIS2PLACEMENT3D(#42,#43,#44);
#46=IFCLOCALPLACEMENT(#17,#45);
#47=IFCPRODUCTDEFINITIONSHAPE($,$,(#41));
#48=IFCBUILDINGELEMENTPROXY('3c$eEt6Xr4L9EVoKevLoOV',$,'pipe_straight',$,$,#46,#47,$,$);
#49=IFCRELCONTAINEDINSPATIALSTRUCTURE('1TNlKzfljBDP9GpVrEwIGv',$,$,$,(#48),#18);
#50=IFCCOLOURRGB($,0.501960784313725,0.501960784313725,0.501960784313725);
#51=IFCSURFACESTYLERENDERING(#50,0.,$,$,$,$,$,$,.FLAT.);
#52=IFCSURFACESTYLE($,.BOTH.,(#51));
#53=IFCSTYLEDITEM(#40,(#52),$);
ENDSEC;
END-ISO-10303-21;
