ISO-10303-21;
HEADER;
FILE_DESCRIPTION(('ViewDefinition [CoordinationView]'),'2;1');
FILE_NAME('','2026-05-09T13:53:09',(''),(''),'IfcOpenShell 0.8.4-e8eb5e4','IfcOpenShell 0.8.4-e8eb5e4','');
FILE_SCHEMA(('IFC4'));
ENDSEC;
DATA;
#1=IFCPROJECT('3afsGsqO98xBoTKJA9oCCc',$,'Unnamed Project',$,$,$,$,(#11),#6);
#2=IFCSIUNIT(*,.LENGTHUNIT.,.MILLI.,.METRE.);
#3=IFCSIUNIT(*,.AREAUNIT.,$,.SQUARE_METRE.);
#4=IFCSIUNIT(*,.VOLUMEUNIT.,$,.CUBIC_METRE.);
#5=IFCSIUNIT(*,.PLANEANGLEUNIT.,$,.RADIAN.);
#6=IFCUNITASSIGNMENT((#4,#2,#5,#3));
#7=IFCCARTESIANPOINT((0.,0.,0.));
#8=IFCDIRECTION((0.,0.,1.));
#9=IFCDIRECTION((1.,0.,0.));
#10=IFCAXIS2PLACEMENT3D(#7,#8,#9);
#11=IFCGEOMETRICREPRESENTATIONCONTEXT($,'Model',3,1.E-05,#10,$);
#12=IFCGEOMETRICREPRESENTATIONSUBCONTEXT('Body','Model',*,*,*,*,#11,$,.MODEL_VIEW.,$);
#13=IFCCARTESIANPOINT((0.,0.,0.));
#14=IFCDIRECTION((0.,0.,1.));
#15=IFCDIRECTION((1.,0.,0.));
#16=IFCAXIS2PLACEMENT3D(#13,#14,#15);
#17=IFCLOCALPLACEMENT($,#16);
#18=IFCBUILDINGSTOREY('0vC3qdGhL8qOZcROvJ0GD$',$,'Storey',$,$,#17,$,$,$,$);
#19=IFCRELAGGREGATES('2ci7VbggzEIeri$g$YMVhr',$,$,$,#1,(#18));
#20=IFCCARTESIANPOINT((0.,0.,0.));
#21=IFCCARTESIANPOINT((2000.,0.,0.));
#22=IFCPOLYLINE((#20,#21));
#23=IFCCOMPOSITECURVESEGMENT(.CONTSAMEGRADIENT.,.T.,#22);
#24=IFCCARTESIANPOINT((2000.,0.,0.));
#25=IFCCARTESIANPOINT((2000.,1000.,0.));
#26=IFCPOLYLINE((#24,#25));
#27=IFCCOMPOSITECURVESEGMENT(.CONTSAMEGRADIENT.,.T.,#26);
#28=IFCCARTESIANPOINT((2000.,1000.,0.));
#29=IFCCARTESIANPOINT((2000.,1000.,1000.));
#30=IFCPOLYLINE((#28,#29));
#31=IFCCOMPOSITECURVESEGMENT(.CONTSAMEGRADIENT.,.T.,#30);
#32=IFCCARTESIANPOINT((2000.,1000.,1000.));
#33=IFCCARTESIANPOINT((2000.,0.,1000.));
#34=IFCPOLYLINE((#32,#33));
#35=IFCCOMPOSITECURVESEGMENT(.CONTSAMEGRADIENT.,.T.,#34);
#36=IFCCARTESIANPOINT((2000.,0.,1000.));
#37=IFCCARTESIANPOINT((3000.,0.,1000.));
#38=IFCPOLYLINE((#36,#37));
#39=IFCCOMPOSITECURVESEGMENT(.CONTSAMEGRADIENT.,.T.,#38);
#40=IFCCARTESIANPOINT((3000.,0.,1000.));
#41=IFCCARTESIANPOINT((4000.,1000.,1000.));
#42=IFCPOLYLINE((#40,#41));
#43=IFCCOMPOSITECURVESEGMENT(.CONTSAMEGRADIENT.,.T.,#42);
#44=IFCCARTESIANPOINT((4000.,1000.,1000.));
#45=IFCCARTESIANPOINT((5000.,1000.,500.));
#46=IFCPOLYLINE((#44,#45));
#47=IFCCOMPOSITECURVESEGMENT(.CONTSAMEGRADIENT.,.T.,#46);
#48=IFCCARTESIANPOINT((5000.,1000.,500.));
#49=IFCCARTESIANPOINT((6000.,0.,0.));
#50=IFCPOLYLINE((#48,#49));
#51=IFCCOMPOSITECURVESEGMENT(.DISCONTINUOUS.,.T.,#50);
#52=IFCCOMPOSITECURVE((#23,#27,#31,#35,#39,#43,#47,#51),.F.);
#53=IFCCARTESIANPOINT((0.,100.));
#54=IFCAXIS2PLACEMENT2D(#53,$);
#55=IFCISHAPEPROFILEDEF(.AREA.,'I-Profile',#54,100.,200.,6.,10.,$,$,$);
#56=IFCCARTESIANPOINT((0.,100.));
#57=IFCAXIS2PLACEMENT2D(#56,$);
#58=IFCISHAPEPROFILEDEF(.AREA.,'I-Profile',#57,100.,200.,6.,10.,$,$,$);
#59=IFCCARTESIANPOINT((0.,0.));
#60=IFCCARTESIANTRANSFORMATIONOPERATOR2D($,$,#59,$);
#61=IFCCARTESIANTRANSFORMATIONOPERATOR2DNONUNIFORM($,$,#59,$,1.4142135623731);
#62=IFCDERIVEDPROFILEDEF($,$,#58,#61,$);
#63=IFCCARTESIANPOINT((0.,100.));
#64=IFCAXIS2PLACEMENT2D(#63,$);
#65=IFCISHAPEPROFILEDEF(.AREA.,'I-Profile',#64,100.,200.,6.,10.,$,$,$);
#66=IFCCARTESIANPOINT((0.,0.));
#67=IFCCARTESIANTRANSFORMATIONOPERATOR2D($,$,#66,$);
#68=IFCCARTESIANTRANSFORMATIONOPERATOR2DNONUNIFORM($,$,#66,$,1.);
#69=IFCDERIVEDPROFILEDEF($,$,#65,#68,$);
#70=IFCCARTESIANPOINT((0.,100.));
#71=IFCAXIS2PLACEMENT2D(#70,$);
#72=IFCISHAPEPROFILEDEF(.AREA.,'I-Profile',#71,100.,200.,6.,10.,$,$,$);
#73=IFCCARTESIANPOINT((0.,0.));
#74=IFCCARTESIANTRANSFORMATIONOPERATOR2D($,$,#73,$);
#75=IFCCARTESIANTRANSFORMATIONOPERATOR2DNONUNIFORM($,$,#73,$,1.);
#76=IFCDERIVEDPROFILEDEF($,$,#72,#75,$);
#77=IFCCARTESIANPOINT((0.,100.));
#78=IFCAXIS2PLACEMENT2D(#77,$);
#79=IFCISHAPEPROFILEDEF(.AREA.,'I-Profile',#78,100.,200.,6.,10.,$,$,$);
#80=IFCCARTESIANPOINT((0.,0.));
#81=IFCCARTESIANTRANSFORMATIONOPERATOR2D($,$,#80,$);
#82=IFCCARTESIANTRANSFORMATIONOPERATOR2DNONUNIFORM($,$,#80,$,1.4142135623731);
#83=IFCDERIVEDPROFILEDEF($,$,#79,#82,$);
#84=IFCCARTESIANPOINT((0.,100.));
#85=IFCAXIS2PLACEMENT2D(#84,$);
#86=IFCISHAPEPROFILEDEF(.AREA.,'I-Profile',#85,100.,200.,6.,10.,$,$,$);
#87=IFCCARTESIANPOINT((0.,0.));
#88=IFCCARTESIANTRANSFORMATIONOPERATOR2D($,$,#87,$);
#89=IFCCARTESIANTRANSFORMATIONOPERATOR2DNONUNIFORM($,$,#87,$,1.08239220029239);
#90=IFCDERIVEDPROFILEDEF($,$,#86,#89,$);
#91=IFCCARTESIANPOINT((0.,100.));
#92=IFCAXIS2PLACEMENT2D(#91,$);
#93=IFCISHAPEPROFILEDEF(.AREA.,'I-Profile',#92,100.,200.,6.,10.,$,$,$);
#94=IFCCARTESIANPOINT((0.,0.));
#95=IFCCARTESIANTRANSFORMATIONOPERATOR2D($,$,#94,$);
#96=IFCCARTESIANTRANSFORMATIONOPERATOR2DNONUNIFORM($,$,#94,$,1.1068641409651);
#97=IFCDERIVEDPROFILEDEF($,$,#93,#96,$);
#98=IFCCARTESIANPOINT((0.,100.));
#99=IFCAXIS2PLACEMENT2D(#98,$);
#100=IFCISHAPEPROFILEDEF(.AREA.,'I-Profile',#99,100.,200.,6.,10.,$,$,$);
#101=IFCCARTESIANPOINT((0.,0.));
#102=IFCCARTESIANTRANSFORMATIONOPERATOR2D($,$,#101,$);
#103=IFCCARTESIANTRANSFORMATIONOPERATOR2DNONUNIFORM($,$,#101,$,1.07046626931927);
#104=IFCDERIVEDPROFILEDEF($,$,#100,#103,$);
#105=IFCCARTESIANPOINT((0.,100.));
#106=IFCAXIS2PLACEMENT2D(#105,$);
#107=IFCISHAPEPROFILEDEF(.AREA.,'I-Profile',#106,100.,200.,6.,10.,$,$,$);
#108=IFCCARTESIANPOINT((0.,0.,0.));
#109=IFCDIRECTION((1.,0.,0.));
#110=IFCDIRECTION((-0.,0.,1.));
#111=IFCAXIS2PLACEMENT3D(#108,#109,#110);
#112=IFCCARTESIANPOINT((2000.,0.,0.));
#113=IFCDIRECTION((0.7071,0.7071,0.));
#114=IFCDIRECTION((-0.,0.,1.));
#115=IFCAXIS2PLACEMENT3D(#112,#113,#114);
#116=IFCCARTESIANPOINT((2000.,1000.,0.));
#117=IFCDIRECTION((0.,0.7071,0.7071));
#118=IFCDIRECTION((0.,-0.7071,0.7071));
#119=IFCAXIS2PLACEMENT3D(#116,#117,#118);
#120=IFCCARTESIANPOINT((2000.,1000.,1000.));
#121=IFCDIRECTION((0.,-0.7071,0.7071));
#122=IFCDIRECTION((0.,-0.7071,-0.7071));
#123=IFCAXIS2PLACEMENT3D(#120,#121,#122);
#124=IFCCARTESIANPOINT((2000.,0.,1000.));
#125=IFCDIRECTION((0.7071,-0.7071,0.));
#126=IFCDIRECTION((-0.,-0.,-1.));
#127=IFCAXIS2PLACEMENT3D(#124,#125,#126);
#128=IFCCARTESIANPOINT((3000.,0.,1000.));
#129=IFCDIRECTION((0.9239,0.3827,0.));
#130=IFCDIRECTION((0.,-0.,-1.));
#131=IFCAXIS2PLACEMENT3D(#128,#129,#130);
#132=IFCCARTESIANPOINT((4000.,1000.,1000.));
#133=IFCDIRECTION((0.8863,0.3913,-0.2475));
#134=IFCDIRECTION((-0.269,-0.,-0.9632));
#135=IFCAXIS2PLACEMENT3D(#132,#133,#134);
#136=IFCCARTESIANPOINT((5000.,1000.,500.));
#137=IFCDIRECTION((0.8355,-0.3568,-0.4178));
#138=IFCDIRECTION((-0.4472,-0.,-0.8944));
#139=IFCAXIS2PLACEMENT3D(#136,#137,#138);
#140=IFCCARTESIANPOINT((6000.,0.,0.));
#141=IFCDIRECTION((0.6667,-0.6667,-0.3333));
#142=IFCDIRECTION((-0.4472,-0.,-0.8944));
#143=IFCAXIS2PLACEMENT3D(#140,#141,#142);
#144=IFCCARTESIANPOINTLIST3D(((0.,0.,-50.),(0.,0.,50.),(0.,-10.,50.),(0.,-10.,3.),(0.,-190.,3.),(0.,-190.,50.),(0.,-200.,50.),(0.,-200.,-50.),(0.,-190.,-50.),(0.,-190.,-3.),(0.,-10.,-3.),(0.,-10.,-50.),(2000.,0.,-50.),(2000.,0.,50.),(2010.,-10.,50.),(2010.,-10.,3.),(2190.,-190.,3.),(2190.,-190.,50.),(2200.,-200.,50.),(2200.,-200.,-50.),(2190.,-190.,-50.),(2190.,-190.,-3.),(2010.,-10.,-3.),(2010.,-10.,-50.),(2000.,1035.3553,-35.3553),(2000.,964.6447,35.3553),(2010.,964.6447,35.3553),(2010.,997.8787,2.1213),(2190.,997.8787,2.1213),(2190.,964.6447,35.3553),(2200.,964.6447,35.3553),(2200.,1035.3553,-35.3553),(2190.,1035.3553,-35.3553),(2190.,1002.1213,-2.1213),(2010.,1002.1213,-2.1213),(2010.,1035.3553,-35.3553),(2000.,1035.3553,1035.3553),(2000.,964.6447,964.6447),(2010.,964.6447,964.6447),(2010.,997.8787,997.8787),(2190.,997.8787,997.8787),(2190.,964.6447,964.6447),(2200.,964.6447,964.6447),(2200.,1035.3553,1035.3553),(2190.,1035.3553,1035.3553),(2190.,1002.1213,1002.1213),(2010.,1002.1213,1002.1213),(2010.,1035.3553,1035.3553),(2000.,0.,1050.),(2000.,0.,950.),(2010.,10.,950.),(2010.,10.,997.),(2190.,190.,997.),(2190.,190.,950.),(2200.,200.,950.),(2200.,200.,1050.),(2190.,190.,1050.),(2190.,190.,1003.),(2010.,10.,1003.),(2010.,10.,1050.),(3000.,0.,1050.),(3000.,0.,950.),(2995.8578,10.,950.),(2995.8578,10.,997.),(2921.298,189.9994,997.),(2921.298,189.9994,950.),(2917.1558,199.9994,950.),(2917.1558,199.9994,1050.),(2921.298,189.9994,1050.),(2921.298,189.9994,1003.),(2995.8578,10.,1003.),(2995.8578,10.,1050.),(4013.4492,1000.,1048.1572),(3986.5508,1000.,951.8428),(3982.379,1010.186,953.0078),(3995.0213,1010.186,998.2756),(3919.93,1193.5334,1019.247),(3907.2877,1193.5334,973.9792),(3903.1159,1203.7194,975.1442),(3930.0144,1203.7194,1071.4587),(3934.1861,1193.5334,1070.2936),(3921.5439,1193.5334,1025.0258),(3996.6352,1010.186,1004.0545),(4009.2775,1010.186,1049.3223),(5022.3607,1000.,544.7214),(4977.6393,1000.,455.2786),(4981.0556,1010.,453.5705),(5002.0747,1010.,495.6086),(5063.5686,1190.0007,464.8616),(5042.5495,1190.0007,422.8235),(5045.9659,1200.0007,421.1154),(5090.6872,1200.0007,510.5581),(5087.2709,1190.0007,512.2662),(5066.2519,1190.0007,470.2282),(5004.758,1010.,500.9751),(5025.777,1010.,543.0132),(6022.3607,0.,44.7214),(5977.6393,0.,-44.7214),(5983.6023,7.4535,-47.7028),(6004.6213,7.4535,-5.6648),(6111.9544,141.6158,-59.3313),(6090.9353,141.6158,-101.3694),(6096.8983,149.0692,-104.3508),(6141.6196,149.0692,-14.9081),(6135.6567,141.6158,-11.9266),(6114.6376,141.6158,-53.9647),(6007.3046,7.4535,-0.2982),(6028.3236,7.4535,41.7399)));
#145=IFCTRIANGULATEDFACESET(#144,$,.F.,((1,2,14),(1,14,13),(2,3,15),(2,15,14),(3,4,16),(3,16,15),(4,5,17),(4,17,16),(5,6,18),(5,18,17),(6,7,19),(6,19,18),(7,8,20),(7,20,19),(8,9,21),(8,21,20),(9,10,22),(9,22,21),(10,11,23),(10,23,22),(11,12,24),(11,24,23),(12,1,13),(12,13,24),(13,14,26),(13,26,25),(14,15,27),(14,27,26),(15,16,28),(15,28,27),(16,17,29),(16,29,28),(17,18,30),(17,30,29),(18,19,31),(18,31,30),(19,20,32),(19,32,31),(20,21,33),(20,33,32),(21,22,34),(21,34,33),(22,23,35),(22,35,34),(23,24,36),(23,36,35),(24,13,25),(24,25,36),(25,26,38),(25,38,37),(26,27,39),(26,39,38),(27,28,40),(27,40,39),(28,29,41),(28,41,40),(29,30,42),(29,42,41),(30,31,43),(30,43,42),(31,32,44),(31,44,43),(32,33,45),(32,45,44),(33,34,46),(33,46,45),(34,35,47),(34,47,46),(35,36,48),(35,48,47),(36,25,37),(36,37,48),(37,38,50),(37,50,49),(38,39,51),(38,51,50),(39,40,52),(39,52,51),(40,41,53),(40,53,52),(41,42,54),(41,54,53),(42,43,55),(42,55,54),(43,44,56),(43,56,55),(44,45,57),(44,57,56),(45,46,58),(45,58,57),(46,47,59),(46,59,58),(47,48,60),(47,60,59),(48,37,49),(48,49,60),(49,50,62),(49,62,61),(50,51,63),(50,63,62),(51,52,64),(51,64,63),(52,53,65),(52,65,64),(53,54,66),(53,66,65),(54,55,67),(54,67,66),(55,56,68),(55,68,67),(56,57,69),(56,69,68),(57,58,70),(57,70,69),(58,59,71),(58,71,70),(59,60,72),(59,72,71),(60,49,61),(60,61,72),(61,62,74),(61,74,73),(62,63,75),(62,75,74),(63,64,76),(63,76,75),(64,65,77),(64,77,76),(65,66,78),(65,78,77),(66,67,79),(66,79,78),(67,68,80),(67,80,79),(68,69,81),(68,81,80),(69,70,82),(69,82,81),(70,71,83),(70,83,82),(71,72,84),(71,84,83),(72,61,73),(72,73,84),(73,74,86),(73,86,85),(74,75,87),(74,87,86),(75,76,88),(75,88,87),(76,77,89),(76,89,88),(77,78,90),(77,90,89),(78,79,91),(78,91,90),(79,80,92),(79,92,91),(80,81,93),(80,93,92),(81,82,94),(81,94,93),(82,83,95),(82,95,94),(83,84,96),(83,96,95),(84,73,85),(84,85,96),(85,86,98),(85,98,97),(86,87,99),(86,99,98),(87,88,100),(87,100,99),(88,89,101),(88,101,100),(89,90,102),(89,102,101),(90,91,103),(90,103,102),(91,92,104),(91,104,103),(92,93,105),(92,105,104),(93,94,106),(93,106,105),(94,95,107),(94,107,106),(95,96,108),(95,108,107),(96,85,97),(96,97,108),(2,1,12),(4,3,2),(7,6,5),(8,7,5),(10,9,8),(2,12,11),(4,2,11),(5,4,11),(10,8,5),(11,10,5),(108,97,98),(98,99,100),(101,102,103),(101,103,104),(104,105,106),(107,108,98),(107,98,100),(107,100,101),(101,104,106),(101,106,107)),$);
#146=IFCSHAPEREPRESENTATION(#12,'Body','Tessellation',(#145));
#147=IFCCARTESIANPOINT((0.,0.,0.));
#148=IFCDIRECTION((0.,0.,1.));
#149=IFCDIRECTION((1.,0.,0.));
#150=IFCAXIS2PLACEMENT3D(#147,#148,#149);
#151=IFCLOCALPLACEMENT(#17,#150);
#152=IFCPRODUCTDEFINITIONSHAPE($,$,(#146));
#153=IFCBUILDINGELEMENTPROXY('1NztmNeNT0rgiZEBRKESCq',$,'auto_ibeam',$,$,#151,#152,$,$);
#154=IFCRELCONTAINEDINSPATIALSTRUCTURE('3R1st5Rwn1HhxgdizKVfUc',$,$,$,(#153),#18);
#155=IFCCOLOURRGB($,0.501960784313725,0.501960784313725,0.501960784313725);
#156=IFCSURFACESTYLERENDERING(#155,0.,$,$,$,$,$,$,.FLAT.);
#157=IFCSURFACESTYLE($,.BOTH.,(#156));
#158=IFCSTYLEDITEM(#145,(#157),$);
ENDSEC;
END-ISO-10303-21;
