ISO-10303-21;
HEADER;
FILE_DESCRIPTION(('ViewDefinition [CoordinationView]'),'2;1');
FILE_NAME('','2026-06-06T11:30:57',(''),(''),'IfcOpenShell 0.8.5-1c5b825','IfcOpenShell 0.8.5-1c5b825','');
FILE_SCHEMA(('IFC4'));
ENDSEC;
DATA;
#1=IFCPROJECT('397zuh8vr7ZArsZETerkuB',$,'Unnamed Project',$,$,$,$,(#11),#6);
#2=IFCSIUNIT(*,.LENGTHUNIT.,.MILLI.,.METRE.);
#3=IFCSIUNIT(*,.AREAUNIT.,$,.SQUARE_METRE.);
#4=IFCSIUNIT(*,.VOLUMEUNIT.,$,.CUBIC_METRE.);
#5=IFCSIUNIT(*,.PLANEANGLEUNIT.,$,.RADIAN.);
#6=IFCUNITASSIGNMENT((#4,#2,#3,#5));
#7=IFCCARTESIANPOINT((0.,0.,0.));
#8=IFCDIRECTION((0.,0.,1.));
#9=IFCDIRECTION((1.,0.,0.));
#10=IFCAXIS2PLACEMENT3D(#7,#8,#9);
#11=IFCGEOMETRICREPRESENTATIONCONTEXT($,'Model',3,1.0000000000000001E-05,#10,$);
#12=IFCGEOMETRICREPRESENTATIONSUBCONTEXT('Body','Model',*,*,*,*,#11,$,.MODEL_VIEW.,$);
#13=IFCCARTESIANPOINT((0.,0.,0.));
#14=IFCDIRECTION((0.,0.,1.));
#15=IFCDIRECTION((1.,0.,0.));
#16=IFCAXIS2PLACEMENT3D(#13,#14,#15);
#17=IFCLOCALPLACEMENT($,#16);
#18=IFCBUILDINGSTOREY('1k8HJwUkbDWP1QEiZU6JLp',$,'Storey',$,$,#17,$,$,$,$);
#19=IFCRELAGGREGATES('3T6T017P5A4xchLaRr2zdn',$,$,$,#1,(#18));
#20=IFCCARTESIANPOINT((0.,0.,0.));
#21=IFCCARTESIANPOINT((2000.,0.,0.));
#22=IFCPOLYLINE((#20,#21));
#23=IFCCOMPOSITECURVESEGMENT(.CONTSAMEGRADIENT.,.T.,#22);
#24=IFCCARTESIANPOINT((2000.,0.,0.));
#25=IFCCARTESIANPOINT((2500.,1000.,0.));
#26=IFCPOLYLINE((#24,#25));
#27=IFCCOMPOSITECURVESEGMENT(.CONTSAMEGRADIENT.,.T.,#26);
#28=IFCCARTESIANPOINT((2500.,1000.,0.));
#29=IFCCARTESIANPOINT((3000.,1000.,1000.));
#30=IFCPOLYLINE((#28,#29));
#31=IFCCOMPOSITECURVESEGMENT(.DISCONTINUOUS.,.T.,#30);
#32=IFCCOMPOSITECURVE((#23,#27,#31),.F.);
#33=IFCCARTESIANPOINT((0.,100.));
#34=IFCAXIS2PLACEMENT2D(#33,$);
#35=IFCISHAPEPROFILEDEF(.AREA.,'I-Profile',#34,100.,200.,6.,10.,$,$,$);
#36=IFCCARTESIANPOINT((0.,100.));
#37=IFCAXIS2PLACEMENT2D(#36,$);
#38=IFCISHAPEPROFILEDEF(.AREA.,'I-Profile',#37,117.55705045849463,200.,6.,10.,$,$,$);
#39=IFCCARTESIANPOINT((0.,129.09944487358055));
#40=IFCAXIS2PLACEMENT2D(#39,$);
#41=IFCISHAPEPROFILEDEF(.AREA.,'I-Profile',#40,100.,258.1988897471611,6.,10.,$,$,$);
#42=IFCCARTESIANPOINT((0.,100.));
#43=IFCAXIS2PLACEMENT2D(#42,$);
#44=IFCISHAPEPROFILEDEF(.AREA.,'I-Profile',#43,100.,200.,6.,10.,$,$,$);
#45=IFCCARTESIANPOINT((0.,0.,0.));
#46=IFCDIRECTION((1.,0.,0.));
#47=IFCDIRECTION((0.,1.,0.));
#48=IFCAXIS2PLACEMENT3D(#45,#46,#47);
#49=IFCCARTESIANPOINT((2000.,0.,0.));
#50=IFCDIRECTION((0.85070000000000001,0.52569999999999995,0.));
#51=IFCDIRECTION((-0.52569999999999995,0.85070000000000001,0.));
#52=IFCAXIS2PLACEMENT3D(#49,#50,#51);
#53=IFCCARTESIANPOINT((2500.,1000.,0.));
#54=IFCDIRECTION((0.57740000000000002,0.57740000000000002,0.57740000000000002));
#55=IFCDIRECTION((-0.67500000000000004,0.73529999999999995,-0.060299999999999999));
#56=IFCAXIS2PLACEMENT3D(#53,#54,#55);
#57=IFCCARTESIANPOINT((3000.,1000.,1000.));
#58=IFCDIRECTION((0.44719999999999999,0.,0.89439999999999997));
#59=IFCDIRECTION((-0.46949999999999997,0.85109999999999997,0.23480000000000001));
#60=IFCAXIS2PLACEMENT3D(#57,#58,#59);
#61=IFCCARTESIANPOINTLIST3D(((0.,-50.,0.),(0.,50.,0.),(0.,50.,10.),(0.,3.,10.),(0.,3.,190.),(0.,50.,190.),(0.,50.,200.),(0.,-50.,200.),(0.,-50.,190.),(0.,-3.,190.),(0.,-3.,10.),(0.,-50.,10.),(2030.8991000000001,-50.001600000000003,0.),(1969.1008999999999,50.001600000000003,0.),(1969.1008999999999,50.001600000000003,10.),(1998.4229,2.552,10.),(1998.4229,2.552,190.),(1969.1008999999999,50.001600000000003,190.),(1969.1008999999999,50.001600000000003,200.),(2030.8991000000001,-50.001600000000003,200.),(2030.8991000000001,-50.001600000000003,190.),(2001.5771,-2.552,190.),(2001.5771,-2.552,10.),(2030.8991000000001,-50.001600000000003,10.),(2533.7512000000002,963.2337,3.0150999999999999),(2466.2487999999998,1036.7663,-3.0150999999999999),(2461.6552000000001,1033.2172,5.1276000000000002),(2493.3814000000002,998.65689999999995,7.9618000000000002),(2383.9630999999999,914.11770000000001,201.91919999999999),(2352.2370000000001,948.678,199.08500000000001),(2347.6433999999999,945.12890000000004,207.2277),(2415.1459,871.59630000000004,213.25790000000001),(2419.7393999999999,875.1454,205.11519999999999),(2388.0133000000001,909.70569999999998,202.28100000000001),(2497.4315000000001,994.24490000000003,8.3236000000000008),(2529.1577000000002,959.68460000000005,11.1578),(3023.4758000000002,957.44359999999995,988.25959999999998),(2976.5241999999998,1042.5563999999999,1011.7404),(2968.9115000000002,1037.3069,1015.5468),(2990.9787000000001,997.30380000000002,1004.5108),(2853.9495999999999,902.81150000000002,1073.0253),(2831.8824,942.81460000000004,1084.0613000000001),(2824.2696999999998,937.56500000000005,1087.8677),(2871.2213000000002,852.45219999999995,1064.3869),(2878.8339999999998,857.70169999999996,1060.5805),(2856.7667000000001,897.70479999999998,1071.6165000000001),(2993.7957999999999,992.197,1003.1019),(3015.8631,952.19399999999996,992.06600000000003)));
#62=IFCTRIANGULATEDFACESET(#61,$,.F.,((1,2,14),(1,14,13),(2,3,15),(2,15,14),(3,4,16),(3,16,15),(4,5,17),(4,17,16),(5,6,18),(5,18,17),(6,7,19),(6,19,18),(7,8,20),(7,20,19),(8,9,21),(8,21,20),(9,10,22),(9,22,21),(10,11,23),(10,23,22),(11,12,24),(11,24,23),(12,1,13),(12,13,24),(13,14,26),(13,26,25),(14,15,27),(14,27,26),(15,16,28),(15,28,27),(16,17,29),(16,29,28),(17,18,30),(17,30,29),(18,19,31),(18,31,30),(19,20,32),(19,32,31),(20,21,33),(20,33,32),(21,22,34),(21,34,33),(22,23,35),(22,35,34),(23,24,36),(23,36,35),(24,13,25),(24,25,36),(25,26,38),(25,38,37),(26,27,39),(26,39,38),(27,28,40),(27,40,39),(28,29,41),(28,41,40),(29,30,42),(29,42,41),(30,31,43),(30,43,42),(31,32,44),(31,44,43),(32,33,45),(32,45,44),(33,34,46),(33,46,45),(34,35,47),(34,47,46),(35,36,48),(35,48,47),(36,25,37),(36,37,48),(2,1,12),(4,3,2),(7,6,5),(8,7,5),(10,9,8),(2,12,11),(4,2,11),(5,4,11),(10,8,5),(11,10,5),(48,37,38),(38,39,40),(41,42,43),(41,43,44),(44,45,46),(47,48,38),(47,38,40),(47,40,41),(41,44,46),(41,46,47)),$);
#63=IFCSHAPEREPRESENTATION(#12,'Body','Tessellation',(#62));
#64=IFCCARTESIANPOINT((0.,0.,0.));
#65=IFCDIRECTION((0.,0.,1.));
#66=IFCDIRECTION((1.,0.,0.));
#67=IFCAXIS2PLACEMENT3D(#64,#65,#66);
#68=IFCLOCALPLACEMENT(#17,#67);
#69=IFCPRODUCTDEFINITIONSHAPE($,$,(#63));
#70=IFCBUILDINGELEMENTPROXY('0d6Cn4KyD6NQAK1qXv_qLZ',$,'miter_demo_ibeam',$,$,#68,#69,$,$);
#71=IFCRELCONTAINEDINSPATIALSTRUCTURE('0LODN0L9vF8hGa78wf8wxu',$,$,$,(#70),#18);
#72=IFCCOLOURRGB($,0.50196078431372548,0.50196078431372548,0.50196078431372548);
#73=IFCSURFACESTYLERENDERING(#72,0.,$,$,$,$,$,$,.FLAT.);
#74=IFCSURFACESTYLE($,.BOTH.,(#73));
#75=IFCSTYLEDITEM(#62,(#74),$);
ENDSEC;
END-ISO-10303-21;
