ISO-10303-21;
HEADER;
FILE_DESCRIPTION(('ViewDefinition [CoordinationView]'),'2;1');
FILE_NAME('','2026-06-06T11:30:57',(''),(''),'IfcOpenShell 0.8.5-1c5b825','IfcOpenShell 0.8.5-1c5b825','');
FILE_SCHEMA(('IFC4'));
ENDSEC;
DATA;
#1=IFCPROJECT('3wZoz5qdjAGeinGzkKRAkw',$,'Unnamed Project',$,$,$,$,(#11),#6);
#2=IFCSIUNIT(*,.LENGTHUNIT.,.MILLI.,.METRE.);
#3=IFCSIUNIT(*,.AREAUNIT.,$,.SQUARE_METRE.);
#4=IFCSIUNIT(*,.VOLUMEUNIT.,$,.CUBIC_METRE.);
#5=IFCSIUNIT(*,.PLANEANGLEUNIT.,$,.RADIAN.);
#6=IFCUNITASSIGNMENT((#4,#2,#3,#5));
#7=IFCCARTESIANPOINT((0.,0.,0.));
#8=IFCDIRECTION((0.,0.,1.));
#9=IFCDIRECTION((1.,0.,0.));
#10=IFCAXIS2PLACEMENT3D(#7,#8,#9);
#11=IFCGEOMETRICREPRESENTATIONCONTEXT($,'Model',3,1.0000000000000001E-05,#10,$);
#12=IFCGEOMETRICREPRESENTATIONSUBCONTEXT('Body','Model',*,*,*,*,#11,$,.MODEL_VIEW.,$);
#13=IFCCARTESIANPOINT((0.,0.,0.));
#14=IFCDIRECTION((0.,0.,1.));
#15=IFCDIRECTION((1.,0.,0.));
#16=IFCAXIS2PLACEMENT3D(#13,#14,#15);
#17=IFCLOCALPLACEMENT($,#16);
#18=IFCBUILDINGSTOREY('2GhifOP9D8$f60wz5A26VN',$,'Storey',$,$,#17,$,$,$,$);
#19=IFCRELAGGREGATES('1RSybQo_rFBBi99hb3nfKX',$,$,$,#1,(#18));
#20=IFCCARTESIANPOINT((0.,0.,0.));
#21=IFCCARTESIANPOINT((1814.5898,0.,0.));
#22=IFCPOLYLINE((#20,#21));
#23=IFCCOMPOSITECURVESEGMENT(.CONTSAMEGRADIENT.,.T.,#22);
#24=IFCCARTESIANPOINT((1814.5898,300.,0.));
#25=IFCDIRECTION((0.,0.,1.));
#26=IFCDIRECTION((0.,-1.,0.));
#27=IFCAXIS2PLACEMENT3D(#24,#25,#26);
#28=IFCCIRCLE(#27,300.);
#29=IFCTRIMMEDCURVE(#28,(IFCPARAMETERVALUE(0.)),(IFCPARAMETERVALUE(63.434948822922017)),.T.,.PARAMETER.);
#30=IFCCOMPOSITECURVESEGMENT(.CONTSAMEGRADIENT.,.T.,#29);
#31=IFCCARTESIANPOINT((2082.9180000000001,165.83590000000001,0.));
#32=IFCCARTESIANPOINT((2500.,1000.,0.));
#33=IFCPOLYLINE((#31,#32));
#34=IFCCOMPOSITECURVESEGMENT(.CONTSAMEGRADIENT.,.T.,#33);
#35=IFCCARTESIANPOINT((2500.,1000.,0.));
#36=IFCCARTESIANPOINT((3000.,1000.,1000.));
#37=IFCPOLYLINE((#35,#36));
#38=IFCCOMPOSITECURVESEGMENT(.DISCONTINUOUS.,.T.,#37);
#39=IFCCOMPOSITECURVE((#23,#30,#34,#38),.F.);
#40=IFCCARTESIANPOINT((0.,0.));
#41=IFCAXIS2PLACEMENT2D(#40,$);
#42=IFCRECTANGLEPROFILEDEF(.AREA.,$,#41,150.,300.);
#43=IFCCARTESIANPOINT((0.,0.));
#44=IFCAXIS2PLACEMENT2D(#43,$);
#45=IFCRECTANGLEPROFILEDEF(.AREA.,$,#44,176.33557568774194,300.);
#46=IFCCARTESIANPOINT((0.,0.));
#47=IFCAXIS2PLACEMENT2D(#46,$);
#48=IFCRECTANGLEPROFILEDEF(.AREA.,$,#47,150.,387.29833462074168);
#49=IFCCARTESIANPOINT((0.,0.));
#50=IFCAXIS2PLACEMENT2D(#49,$);
#51=IFCRECTANGLEPROFILEDEF(.AREA.,$,#50,150.,300.);
#52=IFCCARTESIANPOINT((0.,0.,0.));
#53=IFCDIRECTION((1.,0.,0.));
#54=IFCDIRECTION((0.,1.,0.));
#55=IFCAXIS2PLACEMENT3D(#52,#53,#54);
#56=IFCCARTESIANPOINT((2000.,0.,0.));
#57=IFCDIRECTION((0.85070000000000001,0.52569999999999995,0.));
#58=IFCDIRECTION((-0.52569999999999995,0.85070000000000001,0.));
#59=IFCAXIS2PLACEMENT3D(#56,#57,#58);
#60=IFCCARTESIANPOINT((2500.,1000.,0.));
#61=IFCDIRECTION((0.57740000000000002,0.57740000000000002,0.57740000000000002));
#62=IFCDIRECTION((-0.67500000000000004,0.73529999999999995,-0.060299999999999999));
#63=IFCAXIS2PLACEMENT3D(#60,#61,#62);
#64=IFCCARTESIANPOINT((3000.,1000.,1000.));
#65=IFCDIRECTION((0.44719999999999999,0.,0.89439999999999997));
#66=IFCDIRECTION((-0.46949999999999997,0.85109999999999997,0.23480000000000001));
#67=IFCAXIS2PLACEMENT3D(#64,#65,#66);
#68=IFCCARTESIANPOINTLIST3D(((0.,-75.,-150.),(0.,75.,-150.),(0.,75.,150.),(0.,-75.,150.),(2046.3486,-75.002399999999994,-150.),(1953.6514,75.002399999999994,-150.),(1953.6514,75.002399999999994,150.),(2046.3486,-75.002399999999994,150.),(2639.5808999999999,1013.5785,-153.15940000000001),(2538.3272000000002,1123.8776,-162.2047),(2360.4191000000001,986.42150000000004,153.15940000000001),(2461.6727999999998,876.12239999999997,162.2047),(3149.4045999999998,1014.9089,925.29399999999998),(3078.9771999999998,1142.5781999999999,960.51509999999996),(2850.5954000000002,985.09109999999998,1074.7059999999999),(2921.0228000000002,857.42179999999996,1039.4848999999999)));
#69=IFCTRIANGULATEDFACESET(#68,$,.F.,((1,2,6),(1,6,5),(2,3,7),(2,7,6),(3,4,8),(3,8,7),(4,1,5),(4,5,8),(5,6,10),(5,10,9),(6,7,11),(6,11,10),(7,8,12),(7,12,11),(8,5,9),(8,9,12),(9,10,14),(9,14,13),(10,11,15),(10,15,14),(11,12,16),(11,16,15),(12,9,13),(12,13,16),(1,4,3),(1,3,2),(13,14,15),(13,15,16)),$);
#70=IFCSHAPEREPRESENTATION(#12,'Body','Tessellation',(#69));
#71=IFCCARTESIANPOINT((0.,0.,0.));
#72=IFCDIRECTION((0.,0.,1.));
#73=IFCDIRECTION((1.,0.,0.));
#74=IFCAXIS2PLACEMENT3D(#71,#72,#73);
#75=IFCLOCALPLACEMENT(#17,#74);
#76=IFCPRODUCTDEFINITIONSHAPE($,$,(#70));
#77=IFCBUILDINGELEMENTPROXY('2LpsVgWQH0Zh18xQn_vpiV',$,'miter_demo',$,$,#75,#76,$,$);
#78=IFCRELCONTAINEDINSPATIALSTRUCTURE('2oANJJlPf3OPzdAyZ8fVNv',$,$,$,(#77),#18);
#79=IFCCOLOURRGB($,0.50196078431372548,0.50196078431372548,0.50196078431372548);
#80=IFCSURFACESTYLERENDERING(#79,0.,$,$,$,$,$,$,.FLAT.);
#81=IFCSURFACESTYLE($,.BOTH.,(#80));
#82=IFCSTYLEDITEM(#69,(#81),$);
ENDSEC;
END-ISO-10303-21;
