ISO-10303-21;
HEADER;
FILE_DESCRIPTION(('ViewDefinition [CoordinationView]'),'2;1');
FILE_NAME('','2026-05-10T11:09:05',(''),(''),'IfcOpenShell 0.8.4-e8eb5e4','IfcOpenShell 0.8.4-e8eb5e4','');
FILE_SCHEMA(('IFC4'));
ENDSEC;
DATA;
#1=IFCPROJECT('3e13R72PX4M9iQ$81mdFs4',$,'Unnamed Project',$,$,$,$,(#11),#6);
#2=IFCSIUNIT(*,.LENGTHUNIT.,.MILLI.,.METRE.);
#3=IFCSIUNIT(*,.AREAUNIT.,$,.SQUARE_METRE.);
#4=IFCSIUNIT(*,.VOLUMEUNIT.,$,.CUBIC_METRE.);
#5=IFCSIUNIT(*,.PLANEANGLEUNIT.,$,.RADIAN.);
#6=IFCUNITASSIGNMENT((#4,#2,#5,#3));
#7=IFCCARTESIANPOINT((0.,0.,0.));
#8=IFCDIRECTION((0.,0.,1.));
#9=IFCDIRECTION((1.,0.,0.));
#10=IFCAXIS2PLACEMENT3D(#7,#8,#9);
#11=IFCGEOMETRICREPRESENTATIONCONTEXT($,'Model',3,1.E-05,#10,$);
#12=IFCGEOMETRICREPRESENTATIONSUBCONTEXT('Body','Model',*,*,*,*,#11,$,.MODEL_VIEW.,$);
#13=IFCCARTESIANPOINT((0.,0.,0.));
#14=IFCDIRECTION((0.,0.,1.));
#15=IFCDIRECTION((1.,0.,0.));
#16=IFCAXIS2PLACEMENT3D(#13,#14,#15);
#17=IFCLOCALPLACEMENT($,#16);
#18=IFCBUILDINGSTOREY('01gIPpE4r2B8dGzh1v_8uW',$,'Storey',$,$,#17,$,$,$,$);
#19=IFCRELAGGREGATES('1tFhHysnvE6h3iLA85URPx',$,$,$,#1,(#18));
#20=IFCCARTESIANPOINT((0.,0.,0.));
#21=IFCCARTESIANPOINT((2000.,0.,0.));
#22=IFCPOLYLINE((#20,#21));
#23=IFCCOMPOSITECURVESEGMENT(.CONTSAMEGRADIENT.,.T.,#22);
#24=IFCCARTESIANPOINT((2000.,0.,0.));
#25=IFCCARTESIANPOINT((2000.,1000.,0.));
#26=IFCPOLYLINE((#24,#25));
#27=IFCCOMPOSITECURVESEGMENT(.CONTSAMEGRADIENT.,.T.,#26);
#28=IFCCARTESIANPOINT((2000.,1000.,0.));
#29=IFCCARTESIANPOINT((2000.,1000.,1000.));
#30=IFCPOLYLINE((#28,#29));
#31=IFCCOMPOSITECURVESEGMENT(.CONTSAMEGRADIENT.,.T.,#30);
#32=IFCCARTESIANPOINT((2000.,1000.,1000.));
#33=IFCCARTESIANPOINT((2000.,0.,1000.));
#34=IFCPOLYLINE((#32,#33));
#35=IFCCOMPOSITECURVESEGMENT(.CONTSAMEGRADIENT.,.T.,#34);
#36=IFCCARTESIANPOINT((2000.,0.,1000.));
#37=IFCCARTESIANPOINT((3000.,0.,1000.));
#38=IFCPOLYLINE((#36,#37));
#39=IFCCOMPOSITECURVESEGMENT(.CONTSAMEGRADIENT.,.T.,#38);
#40=IFCCARTESIANPOINT((3000.,0.,1000.));
#41=IFCCARTESIANPOINT((4000.,1000.,1000.));
#42=IFCPOLYLINE((#40,#41));
#43=IFCCOMPOSITECURVESEGMENT(.CONTSAMEGRADIENT.,.T.,#42);
#44=IFCCARTESIANPOINT((4000.,1000.,1000.));
#45=IFCCARTESIANPOINT((5000.,1000.,500.));
#46=IFCPOLYLINE((#44,#45));
#47=IFCCOMPOSITECURVESEGMENT(.CONTSAMEGRADIENT.,.T.,#46);
#48=IFCCARTESIANPOINT((5000.,1000.,500.));
#49=IFCCARTESIANPOINT((6000.,0.,0.));
#50=IFCPOLYLINE((#48,#49));
#51=IFCCOMPOSITECURVESEGMENT(.DISCONTINUOUS.,.T.,#50);
#52=IFCCOMPOSITECURVE((#23,#27,#31,#35,#39,#43,#47,#51),.F.);
#53=IFCCARTESIANPOINT((0.,0.));
#54=IFCAXIS2PLACEMENT2D(#53,$);
#55=IFCRECTANGLEPROFILEDEF(.AREA.,$,#54,150.,300.);
#56=IFCCARTESIANPOINT((0.,0.));
#57=IFCAXIS2PLACEMENT2D(#56,$);
#58=IFCRECTANGLEPROFILEDEF(.AREA.,$,#57,150.,300.);
#59=IFCCARTESIANPOINT((0.,0.));
#60=IFCCARTESIANTRANSFORMATIONOPERATOR2D($,$,#59,$);
#61=IFCCARTESIANTRANSFORMATIONOPERATOR2DNONUNIFORM($,$,#59,1.,1.4142135623731);
#62=IFCDERIVEDPROFILEDEF($,$,#58,#61,$);
#63=IFCCARTESIANPOINT((0.,0.));
#64=IFCAXIS2PLACEMENT2D(#63,$);
#65=IFCRECTANGLEPROFILEDEF(.AREA.,$,#64,150.,300.);
#66=IFCCARTESIANPOINT((0.,0.));
#67=IFCCARTESIANTRANSFORMATIONOPERATOR2D($,$,#66,$);
#68=IFCCARTESIANTRANSFORMATIONOPERATOR2DNONUNIFORM($,$,#66,1.4142135623731,1.);
#69=IFCDERIVEDPROFILEDEF($,$,#65,#68,$);
#70=IFCCARTESIANPOINT((0.,0.));
#71=IFCAXIS2PLACEMENT2D(#70,$);
#72=IFCRECTANGLEPROFILEDEF(.AREA.,$,#71,150.,300.);
#73=IFCCARTESIANPOINT((0.,0.));
#74=IFCCARTESIANTRANSFORMATIONOPERATOR2D($,$,#73,$);
#75=IFCCARTESIANTRANSFORMATIONOPERATOR2DNONUNIFORM($,$,#73,1.4142135623731,1.);
#76=IFCDERIVEDPROFILEDEF($,$,#72,#75,$);
#77=IFCCARTESIANPOINT((0.,0.));
#78=IFCAXIS2PLACEMENT2D(#77,$);
#79=IFCRECTANGLEPROFILEDEF(.AREA.,$,#78,150.,300.);
#80=IFCCARTESIANPOINT((0.,0.));
#81=IFCCARTESIANTRANSFORMATIONOPERATOR2D($,$,#80,$);
#82=IFCCARTESIANTRANSFORMATIONOPERATOR2DNONUNIFORM($,$,#80,1.,1.4142135623731);
#83=IFCDERIVEDPROFILEDEF($,$,#79,#82,$);
#84=IFCCARTESIANPOINT((0.,0.));
#85=IFCAXIS2PLACEMENT2D(#84,$);
#86=IFCRECTANGLEPROFILEDEF(.AREA.,$,#85,150.,300.);
#87=IFCCARTESIANPOINT((0.,0.));
#88=IFCCARTESIANTRANSFORMATIONOPERATOR2D($,$,#87,$);
#89=IFCCARTESIANTRANSFORMATIONOPERATOR2DNONUNIFORM($,$,#87,1.,1.08239220029239);
#90=IFCDERIVEDPROFILEDEF($,$,#86,#89,$);
#91=IFCCARTESIANPOINT((0.,0.));
#92=IFCAXIS2PLACEMENT2D(#91,$);
#93=IFCRECTANGLEPROFILEDEF(.AREA.,$,#92,150.,300.);
#94=IFCCARTESIANPOINT((0.,0.));
#95=IFCCARTESIANTRANSFORMATIONOPERATOR2D($,$,#94,$);
#96=IFCCARTESIANTRANSFORMATIONOPERATOR2DNONUNIFORM($,$,#94,1.,1.1068641409651);
#97=IFCDERIVEDPROFILEDEF($,$,#93,#96,$);
#98=IFCCARTESIANPOINT((0.,0.));
#99=IFCAXIS2PLACEMENT2D(#98,$);
#100=IFCRECTANGLEPROFILEDEF(.AREA.,$,#99,150.,300.);
#101=IFCCARTESIANPOINT((0.,0.));
#102=IFCCARTESIANTRANSFORMATIONOPERATOR2D($,$,#101,$);
#103=IFCCARTESIANTRANSFORMATIONOPERATOR2DNONUNIFORM($,$,#101,1.,1.07046626931927);
#104=IFCDERIVEDPROFILEDEF($,$,#100,#103,$);
#105=IFCCARTESIANPOINT((0.,0.));
#106=IFCAXIS2PLACEMENT2D(#105,$);
#107=IFCRECTANGLEPROFILEDEF(.AREA.,$,#106,150.,300.);
#108=IFCCARTESIANPOINT((0.,0.,0.));
#109=IFCDIRECTION((1.,0.,0.));
#110=IFCDIRECTION((-0.,0.,1.));
#111=IFCAXIS2PLACEMENT3D(#108,#109,#110);
#112=IFCCARTESIANPOINT((2000.,0.,0.));
#113=IFCDIRECTION((0.7071,0.7071,0.));
#114=IFCDIRECTION((-0.,0.,1.));
#115=IFCAXIS2PLACEMENT3D(#112,#113,#114);
#116=IFCCARTESIANPOINT((2000.,1000.,0.));
#117=IFCDIRECTION((0.,0.7071,0.7071));
#118=IFCDIRECTION((0.,-0.7071,0.7071));
#119=IFCAXIS2PLACEMENT3D(#116,#117,#118);
#120=IFCCARTESIANPOINT((2000.,1000.,1000.));
#121=IFCDIRECTION((0.,-0.7071,0.7071));
#122=IFCDIRECTION((0.,-0.7071,-0.7071));
#123=IFCAXIS2PLACEMENT3D(#120,#121,#122);
#124=IFCCARTESIANPOINT((2000.,0.,1000.));
#125=IFCDIRECTION((0.7071,-0.7071,0.));
#126=IFCDIRECTION((-0.,-0.,-1.));
#127=IFCAXIS2PLACEMENT3D(#124,#125,#126);
#128=IFCCARTESIANPOINT((3000.,0.,1000.));
#129=IFCDIRECTION((0.9239,0.3827,0.));
#130=IFCDIRECTION((0.,-0.,-1.));
#131=IFCAXIS2PLACEMENT3D(#128,#129,#130);
#132=IFCCARTESIANPOINT((4000.,1000.,1000.));
#133=IFCDIRECTION((0.8863,0.3913,-0.2475));
#134=IFCDIRECTION((-0.269,-0.,-0.9632));
#135=IFCAXIS2PLACEMENT3D(#132,#133,#134);
#136=IFCCARTESIANPOINT((5000.,1000.,500.));
#137=IFCDIRECTION((0.8355,-0.3568,-0.4178));
#138=IFCDIRECTION((-0.4472,-0.,-0.8944));
#139=IFCAXIS2PLACEMENT3D(#136,#137,#138);
#140=IFCCARTESIANPOINT((6000.,0.,0.));
#141=IFCDIRECTION((0.6667,-0.6667,-0.3333));
#142=IFCDIRECTION((-0.4472,-0.,-0.8944));
#143=IFCAXIS2PLACEMENT3D(#140,#141,#142);
#144=IFCCARTESIANPOINTLIST3D(((0.,150.,-75.),(0.,150.,75.),(0.,-150.,75.),(0.,-150.,-75.),(1850.,150.,-75.),(1850.,150.,75.),(2150.,-150.,75.),(2150.,-150.,-75.),(1850.,1075.,-75.),(1850.,925.,75.),(2150.,925.,75.),(2150.,1075.,-75.),(1850.,1075.,1075.),(1850.,925.,925.),(2150.,925.,925.),(2150.,1075.,1075.),(1850.,-150.,1075.),(1850.,-150.,925.),(2150.,150.,925.),(2150.,150.,1075.),(3062.1332,-149.9995,1075.),(3062.1332,-149.9995,925.),(2937.8668,149.9995,925.),(2937.8668,149.9995,1075.),(4082.75,847.2104,1054.7597),(4042.4023,847.2104,910.2881),(3917.25,1152.7896,945.2403),(3957.5977,1152.7896,1089.7119),(4982.2961,849.9995,592.7045),(4915.2141,849.9995,458.5404),(5017.7039,1150.0005,407.2955),(5084.7859,1150.0005,541.4596),(5944.0968,-111.8019,111.8041),(5877.0148,-111.8019,-22.3599),(6055.9032,111.8019,-111.8041),(6122.9852,111.8019,22.3599)));
#145=IFCTRIANGULATEDFACESET(#144,$,.F.,((1,2,6),(1,6,5),(2,3,7),(2,7,6),(3,4,8),(3,8,7),(4,1,5),(4,5,8),(5,6,10),(5,10,9),(6,7,11),(6,11,10),(7,8,12),(7,12,11),(8,5,9),(8,9,12),(9,10,14),(9,14,13),(10,11,15),(10,15,14),(11,12,16),(11,16,15),(12,9,13),(12,13,16),(13,14,18),(13,18,17),(14,15,19),(14,19,18),(15,16,20),(15,20,19),(16,13,17),(16,17,20),(17,18,22),(17,22,21),(18,19,23),(18,23,22),(19,20,24),(19,24,23),(20,17,21),(20,21,24),(21,22,26),(21,26,25),(22,23,27),(22,27,26),(23,24,28),(23,28,27),(24,21,25),(24,25,28),(25,26,30),(25,30,29),(26,27,31),(26,31,30),(27,28,32),(27,32,31),(28,25,29),(28,29,32),(29,30,34),(29,34,33),(30,31,35),(30,35,34),(31,32,36),(31,36,35),(32,29,33),(32,33,36),(1,4,3),(1,3,2),(33,34,35),(33,35,36)),$);
#146=IFCSHAPEREPRESENTATION(#12,'Body','Tessellation',(#145));
#147=IFCCARTESIANPOINT((0.,0.,0.));
#148=IFCDIRECTION((0.,0.,1.));
#149=IFCDIRECTION((1.,0.,0.));
#150=IFCAXIS2PLACEMENT3D(#147,#148,#149);
#151=IFCLOCALPLACEMENT(#17,#150);
#152=IFCPRODUCTDEFINITIONSHAPE($,$,(#146));
#153=IFCBUILDINGELEMENTPROXY('2APieTNYD5GRiBZDS7ma5z',$,'auto_rect',$,$,#151,#152,$,$);
#154=IFCRELCONTAINEDINSPATIALSTRUCTURE('3BCPYrV1j08Q8yZgD6_dVn',$,$,$,(#153),#18);
#155=IFCCOLOURRGB($,0.501960784313725,0.501960784313725,0.501960784313725);
#156=IFCSURFACESTYLERENDERING(#155,0.,$,$,$,$,$,$,.FLAT.);
#157=IFCSURFACESTYLE($,.BOTH.,(#156));
#158=IFCSTYLEDITEM(#145,(#157),$);
ENDSEC;
END-ISO-10303-21;
