ISO-10303-21;
HEADER;
FILE_DESCRIPTION(('ViewDefinition [CoordinationView]'),'2;1');
FILE_NAME('','2026-05-09T13:53:10',(''),(''),'IfcOpenShell 0.8.4-e8eb5e4','IfcOpenShell 0.8.4-e8eb5e4','');
FILE_SCHEMA(('IFC4'));
ENDSEC;
DATA;
#1=IFCPROJECT('0OI7QH0vPFGO4NgrQUfL9j',$,'SimpleOfficeBuilding',$,$,$,$,(#12),#6);
#2=IFCSIUNIT(*,.LENGTHUNIT.,$,.METRE.);
#3=IFCSIUNIT(*,.AREAUNIT.,$,.SQUARE_METRE.);
#4=IFCSIUNIT(*,.VOLUMEUNIT.,$,.CUBIC_METRE.);
#5=IFCSIUNIT(*,.PLANEANGLEUNIT.,$,.RADIAN.);
#6=IFCUNITASSIGNMENT((#2,#3,#5,#4));
#7=IFCPERSON('ifckit example','ifckit example','Hari',$,$,$,$,$);
#8=IFCCARTESIANPOINT((0.,0.,0.));
#9=IFCDIRECTION((0.,0.,1.));
#10=IFCDIRECTION((1.,0.,0.));
#11=IFCAXIS2PLACEMENT3D(#8,#9,#10);
#12=IFCGEOMETRICREPRESENTATIONCONTEXT($,'Model',3,1.E-05,#11,$);
#13=IFCGEOMETRICREPRESENTATIONSUBCONTEXT('Body','Model',*,*,*,*,#12,$,.MODEL_VIEW.,$);
#14=IFCSITE('0801HCJHL5HRnFHnDtJtnD',$,'Campus Site','Example site',$,$,$,$,$,$,$,$,$,$);
#15=IFCRELAGGREGATES('24dB3_W0PDMPH3yt1M_O40',$,$,$,#1,(#14));
#16=IFCBUILDING('0Q$fhxpX55sPD7JQ9oD6xg',$,'Office Block A',$,$,$,$,$,$,$,$,$);
#17=IFCRELAGGREGATES('1St7zqb8D0resH5Qy7Lnn5',$,$,$,#14,(#16));
#18=IFCBUILDINGSTOREY('2a8m1IRHr3NwPwZ3cGZkM4',$,'Level 0',$,$,#29,$,$,$,0.);
#24=IFCRELAGGREGATES('0KziWEU8zCHgTZAkiqztus',$,$,$,#16,(#476,#18));
#25=IFCCARTESIANPOINT((0.,0.,0.));
#26=IFCDIRECTION((0.,0.,1.));
#27=IFCDIRECTION((1.,0.,0.));
#28=IFCAXIS2PLACEMENT3D(#25,#26,#27);
#29=IFCLOCALPLACEMENT($,#28);
#30=IFCCARTESIANPOINT((0.,0.));
#31=IFCCARTESIANPOINT((12.,0.));
#32=IFCCARTESIANPOINT((12.,0.3));
#33=IFCCARTESIANPOINT((0.,0.3));
#34=IFCCARTESIANPOINT((0.,0.));
#35=IFCPOLYLINE((#30,#31,#32,#33,#34));
#36=IFCARBITRARYCLOSEDPROFILEDEF(.AREA.,$,#35);
#37=IFCCARTESIANPOINT((0.,0.,0.));
#38=IFCDIRECTION((0.,0.,1.));
#39=IFCDIRECTION((1.,0.,0.));
#40=IFCAXIS2PLACEMENT3D(#37,#38,#39);
#41=IFCDIRECTION((0.,0.,1.));
#42=IFCEXTRUDEDAREASOLID(#36,#40,#41,3.5);
#43=IFCSHAPEREPRESENTATION(#13,'Body','SweptSolid',(#42));
#44=IFCPRODUCTDEFINITIONSHAPE($,$,(#43));
#45=IFCWALL('1ElYvBtlX4COaU8$bsWtGF',$,'Wall_Level 0_0',$,$,#56,#44,$,$);
#51=IFCRELCONTAINEDINSPATIALSTRUCTURE('2cYZ5rjoD6oecFyTtpcqnd',$,$,$,(#116,#423,#355,#253,#457,#151,#287,#45,#81,#321,#186,#219,#389),#18);
#52=IFCCARTESIANPOINT((0.,0.,0.));
#53=IFCDIRECTION((0.,0.,1.));
#54=IFCDIRECTION((1.,0.,0.));
#55=IFCAXIS2PLACEMENT3D(#52,#53,#54);
#56=IFCLOCALPLACEMENT(#29,#55);
#57=IFCPROPERTYSINGLEVALUE('Name',$,IFCLABEL('Wall_Level 0_0'),$);
#58=IFCPROPERTYSINGLEVALUE('Length',$,IFCLENGTHMEASURE(12.),$);
#59=IFCPROPERTYSINGLEVALUE('Height',$,IFCLENGTHMEASURE(3.5),$);
#60=IFCPROPERTYSET('0YDdWatI594OAV5PRyoRnp',$,'EPset_IfcKit_Geometry',$,(#57,#58,#59));
#61=IFCRELDEFINESBYPROPERTIES('3$CrCNsN1AHx_WUGq5Opo_',$,$,$,(#45),#60);
#62=IFCCOLOURRGB($,0.501960784313725,0.501960784313725,0.501960784313725);
#63=IFCSURFACESTYLERENDERING(#62,0.,$,$,$,$,$,$,.FLAT.);
#64=IFCSURFACESTYLE($,.BOTH.,(#63));
#65=IFCSTYLEDITEM(#42,(#64),$);
#66=IFCCARTESIANPOINT((0.,7.7));
#67=IFCCARTESIANPOINT((12.,7.7));
#68=IFCCARTESIANPOINT((12.,8.));
#69=IFCCARTESIANPOINT((0.,8.));
#70=IFCCARTESIANPOINT((0.,7.7));
#71=IFCPOLYLINE((#66,#67,#68,#69,#70));
#72=IFCARBITRARYCLOSEDPROFILEDEF(.AREA.,$,#71);
#73=IFCCARTESIANPOINT((0.,0.,0.));
#74=IFCDIRECTION((0.,0.,1.));
#75=IFCDIRECTION((1.,0.,0.));
#76=IFCAXIS2PLACEMENT3D(#73,#74,#75);
#77=IFCDIRECTION((0.,0.,1.));
#78=IFCEXTRUDEDAREASOLID(#72,#76,#77,3.5);
#79=IFCSHAPEREPRESENTATION(#13,'Body','SweptSolid',(#78));
#80=IFCPRODUCTDEFINITIONSHAPE($,$,(#79));
#81=IFCWALL('0s3UWEFVzDF9bc56IqqrJp',$,'Wall_Level 0_1',$,$,#91,#80,$,$);
#87=IFCCARTESIANPOINT((0.,0.,0.));
#88=IFCDIRECTION((0.,0.,1.));
#89=IFCDIRECTION((1.,0.,0.));
#90=IFCAXIS2PLACEMENT3D(#87,#88,#89);
#91=IFCLOCALPLACEMENT(#29,#90);
#92=IFCPROPERTYSINGLEVALUE('Name',$,IFCLABEL('Wall_Level 0_1'),$);
#93=IFCPROPERTYSINGLEVALUE('Length',$,IFCLENGTHMEASURE(12.),$);
#94=IFCPROPERTYSINGLEVALUE('Height',$,IFCLENGTHMEASURE(3.5),$);
#95=IFCPROPERTYSET('1pOQVNNSr8nfzUZELVnhqF',$,'EPset_IfcKit_Geometry',$,(#92,#93,#94));
#96=IFCRELDEFINESBYPROPERTIES('3dxV30E3H168uzxFBtX7Wi',$,$,$,(#81),#95);
#97=IFCCOLOURRGB($,0.501960784313725,0.501960784313725,0.501960784313725);
#98=IFCSURFACESTYLERENDERING(#97,0.,$,$,$,$,$,$,.FLAT.);
#99=IFCSURFACESTYLE($,.BOTH.,(#98));
#100=IFCSTYLEDITEM(#78,(#99),$);
#101=IFCCARTESIANPOINT((0.,0.));
#102=IFCCARTESIANPOINT((0.3,0.));
#103=IFCCARTESIANPOINT((0.3,8.));
#104=IFCCARTESIANPOINT((0.,8.));
#105=IFCCARTESIANPOINT((0.,0.));
#106=IFCPOLYLINE((#101,#102,#103,#104,#105));
#107=IFCARBITRARYCLOSEDPROFILEDEF(.AREA.,$,#106);
#108=IFCCARTESIANPOINT((0.,0.,0.));
#109=IFCDIRECTION((0.,0.,1.));
#110=IFCDIRECTION((1.,0.,0.));
#111=IFCAXIS2PLACEMENT3D(#108,#109,#110);
#112=IFCDIRECTION((0.,0.,1.));
#113=IFCEXTRUDEDAREASOLID(#107,#111,#112,3.5);
#114=IFCSHAPEREPRESENTATION(#13,'Body','SweptSolid',(#113));
#115=IFCPRODUCTDEFINITIONSHAPE($,$,(#114));
#116=IFCWALL('1rv$D4kz17hAhZbTgcwKXC',$,'Wall_Level 0_2',$,$,#126,#115,$,$);
#122=IFCCARTESIANPOINT((0.,0.,0.));
#123=IFCDIRECTION((0.,0.,1.));
#124=IFCDIRECTION((1.,0.,0.));
#125=IFCAXIS2PLACEMENT3D(#122,#123,#124);
#126=IFCLOCALPLACEMENT(#29,#125);
#127=IFCPROPERTYSINGLEVALUE('Name',$,IFCLABEL('Wall_Level 0_2'),$);
#128=IFCPROPERTYSINGLEVALUE('Length',$,IFCLENGTHMEASURE(8.),$);
#129=IFCPROPERTYSINGLEVALUE('Height',$,IFCLENGTHMEASURE(3.5),$);
#130=IFCPROPERTYSET('0l8uEQtdDFEPuOPGEXzLXR',$,'EPset_IfcKit_Geometry',$,(#127,#128,#129));
#131=IFCRELDEFINESBYPROPERTIES('3k8cUzkS16ZQbZlGDwXpt0',$,$,$,(#116),#130);
#132=IFCCOLOURRGB($,0.501960784313725,0.501960784313725,0.501960784313725);
#133=IFCSURFACESTYLERENDERING(#132,0.,$,$,$,$,$,$,.FLAT.);
#134=IFCSURFACESTYLE($,.BOTH.,(#133));
#135=IFCSTYLEDITEM(#113,(#134),$);
#136=IFCCARTESIANPOINT((11.7,0.));
#137=IFCCARTESIANPOINT((12.,0.));
#138=IFCCARTESIANPOINT((12.,8.));
#139=IFCCARTESIANPOINT((11.7,8.));
#140=IFCCARTESIANPOINT((11.7,0.));
#141=IFCPOLYLINE((#136,#137,#138,#139,#140));
#142=IFCARBITRARYCLOSEDPROFILEDEF(.AREA.,$,#141);
#143=IFCCARTESIANPOINT((0.,0.,0.));
#144=IFCDIRECTION((0.,0.,1.));
#145=IFCDIRECTION((1.,0.,0.));
#146=IFCAXIS2PLACEMENT3D(#143,#144,#145);
#147=IFCDIRECTION((0.,0.,1.));
#148=IFCEXTRUDEDAREASOLID(#142,#146,#147,3.5);
#149=IFCSHAPEREPRESENTATION(#13,'Body','SweptSolid',(#148));
#150=IFCPRODUCTDEFINITIONSHAPE($,$,(#149));
#151=IFCWALL('0J6dz2JkbBXOKCbzavHUmQ',$,'Wall_Level 0_3',$,$,#161,#150,$,$);
#157=IFCCARTESIANPOINT((0.,0.,0.));
#158=IFCDIRECTION((0.,0.,1.));
#159=IFCDIRECTION((1.,0.,0.));
#160=IFCAXIS2PLACEMENT3D(#157,#158,#159);
#161=IFCLOCALPLACEMENT(#29,#160);
#162=IFCPROPERTYSINGLEVALUE('Name',$,IFCLABEL('Wall_Level 0_3'),$);
#163=IFCPROPERTYSINGLEVALUE('Length',$,IFCLENGTHMEASURE(8.),$);
#164=IFCPROPERTYSINGLEVALUE('Height',$,IFCLENGTHMEASURE(3.5),$);
#165=IFCPROPERTYSET('2PfOExMv5FOxOk45QsAC0W',$,'EPset_IfcKit_Geometry',$,(#162,#163,#164));
#166=IFCRELDEFINESBYPROPERTIES('2c8NfW9Gn4lxh83pwdc89M',$,$,$,(#151),#165);
#167=IFCCOLOURRGB($,0.501960784313725,0.501960784313725,0.501960784313725);
#168=IFCSURFACESTYLERENDERING(#167,0.,$,$,$,$,$,$,.FLAT.);
#169=IFCSURFACESTYLE($,.BOTH.,(#168));
#170=IFCSTYLEDITEM(#148,(#169),$);
#171=IFCCARTESIANPOINT((0.,0.));
#172=IFCCARTESIANPOINT((12.,0.));
#173=IFCCARTESIANPOINT((12.,8.));
#174=IFCCARTESIANPOINT((0.,8.));
#175=IFCCARTESIANPOINT((0.,0.));
#176=IFCPOLYLINE((#171,#172,#173,#174,#175));
#177=IFCARBITRARYCLOSEDPROFILEDEF(.AREA.,$,#176);
#178=IFCCARTESIANPOINT((0.,0.,0.));
#179=IFCDIRECTION((0.,0.,1.));
#180=IFCDIRECTION((1.,0.,0.));
#181=IFCAXIS2PLACEMENT3D(#178,#179,#180);
#182=IFCDIRECTION((0.,0.,1.));
#183=IFCEXTRUDEDAREASOLID(#177,#181,#182,0.25);
#184=IFCSHAPEREPRESENTATION(#13,'Body','SweptSolid',(#183));
#185=IFCPRODUCTDEFINITIONSHAPE($,$,(#184));
#186=IFCSLAB('2ylz9E_VD72ekWGtuaY_zP',$,'Slab_Level 0',$,$,#196,#185,$,$);
#192=IFCCARTESIANPOINT((0.,0.,0.));
#193=IFCDIRECTION((0.,0.,1.));
#194=IFCDIRECTION((1.,0.,0.));
#195=IFCAXIS2PLACEMENT3D(#192,#193,#194);
#196=IFCLOCALPLACEMENT(#29,#195);
#197=IFCPROPERTYSINGLEVALUE('Name',$,IFCLABEL('Slab_Level 0'),$);
#198=IFCPROPERTYSET('1DZym1bfH6Su7$3CUqMfgG',$,'EPset_IfcKit_Geometry',$,(#197));
#199=IFCRELDEFINESBYPROPERTIES('0BrN7aUNnFPuNFPXO85ojS',$,$,$,(#186),#198);
#200=IFCCOLOURRGB($,0.501960784313725,0.501960784313725,0.501960784313725);
#201=IFCSURFACESTYLERENDERING(#200,0.,$,$,$,$,$,$,.FLAT.);
#202=IFCSURFACESTYLE($,.BOTH.,(#201));
#203=IFCSTYLEDITEM(#183,(#202),$);
#204=IFCCARTESIANPOINT((0.,0.,0.));
#205=IFCDIRECTION((0.,0.,1.));
#206=IFCDIRECTION((1.,0.,0.));
#207=IFCAXIS2PLACEMENT3D(#204,#205,#206);
#208=IFCCARTESIANPOINT((0.,0.));
#209=IFCCARTESIANPOINT((0.4,0.));
#210=IFCCARTESIANPOINT((0.4,0.4));
#211=IFCCARTESIANPOINT((0.,0.4));
#212=IFCCARTESIANPOINT((0.,0.));
#213=IFCPOLYLINE((#208,#209,#210,#211,#212));
#214=IFCARBITRARYCLOSEDPROFILEDEF(.AREA.,$,#213);
#215=IFCDIRECTION((0.,0.,1.));
#216=IFCEXTRUDEDAREASOLID(#214,#207,#215,3.5);
#217=IFCSHAPEREPRESENTATION(#13,'Body','SweptSolid',(#216));
#218=IFCPRODUCTDEFINITIONSHAPE($,$,(#217));
#219=IFCCOLUMN('3KMSbMaiH24gHdQCwo3BJ1',$,'Col_Level 0_0_0',$,$,#229,#218,$,$);
#225=IFCCARTESIANPOINT((0.,0.,0.));
#226=IFCDIRECTION((0.,0.,1.));
#227=IFCDIRECTION((1.,0.,0.));
#228=IFCAXIS2PLACEMENT3D(#225,#226,#227);
#229=IFCLOCALPLACEMENT(#29,#228);
#230=IFCPROPERTYSINGLEVALUE('Name',$,IFCLABEL('Col_Level 0_0_0'),$);
#231=IFCPROPERTYSINGLEVALUE('Length',$,IFCLENGTHMEASURE(3.5),$);
#232=IFCPROPERTYSET('26y5psrXjFlenBMSni3ZEW',$,'EPset_IfcKit_Geometry',$,(#230,#231));
#233=IFCRELDEFINESBYPROPERTIES('0lGOqPy9f0yPtuzZGrr5HL',$,$,$,(#219),#232);
#234=IFCCOLOURRGB($,0.501960784313725,0.501960784313725,0.501960784313725);
#235=IFCSURFACESTYLERENDERING(#234,0.,$,$,$,$,$,$,.FLAT.);
#236=IFCSURFACESTYLE($,.BOTH.,(#235));
#237=IFCSTYLEDITEM(#216,(#236),$);
#238=IFCCARTESIANPOINT((0.,0.,0.));
#239=IFCDIRECTION((0.,0.,1.));
#240=IFCDIRECTION((1.,0.,0.));
#241=IFCAXIS2PLACEMENT3D(#238,#239,#240);
#242=IFCCARTESIANPOINT((0.,0.));
#243=IFCCARTESIANPOINT((0.4,0.));
#244=IFCCARTESIANPOINT((0.4,0.4));
#245=IFCCARTESIANPOINT((0.,0.4));
#246=IFCCARTESIANPOINT((0.,0.));
#247=IFCPOLYLINE((#242,#243,#244,#245,#246));
#248=IFCARBITRARYCLOSEDPROFILEDEF(.AREA.,$,#247);
#249=IFCDIRECTION((0.,0.,1.));
#250=IFCEXTRUDEDAREASOLID(#248,#241,#249,3.5);
#251=IFCSHAPEREPRESENTATION(#13,'Body','SweptSolid',(#250));
#252=IFCPRODUCTDEFINITIONSHAPE($,$,(#251));
#253=IFCCOLUMN('2jFsXT2pr8iO8bTvhsU$c1',$,'Col_Level 0_0_8',$,$,#263,#252,$,$);
#259=IFCCARTESIANPOINT((0.,8.,0.));
#260=IFCDIRECTION((0.,0.,1.));
#261=IFCDIRECTION((1.,0.,0.));
#262=IFCAXIS2PLACEMENT3D(#259,#260,#261);
#263=IFCLOCALPLACEMENT(#29,#262);
#264=IFCPROPERTYSINGLEVALUE('Name',$,IFCLABEL('Col_Level 0_0_8'),$);
#265=IFCPROPERTYSINGLEVALUE('Length',$,IFCLENGTHMEASURE(3.5),$);
#266=IFCPROPERTYSET('3I2pJMBrvC1RKcNLdl6fuA',$,'EPset_IfcKit_Geometry',$,(#264,#265));
#267=IFCRELDEFINESBYPROPERTIES('0zgZa3h2n8cv9XlSQf95WH',$,$,$,(#253),#266);
#268=IFCCOLOURRGB($,0.501960784313725,0.501960784313725,0.501960784313725);
#269=IFCSURFACESTYLERENDERING(#268,0.,$,$,$,$,$,$,.FLAT.);
#270=IFCSURFACESTYLE($,.BOTH.,(#269));
#271=IFCSTYLEDITEM(#250,(#270),$);
#272=IFCCARTESIANPOINT((0.,0.,0.));
#273=IFCDIRECTION((0.,0.,1.));
#274=IFCDIRECTION((1.,0.,0.));
#275=IFCAXIS2PLACEMENT3D(#272,#273,#274);
#276=IFCCARTESIANPOINT((0.,0.));
#277=IFCCARTESIANPOINT((0.4,0.));
#278=IFCCARTESIANPOINT((0.4,0.4));
#279=IFCCARTESIANPOINT((0.,0.4));
#280=IFCCARTESIANPOINT((0.,0.));
#281=IFCPOLYLINE((#276,#277,#278,#279,#280));
#282=IFCARBITRARYCLOSEDPROFILEDEF(.AREA.,$,#281);
#283=IFCDIRECTION((0.,0.,1.));
#284=IFCEXTRUDEDAREASOLID(#282,#275,#283,3.5);
#285=IFCSHAPEREPRESENTATION(#13,'Body','SweptSolid',(#284));
#286=IFCPRODUCTDEFINITIONSHAPE($,$,(#285));
#287=IFCCOLUMN('0Sj5SWpof4CPcQYci3$zh$',$,'Col_Level 0_6_0',$,$,#297,#286,$,$);
#293=IFCCARTESIANPOINT((6.,0.,0.));
#294=IFCDIRECTION((0.,0.,1.));
#295=IFCDIRECTION((1.,0.,0.));
#296=IFCAXIS2PLACEMENT3D(#293,#294,#295);
#297=IFCLOCALPLACEMENT(#29,#296);
#298=IFCPROPERTYSINGLEVALUE('Name',$,IFCLABEL('Col_Level 0_6_0'),$);
#299=IFCPROPERTYSINGLEVALUE('Length',$,IFCLENGTHMEASURE(3.5),$);
#300=IFCPROPERTYSET('2JE40Eqgz0E96GlNYnhtr8',$,'EPset_IfcKit_Geometry',$,(#298,#299));
#301=IFCRELDEFINESBYPROPERTIES('0_YV5Yahz6zPHQtswCof60',$,$,$,(#287),#300);
#302=IFCCOLOURRGB($,0.501960784313725,0.501960784313725,0.501960784313725);
#303=IFCSURFACESTYLERENDERING(#302,0.,$,$,$,$,$,$,.FLAT.);
#304=IFCSURFACESTYLE($,.BOTH.,(#303));
#305=IFCSTYLEDITEM(#284,(#304),$);
#306=IFCCARTESIANPOINT((0.,0.,0.));
#307=IFCDIRECTION((0.,0.,1.));
#308=IFCDIRECTION((1.,0.,0.));
#309=IFCAXIS2PLACEMENT3D(#306,#307,#308);
#310=IFCCARTESIANPOINT((0.,0.));
#311=IFCCARTESIANPOINT((0.4,0.));
#312=IFCCARTESIANPOINT((0.4,0.4));
#313=IFCCARTESIANPOINT((0.,0.4));
#314=IFCCARTESIANPOINT((0.,0.));
#315=IFCPOLYLINE((#310,#311,#312,#313,#314));
#316=IFCARBITRARYCLOSEDPROFILEDEF(.AREA.,$,#315);
#317=IFCDIRECTION((0.,0.,1.));
#318=IFCEXTRUDEDAREASOLID(#316,#309,#317,3.5);
#319=IFCSHAPEREPRESENTATION(#13,'Body','SweptSolid',(#318));
#320=IFCPRODUCTDEFINITIONSHAPE($,$,(#319));
#321=IFCCOLUMN('2755rnIv91QPV4szQAvRt3',$,'Col_Level 0_6_8',$,$,#331,#320,$,$);
#327=IFCCARTESIANPOINT((6.,8.,0.));
#328=IFCDIRECTION((0.,0.,1.));
#329=IFCDIRECTION((1.,0.,0.));
#330=IFCAXIS2PLACEMENT3D(#327,#328,#329);
#331=IFCLOCALPLACEMENT(#29,#330);
#332=IFCPROPERTYSINGLEVALUE('Name',$,IFCLABEL('Col_Level 0_6_8'),$);
#333=IFCPROPERTYSINGLEVALUE('Length',$,IFCLENGTHMEASURE(3.5),$);
#334=IFCPROPERTYSET('2kPswqeh16UhDXMda4YGwB',$,'EPset_IfcKit_Geometry',$,(#332,#333));
#335=IFCRELDEFINESBYPROPERTIES('2wL8$ZtFvFLhZm04P9fJt6',$,$,$,(#321),#334);
#336=IFCCOLOURRGB($,0.501960784313725,0.501960784313725,0.501960784313725);
#337=IFCSURFACESTYLERENDERING(#336,0.,$,$,$,$,$,$,.FLAT.);
#338=IFCSURFACESTYLE($,.BOTH.,(#337));
#339=IFCSTYLEDITEM(#318,(#338),$);
#340=IFCCARTESIANPOINT((0.,0.,0.));
#341=IFCDIRECTION((0.,0.,1.));
#342=IFCDIRECTION((1.,0.,0.));
#343=IFCAXIS2PLACEMENT3D(#340,#341,#342);
#344=IFCCARTESIANPOINT((0.,0.));
#345=IFCCARTESIANPOINT((0.4,0.));
#346=IFCCARTESIANPOINT((0.4,0.4));
#347=IFCCARTESIANPOINT((0.,0.4));
#348=IFCCARTESIANPOINT((0.,0.));
#349=IFCPOLYLINE((#344,#345,#346,#347,#348));
#350=IFCARBITRARYCLOSEDPROFILEDEF(.AREA.,$,#349);
#351=IFCDIRECTION((0.,0.,1.));
#352=IFCEXTRUDEDAREASOLID(#350,#343,#351,3.5);
#353=IFCSHAPEREPRESENTATION(#13,'Body','SweptSolid',(#352));
#354=IFCPRODUCTDEFINITIONSHAPE($,$,(#353));
#355=IFCCOLUMN('2cR1ftYs1FZPWXBjkEOIv9',$,'Col_Level 0_12_0',$,$,#365,#354,$,$);
#361=IFCCARTESIANPOINT((12.,0.,0.));
#362=IFCDIRECTION((0.,0.,1.));
#363=IFCDIRECTION((1.,0.,0.));
#364=IFCAXIS2PLACEMENT3D(#361,#362,#363);
#365=IFCLOCALPLACEMENT(#29,#364);
#366=IFCPROPERTYSINGLEVALUE('Name',$,IFCLABEL('Col_Level 0_12_0'),$);
#367=IFCPROPERTYSINGLEVALUE('Length',$,IFCLENGTHMEASURE(3.5),$);
#368=IFCPROPERTYSET('1V3pNi84TCtPLLMOGxooN$',$,'EPset_IfcKit_Geometry',$,(#366,#367));
#369=IFCRELDEFINESBYPROPERTIES('2hsVPhOLL3FuHAM4NWoWuF',$,$,$,(#355),#368);
#370=IFCCOLOURRGB($,0.501960784313725,0.501960784313725,0.501960784313725);
#371=IFCSURFACESTYLERENDERING(#370,0.,$,$,$,$,$,$,.FLAT.);
#372=IFCSURFACESTYLE($,.BOTH.,(#371));
#373=IFCSTYLEDITEM(#352,(#372),$);
#374=IFCCARTESIANPOINT((0.,0.,0.));
#375=IFCDIRECTION((0.,0.,1.));
#376=IFCDIRECTION((1.,0.,0.));
#377=IFCAXIS2PLACEMENT3D(#374,#375,#376);
#378=IFCCARTESIANPOINT((0.,0.));
#379=IFCCARTESIANPOINT((0.4,0.));
#380=IFCCARTESIANPOINT((0.4,0.4));
#381=IFCCARTESIANPOINT((0.,0.4));
#382=IFCCARTESIANPOINT((0.,0.));
#383=IFCPOLYLINE((#378,#379,#380,#381,#382));
#384=IFCARBITRARYCLOSEDPROFILEDEF(.AREA.,$,#383);
#385=IFCDIRECTION((0.,0.,1.));
#386=IFCEXTRUDEDAREASOLID(#384,#377,#385,3.5);
#387=IFCSHAPEREPRESENTATION(#13,'Body','SweptSolid',(#386));
#388=IFCPRODUCTDEFINITIONSHAPE($,$,(#387));
#389=IFCCOLUMN('1fH68HPY5CGAG4WDGtnCTt',$,'Col_Level 0_12_8',$,$,#399,#388,$,$);
#395=IFCCARTESIANPOINT((12.,8.,0.));
#396=IFCDIRECTION((0.,0.,1.));
#397=IFCDIRECTION((1.,0.,0.));
#398=IFCAXIS2PLACEMENT3D(#395,#396,#397);
#399=IFCLOCALPLACEMENT(#29,#398);
#400=IFCPROPERTYSINGLEVALUE('Name',$,IFCLABEL('Col_Level 0_12_8'),$);
#401=IFCPROPERTYSINGLEVALUE('Length',$,IFCLENGTHMEASURE(3.5),$);
#402=IFCPROPERTYSET('2KZ9XvFKL7px6dmyNYPx8c',$,'EPset_IfcKit_Geometry',$,(#400,#401));
#403=IFCRELDEFINESBYPROPERTIES('33grmTCGLC_QX_65dggemj',$,$,$,(#389),#402);
#404=IFCCOLOURRGB($,0.501960784313725,0.501960784313725,0.501960784313725);
#405=IFCSURFACESTYLERENDERING(#404,0.,$,$,$,$,$,$,.FLAT.);
#406=IFCSURFACESTYLE($,.BOTH.,(#405));
#407=IFCSTYLEDITEM(#386,(#406),$);
#408=IFCCARTESIANPOINT((0.,0.,0.));
#409=IFCDIRECTION((0.,0.,1.));
#410=IFCDIRECTION((1.,0.,0.));
#411=IFCAXIS2PLACEMENT3D(#408,#409,#410);
#412=IFCCARTESIANPOINT((0.,-0.15));
#413=IFCCARTESIANPOINT((0.4,-0.15));
#414=IFCCARTESIANPOINT((0.4,0.15));
#415=IFCCARTESIANPOINT((0.,0.15));
#416=IFCCARTESIANPOINT((0.,-0.15));
#417=IFCPOLYLINE((#412,#413,#414,#415,#416));
#418=IFCARBITRARYCLOSEDPROFILEDEF(.AREA.,$,#417);
#419=IFCDIRECTION((0.,0.,1.));
#420=IFCEXTRUDEDAREASOLID(#418,#411,#419,6.);
#421=IFCSHAPEREPRESENTATION(#13,'Body','SweptSolid',(#420));
#422=IFCPRODUCTDEFINITIONSHAPE($,$,(#421));
#423=IFCBEAM('1pw9qmk9X1MhQhpsxMZGbH',$,'Beam_Level 0_0',$,$,#433,#422,$,$);
#429=IFCCARTESIANPOINT((0.,4.,3.));
#430=IFCDIRECTION((1.,0.,0.));
#431=IFCDIRECTION((0.,1.,0.));
#432=IFCAXIS2PLACEMENT3D(#429,#430,#431);
#433=IFCLOCALPLACEMENT(#29,#432);
#434=IFCPROPERTYSINGLEVALUE('Name',$,IFCLABEL('Beam_Level 0_0'),$);
#435=IFCPROPERTYSINGLEVALUE('Length',$,IFCLENGTHMEASURE(6.),$);
#436=IFCPROPERTYSET('0_lKBJDrz5d8eioV5fmFGl',$,'EPset_IfcKit_Geometry',$,(#434,#435));
#437=IFCRELDEFINESBYPROPERTIES('30IsY09wX21Ou71FuoHADr',$,$,$,(#423),#436);
#438=IFCCOLOURRGB($,0.501960784313725,0.501960784313725,0.501960784313725);
#439=IFCSURFACESTYLERENDERING(#438,0.,$,$,$,$,$,$,.FLAT.);
#440=IFCSURFACESTYLE($,.BOTH.,(#439));
#441=IFCSTYLEDITEM(#420,(#440),$);
#442=IFCCARTESIANPOINT((0.,0.,0.));
#443=IFCDIRECTION((0.,0.,1.));
#444=IFCDIRECTION((1.,0.,0.));
#445=IFCAXIS2PLACEMENT3D(#442,#443,#444);
#446=IFCCARTESIANPOINT((0.,-0.15));
#447=IFCCARTESIANPOINT((0.4,-0.15));
#448=IFCCARTESIANPOINT((0.4,0.15));
#449=IFCCARTESIANPOINT((0.,0.15));
#450=IFCCARTESIANPOINT((0.,-0.15));
#451=IFCPOLYLINE((#446,#447,#448,#449,#450));
#452=IFCARBITRARYCLOSEDPROFILEDEF(.AREA.,$,#451);
#453=IFCDIRECTION((0.,0.,1.));
#454=IFCEXTRUDEDAREASOLID(#452,#445,#453,6.);
#455=IFCSHAPEREPRESENTATION(#13,'Body','SweptSolid',(#454));
#456=IFCPRODUCTDEFINITIONSHAPE($,$,(#455));
#457=IFCBEAM('1_EUgxv7H3VwAeTuw8uWt_',$,'Beam_Level 0_1',$,$,#467,#456,$,$);
#463=IFCCARTESIANPOINT((6.,4.,3.));
#464=IFCDIRECTION((1.,0.,0.));
#465=IFCDIRECTION((0.,1.,0.));
#466=IFCAXIS2PLACEMENT3D(#463,#464,#465);
#467=IFCLOCALPLACEMENT(#29,#466);
#468=IFCPROPERTYSINGLEVALUE('Name',$,IFCLABEL('Beam_Level 0_1'),$);
#469=IFCPROPERTYSINGLEVALUE('Length',$,IFCLENGTHMEASURE(6.),$);
#470=IFCPROPERTYSET('2W2gVQTK15LwxxYRsaLU1M',$,'EPset_IfcKit_Geometry',$,(#468,#469));
#471=IFCRELDEFINESBYPROPERTIES('3A9BlwsyDElP4Y4yGOokLB',$,$,$,(#457),#470);
#472=IFCCOLOURRGB($,0.501960784313725,0.501960784313725,0.501960784313725);
#473=IFCSURFACESTYLERENDERING(#472,0.,$,$,$,$,$,$,.FLAT.);
#474=IFCSURFACESTYLE($,.BOTH.,(#473));
#475=IFCSTYLEDITEM(#454,(#474),$);
#476=IFCBUILDINGSTOREY('0ibbI3T55CEgsALs97nlgQ',$,'Level 1',$,$,#486,$,$,$,3.5);
#482=IFCCARTESIANPOINT((0.,0.,3.5));
#483=IFCDIRECTION((0.,0.,1.));
#484=IFCDIRECTION((1.,0.,0.));
#485=IFCAXIS2PLACEMENT3D(#482,#483,#484);
#486=IFCLOCALPLACEMENT($,#485);
#487=IFCCARTESIANPOINT((0.,0.));
#488=IFCCARTESIANPOINT((12.,0.));
#489=IFCCARTESIANPOINT((12.,0.3));
#490=IFCCARTESIANPOINT((0.,0.3));
#491=IFCCARTESIANPOINT((0.,0.));
#492=IFCPOLYLINE((#487,#488,#489,#490,#491));
#493=IFCARBITRARYCLOSEDPROFILEDEF(.AREA.,$,#492);
#494=IFCCARTESIANPOINT((0.,0.,0.));
#495=IFCDIRECTION((0.,0.,1.));
#496=IFCDIRECTION((1.,0.,0.));
#497=IFCAXIS2PLACEMENT3D(#494,#495,#496);
#498=IFCDIRECTION((0.,0.,1.));
#499=IFCEXTRUDEDAREASOLID(#493,#497,#498,3.5);
#500=IFCSHAPEREPRESENTATION(#13,'Body','SweptSolid',(#499));
#501=IFCPRODUCTDEFINITIONSHAPE($,$,(#500));
#502=IFCWALL('33MFQoIEf75frNKF8SKEy7',$,'Wall_Level 1_0',$,$,#513,#501,$,$);
#508=IFCRELCONTAINEDINSPATIALSTRUCTURE('3Osg4gkEj1wQilhgFqL6JH',$,$,$,(#914,#608,#812,#538,#676,#643,#846,#502,#744,#573,#880,#778,#710),#476);
#509=IFCCARTESIANPOINT((0.,0.,0.));
#510=IFCDIRECTION((0.,0.,1.));
#511=IFCDIRECTION((1.,0.,0.));
#512=IFCAXIS2PLACEMENT3D(#509,#510,#511);
#513=IFCLOCALPLACEMENT(#486,#512);
#514=IFCPROPERTYSINGLEVALUE('Name',$,IFCLABEL('Wall_Level 1_0'),$);
#515=IFCPROPERTYSINGLEVALUE('Length',$,IFCLENGTHMEASURE(12.),$);
#516=IFCPROPERTYSINGLEVALUE('Height',$,IFCLENGTHMEASURE(3.5),$);
#517=IFCPROPERTYSET('3H8nGT47DCmQ5TeKNqthNH',$,'EPset_IfcKit_Geometry',$,(#514,#515,#516));
#518=IFCRELDEFINESBYPROPERTIES('3I68CZtZ1EtgPKX9kvUw2V',$,$,$,(#502),#517);
#519=IFCCOLOURRGB($,0.501960784313725,0.501960784313725,0.501960784313725);
#520=IFCSURFACESTYLERENDERING(#519,0.,$,$,$,$,$,$,.FLAT.);
#521=IFCSURFACESTYLE($,.BOTH.,(#520));
#522=IFCSTYLEDITEM(#499,(#521),$);
#523=IFCCARTESIANPOINT((0.,7.7));
#524=IFCCARTESIANPOINT((12.,7.7));
#525=IFCCARTESIANPOINT((12.,8.));
#526=IFCCARTESIANPOINT((0.,8.));
#527=IFCCARTESIANPOINT((0.,7.7));
#528=IFCPOLYLINE((#523,#524,#525,#526,#527));
#529=IFCARBITRARYCLOSEDPROFILEDEF(.AREA.,$,#528);
#530=IFCCARTESIANPOINT((0.,0.,0.));
#531=IFCDIRECTION((0.,0.,1.));
#532=IFCDIRECTION((1.,0.,0.));
#533=IFCAXIS2PLACEMENT3D(#530,#531,#532);
#534=IFCDIRECTION((0.,0.,1.));
#535=IFCEXTRUDEDAREASOLID(#529,#533,#534,3.5);
#536=IFCSHAPEREPRESENTATION(#13,'Body','SweptSolid',(#535));
#537=IFCPRODUCTDEFINITIONSHAPE($,$,(#536));
#538=IFCWALL('3xP3u5fN14yx3Y9dhNTNWL',$,'Wall_Level 1_1',$,$,#548,#537,$,$);
#544=IFCCARTESIANPOINT((0.,0.,0.));
#545=IFCDIRECTION((0.,0.,1.));
#546=IFCDIRECTION((1.,0.,0.));
#547=IFCAXIS2PLACEMENT3D(#544,#545,#546);
#548=IFCLOCALPLACEMENT(#486,#547);
#549=IFCPROPERTYSINGLEVALUE('Name',$,IFCLABEL('Wall_Level 1_1'),$);
#550=IFCPROPERTYSINGLEVALUE('Length',$,IFCLENGTHMEASURE(12.),$);
#551=IFCPROPERTYSINGLEVALUE('Height',$,IFCLENGTHMEASURE(3.5),$);
#552=IFCPROPERTYSET('3YrvzkG_X0fggRSSyiKRn8',$,'EPset_IfcKit_Geometry',$,(#549,#550,#551));
#553=IFCRELDEFINESBYPROPERTIES('08862bNRz5tQSEZrCfgdOM',$,$,$,(#538),#552);
#554=IFCCOLOURRGB($,0.501960784313725,0.501960784313725,0.501960784313725);
#555=IFCSURFACESTYLERENDERING(#554,0.,$,$,$,$,$,$,.FLAT.);
#556=IFCSURFACESTYLE($,.BOTH.,(#555));
#557=IFCSTYLEDITEM(#535,(#556),$);
#558=IFCCARTESIANPOINT((0.,0.));
#559=IFCCARTESIANPOINT((0.3,0.));
#560=IFCCARTESIANPOINT((0.3,8.));
#561=IFCCARTESIANPOINT((0.,8.));
#562=IFCCARTESIANPOINT((0.,0.));
#563=IFCPOLYLINE((#558,#559,#560,#561,#562));
#564=IFCARBITRARYCLOSEDPROFILEDEF(.AREA.,$,#563);
#565=IFCCARTESIANPOINT((0.,0.,0.));
#566=IFCDIRECTION((0.,0.,1.));
#567=IFCDIRECTION((1.,0.,0.));
#568=IFCAXIS2PLACEMENT3D(#565,#566,#567);
#569=IFCDIRECTION((0.,0.,1.));
#570=IFCEXTRUDEDAREASOLID(#564,#568,#569,3.5);
#571=IFCSHAPEREPRESENTATION(#13,'Body','SweptSolid',(#570));
#572=IFCPRODUCTDEFINITIONSHAPE($,$,(#571));
#573=IFCWALL('0N9TDrRrH0Pwn0FAx65Tdw',$,'Wall_Level 1_2',$,$,#583,#572,$,$);
#579=IFCCARTESIANPOINT((0.,0.,0.));
#580=IFCDIRECTION((0.,0.,1.));
#581=IFCDIRECTION((1.,0.,0.));
#582=IFCAXIS2PLACEMENT3D(#579,#580,#581);
#583=IFCLOCALPLACEMENT(#486,#582);
#584=IFCPROPERTYSINGLEVALUE('Name',$,IFCLABEL('Wall_Level 1_2'),$);
#585=IFCPROPERTYSINGLEVALUE('Length',$,IFCLENGTHMEASURE(8.),$);
#586=IFCPROPERTYSINGLEVALUE('Height',$,IFCLENGTHMEASURE(3.5),$);
#587=IFCPROPERTYSET('0m_$0mM_PDQ9zzvxqmTOqb',$,'EPset_IfcKit_Geometry',$,(#584,#585,#586));
#588=IFCRELDEFINESBYPROPERTIES('15l92cp3TDH8c0YXojTBRm',$,$,$,(#573),#587);
#589=IFCCOLOURRGB($,0.501960784313725,0.501960784313725,0.501960784313725);
#590=IFCSURFACESTYLERENDERING(#589,0.,$,$,$,$,$,$,.FLAT.);
#591=IFCSURFACESTYLE($,.BOTH.,(#590));
#592=IFCSTYLEDITEM(#570,(#591),$);
#593=IFCCARTESIANPOINT((11.7,0.));
#594=IFCCARTESIANPOINT((12.,0.));
#595=IFCCARTESIANPOINT((12.,8.));
#596=IFCCARTESIANPOINT((11.7,8.));
#597=IFCCARTESIANPOINT((11.7,0.));
#598=IFCPOLYLINE((#593,#594,#595,#596,#597));
#599=IFCARBITRARYCLOSEDPROFILEDEF(.AREA.,$,#598);
#600=IFCCARTESIANPOINT((0.,0.,0.));
#601=IFCDIRECTION((0.,0.,1.));
#602=IFCDIRECTION((1.,0.,0.));
#603=IFCAXIS2PLACEMENT3D(#600,#601,#602);
#604=IFCDIRECTION((0.,0.,1.));
#605=IFCEXTRUDEDAREASOLID(#599,#603,#604,3.5);
#606=IFCSHAPEREPRESENTATION(#13,'Body','SweptSolid',(#605));
#607=IFCPRODUCTDEFINITIONSHAPE($,$,(#606));
#608=IFCWALL('22cSOzOz1ExQpUtdZSobpg',$,'Wall_Level 1_3',$,$,#618,#607,$,$);
#614=IFCCARTESIANPOINT((0.,0.,0.));
#615=IFCDIRECTION((0.,0.,1.));
#616=IFCDIRECTION((1.,0.,0.));
#617=IFCAXIS2PLACEMENT3D(#614,#615,#616);
#618=IFCLOCALPLACEMENT(#486,#617);
#619=IFCPROPERTYSINGLEVALUE('Name',$,IFCLABEL('Wall_Level 1_3'),$);
#620=IFCPROPERTYSINGLEVALUE('Length',$,IFCLENGTHMEASURE(8.),$);
#621=IFCPROPERTYSINGLEVALUE('Height',$,IFCLENGTHMEASURE(3.5),$);
#622=IFCPROPERTYSET('3dB4I1a_TBwv44sk_I2y79',$,'EPset_IfcKit_Geometry',$,(#619,#620,#621));
#623=IFCRELDEFINESBYPROPERTIES('14JmvOjm97$xUznsrXLSay',$,$,$,(#608),#622);
#624=IFCCOLOURRGB($,0.501960784313725,0.501960784313725,0.501960784313725);
#625=IFCSURFACESTYLERENDERING(#624,0.,$,$,$,$,$,$,.FLAT.);
#626=IFCSURFACESTYLE($,.BOTH.,(#625));
#627=IFCSTYLEDITEM(#605,(#626),$);
#628=IFCCARTESIANPOINT((0.,0.));
#629=IFCCARTESIANPOINT((12.,0.));
#630=IFCCARTESIANPOINT((12.,8.));
#631=IFCCARTESIANPOINT((0.,8.));
#632=IFCCARTESIANPOINT((0.,0.));
#633=IFCPOLYLINE((#628,#629,#630,#631,#632));
#634=IFCARBITRARYCLOSEDPROFILEDEF(.AREA.,$,#633);
#635=IFCCARTESIANPOINT((0.,0.,0.));
#636=IFCDIRECTION((0.,0.,1.));
#637=IFCDIRECTION((1.,0.,0.));
#638=IFCAXIS2PLACEMENT3D(#635,#636,#637);
#639=IFCDIRECTION((0.,0.,1.));
#640=IFCEXTRUDEDAREASOLID(#634,#638,#639,0.25);
#641=IFCSHAPEREPRESENTATION(#13,'Body','SweptSolid',(#640));
#642=IFCPRODUCTDEFINITIONSHAPE($,$,(#641));
#643=IFCSLAB('1mPBg7aY92bB9$psTMUwTk',$,'Slab_Level 1',$,$,#653,#642,$,$);
#649=IFCCARTESIANPOINT((0.,0.,0.));
#650=IFCDIRECTION((0.,0.,1.));
#651=IFCDIRECTION((1.,0.,0.));
#652=IFCAXIS2PLACEMENT3D(#649,#650,#651);
#653=IFCLOCALPLACEMENT(#486,#652);
#654=IFCPROPERTYSINGLEVALUE('Name',$,IFCLABEL('Slab_Level 1'),$);
#655=IFCPROPERTYSET('31ProImkL13AFiMIIGySXt',$,'EPset_IfcKit_Geometry',$,(#654));
#656=IFCRELDEFINESBYPROPERTIES('1zUmXvyiP9pPr1rSn7dbRu',$,$,$,(#643),#655);
#657=IFCCOLOURRGB($,0.501960784313725,0.501960784313725,0.501960784313725);
#658=IFCSURFACESTYLERENDERING(#657,0.,$,$,$,$,$,$,.FLAT.);
#659=IFCSURFACESTYLE($,.BOTH.,(#658));
#660=IFCSTYLEDITEM(#640,(#659),$);
#661=IFCCARTESIANPOINT((0.,0.,0.));
#662=IFCDIRECTION((0.,0.,1.));
#663=IFCDIRECTION((1.,0.,0.));
#664=IFCAXIS2PLACEMENT3D(#661,#662,#663);
#665=IFCCARTESIANPOINT((0.,0.));
#666=IFCCARTESIANPOINT((0.4,0.));
#667=IFCCARTESIANPOINT((0.4,0.4));
#668=IFCCARTESIANPOINT((0.,0.4));
#669=IFCCARTESIANPOINT((0.,0.));
#670=IFCPOLYLINE((#665,#666,#667,#668,#669));
#671=IFCARBITRARYCLOSEDPROFILEDEF(.AREA.,$,#670);
#672=IFCDIRECTION((0.,0.,1.));
#673=IFCEXTRUDEDAREASOLID(#671,#664,#672,3.5);
#674=IFCSHAPEREPRESENTATION(#13,'Body','SweptSolid',(#673));
#675=IFCPRODUCTDEFINITIONSHAPE($,$,(#674));
#676=IFCCOLUMN('2_QBhP4OzF$9a5FbrEzf3R',$,'Col_Level 1_0_0',$,$,#686,#675,$,$);
#682=IFCCARTESIANPOINT((0.,0.,3.5));
#683=IFCDIRECTION((0.,0.,1.));
#684=IFCDIRECTION((1.,0.,0.));
#685=IFCAXIS2PLACEMENT3D(#682,#683,#684);
#686=IFCLOCALPLACEMENT(#486,#685);
#687=IFCPROPERTYSINGLEVALUE('Name',$,IFCLABEL('Col_Level 1_0_0'),$);
#688=IFCPROPERTYSINGLEVALUE('Length',$,IFCLENGTHMEASURE(3.5),$);
#689=IFCPROPERTYSET('37BEBE9_bAmuqQA5y1ePTG',$,'EPset_IfcKit_Geometry',$,(#687,#688));
#690=IFCRELDEFINESBYPROPERTIES('3vnANMmHj6IuMmxTfxqrS7',$,$,$,(#676),#689);
#691=IFCCOLOURRGB($,0.501960784313725,0.501960784313725,0.501960784313725);
#692=IFCSURFACESTYLERENDERING(#691,0.,$,$,$,$,$,$,.FLAT.);
#693=IFCSURFACESTYLE($,.BOTH.,(#692));
#694=IFCSTYLEDITEM(#673,(#693),$);
#695=IFCCARTESIANPOINT((0.,0.,0.));
#696=IFCDIRECTION((0.,0.,1.));
#697=IFCDIRECTION((1.,0.,0.));
#698=IFCAXIS2PLACEMENT3D(#695,#696,#697);
#699=IFCCARTESIANPOINT((0.,0.));
#700=IFCCARTESIANPOINT((0.4,0.));
#701=IFCCARTESIANPOINT((0.4,0.4));
#702=IFCCARTESIANPOINT((0.,0.4));
#703=IFCCARTESIANPOINT((0.,0.));
#704=IFCPOLYLINE((#699,#700,#701,#702,#703));
#705=IFCARBITRARYCLOSEDPROFILEDEF(.AREA.,$,#704);
#706=IFCDIRECTION((0.,0.,1.));
#707=IFCEXTRUDEDAREASOLID(#705,#698,#706,3.5);
#708=IFCSHAPEREPRESENTATION(#13,'Body','SweptSolid',(#707));
#709=IFCPRODUCTDEFINITIONSHAPE($,$,(#708));
#710=IFCCOLUMN('3$C96RdOr4dBE6bIIsssP_',$,'Col_Level 1_0_8',$,$,#720,#709,$,$);
#716=IFCCARTESIANPOINT((0.,8.,3.5));
#717=IFCDIRECTION((0.,0.,1.));
#718=IFCDIRECTION((1.,0.,0.));
#719=IFCAXIS2PLACEMENT3D(#716,#717,#718);
#720=IFCLOCALPLACEMENT(#486,#719);
#721=IFCPROPERTYSINGLEVALUE('Name',$,IFCLABEL('Col_Level 1_0_8'),$);
#722=IFCPROPERTYSINGLEVALUE('Length',$,IFCLENGTHMEASURE(3.5),$);
#723=IFCPROPERTYSET('2nzTbCOCT5RxQGt$Rbtj2f',$,'EPset_IfcKit_Geometry',$,(#721,#722));
#724=IFCRELDEFINESBYPROPERTIES('3h_wtgya57UfRbxW04Ig2S',$,$,$,(#710),#723);
#725=IFCCOLOURRGB($,0.501960784313725,0.501960784313725,0.501960784313725);
#726=IFCSURFACESTYLERENDERING(#725,0.,$,$,$,$,$,$,.FLAT.);
#727=IFCSURFACESTYLE($,.BOTH.,(#726));
#728=IFCSTYLEDITEM(#707,(#727),$);
#729=IFCCARTESIANPOINT((0.,0.,0.));
#730=IFCDIRECTION((0.,0.,1.));
#731=IFCDIRECTION((1.,0.,0.));
#732=IFCAXIS2PLACEMENT3D(#729,#730,#731);
#733=IFCCARTESIANPOINT((0.,0.));
#734=IFCCARTESIANPOINT((0.4,0.));
#735=IFCCARTESIANPOINT((0.4,0.4));
#736=IFCCARTESIANPOINT((0.,0.4));
#737=IFCCARTESIANPOINT((0.,0.));
#738=IFCPOLYLINE((#733,#734,#735,#736,#737));
#739=IFCARBITRARYCLOSEDPROFILEDEF(.AREA.,$,#738);
#740=IFCDIRECTION((0.,0.,1.));
#741=IFCEXTRUDEDAREASOLID(#739,#732,#740,3.5);
#742=IFCSHAPEREPRESENTATION(#13,'Body','SweptSolid',(#741));
#743=IFCPRODUCTDEFINITIONSHAPE($,$,(#742));
#744=IFCCOLUMN('122edMZL9D3fy9fz8v5pbQ',$,'Col_Level 1_6_0',$,$,#754,#743,$,$);
#750=IFCCARTESIANPOINT((6.,0.,3.5));
#751=IFCDIRECTION((0.,0.,1.));
#752=IFCDIRECTION((1.,0.,0.));
#753=IFCAXIS2PLACEMENT3D(#750,#751,#752);
#754=IFCLOCALPLACEMENT(#486,#753);
#755=IFCPROPERTYSINGLEVALUE('Name',$,IFCLABEL('Col_Level 1_6_0'),$);
#756=IFCPROPERTYSINGLEVALUE('Length',$,IFCLENGTHMEASURE(3.5),$);
#757=IFCPROPERTYSET('2M6mS62d1FNxD5gyBB_mvB',$,'EPset_IfcKit_Geometry',$,(#755,#756));
#758=IFCRELDEFINESBYPROPERTIES('3MXNZZO$X5IRayjY8ht81H',$,$,$,(#744),#757);
#759=IFCCOLOURRGB($,0.501960784313725,0.501960784313725,0.501960784313725);
#760=IFCSURFACESTYLERENDERING(#759,0.,$,$,$,$,$,$,.FLAT.);
#761=IFCSURFACESTYLE($,.BOTH.,(#760));
#762=IFCSTYLEDITEM(#741,(#761),$);
#763=IFCCARTESIANPOINT((0.,0.,0.));
#764=IFCDIRECTION((0.,0.,1.));
#765=IFCDIRECTION((1.,0.,0.));
#766=IFCAXIS2PLACEMENT3D(#763,#764,#765);
#767=IFCCARTESIANPOINT((0.,0.));
#768=IFCCARTESIANPOINT((0.4,0.));
#769=IFCCARTESIANPOINT((0.4,0.4));
#770=IFCCARTESIANPOINT((0.,0.4));
#771=IFCCARTESIANPOINT((0.,0.));
#772=IFCPOLYLINE((#767,#768,#769,#770,#771));
#773=IFCARBITRARYCLOSEDPROFILEDEF(.AREA.,$,#772);
#774=IFCDIRECTION((0.,0.,1.));
#775=IFCEXTRUDEDAREASOLID(#773,#766,#774,3.5);
#776=IFCSHAPEREPRESENTATION(#13,'Body','SweptSolid',(#775));
#777=IFCPRODUCTDEFINITIONSHAPE($,$,(#776));
#778=IFCCOLUMN('3oXzCEY6z5rQtkq2SXN4uC',$,'Col_Level 1_6_8',$,$,#788,#777,$,$);
#784=IFCCARTESIANPOINT((6.,8.,3.5));
#785=IFCDIRECTION((0.,0.,1.));
#786=IFCDIRECTION((1.,0.,0.));
#787=IFCAXIS2PLACEMENT3D(#784,#785,#786);
#788=IFCLOCALPLACEMENT(#486,#787);
#789=IFCPROPERTYSINGLEVALUE('Name',$,IFCLABEL('Col_Level 1_6_8'),$);
#790=IFCPROPERTYSINGLEVALUE('Length',$,IFCLENGTHMEASURE(3.5),$);
#791=IFCPROPERTYSET('1$LPxM7bf9JRU8zYtH7YFH',$,'EPset_IfcKit_Geometry',$,(#789,#790));
#792=IFCRELDEFINESBYPROPERTIES('1X_DL4qZj7qvfk3B_E660n',$,$,$,(#778),#791);
#793=IFCCOLOURRGB($,0.501960784313725,0.501960784313725,0.501960784313725);
#794=IFCSURFACESTYLERENDERING(#793,0.,$,$,$,$,$,$,.FLAT.);
#795=IFCSURFACESTYLE($,.BOTH.,(#794));
#796=IFCSTYLEDITEM(#775,(#795),$);
#797=IFCCARTESIANPOINT((0.,0.,0.));
#798=IFCDIRECTION((0.,0.,1.));
#799=IFCDIRECTION((1.,0.,0.));
#800=IFCAXIS2PLACEMENT3D(#797,#798,#799);
#801=IFCCARTESIANPOINT((0.,0.));
#802=IFCCARTESIANPOINT((0.4,0.));
#803=IFCCARTESIANPOINT((0.4,0.4));
#804=IFCCARTESIANPOINT((0.,0.4));
#805=IFCCARTESIANPOINT((0.,0.));
#806=IFCPOLYLINE((#801,#802,#803,#804,#805));
#807=IFCARBITRARYCLOSEDPROFILEDEF(.AREA.,$,#806);
#808=IFCDIRECTION((0.,0.,1.));
#809=IFCEXTRUDEDAREASOLID(#807,#800,#808,3.5);
#810=IFCSHAPEREPRESENTATION(#13,'Body','SweptSolid',(#809));
#811=IFCPRODUCTDEFINITIONSHAPE($,$,(#810));
#812=IFCCOLUMN('3TRexJQ2D5MwvfGX90pef8',$,'Col_Level 1_12_0',$,$,#822,#811,$,$);
#818=IFCCARTESIANPOINT((12.,0.,3.5));
#819=IFCDIRECTION((0.,0.,1.));
#820=IFCDIRECTION((1.,0.,0.));
#821=IFCAXIS2PLACEMENT3D(#818,#819,#820);
#822=IFCLOCALPLACEMENT(#486,#821);
#823=IFCPROPERTYSINGLEVALUE('Name',$,IFCLABEL('Col_Level 1_12_0'),$);
#824=IFCPROPERTYSINGLEVALUE('Length',$,IFCLENGTHMEASURE(3.5),$);
#825=IFCPROPERTYSET('21FuX5yczBh8fvbKWYn7mJ',$,'EPset_IfcKit_Geometry',$,(#823,#824));
#826=IFCRELDEFINESBYPROPERTIES('3feIIyOC15keyGqWs4pTWS',$,$,$,(#812),#825);
#827=IFCCOLOURRGB($,0.501960784313725,0.501960784313725,0.501960784313725);
#828=IFCSURFACESTYLERENDERING(#827,0.,$,$,$,$,$,$,.FLAT.);
#829=IFCSURFACESTYLE($,.BOTH.,(#828));
#830=IFCSTYLEDITEM(#809,(#829),$);
#831=IFCCARTESIANPOINT((0.,0.,0.));
#832=IFCDIRECTION((0.,0.,1.));
#833=IFCDIRECTION((1.,0.,0.));
#834=IFCAXIS2PLACEMENT3D(#831,#832,#833);
#835=IFCCARTESIANPOINT((0.,0.));
#836=IFCCARTESIANPOINT((0.4,0.));
#837=IFCCARTESIANPOINT((0.4,0.4));
#838=IFCCARTESIANPOINT((0.,0.4));
#839=IFCCARTESIANPOINT((0.,0.));
#840=IFCPOLYLINE((#835,#836,#837,#838,#839));
#841=IFCARBITRARYCLOSEDPROFILEDEF(.AREA.,$,#840);
#842=IFCDIRECTION((0.,0.,1.));
#843=IFCEXTRUDEDAREASOLID(#841,#834,#842,3.5);
#844=IFCSHAPEREPRESENTATION(#13,'Body','SweptSolid',(#843));
#845=IFCPRODUCTDEFINITIONSHAPE($,$,(#844));
#846=IFCCOLUMN('2HPs4kSoP8OOt0E9PQQTFa',$,'Col_Level 1_12_8',$,$,#856,#845,$,$);
#852=IFCCARTESIANPOINT((12.,8.,3.5));
#853=IFCDIRECTION((0.,0.,1.));
#854=IFCDIRECTION((1.,0.,0.));
#855=IFCAXIS2PLACEMENT3D(#852,#853,#854);
#856=IFCLOCALPLACEMENT(#486,#855);
#857=IFCPROPERTYSINGLEVALUE('Name',$,IFCLABEL('Col_Level 1_12_8'),$);
#858=IFCPROPERTYSINGLEVALUE('Length',$,IFCLENGTHMEASURE(3.5),$);
#859=IFCPROPERTYSET('0WozkZWdb4Lv2uvKlonNeo',$,'EPset_IfcKit_Geometry',$,(#857,#858));
#860=IFCRELDEFINESBYPROPERTIES('3cShkZfuf8XAQx3f_ZXM8i',$,$,$,(#846),#859);
#861=IFCCOLOURRGB($,0.501960784313725,0.501960784313725,0.501960784313725);
#862=IFCSURFACESTYLERENDERING(#861,0.,$,$,$,$,$,$,.FLAT.);
#863=IFCSURFACESTYLE($,.BOTH.,(#862));
#864=IFCSTYLEDITEM(#843,(#863),$);
#865=IFCCARTESIANPOINT((0.,0.,0.));
#866=IFCDIRECTION((0.,0.,1.));
#867=IFCDIRECTION((1.,0.,0.));
#868=IFCAXIS2PLACEMENT3D(#865,#866,#867);
#869=IFCCARTESIANPOINT((0.,-0.15));
#870=IFCCARTESIANPOINT((0.4,-0.15));
#871=IFCCARTESIANPOINT((0.4,0.15));
#872=IFCCARTESIANPOINT((0.,0.15));
#873=IFCCARTESIANPOINT((0.,-0.15));
#874=IFCPOLYLINE((#869,#870,#871,#872,#873));
#875=IFCARBITRARYCLOSEDPROFILEDEF(.AREA.,$,#874);
#876=IFCDIRECTION((0.,0.,1.));
#877=IFCEXTRUDEDAREASOLID(#875,#868,#876,6.);
#878=IFCSHAPEREPRESENTATION(#13,'Body','SweptSolid',(#877));
#879=IFCPRODUCTDEFINITIONSHAPE($,$,(#878));
#880=IFCBEAM('2tobQc7Of9axT3E82fgBOh',$,'Beam_Level 1_0',$,$,#890,#879,$,$);
#886=IFCCARTESIANPOINT((0.,4.,6.5));
#887=IFCDIRECTION((1.,0.,0.));
#888=IFCDIRECTION((0.,1.,0.));
#889=IFCAXIS2PLACEMENT3D(#886,#887,#888);
#890=IFCLOCALPLACEMENT(#486,#889);
#891=IFCPROPERTYSINGLEVALUE('Name',$,IFCLABEL('Beam_Level 1_0'),$);
#892=IFCPROPERTYSINGLEVALUE('Length',$,IFCLENGTHMEASURE(6.),$);
#893=IFCPROPERTYSET('3wb0LD7Cn0Qg4yNyUCjOOY',$,'EPset_IfcKit_Geometry',$,(#891,#892));
#894=IFCRELDEFINESBYPROPERTIES('0CisSgAezCyf3rXyF_HHg3',$,$,$,(#880),#893);
#895=IFCCOLOURRGB($,0.501960784313725,0.501960784313725,0.501960784313725);
#896=IFCSURFACESTYLERENDERING(#895,0.,$,$,$,$,$,$,.FLAT.);
#897=IFCSURFACESTYLE($,.BOTH.,(#896));
#898=IFCSTYLEDITEM(#877,(#897),$);
#899=IFCCARTESIANPOINT((0.,0.,0.));
#900=IFCDIRECTION((0.,0.,1.));
#901=IFCDIRECTION((1.,0.,0.));
#902=IFCAXIS2PLACEMENT3D(#899,#900,#901);
#903=IFCCARTESIANPOINT((0.,-0.15));
#904=IFCCARTESIANPOINT((0.4,-0.15));
#905=IFCCARTESIANPOINT((0.4,0.15));
#906=IFCCARTESIANPOINT((0.,0.15));
#907=IFCCARTESIANPOINT((0.,-0.15));
#908=IFCPOLYLINE((#903,#904,#905,#906,#907));
#909=IFCARBITRARYCLOSEDPROFILEDEF(.AREA.,$,#908);
#910=IFCDIRECTION((0.,0.,1.));
#911=IFCEXTRUDEDAREASOLID(#909,#902,#910,6.);
#912=IFCSHAPEREPRESENTATION(#13,'Body','SweptSolid',(#911));
#913=IFCPRODUCTDEFINITIONSHAPE($,$,(#912));
#914=IFCBEAM('1qT_4gXan2TwW_urE0rePs',$,'Beam_Level 1_1',$,$,#924,#913,$,$);
#920=IFCCARTESIANPOINT((6.,4.,6.5));
#921=IFCDIRECTION((1.,0.,0.));
#922=IFCDIRECTION((0.,1.,0.));
#923=IFCAXIS2PLACEMENT3D(#920,#921,#922);
#924=IFCLOCALPLACEMENT(#486,#923);
#925=IFCPROPERTYSINGLEVALUE('Name',$,IFCLABEL('Beam_Level 1_1'),$);
#926=IFCPROPERTYSINGLEVALUE('Length',$,IFCLENGTHMEASURE(6.),$);
#927=IFCPROPERTYSET('3omLj7blf6FAqgu6kJpgDw',$,'EPset_IfcKit_Geometry',$,(#925,#926));
#928=IFCRELDEFINESBYPROPERTIES('2DO6nyObT0pRe_NJueq237',$,$,$,(#914),#927);
#929=IFCCOLOURRGB($,0.501960784313725,0.501960784313725,0.501960784313725);
#930=IFCSURFACESTYLERENDERING(#929,0.,$,$,$,$,$,$,.FLAT.);
#931=IFCSURFACESTYLE($,.BOTH.,(#930));
#932=IFCSTYLEDITEM(#911,(#931),$);
ENDSEC;
END-ISO-10303-21;
