v 3.297772 0.000000 -0.000000
v 3.073263 0.000000 0.642386
v 2.531250 0.000000 0.908471
v 1.989237 -0.000000 0.642386
v 1.764728 -0.000000 0.000000
v 1.989237 0.000000 -0.642386
v 2.531250 0.000000 -0.908471
v 3.073263 0.000000 -0.642386
v 1.648886 2.855955 -0.000000
v 1.536632 2.661524 0.642386
v 1.265625 2.192127 0.908471
v 0.994618 1.722730 0.642386
v 0.882364 1.528299 0.000000
v 0.994618 1.722730 -0.642386
v 1.265625 2.192127 -0.908471
v 1.536632 2.661524 -0.642386
v -1.648886 2.855955 -0.000000
v -1.536632 2.661524 0.642386
v -1.265625 2.192127 0.908471
v -0.994618 1.722730 0.642386
v -0.882364 1.528299 0.000000
v -0.994618 1.722730 -0.642386
v -1.265625 2.192127 -0.908471
v -1.536632 2.661524 -0.642386
v -3.297772 0.000000 -0.000000
v -3.073263 0.000000 0.642386
v -2.531250 0.000000 0.908471
v -1.989237 0.000000 0.642386
v -1.764728 0.000000 0.000000
v -1.989237 0.000000 -0.642386
v -2.531250 0.000000 -0.908471
v -3.073263 0.000000 -0.642386
v -1.648886 -2.855955 -0.000000
v -1.536632 -2.661524 0.642386
v -1.265625 -2.192127 0.908471
v -0.994618 -1.722730 0.642386
v -0.882364 -1.528299 0.000000
v -0.994618 -1.722730 -0.642386
v -1.265625 -2.192127 -0.908471
v -1.536632 -2.661524 -0.642386
v 1.648886 -2.855955 -0.000000
v 1.536632 -2.661524 0.642386
v 1.265625 -2.192127 0.908471
v 0.994618 -1.722730 0.642386
v 0.882364 -1.528299 0.000000
v 0.994618 -1.722730 -0.642386
v 1.265625 -2.192127 -0.908471
v 1.536632 -2.661524 -0.642386
v 3.238252 0.000000 0.347081
v 2.646421 1.527912 0.642386
v 1.619126 2.804409 0.347081
v 2.839748 1.639529 -0.000000
v 2.824100 -0.000000 0.837928
v 2.179688 1.258443 0.908471
v 1.412050 2.445742 0.837928
v 2.238400 0.000000 0.837928
v 1.712954 0.988974 0.642386
v 1.119200 1.938511 0.837928
v 1.824248 0.000000 0.347081
v 1.519627 0.877357 0.000000
v 0.912124 1.579845 0.347081
v 1.824248 -0.000000 -0.347081
v 1.712954 0.988974 -0.642386
v 0.912124 1.579845 -0.347081
v 2.238400 0.000000 -0.837928
v 2.179688 1.258443 -0.908471
v 1.119200 1.938511 -0.837928
v 2.824100 -0.000000 -0.837928
v 2.646421 1.527912 -0.642386
v 1.412050 2.445742 -0.837928
v 3.238252 0.000000 -0.347081
v 1.619126 2.804409 -0.347081
v 0.000000 3.055824 0.642386
v -1.619126 2.804409 0.347081
v 0.000000 3.279059 -0.000000
v 0.000000 2.516886 0.908471
v -1.412050 2.445742 0.837928
v 0.000000 1.977949 0.642386
v -1.119200 1.938511 0.837928
v 0.000000 1.754714 0.000000
v -0.912124 1.579845 0.347081
v 0.000000 1.977949 -0.642386
v -0.912124 1.579845 -0.347081
v 0.000000 2.516886 -0.908471
v -1.119200 1.938511 -0.837928
v 0.000000 3.055824 -0.642386
v -1.412050 2.445742 -0.837928
v -1.619126 2.804409 -0.347081
v -2.646421 1.527912 0.642386
v -3.238252 0.000000 0.347081
v -2.839748 1.639529 -0.000000
v -2.179688 1.258443 0.908471
v -2.824100 0.000000 0.837928
v -1.712954 0.988974 0.642386
v -2.238400 0.000000 0.837928
v -1.519627 0.877357 0.000000
v -1.824248 0.000000 0.347081
v -1.712954 0.988974 -0.642386
v -1.824248 0.000000 -0.347081
v -2.179688 1.258443 -0.908471
v -2.238400 0.000000 -0.837928
v -2.646421 1.527912 -0.642386
v -2.824100 0.000000 -0.837928
v -3.238252 0.000000 -0.347081
v -2.646421 -1.527912 0.642386
v -1.619126 -2.804409 0.347081
v -2.839748 -1.639529 -0.000000
v -2.179688 -1.258443 0.908471
v -1.412050 -2.445742 0.837928
v -1.712954 -0.988974 0.642386
v -1.119200 -1.938511 0.837928
v -1.519627 -0.877357 0.000000
v -0.912124 -1.579845 0.347081
v -1.712954 -0.988974 -0.642386
v -0.912124 -1.579845 -0.347081
v -2.179688 -1.258443 -0.908471
v -1.119200 -1.938511 -0.837928
v -2.646421 -1.527912 -0.642386
v -1.412050 -2.445742 -0.837928
v -1.619126 -2.804409 -0.347081
v -0.000000 -3.055824 0.642386
v 1.619126 -2.804409 0.347081
v -0.000000 -3.279059 -0.000000
v -0.000000 -2.516886 0.908471
v 1.412050 -2.445742 0.837928
v -0.000000 -1.977949 0.642386
v 1.119200 -1.938511 0.837928
v -0.000000 -1.754714 0.000000
v 0.912124 -1.579845 0.347081
v -0.000000 -1.977949 -0.642386
v 0.912124 -1.579845 -0.347081
v -0.000000 -2.516886 -0.908471
v 1.119200 -1.938511 -0.837928
v -0.000000 -3.055824 -0.642386
v 1.412050 -2.445742 -0.837928
v 1.619126 -2.804409 -0.347081
v 2.646421 -1.527912 0.642386
v 2.839748 -1.639529 -0.000000
v 2.179688 -1.258443 0.908471
v 1.712954 -0.988974 0.642386
v 1.519627 -0.877357 0.000000
v 1.712954 -0.988974 -0.642386
v 2.179688 -1.258443 -0.908471
v 2.646421 -1.527912 -0.642386
v 2.788495 1.609938 0.347081
v 2.431864 1.404037 0.837928
v 1.927511 1.112849 0.837928
v 1.570880 0.906948 0.347081
v 1.570880 0.906948 -0.347081
v 1.927511 1.112849 -0.837928
v 2.431864 1.404037 -0.837928
v 2.788495 1.609938 -0.347081
v 0.000000 3.219877 0.347081
v 0.000000 2.808074 0.837928
v 0.000000 2.225698 0.837928
v 0.000000 1.813896 0.347081
v 0.000000 1.813896 -0.347081
v 0.000000 2.225698 -0.837928
v 0.000000 2.808074 -0.837928
v 0.000000 3.219877 -0.347081
v -2.788495 1.609938 0.347081
v -2.431864 1.404037 0.837928
v -1.927511 1.112849 0.837928
v -1.570880 0.906948 0.347081
v -1.570880 0.906948 -0.347081
v -1.927511 1.112849 -0.837928
v -2.431864 1.404037 -0.837928
v -2.788495 1.609938 -0.347081
v -2.788495 -1.609938 0.347081
v -2.431864 -1.404037 0.837928
v -1.927511 -1.112849 0.837928
v -1.570880 -0.906948 0.347081
v -1.570880 -0.906948 -0.347081
v -1.927511 -1.112849 -0.837928
v -2.431864 -1.404037 -0.837928
v -2.788495 -1.609938 -0.347081
v -0.000000 -3.219877 0.347081
v -0.000000 -2.808074 0.837928
v -0.000000 -2.225698 0.837928
v -0.000000 -1.813896 0.347081
v -0.000000 -1.813896 -0.347081
v -0.000000 -2.225698 -0.837928
v -0.000000 -2.808074 -0.837928
v -0.000000 -3.219877 -0.347081
v 2.788495 -1.609938 0.347081
v 2.431864 -1.404037 0.837928
v 1.927511 -1.112849 0.837928
v 1.570880 -0.906948 0.347081
v 1.570880 -0.906948 -0.347081
v 1.927511 -1.112849 -0.837928
v 2.431864 -1.404037 -0.837928
v 2.788495 -1.609938 -0.347081
v 3.282327 0.000000 0.176777
v 3.118317 0.830936 0.347081
v 2.826448 1.631851 0.176777
v 3.175633 0.846209 -0.000000
v 2.959439 0.788600 0.642386
v 2.727837 1.574917 0.504442
v 3.167810 0.000000 0.504442
v 1.583905 2.743404 0.504442
v 2.278770 2.285074 0.347081
v 2.162667 2.168649 0.642386
v 2.320655 2.327074 -0.000000
v 1.641163 2.842578 0.176777
v 2.956873 0.000000 0.754442
v 2.719504 0.724664 0.837928
v 2.546196 1.470047 0.754442
v 2.437500 0.649519 0.908471
v 2.308127 1.332598 0.890165
v 2.680405 0.000000 0.890165
v 1.340203 2.321299 0.890165
v 1.987330 1.992827 0.837928
v 1.781250 1.786177 0.908471
v 1.478436 2.560727 0.754442
v 2.382095 0.000000 0.890165
v 2.155496 0.574374 0.837928
v 2.051248 1.184289 0.890165
v 1.915561 0.510438 0.642386
v 1.813179 1.046839 0.754442
v 2.105627 0.000000 0.754442
v 1.052814 1.823527 0.754442
v 1.575170 1.579528 0.837928
v 1.399833 1.403706 0.642386
v 1.191047 2.062954 0.890165
v 1.894690 0.000000 0.504442
v 1.756683 0.468102 0.347081
v 1.631538 0.941969 0.504442
v 1.699367 0.452829 0.000000
v 1.532927 0.885036 0.176777
v 1.780173 0.000000 0.176777
v 0.890087 1.541675 0.176777
v 1.283730 1.287281 0.347081
v 1.241845 1.245281 0.000000
v 0.947345 1.640849 0.504442
v 1.780173 0.000000 -0.176777
v 1.756683 0.468102 -0.347081
v 1.532927 0.885036 -0.176777
v 1.915561 0.510438 -0.642386
v 1.631538 0.941969 -0.504442
v 1.894690 0.000000 -0.504442
v 0.947345 1.640849 -0.504442
v 1.283730 1.287281 -0.347081
v 1.399833 1.403706 -0.642386
v 0.890087 1.541675 -0.176777
v 2.105627 0.000000 -0.754442
v 2.155496 0.574374 -0.837928
v 1.813179 1.046839 -0.754442
v 2.437500 0.649519 -0.908471
v 2.051248 1.184289 -0.890165
v 2.382095 0.000000 -0.890165
v 1.191047 2.062954 -0.890165
v 1.575170 1.579528 -0.837928
v 1.781250 1.786177 -0.908471
v 1.052814 1.823527 -0.754442
v 2.680405 0.000000 -0.890165
v 2.719504 0.724664 -0.837928
v 2.308127 1.332598 -0.890165
v 2.959439 0.788600 -0.642386
v 2.546196 1.470047 -0.754442
v 2.956873 0.000000 -0.754442
v 1.478436 2.560727 -0.754442
v 1.987330 1.992827 -0.837928
v 2.162667 2.168649 -0.642386
v 1.340203 2.321299 -0.890165
v 3.167810 0.000000 -0.504442
v 3.118317 0.830936 -0.347081
v 2.727837 1.574917 -0.504442
v 2.826448 1.631851 -0.176777
v 3.282327 0.000000 -0.176777
v 1.641163 2.842578 -0.176777
v 2.278770 2.285074 -0.347081
v 1.583905 2.743404 -0.504442
v 0.839547 3.116010 0.347081
v 0.000000 3.263701 0.176777
v 0.854978 3.173283 -0.000000
v 0.796772 2.957249 0.642386
v 0.000000 3.149834 0.504442
v -1.583905 2.743404 0.504442
v -0.839547 3.116010 0.347081
v -0.796772 2.957249 0.642386
v -0.854978 3.173283 -0.000000
v -1.641163 2.842578 0.176777
v 0.732174 2.717491 0.837928
v 0.000000 2.940094 0.754442
v 0.656250 2.435696 0.908471
v 0.000000 2.665195 0.890165
v -1.340203 2.321299 0.890165
v -0.732174 2.717491 0.837928
v -0.656250 2.435696 0.908471
v -1.478436 2.560727 0.754442
v 0.580326 2.153902 0.837928
v 0.000000 2.368577 0.890165
v 0.515728 1.914144 0.642386
v 0.000000 2.093679 0.754442
v -1.052814 1.823527 0.754442
v -0.580326 2.153902 0.837928
v -0.515728 1.914144 0.642386
v -1.191047 2.062954 0.890165
v 0.472953 1.755383 0.347081
v 0.000000 1.883938 0.504442
v 0.457522 1.698110 0.000000
v 0.000000 1.770072 0.176777
v -0.890087 1.541675 0.176777
v -0.472953 1.755383 0.347081
v -0.457522 1.698110 0.000000
v -0.947345 1.640849 0.504442
v 0.472953 1.755383 -0.347081
v 0.000000 1.770072 -0.176777
v 0.515728 1.914144 -0.642386
v 0.000000 1.883938 -0.504442
v -0.947345 1.640849 -0.504442
v -0.472953 1.755383 -0.347081
v -0.515728 1.914144 -0.642386
v -0.890087 1.541675 -0.176777
v 0.580326 2.153902 -0.837928
v 0.000000 2.093679 -0.754442
v 0.656250 2.435696 -0.908471
v 0.000000 2.368577 -0.890165
v -1.191047 2.062954 -0.890165
v -0.580326 2.153902 -0.837928
v -0.656250 2.435696 -0.908471
v -1.052814 1.823527 -0.754442
v 0.732174 2.717491 -0.837928
v 0.000000 2.665195 -0.890165
v 0.796772 2.957249 -0.642386
v 0.000000 2.940094 -0.754442
v -1.478436 2.560727 -0.754442
v -0.732174 2.717491 -0.837928
v -0.796772 2.957249 -0.642386
v -1.340203 2.321299 -0.890165
v 0.839547 3.116010 -0.347081
v 0.000000 3.149834 -0.504442
v 0.000000 3.263701 -0.176777
v -1.641163 2.842578 -0.176777
v -0.839547 3.116010 -0.347081
v -1.583905 2.743404 -0.504442
v -2.278770 2.285074 0.347081
v -2.826448 1.631851 0.176777
v -2.320655 2.327074 -0.000000
v -2.162667 2.168649 0.642386
v -2.727837 1.574917 0.504442
v -3.167810 0.000000 0.504442
v -3.118317 0.830936 0.347081
v -2.959439 0.788600 0.642386
v -3.175633 0.846209 -0.000000
v -3.282327 0.000000 0.176777
v -1.987330 1.992827 0.837928
v -2.546196 1.470047 0.754442
v -1.781250 1.786177 0.908471
v -2.308127 1.332598 0.890165
v -2.680405 0.000000 0.890165
v -2.719504 0.724664 0.837928
v -2.437500 0.649519 0.908471
v -2.956873 0.000000 0.754442
v -1.575170 1.579528 0.837928
v -2.051248 1.184289 0.890165
v -1.399833 1.403706 0.642386
v -1.813179 1.046839 0.754442
v -2.105627 0.000000 0.754442
v -2.155496 0.574374 0.837928
v -1.915561 0.510438 0.642386
v -2.382095 0.000000 0.890165
v -1.283730 1.287281 0.347081
v -1.631538 0.941969 0.504442
v -1.241845 1.245281 0.000000
v -1.532927 0.885036 0.176777
v -1.780173 0.000000 0.176777
v -1.756683 0.468102 0.347081
v -1.699367 0.452829 0.000000
v -1.894690 0.000000 0.504442
v -1.283730 1.287281 -0.347081
v -1.532927 0.885036 -0.176777
v -1.399833 1.403706 -0.642386
v -1.631538 0.941969 -0.504442
v -1.894690 0.000000 -0.504442
v -1.756683 0.468102 -0.347081
v -1.915561 0.510438 -0.642386
v -1.780173 0.000000 -0.176777
v -1.575170 1.579528 -0.837928
v -1.813179 1.046839 -0.754442
v -1.781250 1.786177 -0.908471
v -2.051248 1.184289 -0.890165
v -2.382095 0.000000 -0.890165
v -2.155496 0.574374 -0.837928
v -2.437500 0.649519 -0.908471
v -2.105627 0.000000 -0.754442
v -1.987330 1.992827 -0.837928
v -2.308127 1.332598 -0.890165
v -2.162667 2.168649 -0.642386
v -2.546196 1.470047 -0.754442
v -2.956873 0.000000 -0.754442
v -2.719504 0.724664 -0.837928
v -2.959439 0.788600 -0.642386
v -2.680405 0.000000 -0.890165
v -2.278770 2.285074 -0.347081
v -2.727837 1.574917 -0.504442
v -2.826448 1.631851 -0.176777
v -3.282327 0.000000 -0.176777
v -3.118317 0.830936 -0.347081
v -3.167810 0.000000 -0.504442
v -3.118317 -0.830936 0.347081
v -2.826448 -1.631851 0.176777
v -3.175633 -0.846209 -0.000000
v -2.959439 -0.788600 0.642386
v -2.727837 -1.574917 0.504442
v -1.583905 -2.743404 0.504442
v -2.278770 -2.285074 0.347081
v -2.162667 -2.168649 0.642386
v -2.320655 -2.327074 -0.000000
v -1.641163 -2.842578 0.176777
v -2.719504 -0.724664 0.837928
v -2.546196 -1.470047 0.754442
v -2.437500 -0.649519 0.908471
v -2.308127 -1.332598 0.890165
v -1.340203 -2.321299 0.890165
v -1.987330 -1.992827 0.837928
v -1.781250 -1.786177 0.908471
v -1.478436 -2.560727 0.754442
v -2.155496 -0.574374 0.837928
v -2.051248 -1.184289 0.890165
v -1.915561 -0.510438 0.642386
v -1.813179 -1.046839 0.754442
v -1.052814 -1.823527 0.754442
v -1.575170 -1.579528 0.837928
v -1.399833 -1.403706 0.642386
v -1.191047 -2.062954 0.890165
v -1.756683 -0.468102 0.347081
v -1.631538 -0.941969 0.504442
v -1.699367 -0.452829 0.000000
v -1.532927 -0.885036 0.176777
v -0.890087 -1.541675 0.176777
v -1.283730 -1.287281 0.347081
v -1.241845 -1.245281 0.000000
v -0.947345 -1.640849 0.504442
v -1.756683 -0.468102 -0.347081
v -1.532927 -0.885036 -0.176777
v -1.915561 -0.510438 -0.642386
v -1.631538 -0.941969 -0.504442
v -0.947345 -1.640849 -0.504442
v -1.283730 -1.287281 -0.347081
v -1.399833 -1.403706 -0.642386
v -0.890087 -1.541675 -0.176777
v -2.155496 -0.574374 -0.837928
v -1.813179 -1.046839 -0.754442
v -2.437500 -0.649519 -0.908471
v -2.051248 -1.184289 -0.890165
v -1.191047 -2.062954 -0.890165
v -1.575170 -1.579528 -0.837928
v -1.781250 -1.786177 -0.908471
v -1.052814 -1.823527 -0.754442
v -2.719504 -0.724664 -0.837928
v -2.308127 -1.332598 -0.890165
v -2.959439 -0.788600 -0.642386
v -2.546196 -1.470047 -0.754442
v -1.478436 -2.560727 -0.754442
v -1.987330 -1.992827 -0.837928
v -2.162667 -2.168649 -0.642386
v -1.340203 -2.321299 -0.890165
v -3.118317 -0.830936 -0.347081
v -2.727837 -1.574917 -0.504442
v -2.826448 -1.631851 -0.176777
v -1.641163 -2.842578 -0.176777
v -2.278770 -2.285074 -0.347081
v -1.583905 -2.743404 -0.504442
v -0.839547 -3.116010 0.347081
v -0.000000 -3.263701 0.176777
v -0.854978 -3.173283 -0.000000
v -0.796772 -2.957249 0.642386
v -0.000000 -3.149834 0.504442
v 1.583905 -2.743404 0.504442
v 0.839547 -3.116010 0.347081
v 0.796772 -2.957249 0.642386
v 0.854978 -3.173283 -0.000000
v 1.641163 -2.842578 0.176777
v -0.732174 -2.717491 0.837928
v -0.000000 -2.940094 0.754442
v -0.656250 -2.435696 0.908471
v -0.000000 -2.665195 0.890165
v 1.340203 -2.321299 0.890165
v 0.732174 -2.717491 0.837928
v 0.656250 -2.435696 0.908471
v 1.478436 -2.560727 0.754442
v -0.580326 -2.153902 0.837928
v -0.000000 -2.368577 0.890165
v -0.515728 -1.914144 0.642386
v -0.000000 -2.093679 0.754442
v 1.052814 -1.823527 0.754442
v 0.580326 -2.153902 0.837928
v 0.515728 -1.914144 0.642386
v 1.191047 -2.062954 0.890165
v -0.472953 -1.755383 0.347081
v -0.000000 -1.883938 0.504442
v -0.457522 -1.698110 0.000000
v -0.000000 -1.770072 0.176777
v 0.890087 -1.541675 0.176777
v 0.472953 -1.755383 0.347081
v 0.457522 -1.698110 0.000000
v 0.947345 -1.640849 0.504442
v -0.472953 -1.755383 -0.347081
v -0.000000 -1.770072 -0.176777
v -0.515728 -1.914144 -0.642386
v -0.000000 -1.883938 -0.504442
v 0.947345 -1.640849 -0.504442
v 0.472953 -1.755383 -0.347081
v 0.515728 -1.914144 -0.642386
v 0.890087 -1.541675 -0.176777
v -0.580326 -2.153902 -0.837928
v -0.000000 -2.093679 -0.754442
v -0.656250 -2.435696 -0.908471
v -0.000000 -2.368577 -0.890165
v 1.191047 -2.062954 -0.890165
v 0.580326 -2.153902 -0.837928
v 0.656250 -2.435696 -0.908471
v 1.052814 -1.823527 -0.754442
v -0.732174 -2.717491 -0.837928
v -0.000000 -2.665195 -0.890165
v -0.796772 -2.957249 -0.642386
v -0.000000 -2.940094 -0.754442
v 1.478436 -2.560727 -0.754442
v 0.732174 -2.717491 -0.837928
v 0.796772 -2.957249 -0.642386
v 1.340203 -2.321299 -0.890165
v -0.839547 -3.116010 -0.347081
v -0.000000 -3.149834 -0.504442
v -0.000000 -3.263701 -0.176777
v 1.641163 -2.842578 -0.176777
v 0.839547 -3.116010 -0.347081
v 1.583905 -2.743404 -0.504442
v 2.278770 -2.285074 0.347081
v 2.826448 -1.631851 0.176777
v 2.320655 -2.327074 -0.000000
v 2.162667 -2.168649 0.642386
v 2.727837 -1.574917 0.504442
v 3.118317 -0.830936 0.347081
v 2.959439 -0.788600 0.642386
v 3.175633 -0.846209 -0.000000
v 1.987330 -1.992827 0.837928
v 2.546196 -1.470047 0.754442
v 1.781250 -1.786177 0.908471
v 2.308127 -1.332598 0.890165
v 2.719504 -0.724664 0.837928
v 2.437500 -0.649519 0.908471
v 1.575170 -1.579528 0.837928
v 2.051248 -1.184289 0.890165
v 1.399833 -1.403706 0.642386
v 1.813179 -1.046839 0.754442
v 2.155496 -0.574374 0.837928
v 1.915561 -0.510438 0.642386
v 1.283730 -1.287281 0.347081
v 1.631538 -0.941969 0.504442
v 1.241845 -1.245281 0.000000
v 1.532927 -0.885036 0.176777
v 1.756683 -0.468102 0.347081
v 1.699367 -0.452829 0.000000
v 1.283730 -1.287281 -0.347081
v 1.532927 -0.885036 -0.176777
v 1.399833 -1.403706 -0.642386
v 1.631538 -0.941969 -0.504442
v 1.756683 -0.468102 -0.347081
v 1.915561 -0.510438 -0.642386
v 1.575170 -1.579528 -0.837928
v 1.813179 -1.046839 -0.754442
v 1.781250 -1.786177 -0.908471
v 2.051248 -1.184289 -0.890165
v 2.155496 -0.574374 -0.837928
v 2.437500 -0.649519 -0.908471
v 1.987330 -1.992827 -0.837928
v 2.308127 -1.332598 -0.890165
v 2.162667 -2.168649 -0.642386
v 2.546196 -1.470047 -0.754442
v 2.719504 -0.724664 -0.837928
v 2.959439 -0.788600 -0.642386
v 2.278770 -2.285074 -0.347081
v 2.727837 -1.574917 -0.504442
v 2.826448 -1.631851 -0.176777
v 3.118317 -0.830936 -0.347081
v 3.160759 0.842245 0.176777
v 3.050484 0.812860 0.504442
v 2.229200 2.235366 0.504442
v 2.309785 2.316175 0.176777
v 2.847359 0.758734 0.754442
v 2.581131 0.687792 0.890165
v 1.886211 1.891429 0.890165
v 2.080762 2.086518 0.754442
v 2.293869 0.611246 0.890165
v 2.027641 0.540304 0.754442
v 1.481738 1.485837 0.754442
v 1.676289 1.680926 0.890165
v 1.824516 0.486178 0.504442
v 1.714241 0.456793 0.176777
v 1.252715 1.256180 0.176777
v 1.333300 1.336988 0.504442
v 1.714241 0.456793 -0.176777
v 1.824516 0.486178 -0.504442
v 1.333300 1.336988 -0.504442
v 1.252715 1.256180 -0.176777
v 2.027641 0.540304 -0.754442
v 2.293869 0.611246 -0.890165
v 1.676289 1.680926 -0.890165
v 1.481738 1.485837 -0.754442
v 2.581131 0.687792 -0.890165
v 2.847359 0.758734 -0.754442
v 2.080762 2.086518 -0.754442
v 1.886211 1.891429 -0.890165
v 3.050484 0.812860 -0.504442
v 3.160759 0.842245 -0.176777
v 2.309785 2.316175 -0.176777
v 2.229200 2.235366 -0.504442
v 0.850974 3.158420 0.176777
v 0.821284 3.048227 0.504442
v -0.821284 3.048227 0.504442
v -0.850974 3.158420 0.176777
v 0.766597 2.845252 0.754442
v 0.694920 2.579221 0.890165
v -0.694920 2.579221 0.890165
v -0.766597 2.845252 0.754442
v 0.617580 2.292172 0.890165
v 0.545903 2.026141 0.754442
v -0.545903 2.026141 0.754442
v -0.617580 2.292172 0.890165
v 0.491216 1.823166 0.504442
v 0.461526 1.712973 0.176777
v -0.461526 1.712973 0.176777
v -0.491216 1.823166 0.504442
v 0.461526 1.712973 -0.176777
v 0.491216 1.823166 -0.504442
v -0.491216 1.823166 -0.504442
v -0.461526 1.712973 -0.176777
v 0.545903 2.026141 -0.754442
v 0.617580 2.292172 -0.890165
v -0.617580 2.292172 -0.890165
v -0.545903 2.026141 -0.754442
v 0.694920 2.579221 -0.890165
v 0.766597 2.845252 -0.754442
v -0.766597 2.845252 -0.754442
v -0.694920 2.579221 -0.890165
v 0.821284 3.048227 -0.504442
v 0.850974 3.158420 -0.176777
v -0.850974 3.158420 -0.176777
v -0.821284 3.048227 -0.504442
v -2.309785 2.316175 0.176777
v -2.229200 2.235366 0.504442
v -3.050484 0.812860 0.504442
v -3.160759 0.842245 0.176777
v -2.080762 2.086518 0.754442
v -1.886211 1.891429 0.890165
v -2.581131 0.687792 0.890165
v -2.847359 0.758734 0.754442
v -1.676289 1.680926 0.890165
v -1.481738 1.485837 0.754442
v -2.027641 0.540304 0.754442
v -2.293869 0.611246 0.890165
v -1.333300 1.336988 0.504442
v -1.252715 1.256180 0.176777
v -1.714241 0.456793 0.176777
v -1.824516 0.486178 0.504442
v -1.252715 1.256180 -0.176777
v -1.333300 1.336988 -0.504442
v -1.824516 0.486178 -0.504442
v -1.714241 0.456793 -0.176777
v -1.481738 1.485837 -0.754442
v -1.676289 1.680926 -0.890165
v -2.293869 0.611246 -0.890165
v -2.027641 0.540304 -0.754442
v -1.886211 1.891429 -0.890165
v -2.080762 2.086518 -0.754442
v -2.847359 0.758734 -0.754442
v -2.581131 0.687792 -0.890165
v -2.229200 2.235366 -0.504442
v -2.309785 2.316175 -0.176777
v -3.160759 0.842245 -0.176777
v -3.050484 0.812860 -0.504442
v -3.160759 -0.842245 0.176777
v -3.050484 -0.812860 0.504442
v -2.229200 -2.235366 0.504442
v -2.309785 -2.316175 0.176777
v -2.847359 -0.758734 0.754442
v -2.581131 -0.687792 0.890165
v -1.886211 -1.891429 0.890165
v -2.080762 -2.086518 0.754442
v -2.293869 -0.611246 0.890165
v -2.027641 -0.540304 0.754442
v -1.481738 -1.485837 0.754442
v -1.676289 -1.680926 0.890165
v -1.824516 -0.486178 0.504442
v -1.714241 -0.456793 0.176777
v -1.252715 -1.256180 0.176777
v -1.333300 -1.336988 0.504442
v -1.714241 -0.456793 -0.176777
v -1.824516 -0.486178 -0.504442
v -1.333300 -1.336988 -0.504442
v -1.252715 -1.256180 -0.176777
v -2.027641 -0.540304 -0.754442
v -2.293869 -0.611246 -0.890165
v -1.676289 -1.680926 -0.890165
v -1.481738 -1.485837 -0.754442
v -2.581131 -0.687792 -0.890165
v -2.847359 -0.758734 -0.754442
v -2.080762 -2.086518 -0.754442
v -1.886211 -1.891429 -0.890165
v -3.050484 -0.812860 -0.504442
v -3.160759 -0.842245 -0.176777
v -2.309785 -2.316175 -0.176777
v -2.229200 -2.235366 -0.504442
v -0.850974 -3.158420 0.176777
v -0.821284 -3.048227 0.504442
v 0.821284 -3.048227 0.504442
v 0.850974 -3.158420 0.176777
v -0.766597 -2.845252 0.754442
v -0.694920 -2.579221 0.890165
v 0.694920 -2.579221 0.890165
v 0.766597 -2.845252 0.754442
v -0.617580 -2.292172 0.890165
v -0.545903 -2.026141 0.754442
v 0.545903 -2.026141 0.754442
v 0.617580 -2.292172 0.890165
v -0.491216 -1.823166 0.504442
v -0.461526 -1.712973 0.176777
v 0.461526 -1.712973 0.176777
v 0.491216 -1.823166 0.504442
v -0.461526 -1.712973 -0.176777
v -0.491216 -1.823166 -0.504442
v 0.491216 -1.823166 -0.504442
v 0.461526 -1.712973 -0.176777
v -0.545903 -2.026141 -0.754442
v -0.617580 -2.292172 -0.890165
v 0.617580 -2.292172 -0.890165
v 0.545903 -2.026141 -0.754442
v -0.694920 -2.579221 -0.890165
v -0.766597 -2.845252 -0.754442
v 0.766597 -2.845252 -0.754442
v 0.694920 -2.579221 -0.890165
v -0.821284 -3.048227 -0.504442
v -0.850974 -3.158420 -0.176777
v 0.850974 -3.158420 -0.176777
v 0.821284 -3.048227 -0.504442
v 2.309785 -2.316175 0.176777
v 2.229200 -2.235366 0.504442
v 3.050484 -0.812860 0.504442
v 3.160759 -0.842245 0.176777
v 2.080762 -2.086518 0.754442
v 1.886211 -1.891429 0.890165
v 2.581131 -0.687792 0.890165
v 2.847359 -0.758734 0.754442
v 1.676289 -1.680926 0.890165
v 1.481738 -1.485837 0.754442
v 2.027641 -0.540304 0.754442
v 2.293869 -0.611246 0.890165
v 1.333300 -1.336988 0.504442
v 1.252715 -1.256180 0.176777
v 1.714241 -0.456793 0.176777
v 1.824516 -0.486178 0.504442
v 1.252715 -1.256180 -0.176777
v 1.333300 -1.336988 -0.504442
v 1.824516 -0.486178 -0.504442
v 1.714241 -0.456793 -0.176777
v 1.481738 -1.485837 -0.754442
v 1.676289 -1.680926 -0.890165
v 2.293869 -0.611246 -0.890165
v 2.027641 -0.540304 -0.754442
v 1.886211 -1.891429 -0.890165
v 2.080762 -2.086518 -0.754442
v 2.847359 -0.758734 -0.754442
v 2.581131 -0.687792 -0.890165
v 2.229200 -2.235366 -0.504442
v 2.309785 -2.316175 -0.176777
v 3.160759 -0.842245 -0.176777
v 3.050484 -0.812860 -0.504442
f 1 193 577 196
f 49 194 577 193
f 145 195 577 194
f 52 196 577 195
f 2 197 578 199
f 50 198 578 197
f 145 194 578 198
f 49 199 578 194
f 10 200 579 202
f 51 201 579 200
f 145 198 579 201
f 50 202 579 198
f 9 203 580 204
f 52 195 580 203
f 145 201 580 195
f 51 204 580 201
f 2 205 581 197
f 53 206 581 205
f 146 207 581 206
f 50 197 581 207
f 3 208 582 210
f 54 209 582 208
f 146 206 582 209
f 53 210 582 206
f 11 211 583 213
f 55 212 583 211
f 146 209 583 212
f 54 213 583 209
f 10 202 584 214
f 50 207 584 202
f 146 212 584 207
f 55 214 584 212
f 3 215 585 208
f 56 216 585 215
f 147 217 585 216
f 54 208 585 217
f 4 218 586 220
f 57 219 586 218
f 147 216 586 219
f 56 220 586 216
f 12 221 587 223
f 58 222 587 221
f 147 219 587 222
f 57 223 587 219
f 11 213 588 224
f 54 217 588 213
f 147 222 588 217
f 58 224 588 222
f 4 225 589 218
f 59 226 589 225
f 148 227 589 226
f 57 218 589 227
f 5 228 590 230
f 60 229 590 228
f 148 226 590 229
f 59 230 590 226
f 13 231 591 233
f 61 232 591 231
f 148 229 591 232
f 60 233 591 229
f 12 223 592 234
f 57 227 592 223
f 148 232 592 227
f 61 234 592 232
f 5 235 593 228
f 62 236 593 235
f 149 237 593 236
f 60 228 593 237
f 6 238 594 240
f 63 239 594 238
f 149 236 594 239
f 62 240 594 236
f 14 241 595 243
f 64 242 595 241
f 149 239 595 242
f 63 243 595 239
f 13 233 596 244
f 60 237 596 233
f 149 242 596 237
f 64 244 596 242
f 6 245 597 238
f 65 246 597 245
f 150 247 597 246
f 63 238 597 247
f 7 248 598 250
f 66 249 598 248
f 150 246 598 249
f 65 250 598 246
f 15 251 599 253
f 67 252 599 251
f 150 249 599 252
f 66 253 599 249
f 14 243 600 254
f 63 247 600 243
f 150 252 600 247
f 67 254 600 252
f 7 255 601 248
f 68 256 601 255
f 151 257 601 256
f 66 248 601 257
f 8 258 602 260
f 69 259 602 258
f 151 256 602 259
f 68 260 602 256
f 16 261 603 263
f 70 262 603 261
f 151 259 603 262
f 69 263 603 259
f 15 253 604 264
f 66 257 604 253
f 151 262 604 257
f 70 264 604 262
f 8 265 605 258
f 71 266 605 265
f 152 267 605 266
f 69 258 605 267
f 1 196 606 269
f 52 268 606 196
f 152 266 606 268
f 71 269 606 266
f 9 270 607 203
f 72 271 607 270
f 152 268 607 271
f 52 203 607 268
f 16 263 608 272
f 69 267 608 263
f 152 271 608 267
f 72 272 608 271
f 9 204 609 275
f 51 273 609 204
f 153 274 609 273
f 75 275 609 274
f 10 276 610 200
f 73 277 610 276
f 153 273 610 277
f 51 200 610 273
f 18 278 611 280
f 74 279 611 278
f 153 277 611 279
f 73 280 611 277
f 17 281 612 282
f 75 274 612 281
f 153 279 612 274
f 74 282 612 279
f 10 214 613 276
f 55 283 613 214
f 154 284 613 283
f 73 276 613 284
f 11 285 614 211
f 76 286 614 285
f 154 283 614 286
f 55 211 614 283
f 19 287 615 289
f 77 288 615 287
f 154 286 615 288
f 76 289 615 286
f 18 280 616 290
f 73 284 616 280
f 154 288 616 284
f 77 290 616 288
f 11 224 617 285
f 58 291 617 224
f 155 292 617 291
f 76 285 617 292
f 12 293 618 221
f 78 294 618 293
f 155 291 618 294
f 58 221 618 291
f 20 295 619 297
f 79 296 619 295
f 155 294 619 296
f 78 297 619 294
f 19 289 620 298
f 76 292 620 289
f 155 296 620 292
f 79 298 620 296
f 12 234 621 293
f 61 299 621 234
f 156 300 621 299
f 78 293 621 300
f 13 301 622 231
f 80 302 622 301
f 156 299 622 302
f 61 231 622 299
f 21 303 623 305
f 81 304 623 303
f 156 302 623 304
f 80 305 623 302
f 20 297 624 306
f 78 300 624 297
f 156 304 624 300
f 81 306 624 304
f 13 244 625 301
f 64 307 625 244
f 157 308 625 307
f 80 301 625 308
f 14 309 626 241
f 82 310 626 309
f 157 307 626 310
f 64 241 626 307
f 22 311 627 313
f 83 312 627 311
f 157 310 627 312
f 82 313 627 310
f 21 305 628 314
f 80 308 628 305
f 157 312 628 308
f 83 314 628 312
f 14 254 629 309
f 67 315 629 254
f 158 316 629 315
f 82 309 629 316
f 15 317 630 251
f 84 318 630 317
f 158 315 630 318
f 67 251 630 315
f 23 319 631 321
f 85 320 631 319
f 158 318 631 320
f 84 321 631 318
f 22 313 632 322
f 82 316 632 313
f 158 320 632 316
f 85 322 632 320
f 15 264 633 317
f 70 323 633 264
f 159 324 633 323
f 84 317 633 324
f 16 325 634 261
f 86 326 634 325
f 159 323 634 326
f 70 261 634 323
f 24 327 635 329
f 87 328 635 327
f 159 326 635 328
f 86 329 635 326
f 23 321 636 330
f 84 324 636 321
f 159 328 636 324
f 87 330 636 328
f 16 272 637 325
f 72 331 637 272
f 160 332 637 331
f 86 325 637 332
f 9 275 638 270
f 75 333 638 275
f 160 331 638 333
f 72 270 638 331
f 17 334 639 281
f 88 335 639 334
f 160 333 639 335
f 75 281 639 333
f 24 329 640 336
f 86 332 640 329
f 160 335 640 332
f 88 336 640 335
f 17 282 641 339
f 74 337 641 282
f 161 338 641 337
f 91 339 641 338
f 18 340 642 278
f 89 341 642 340
f 161 337 642 341
f 74 278 642 337
f 26 342 643 344
f 90 343 643 342
f 161 341 643 343
f 89 344 643 341
f 25 345 644 346
f 91 338 644 345
f 161 343 644 338
f 90 346 644 343
f 18 290 645 340
f 77 347 645 290
f 162 348 645 347
f 89 340 645 348
f 19 349 646 287
f 92 350 646 349
f 162 347 646 350
f 77 287 646 347
f 27 351 647 353
f 93 352 647 351
f 162 350 647 352
f 92 353 647 350
f 26 344 648 354
f 89 348 648 344
f 162 352 648 348
f 93 354 648 352
f 19 298 649 349
f 79 355 649 298
f 163 356 649 355
f 92 349 649 356
f 20 357 650 295
f 94 358 650 357
f 163 355 650 358
f 79 295 650 355
f 28 359 651 361
f 95 360 651 359
f 163 358 651 360
f 94 361 651 358
f 27 353 652 362
f 92 356 652 353
f 163 360 652 356
f 95 362 652 360
f 20 306 653 357
f 81 363 653 306
f 164 364 653 363
f 94 357 653 364
f 21 365 654 303
f 96 366 654 365
f 164 363 654 366
f 81 303 654 363
f 29 367 655 369
f 97 368 655 367
f 164 366 655 368
f 96 369 655 366
f 28 361 656 370
f 94 364 656 361
f 164 368 656 364
f 97 370 656 368
f 21 314 657 365
f 83 371 657 314
f 165 372 657 371
f 96 365 657 372
f 22 373 658 311
f 98 374 658 373
f 165 371 658 374
f 83 311 658 371
f 30 375 659 377
f 99 376 659 375
f 165 374 659 376
f 98 377 659 374
f 29 369 660 378
f 96 372 660 369
f 165 376 660 372
f 99 378 660 376
f 22 322 661 373
f 85 379 661 322
f 166 380 661 379
f 98 373 661 380
f 23 381 662 319
f 100 382 662 381
f 166 379 662 382
f 85 319 662 379
f 31 383 663 385
f 101 384 663 383
f 166 382 663 384
f 100 385 663 382
f 30 377 664 386
f 98 380 664 377
f 166 384 664 380
f 101 386 664 384
f 23 330 665 381
f 87 387 665 330
f 167 388 665 387
f 100 381 665 388
f 24 389 666 327
f 102 390 666 389
f 167 387 666 390
f 87 327 666 387
f 32 391 667 393
f 103 392 667 391
f 167 390 667 392
f 102 393 667 390
f 31 385 668 394
f 100 388 668 385
f 167 392 668 388
f 103 394 668 392
f 24 336 669 389
f 88 395 669 336
f 168 396 669 395
f 102 389 669 396
f 17 339 670 334
f 91 397 670 339
f 168 395 670 397
f 88 334 670 395
f 25 398 671 345
f 104 399 671 398
f 168 397 671 399
f 91 345 671 397
f 32 393 672 400
f 102 396 672 393
f 168 399 672 396
f 104 400 672 399
f 25 346 673 403
f 90 401 673 346
f 169 402 673 401
f 107 403 673 402
f 26 404 674 342
f 105 405 674 404
f 169 401 674 405
f 90 342 674 401
f 34 406 675 408
f 106 407 675 406
f 169 405 675 407
f 105 408 675 405
f 33 409 676 410
f 107 402 676 409
f 169 407 676 402
f 106 410 676 407
f 26 354 677 404
f 93 411 677 354
f 170 412 677 411
f 105 404 677 412
f 27 413 678 351
f 108 414 678 413
f 170 411 678 414
f 93 351 678 411
f 35 415 679 417
f 109 416 679 415
f 170 414 679 416
f 108 417 679 414
f 34 408 680 418
f 105 412 680 408
f 170 416 680 412
f 109 418 680 416
f 27 362 681 413
f 95 419 681 362
f 171 420 681 419
f 108 413 681 420
f 28 421 682 359
f 110 422 682 421
f 171 419 682 422
f 95 359 682 419
f 36 423 683 425
f 111 424 683 423
f 171 422 683 424
f 110 425 683 422
f 35 417 684 426
f 108 420 684 417
f 171 424 684 420
f 111 426 684 424
f 28 370 685 421
f 97 427 685 370
f 172 428 685 427
f 110 421 685 428
f 29 429 686 367
f 112 430 686 429
f 172 427 686 430
f 97 367 686 427
f 37 431 687 433
f 113 432 687 431
f 172 430 687 432
f 112 433 687 430
f 36 425 688 434
f 110 428 688 425
f 172 432 688 428
f 113 434 688 432
f 29 378 689 429
f 99 435 689 378
f 173 436 689 435
f 112 429 689 436
f 30 437 690 375
f 114 438 690 437
f 173 435 690 438
f 99 375 690 435
f 38 439 691 441
f 115 440 691 439
f 173 438 691 440
f 114 441 691 438
f 37 433 692 442
f 112 436 692 433
f 173 440 692 436
f 115 442 692 440
f 30 386 693 437
f 101 443 693 386
f 174 444 693 443
f 114 437 693 444
f 31 445 694 383
f 116 446 694 445
f 174 443 694 446
f 101 383 694 443
f 39 447 695 449
f 117 448 695 447
f 174 446 695 448
f 116 449 695 446
f 38 441 696 450
f 114 444 696 441
f 174 448 696 444
f 117 450 696 448
f 31 394 697 445
f 103 451 697 394
f 175 452 697 451
f 116 445 697 452
f 32 453 698 391
f 118 454 698 453
f 175 451 698 454
f 103 391 698 451
f 40 455 699 457
f 119 456 699 455
f 175 454 699 456
f 118 457 699 454
f 39 449 700 458
f 116 452 700 449
f 175 456 700 452
f 119 458 700 456
f 32 400 701 453
f 104 459 701 400
f 176 460 701 459
f 118 453 701 460
f 25 403 702 398
f 107 461 702 403
f 176 459 702 461
f 104 398 702 459
f 33 462 703 409
f 120 463 703 462
f 176 461 703 463
f 107 409 703 461
f 40 457 704 464
f 118 460 704 457
f 176 463 704 460
f 120 464 704 463
f 33 410 705 467
f 106 465 705 410
f 177 466 705 465
f 123 467 705 466
f 34 468 706 406
f 121 469 706 468
f 177 465 706 469
f 106 406 706 465
f 42 470 707 472
f 122 471 707 470
f 177 469 707 471
f 121 472 707 469
f 41 473 708 474
f 123 466 708 473
f 177 471 708 466
f 122 474 708 471
f 34 418 709 468
f 109 475 709 418
f 178 476 709 475
f 121 468 709 476
f 35 477 710 415
f 124 478 710 477
f 178 475 710 478
f 109 415 710 475
f 43 479 711 481
f 125 480 711 479
f 178 478 711 480
f 124 481 711 478
f 42 472 712 482
f 121 476 712 472
f 178 480 712 476
f 125 482 712 480
f 35 426 713 477
f 111 483 713 426
f 179 484 713 483
f 124 477 713 484
f 36 485 714 423
f 126 486 714 485
f 179 483 714 486
f 111 423 714 483
f 44 487 715 489
f 127 488 715 487
f 179 486 715 488
f 126 489 715 486
f 43 481 716 490
f 124 484 716 481
f 179 488 716 484
f 127 490 716 488
f 36 434 717 485
f 113 491 717 434
f 180 492 717 491
f 126 485 717 492
f 37 493 718 431
f 128 494 718 493
f 180 491 718 494
f 113 431 718 491
f 45 495 719 497
f 129 496 719 495
f 180 494 719 496
f 128 497 719 494
f 44 489 720 498
f 126 492 720 489
f 180 496 720 492
f 129 498 720 496
f 37 442 721 493
f 115 499 721 442
f 181 500 721 499
f 128 493 721 500
f 38 501 722 439
f 130 502 722 501
f 181 499 722 502
f 115 439 722 499
f 46 503 723 505
f 131 504 723 503
f 181 502 723 504
f 130 505 723 502
f 45 497 724 506
f 128 500 724 497
f 181 504 724 500
f 131 506 724 504
f 38 450 725 501
f 117 507 725 450
f 182 508 725 507
f 130 501 725 508
f 39 509 726 447
f 132 510 726 509
f 182 507 726 510
f 117 447 726 507
f 47 511 727 513
f 133 512 727 511
f 182 510 727 512
f 132 513 727 510
f 46 505 728 514
f 130 508 728 505
f 182 512 728 508
f 133 514 728 512
f 39 458 729 509
f 119 515 729 458
f 183 516 729 515
f 132 509 729 516
f 40 517 730 455
f 134 518 730 517
f 183 515 730 518
f 119 455 730 515
f 48 519 731 521
f 135 520 731 519
f 183 518 731 520
f 134 521 731 518
f 47 513 732 522
f 132 516 732 513
f 183 520 732 516
f 135 522 732 520
f 40 464 733 517
f 120 523 733 464
f 184 524 733 523
f 134 517 733 524
f 33 467 734 462
f 123 525 734 467
f 184 523 734 525
f 120 462 734 523
f 41 526 735 473
f 136 527 735 526
f 184 525 735 527
f 123 473 735 525
f 48 521 736 528
f 134 524 736 521
f 184 527 736 524
f 136 528 736 527
f 41 474 737 531
f 122 529 737 474
f 185 530 737 529
f 138 531 737 530
f 42 532 738 470
f 137 533 738 532
f 185 529 738 533
f 122 470 738 529
f 2 199 739 535
f 49 534 739 199
f 185 533 739 534
f 137 535 739 533
f 1 536 740 193
f 138 530 740 536
f 185 534 740 530
f 49 193 740 534
f 42 482 741 532
f 125 537 741 482
f 186 538 741 537
f 137 532 741 538
f 43 539 742 479
f 139 540 742 539
f 186 537 742 540
f 125 479 742 537
f 3 210 743 542
f 53 541 743 210
f 186 540 743 541
f 139 542 743 540
f 2 535 744 205
f 137 538 744 535
f 186 541 744 538
f 53 205 744 541
f 43 490 745 539
f 127 543 745 490
f 187 544 745 543
f 139 539 745 544
f 44 545 746 487
f 140 546 746 545
f 187 543 746 546
f 127 487 746 543
f 4 220 747 548
f 56 547 747 220
f 187 546 747 547
f 140 548 747 546
f 3 542 748 215
f 139 544 748 542
f 187 547 748 544
f 56 215 748 547
f 44 498 749 545
f 129 549 749 498
f 188 550 749 549
f 140 545 749 550
f 45 551 750 495
f 141 552 750 551
f 188 549 750 552
f 129 495 750 549
f 5 230 751 554
f 59 553 751 230
f 188 552 751 553
f 141 554 751 552
f 4 548 752 225
f 140 550 752 548
f 188 553 752 550
f 59 225 752 553
f 45 506 753 551
f 131 555 753 506
f 189 556 753 555
f 141 551 753 556
f 46 557 754 503
f 142 558 754 557
f 189 555 754 558
f 131 503 754 555
f 6 240 755 560
f 62 559 755 240
f 189 558 755 559
f 142 560 755 558
f 5 554 756 235
f 141 556 756 554
f 189 559 756 556
f 62 235 756 559
f 46 514 757 557
f 133 561 757 514
f 190 562 757 561
f 142 557 757 562
f 47 563 758 511
f 143 564 758 563
f 190 561 758 564
f 133 511 758 561
f 7 250 759 566
f 65 565 759 250
f 190 564 759 565
f 143 566 759 564
f 6 560 760 245
f 142 562 760 560
f 190 565 760 562
f 65 245 760 565
f 47 522 761 563
f 135 567 761 522
f 191 568 761 567
f 143 563 761 568
f 48 569 762 519
f 144 570 762 569
f 191 567 762 570
f 135 519 762 567
f 8 260 763 572
f 68 571 763 260
f 191 570 763 571
f 144 572 763 570
f 7 566 764 255
f 143 568 764 566
f 191 571 764 568
f 68 255 764 571
f 48 528 765 569
f 136 573 765 528
f 192 574 765 573
f 144 569 765 574
f 41 531 766 526
f 138 575 766 531
f 192 573 766 575
f 136 526 766 573
f 1 269 767 536
f 71 576 767 269
f 192 575 767 576
f 138 536 767 575
f 8 572 768 265
f 144 574 768 572
f 192 576 768 574
f 71 265 768 576
