v -0.509259 -0.509259 -0.509259
v 0.509259 -0.509259 -0.509259
v 0.509259 0.509259 -0.509259
v -0.509259 0.509259 -0.509259
v -0.509259 -0.509259 0.509259
v 0.509259 -0.509259 0.509259
v 0.509259 0.509259 0.509259
v -0.509259 0.509259 0.509259
v 0.000000 -0.643229 -0.643229
v 0.643229 0.000000 -0.643229
v 0.000000 0.643229 -0.643229
v -0.643229 0.000000 -0.643229
v 0.000000 0.643229 0.643229
v 0.643229 0.000000 0.643229
v 0.000000 -0.643229 0.643229
v -0.643229 0.000000 0.643229
v -0.643229 -0.643229 0.000000
v 0.643229 -0.643229 0.000000
v 0.643229 0.643229 0.000000
v -0.643229 0.643229 0.000000
v 0.000000 0.000000 -0.878472
v 0.000000 0.000000 0.878472
v 0.000000 -0.878472 0.000000
v 0.000000 0.878472 0.000000
v -0.878472 0.000000 0.000000
v 0.878472 0.000000 0.000000
v -0.302083 -0.598958 -0.598958
v 0.000000 -0.350694 -0.819444
v -0.350694 0.000000 -0.819444
v -0.598958 -0.302083 -0.598958
v 0.598958 -0.302083 -0.598958
v 0.350694 0.000000 -0.819444
v 0.302083 -0.598958 -0.598958
v 0.302083 0.598958 -0.598958
v 0.000000 0.350694 -0.819444
v 0.598958 0.302083 -0.598958
v -0.598958 0.302083 -0.598958
v -0.302083 0.598958 -0.598958
v -0.302083 0.598958 0.598958
v 0.000000 0.350694 0.819444
v -0.350694 0.000000 0.819444
v -0.598958 0.302083 0.598958
v 0.598958 0.302083 0.598958
v 0.350694 0.000000 0.819444
v 0.302083 0.598958 0.598958
v 0.302083 -0.598958 0.598958
v 0.000000 -0.350694 0.819444
v 0.598958 -0.302083 0.598958
v -0.598958 -0.302083 0.598958
v -0.302083 -0.598958 0.598958
v -0.598958 -0.598958 -0.302083
v -0.350694 -0.819444 0.000000
v 0.000000 -0.819444 -0.350694
v 0.000000 -0.819444 0.350694
v -0.598958 -0.598958 0.302083
v 0.598958 -0.598958 0.302083
v 0.350694 -0.819444 0.000000
v 0.598958 -0.598958 -0.302083
v 0.000000 0.819444 -0.350694
v -0.350694 0.819444 0.000000
v -0.598958 0.598958 -0.302083
v 0.598958 0.598958 -0.302083
v 0.350694 0.819444 0.000000
v 0.000000 0.819444 0.350694
v 0.598958 0.598958 0.302083
v -0.598958 0.598958 0.302083
v -0.819444 0.000000 -0.350694
v -0.819444 -0.350694 0.000000
v -0.819444 0.350694 0.000000
v -0.819444 0.000000 0.350694
v 0.819444 -0.350694 0.000000
v 0.819444 0.000000 -0.350694
v 0.819444 0.000000 0.350694
v 0.819444 0.350694 0.000000
v -0.326389 -0.326389 -0.763889
v 0.326389 -0.326389 -0.763889
v 0.326389 0.326389 -0.763889
v -0.326389 0.326389 -0.763889
v -0.326389 0.326389 0.763889
v 0.326389 0.326389 0.763889
v 0.326389 -0.326389 0.763889
v -0.326389 -0.326389 0.763889
v -0.326389 -0.763889 -0.326389
v -0.326389 -0.763889 0.326389
v 0.326389 -0.763889 0.326389
v 0.326389 -0.763889 -0.326389
v -0.326389 0.763889 -0.326389
v 0.326389 0.763889 -0.326389
v 0.326389 0.763889 0.326389
v -0.326389 0.763889 0.326389
v -0.763889 -0.326389 -0.326389
v -0.763889 0.326389 -0.326389
v -0.763889 0.326389 0.326389
v -0.763889 -0.326389 0.326389
v 0.763889 -0.326389 -0.326389
v 0.763889 -0.326389 0.326389
v 0.763889 0.326389 0.326389
v 0.763889 0.326389 -0.326389
f 1 27 75 30
f 9 28 75 27
f 21 29 75 28
f 12 30 75 29
f 2 31 76 33
f 10 32 76 31
f 21 28 76 32
f 9 33 76 28
f 3 34 77 36
f 11 35 77 34
f 21 32 77 35
f 10 36 77 32
f 4 37 78 38
f 12 29 78 37
f 21 35 78 29
f 11 38 78 35
f 8 39 79 42
f 13 40 79 39
f 22 41 79 40
f 16 42 79 41
f 7 43 80 45
f 14 44 80 43
f 22 40 80 44
f 13 45 80 40
f 6 46 81 48
f 15 47 81 46
f 22 44 81 47
f 14 48 81 44
f 5 49 82 50
f 16 41 82 49
f 22 47 82 41
f 15 50 82 47
f 1 51 83 27
f 17 52 83 51
f 23 53 83 52
f 9 27 83 53
f 5 50 84 55
f 15 54 84 50
f 23 52 84 54
f 17 55 84 52
f 6 56 85 46
f 18 57 85 56
f 23 54 85 57
f 15 46 85 54
f 2 33 86 58
f 9 53 86 33
f 23 57 86 53
f 18 58 86 57
f 4 38 87 61
f 11 59 87 38
f 24 60 87 59
f 20 61 87 60
f 3 62 88 34
f 19 63 88 62
f 24 59 88 63
f 11 34 88 59
f 7 45 89 65
f 13 64 89 45
f 24 63 89 64
f 19 65 89 63
f 8 66 90 39
f 20 60 90 66
f 24 64 90 60
f 13 39 90 64
f 1 30 91 51
f 12 67 91 30
f 25 68 91 67
f 17 51 91 68
f 4 61 92 37
f 20 69 92 61
f 25 67 92 69
f 12 37 92 67
f 8 42 93 66
f 16 70 93 42
f 25 69 93 70
f 20 66 93 69
f 5 55 94 49
f 17 68 94 55
f 25 70 94 68
f 16 49 94 70
f 2 58 95 31
f 18 71 95 58
f 26 72 95 71
f 10 31 95 72
f 6 48 96 56
f 14 73 96 48
f 26 71 96 73
f 18 56 96 71
f 7 65 97 43
f 19 74 97 65
f 26 73 97 74
f 14 43 97 73
f 3 36 98 62
f 10 72 98 36
f 26 74 98 72
f 19 62 98 74
