ISO-10303-21;
HEADER;
FILE_DESCRIPTION(('ViewDefinition [CoordinationView]'),'2;1');
FILE_NAME('','2026-05-15T11:48:21',(''),(''),'IfcOpenShell 0.8.5-1c5b825','IfcOpenShell 0.8.5-1c5b825','');
FILE_SCHEMA(('IFC4'));
ENDSEC;
DATA;
#1=IFCPROJECT('1XpgnLTpf7JgqGaiRf0CDF',$,'Unnamed Project',$,$,$,$,(#11),#6);
#2=IFCSIUNIT(*,.LENGTHUNIT.,.MILLI.,.METRE.);
#3=IFCSIUNIT(*,.AREAUNIT.,$,.SQUARE_METRE.);
#4=IFCSIUNIT(*,.VOLUMEUNIT.,$,.CUBIC_METRE.);
#5=IFCSIUNIT(*,.PLANEANGLEUNIT.,$,.RADIAN.);
#6=IFCUNITASSIGNMENT((#3,#5,#4,#2));
#7=IFCCARTESIANPOINT((0.,0.,0.));
#8=IFCDIRECTION((0.,0.,1.));
#9=IFCDIRECTION((1.,0.,0.));
#10=IFCAXIS2PLACEMENT3D(#7,#8,#9);
#11=IFCGEOMETRICREPRESENTATIONCONTEXT($,'Model',3,1.0000000000000001E-05,#10,$);
#12=IFCGEOMETRICREPRESENTATIONSUBCONTEXT('Body','Model',*,*,*,*,#11,$,.MODEL_VIEW.,$);
#13=IFCSITE('2erSfvS4vFGAn85W49bp2O',$,'Site',$,$,$,$,$,$,$,$,$,$,$);
#14=IFCRELAGGREGATES('0mwg0h4ZbFvOF5ojw27MDr',$,$,$,#1,(#13));
#15=IFCBUILDING('1DeF76tGv3Jflr_XyQQ4o7',$,'Building',$,$,$,$,$,$,$,$,$);
#16=IFCRELAGGREGATES('3W1TaPhUP5dAbo4TiY8quK',$,$,$,#13,(#15));
#17=IFCBUILDINGSTOREY('239OVequj4Re35RNO42Xwp',$,'Storey',$,$,#28,$,$,$,0.);
#23=IFCRELAGGREGATES('2$_oHizvn4YB4LiaHbfZ9j',$,$,$,#15,(#17));
#24=IFCCARTESIANPOINT((0.,0.,0.));
#25=IFCDIRECTION((0.,0.,1.));
#26=IFCDIRECTION((1.,0.,0.));
#27=IFCAXIS2PLACEMENT3D(#24,#25,#26);
#28=IFCLOCALPLACEMENT($,#27);
#29=IFCCARTESIANPOINT((-100.,797.81799999999998));
#30=IFCCARTESIANPOINT((-96.670000000000002,721.55200000000002));
#31=IFCCARTESIANPOINT((-86.421000000000006,643.70000000000005));
#32=IFCCARTESIANPOINT((-69.424999999999997,567.03800000000001));
#33=IFCCARTESIANPOINT((-45.813000000000002,492.149));
#34=IFCCARTESIANPOINT((-15.763,419.60300000000001));
#35=IFCCARTESIANPOINT((20.495000000000001,349.952));
#36=IFCCARTESIANPOINT((62.685000000000002,283.72699999999998));
#37=IFCCARTESIANPOINT((110.48699999999999,221.43000000000001));
#38=IFCCARTESIANPOINT((163.53700000000001,163.53700000000001));
#39=IFCCARTESIANPOINT((221.43000000000001,110.48699999999999));
#40=IFCCARTESIANPOINT((283.72699999999998,62.685000000000002));
#41=IFCCARTESIANPOINT((349.952,20.495000000000001));
#42=IFCCARTESIANPOINT((419.60300000000001,-15.763));
#43=IFCCARTESIANPOINT((492.149,-45.813000000000002));
#44=IFCCARTESIANPOINT((567.03800000000001,-69.424999999999997));
#45=IFCCARTESIANPOINT((643.70000000000005,-86.421000000000006));
#46=IFCCARTESIANPOINT((721.55200000000002,-96.670000000000002));
#47=IFCCARTESIANPOINT((797.81799999999998,-100.));
#48=IFCCARTESIANPOINT((3202.1819999999998,-100.));
#49=IFCCARTESIANPOINT((3278.4479999999999,-96.670000000000002));
#50=IFCCARTESIANPOINT((3356.3000000000002,-86.421000000000006));
#51=IFCCARTESIANPOINT((3432.962,-69.424999999999997));
#52=IFCCARTESIANPOINT((3507.8510000000001,-45.813000000000002));
#53=IFCCARTESIANPOINT((3580.3969999999999,-15.763));
#54=IFCCARTESIANPOINT((3650.0479999999998,20.495000000000001));
#55=IFCCARTESIANPOINT((3716.2730000000001,62.685000000000002));
#56=IFCCARTESIANPOINT((3778.5700000000002,110.48699999999999));
#57=IFCCARTESIANPOINT((3836.4630000000002,163.53700000000001));
#58=IFCCARTESIANPOINT((3889.5129999999999,221.43000000000001));
#59=IFCCARTESIANPOINT((3937.3150000000001,283.72699999999998));
#60=IFCCARTESIANPOINT((3979.5050000000001,349.952));
#61=IFCCARTESIANPOINT((4015.7629999999999,419.60300000000001));
#62=IFCCARTESIANPOINT((4045.8130000000001,492.149));
#63=IFCCARTESIANPOINT((4069.4250000000002,567.03800000000001));
#64=IFCCARTESIANPOINT((4086.4209999999998,643.70000000000005));
#65=IFCCARTESIANPOINT((4096.6700000000001,721.55200000000002));
#66=IFCCARTESIANPOINT((4100.,797.81799999999998));
#67=IFCCARTESIANPOINT((4100.,2202.1819999999998));
#68=IFCCARTESIANPOINT((4096.6700000000001,2278.4479999999999));
#69=IFCCARTESIANPOINT((4086.4209999999998,2356.3000000000002));
#70=IFCCARTESIANPOINT((4069.4250000000002,2432.962));
#71=IFCCARTESIANPOINT((4045.8130000000001,2507.8510000000001));
#72=IFCCARTESIANPOINT((4015.7629999999999,2580.3969999999999));
#73=IFCCARTESIANPOINT((3979.5050000000001,2650.0479999999998));
#74=IFCCARTESIANPOINT((3937.3150000000001,2716.2730000000001));
#75=IFCCARTESIANPOINT((3889.5129999999999,2778.5700000000002));
#76=IFCCARTESIANPOINT((3836.4630000000002,2836.4630000000002));
#77=IFCCARTESIANPOINT((3778.5700000000002,2889.5129999999999));
#78=IFCCARTESIANPOINT((3716.2730000000001,2937.3150000000001));
#79=IFCCARTESIANPOINT((3650.0479999999998,2979.5050000000001));
#80=IFCCARTESIANPOINT((3580.3969999999999,3015.7629999999999));
#81=IFCCARTESIANPOINT((3507.8510000000001,3045.8130000000001));
#82=IFCCARTESIANPOINT((3432.962,3069.4250000000002));
#83=IFCCARTESIANPOINT((3356.3000000000002,3086.4209999999998));
#84=IFCCARTESIANPOINT((3278.4479999999999,3096.6700000000001));
#85=IFCCARTESIANPOINT((3202.1819999999998,3100.));
#86=IFCCARTESIANPOINT((797.81799999999998,3100.));
#87=IFCCARTESIANPOINT((721.55200000000002,3096.6700000000001));
#88=IFCCARTESIANPOINT((643.70000000000005,3086.4209999999998));
#89=IFCCARTESIANPOINT((567.03800000000001,3069.4250000000002));
#90=IFCCARTESIANPOINT((492.149,3045.8130000000001));
#91=IFCCARTESIANPOINT((419.60300000000001,3015.7629999999999));
#92=IFCCARTESIANPOINT((349.952,2979.5050000000001));
#93=IFCCARTESIANPOINT((283.72699999999998,2937.3150000000001));
#94=IFCCARTESIANPOINT((221.43000000000001,2889.5129999999999));
#95=IFCCARTESIANPOINT((163.53700000000001,2836.4630000000002));
#96=IFCCARTESIANPOINT((110.48699999999999,2778.5700000000002));
#97=IFCCARTESIANPOINT((62.685000000000002,2716.2730000000001));
#98=IFCCARTESIANPOINT((20.495000000000001,2650.0479999999998));
#99=IFCCARTESIANPOINT((-15.763,2580.3969999999999));
#100=IFCCARTESIANPOINT((-45.813000000000002,2507.8510000000001));
#101=IFCCARTESIANPOINT((-69.424999999999997,2432.962));
#102=IFCCARTESIANPOINT((-86.421000000000006,2356.3000000000002));
#103=IFCCARTESIANPOINT((-96.670000000000002,2278.4479999999999));
#104=IFCCARTESIANPOINT((-100.,2202.1819999999998));
#105=IFCCARTESIANPOINT((-100.,797.81799999999998));
#106=IFCPOLYLINE((#29,#30,#31,#32,#33,#34,#35,#36,#37,#38,#39,#40,#41,#42,#43,#44,#45,#46,#47,#48,#49,#50,#51,#52,#53,#54,#55,#56,#57,#58,#59,#60,#61,#62,#63,#64,#65,#66,#67,#68,#69,#70,#71,#72,#73,#74,#75,#76,#77,#78,#79,#80,#81,#82,#83,#84,#85,#86,#87,#88,#89,#90,#91,#92,#93,#94,#95,#96,#97,#98,#99,#100,#101,#102,#103,#104,#105));
#107=IFCCARTESIANPOINT((100.,2197.8180000000002));
#108=IFCCARTESIANPOINT((102.759,2261.0010000000002));
#109=IFCCARTESIANPOINT((110.72799999999999,2321.5369999999998));
#110=IFCCARTESIANPOINT((123.944,2381.1489999999999));
#111=IFCCARTESIANPOINT((142.30500000000001,2439.3820000000001));
#112=IFCCARTESIANPOINT((165.67099999999999,2495.7930000000001));
#113=IFCCARTESIANPOINT((193.86500000000001,2549.9520000000002));
#114=IFCCARTESIANPOINT((226.672,2601.4490000000001));
#115=IFCCARTESIANPOINT((263.84199999999998,2649.8899999999999));
#116=IFCCARTESIANPOINT((305.09300000000002,2694.9070000000002));
#117=IFCCARTESIANPOINT((350.11000000000001,2736.1579999999999));
#118=IFCCARTESIANPOINT((398.55099999999999,2773.328));
#119=IFCCARTESIANPOINT((450.048,2806.1350000000002));
#120=IFCCARTESIANPOINT((504.20699999999999,2834.3290000000002));
#121=IFCCARTESIANPOINT((560.61800000000005,2857.6950000000002));
#122=IFCCARTESIANPOINT((618.851,2876.056));
#123=IFCCARTESIANPOINT((678.46299999999997,2889.2719999999999));
#124=IFCCARTESIANPOINT((738.99900000000002,2897.241));
#125=IFCCARTESIANPOINT((802.18200000000002,2900.));
#126=IFCCARTESIANPOINT((3197.8180000000002,2900.));
#127=IFCCARTESIANPOINT((3261.0010000000002,2897.241));
#128=IFCCARTESIANPOINT((3321.5369999999998,2889.2719999999999));
#129=IFCCARTESIANPOINT((3381.1489999999999,2876.056));
#130=IFCCARTESIANPOINT((3439.3820000000001,2857.6950000000002));
#131=IFCCARTESIANPOINT((3495.7930000000001,2834.3290000000002));
#132=IFCCARTESIANPOINT((3549.9520000000002,2806.1350000000002));
#133=IFCCARTESIANPOINT((3601.4490000000001,2773.328));
#134=IFCCARTESIANPOINT((3649.8899999999999,2736.1579999999999));
#135=IFCCARTESIANPOINT((3694.9070000000002,2694.9070000000002));
#136=IFCCARTESIANPOINT((3736.1579999999999,2649.8899999999999));
#137=IFCCARTESIANPOINT((3773.328,2601.4490000000001));
#138=IFCCARTESIANPOINT((3806.1350000000002,2549.9520000000002));
#139=IFCCARTESIANPOINT((3834.3290000000002,2495.7930000000001));
#140=IFCCARTESIANPOINT((3857.6950000000002,2439.3820000000001));
#141=IFCCARTESIANPOINT((3876.056,2381.1489999999999));
#142=IFCCARTESIANPOINT((3889.2719999999999,2321.5369999999998));
#143=IFCCARTESIANPOINT((3897.241,2261.0010000000002));
#144=IFCCARTESIANPOINT((3900.,2197.8180000000002));
#145=IFCCARTESIANPOINT((3900.,802.18200000000002));
#146=IFCCARTESIANPOINT((3897.241,738.99900000000002));
#147=IFCCARTESIANPOINT((3889.2719999999999,678.46299999999997));
#148=IFCCARTESIANPOINT((3876.056,618.851));
#149=IFCCARTESIANPOINT((3857.6950000000002,560.61800000000005));
#150=IFCCARTESIANPOINT((3834.3290000000002,504.20699999999999));
#151=IFCCARTESIANPOINT((3806.1350000000002,450.048));
#152=IFCCARTESIANPOINT((3773.328,398.55099999999999));
#153=IFCCARTESIANPOINT((3736.1579999999999,350.11000000000001));
#154=IFCCARTESIANPOINT((3694.9070000000002,305.09300000000002));
#155=IFCCARTESIANPOINT((3649.8899999999999,263.84199999999998));
#156=IFCCARTESIANPOINT((3601.4490000000001,226.672));
#157=IFCCARTESIANPOINT((3549.9520000000002,193.86500000000001));
#158=IFCCARTESIANPOINT((3495.7930000000001,165.67099999999999));
#159=IFCCARTESIANPOINT((3439.3820000000001,142.30500000000001));
#160=IFCCARTESIANPOINT((3381.1489999999999,123.944));
#161=IFCCARTESIANPOINT((3321.5369999999998,110.72799999999999));
#162=IFCCARTESIANPOINT((3261.0010000000002,102.759));
#163=IFCCARTESIANPOINT((3197.8180000000002,100.));
#164=IFCCARTESIANPOINT((802.18200000000002,100.));
#165=IFCCARTESIANPOINT((738.99900000000002,102.759));
#166=IFCCARTESIANPOINT((678.46299999999997,110.72799999999999));
#167=IFCCARTESIANPOINT((618.851,123.944));
#168=IFCCARTESIANPOINT((560.61800000000005,142.30500000000001));
#169=IFCCARTESIANPOINT((504.20699999999999,165.67099999999999));
#170=IFCCARTESIANPOINT((450.048,193.86500000000001));
#171=IFCCARTESIANPOINT((398.55099999999999,226.672));
#172=IFCCARTESIANPOINT((350.11000000000001,263.84199999999998));
#173=IFCCARTESIANPOINT((305.09300000000002,305.09300000000002));
#174=IFCCARTESIANPOINT((263.84199999999998,350.11000000000001));
#175=IFCCARTESIANPOINT((226.672,398.55099999999999));
#176=IFCCARTESIANPOINT((193.86500000000001,450.048));
#177=IFCCARTESIANPOINT((165.67099999999999,504.20699999999999));
#178=IFCCARTESIANPOINT((142.30500000000001,560.61800000000005));
#179=IFCCARTESIANPOINT((123.944,618.851));
#180=IFCCARTESIANPOINT((110.72799999999999,678.46299999999997));
#181=IFCCARTESIANPOINT((102.759,738.99900000000002));
#182=IFCCARTESIANPOINT((100.,802.18200000000002));
#183=IFCCARTESIANPOINT((100.,2197.8180000000002));
#184=IFCPOLYLINE((#107,#108,#109,#110,#111,#112,#113,#114,#115,#116,#117,#118,#119,#120,#121,#122,#123,#124,#125,#126,#127,#128,#129,#130,#131,#132,#133,#134,#135,#136,#137,#138,#139,#140,#141,#142,#143,#144,#145,#146,#147,#148,#149,#150,#151,#152,#153,#154,#155,#156,#157,#158,#159,#160,#161,#162,#163,#164,#165,#166,#167,#168,#169,#170,#171,#172,#173,#174,#175,#176,#177,#178,#179,#180,#181,#182,#183));
#185=IFCARBITRARYPROFILEDEFWITHVOIDS(.AREA.,$,#106,(#184));
#186=IFCCARTESIANPOINT((0.,0.,0.));
#187=IFCDIRECTION((0.,0.,1.));
#188=IFCDIRECTION((1.,0.,0.));
#189=IFCAXIS2PLACEMENT3D(#186,#187,#188);
#190=IFCDIRECTION((0.,0.,1.));
#191=IFCEXTRUDEDAREASOLID(#185,#189,#190,3000.);
#192=IFCSHAPEREPRESENTATION(#12,'Body','SweptSolid',(#191));
#193=IFCPRODUCTDEFINITIONSHAPE($,$,(#192));
#194=IFCWALL('3sqJTYhafBOxtrvaJGSqdA',$,'Fillet_rect_wall',$,$,#205,#193,$,$);
#200=IFCRELCONTAINEDINSPATIALSTRUCTURE('2I6xoEnm93IQLwGo4ctz1v',$,$,$,(#194),#17);
#201=IFCCARTESIANPOINT((0.,0.,0.));
#202=IFCDIRECTION((0.,0.,1.));
#203=IFCDIRECTION((1.,0.,0.));
#204=IFCAXIS2PLACEMENT3D(#201,#202,#203);
#205=IFCLOCALPLACEMENT(#28,#204);
#206=IFCPROPERTYSINGLEVALUE('Name',$,IFCLABEL('Fillet_rect_wall'),$);
#207=IFCPROPERTYSET('0K4zo8lRnAFgtC2hWfRF02',$,'EPset_IfcKit_Geometry',$,(#206));
#208=IFCRELDEFINESBYPROPERTIES('2fWfcDcOL3_RrQs7bekI9b',$,$,$,(#194),#207);
#209=IFCCOLOURRGB($,0.50196078431372548,0.50196078431372548,0.50196078431372548);
#210=IFCSURFACESTYLERENDERING(#209,0.,$,$,$,$,$,$,.FLAT.);
#211=IFCSURFACESTYLE($,.BOTH.,(#210));
#212=IFCSTYLEDITEM(#191,(#211),$);
ENDSEC;
END-ISO-10303-21;
