ISO-10303-21;
HEADER;
FILE_DESCRIPTION(('ViewDefinition [CoordinationView]'),'2;1');
FILE_NAME('','2026-05-15T11:48:21',(''),(''),'IfcOpenShell 0.8.5-1c5b825','IfcOpenShell 0.8.5-1c5b825','');
FILE_SCHEMA(('IFC4'));
ENDSEC;
DATA;
#1=IFCPROJECT('1HryyNvr98R850TXRLN271',$,'Unnamed Project',$,$,$,$,(#11),#6);
#2=IFCSIUNIT(*,.LENGTHUNIT.,.MILLI.,.METRE.);
#3=IFCSIUNIT(*,.AREAUNIT.,$,.SQUARE_METRE.);
#4=IFCSIUNIT(*,.VOLUMEUNIT.,$,.CUBIC_METRE.);
#5=IFCSIUNIT(*,.PLANEANGLEUNIT.,$,.RADIAN.);
#6=IFCUNITASSIGNMENT((#3,#5,#4,#2));
#7=IFCCARTESIANPOINT((0.,0.,0.));
#8=IFCDIRECTION((0.,0.,1.));
#9=IFCDIRECTION((1.,0.,0.));
#10=IFCAXIS2PLACEMENT3D(#7,#8,#9);
#11=IFCGEOMETRICREPRESENTATIONCONTEXT($,'Model',3,1.0000000000000001E-05,#10,$);
#12=IFCGEOMETRICREPRESENTATIONSUBCONTEXT('Body','Model',*,*,*,*,#11,$,.MODEL_VIEW.,$);
#13=IFCSITE('2uI4WIJHzFmviEZJa$Uhi5',$,'Site',$,$,$,$,$,$,$,$,$,$,$);
#14=IFCRELAGGREGATES('1cNQ8QHjP2CwSbryRdR8oG',$,$,$,#1,(#13));
#15=IFCBUILDING('10oXJsNUf7iRiDnStp_v4D',$,'Building',$,$,$,$,$,$,$,$,$);
#16=IFCRELAGGREGATES('1y2djysyT4wxJDNt6GA8cg',$,$,$,#13,(#15));
#17=IFCBUILDINGSTOREY('1If_CK9gbDDxGFMCR5N$Xm',$,'Storey',$,$,#28,$,$,$,0.);
#23=IFCRELAGGREGATES('2USWCB2bLFnufLli7s0spT',$,$,$,#15,(#17));
#24=IFCCARTESIANPOINT((0.,0.,0.));
#25=IFCDIRECTION((0.,0.,1.));
#26=IFCDIRECTION((1.,0.,0.));
#27=IFCAXIS2PLACEMENT3D(#24,#25,#26);
#28=IFCLOCALPLACEMENT($,#27);
#29=IFCCARTESIANPOINT((0.,-100.));
#30=IFCCARTESIANPOINT((2002.182,-100.));
#31=IFCCARTESIANPOINT((2183.0349999999999,-92.103999999999999));
#32=IFCCARTESIANPOINT((2364.6779999999999,-68.189999999999998));
#33=IFCCARTESIANPOINT((2543.5450000000001,-28.536000000000001));
#34=IFCCARTESIANPOINT((2718.2750000000001,26.556000000000001));
#35=IFCCARTESIANPOINT((2887.5390000000002,96.667000000000002));
#36=IFCCARTESIANPOINT((3050.0479999999998,181.26400000000001));
#37=IFCCARTESIANPOINT((3204.5650000000001,279.70299999999997));
#38=IFCCARTESIANPOINT((3349.915,391.23399999999998));
#39=IFCCARTESIANPOINT((3484.9920000000002,515.00800000000004));
#40=IFCCARTESIANPOINT((3608.7660000000001,650.08500000000004));
#41=IFCCARTESIANPOINT((3720.297,795.43499999999995));
#42=IFCCARTESIANPOINT((3818.7359999999999,949.952));
#43=IFCCARTESIANPOINT((3903.3330000000001,1112.461));
#44=IFCCARTESIANPOINT((3973.444,1281.7249999999999));
#45=IFCCARTESIANPOINT((4028.5360000000001,1456.4549999999999));
#46=IFCCARTESIANPOINT((4068.1900000000001,1635.3219999999999));
#47=IFCCARTESIANPOINT((4092.1039999999998,1816.9649999999999));
#48=IFCCARTESIANPOINT((4100.0950000000003,2000.));
#49=IFCCARTESIANPOINT((4092.1039999999998,2183.0349999999999));
#50=IFCCARTESIANPOINT((4068.1900000000001,2364.6779999999999));
#51=IFCCARTESIANPOINT((4028.5360000000001,2543.5450000000001));
#52=IFCCARTESIANPOINT((3973.444,2718.2750000000001));
#53=IFCCARTESIANPOINT((3903.3330000000001,2887.5390000000002));
#54=IFCCARTESIANPOINT((3818.7359999999999,3050.0479999999998));
#55=IFCCARTESIANPOINT((3720.297,3204.5650000000001));
#56=IFCCARTESIANPOINT((3608.7660000000001,3349.915));
#57=IFCCARTESIANPOINT((3484.9920000000002,3484.9920000000002));
#58=IFCCARTESIANPOINT((3349.915,3608.7660000000001));
#59=IFCCARTESIANPOINT((3204.5650000000001,3720.297));
#60=IFCCARTESIANPOINT((3050.0479999999998,3818.7359999999999));
#61=IFCCARTESIANPOINT((2887.5390000000002,3903.3330000000001));
#62=IFCCARTESIANPOINT((2718.2750000000001,3973.444));
#63=IFCCARTESIANPOINT((2543.5450000000001,4028.5360000000001));
#64=IFCCARTESIANPOINT((2364.6779999999999,4068.1900000000001));
#65=IFCCARTESIANPOINT((2183.0349999999999,4092.1039999999998));
#66=IFCCARTESIANPOINT((2002.182,4100.));
#67=IFCCARTESIANPOINT((0.,4100.));
#68=IFCCARTESIANPOINT((-2100.,4100.));
#69=IFCCARTESIANPOINT((-2100.,0.));
#70=IFCCARTESIANPOINT((-1900.,0.));
#71=IFCCARTESIANPOINT((-1900.,3900.));
#72=IFCCARTESIANPOINT((0.,3900.));
#73=IFCCARTESIANPOINT((1997.818,3900.));
#74=IFCCARTESIANPOINT((2165.5880000000002,3892.6750000000002));
#75=IFCCARTESIANPOINT((2329.915,3871.0410000000002));
#76=IFCCARTESIANPOINT((2491.732,3835.1669999999999));
#77=IFCCARTESIANPOINT((2649.806,3785.326));
#78=IFCCARTESIANPOINT((2802.9340000000002,3721.8980000000001));
#79=IFCCARTESIANPOINT((2949.9520000000002,3645.366));
#80=IFCCARTESIANPOINT((3089.741,3556.3110000000001));
#81=IFCCARTESIANPOINT((3221.2350000000001,3455.4110000000001));
#82=IFCCARTESIANPOINT((3343.4360000000001,3343.4360000000001));
#83=IFCCARTESIANPOINT((3455.4110000000001,3221.2350000000001));
#84=IFCCARTESIANPOINT((3556.3110000000001,3089.741));
#85=IFCCARTESIANPOINT((3645.366,2949.9520000000002));
#86=IFCCARTESIANPOINT((3721.8980000000001,2802.9340000000002));
#87=IFCCARTESIANPOINT((3785.326,2649.806));
#88=IFCCARTESIANPOINT((3835.1669999999999,2491.732));
#89=IFCCARTESIANPOINT((3871.0410000000002,2329.915));
#90=IFCCARTESIANPOINT((3892.6750000000002,2165.5880000000002));
#91=IFCCARTESIANPOINT((3899.9050000000002,2000.));
#92=IFCCARTESIANPOINT((3892.6750000000002,1834.412));
#93=IFCCARTESIANPOINT((3871.0410000000002,1670.085));
#94=IFCCARTESIANPOINT((3835.1669999999999,1508.268));
#95=IFCCARTESIANPOINT((3785.326,1350.194));
#96=IFCCARTESIANPOINT((3721.8980000000001,1197.066));
#97=IFCCARTESIANPOINT((3645.366,1050.048));
#98=IFCCARTESIANPOINT((3556.3110000000001,910.25900000000001));
#99=IFCCARTESIANPOINT((3455.4110000000001,778.76499999999999));
#100=IFCCARTESIANPOINT((3343.4360000000001,656.56399999999996));
#101=IFCCARTESIANPOINT((3221.2350000000001,544.58900000000006));
#102=IFCCARTESIANPOINT((3089.741,443.68900000000002));
#103=IFCCARTESIANPOINT((2949.9520000000002,354.63400000000001));
#104=IFCCARTESIANPOINT((2802.9340000000002,278.10199999999998));
#105=IFCCARTESIANPOINT((2649.806,214.67400000000001));
#106=IFCCARTESIANPOINT((2491.732,164.833));
#107=IFCCARTESIANPOINT((2329.915,128.959));
#108=IFCCARTESIANPOINT((2165.5880000000002,107.325));
#109=IFCCARTESIANPOINT((1997.818,100.));
#110=IFCCARTESIANPOINT((0.,100.));
#111=IFCCARTESIANPOINT((0.,-100.));
#112=IFCPOLYLINE((#29,#30,#31,#32,#33,#34,#35,#36,#37,#38,#39,#40,#41,#42,#43,#44,#45,#46,#47,#48,#49,#50,#51,#52,#53,#54,#55,#56,#57,#58,#59,#60,#61,#62,#63,#64,#65,#66,#67,#68,#69,#70,#71,#72,#73,#74,#75,#76,#77,#78,#79,#80,#81,#82,#83,#84,#85,#86,#87,#88,#89,#90,#91,#92,#93,#94,#95,#96,#97,#98,#99,#100,#101,#102,#103,#104,#105,#106,#107,#108,#109,#110,#111));
#113=IFCARBITRARYCLOSEDPROFILEDEF(.AREA.,$,#112);
#114=IFCCARTESIANPOINT((0.,0.,0.));
#115=IFCDIRECTION((0.,0.,1.));
#116=IFCDIRECTION((1.,0.,0.));
#117=IFCAXIS2PLACEMENT3D(#114,#115,#116);
#118=IFCDIRECTION((0.,0.,1.));
#119=IFCEXTRUDEDAREASOLID(#113,#117,#118,3000.);
#120=IFCSHAPEREPRESENTATION(#12,'Body','SweptSolid',(#119));
#121=IFCPRODUCTDEFINITIONSHAPE($,$,(#120));
#122=IFCWALL('3SOehkfGj6SBTPXoZx9FRn',$,'Arc_wall',$,$,#133,#121,$,$);
#128=IFCRELCONTAINEDINSPATIALSTRUCTURE('0eWVdpCjjELBY1gVYt4VD_',$,$,$,(#122),#17);
#129=IFCCARTESIANPOINT((0.,0.,0.));
#130=IFCDIRECTION((0.,0.,1.));
#131=IFCDIRECTION((1.,0.,0.));
#132=IFCAXIS2PLACEMENT3D(#129,#130,#131);
#133=IFCLOCALPLACEMENT(#28,#132);
#134=IFCPROPERTYSINGLEVALUE('Name',$,IFCLABEL('Arc_wall'),$);
#135=IFCPROPERTYSET('2RlTATRzL7ZQ6cbU3CpZVN',$,'EPset_IfcKit_Geometry',$,(#134));
#136=IFCRELDEFINESBYPROPERTIES('0YuGRxggH3FhXoUSiuSW65',$,$,$,(#122),#135);
#137=IFCCOLOURRGB($,0.50196078431372548,0.50196078431372548,0.50196078431372548);
#138=IFCSURFACESTYLERENDERING(#137,0.,$,$,$,$,$,$,.FLAT.);
#139=IFCSURFACESTYLE($,.BOTH.,(#138));
#140=IFCSTYLEDITEM(#119,(#139),$);
ENDSEC;
END-ISO-10303-21;
